<?xml version="1.0" encoding="UTF-8"?>
<svg id="Ebene_1" data-name="Ebene 1" xmlns="http://www.w3.org/2000/svg" viewBox="0 0 951 45.14">
  <defs>
    <style>
      .cls-1 {
        fill: #00ff80;
      }

      .cls-2 {
        fill: #00fe7f;
      }

      .cls-3 {
        fill: #8f9091;
      }

      .cls-4 {
        fill: #3f4142;
      }
    </style>
  </defs>
  <g id="Gruppe_7012" data-name="Gruppe 7012">
    <rect id="Rechteck_2609" data-name="Rechteck 2609" class="cls-1" y="30.14" width="44" height="15"/>
    <rect id="Rechteck_2610" data-name="Rechteck 2610" class="cls-4" x="46" y="30.14" width="44" height="15"/>
    <rect id="Rechteck_2611" data-name="Rechteck 2611" class="cls-4" x="92" y="30.14" width="44" height="15"/>
    <path id="Pfad_4020-2" data-name="Pfad 4020-2" class="cls-3" d="m8.84,3.13c0-.43,0-.76.02-1s.02-.41.03-.53c0-.08.02-.16.03-.24,0-.04.03-.07.05-.1.16-.23.38-.41.65-.51.14-.03.29-.04.44-.03h.39c.18,0,.35.01.53.03.2,0,.39,0,.54.02s.29.02.41.02c.16,0,.29,0,.41-.02.11-.01.25-.03.41-.05.3-.06.61-.09.92-.1.26-.02.51.04.73.17.19.14.34.33.43.54.06.09.1.2.12.31.01.17.02.34.02.51,0,.21-.01.42-.03.63-.04.29-.1.58-.17.87-.05.25-.1.53-.15.83-.06.31-.1.55-.12.73-.05.21-.08.43-.1.65s-.05.43-.1.65c-.06.39-.1.79-.1,1.19,0,.4.05.8.14,1.19.04.12.07.25.09.37.01.11.02.26.03.44s.02.42.03.71.02.71.02,1.26c.02.86.03,1.47.03,1.84,0,.3.02.59.07.88.05.22.08.44.09.66.01.24.02.54.02.9,0,.25-.01.54-.03.87-.02.32-.08.63-.19.93-.09.28-.25.54-.46.75-.22.21-.51.32-.82.31-.22,0-.44-.04-.65-.1-.18-.05-.33-.08-.46-.1-.12-.02-.24-.03-.36-.03-.2,0-.41.03-.6.1-.19.07-.41.16-.66.27-.14.09-.29.15-.44.19-.12.01-.25.01-.38,0-.11,0-.22,0-.32-.02-.08-.02-.16-.06-.22-.12-.07-.05-.14-.11-.2-.17l-.17-.17c-.1-.14-.17-.29-.2-.46-.02-.23-.02-.47,0-.7.05-.37.05-.75,0-1.12,0-.16,0-.37-.02-.63-.01-.26-.02-.49-.03-.69,0-.22,0-.44-.02-.66-.01-.06-.04-.11-.08-.16-.12-.09-.26-.14-.41-.14-.19,0-.36.11-.44.27-.04.09-.07.18-.09.27,0,.21.02.41.05.61.09.57.1,1.14.05,1.72-.06.44-.2.88-.39,1.28-.1.19-.22.37-.37.53-.13.16-.31.27-.51.32-.13.05-.27.08-.41.09-.16.01-.43.03-.82.05-.25.02-.55.05-.9.07-.29.01-.58.05-.87.1-.34.05-.62.08-.83.1-.17.02-.35.03-.53.03-.52.03-.99-.31-1.12-.81-.08-.35-.11-.71-.08-1.07.01-.51.06-1.01.15-1.51.05-.32.08-.58.12-.78.03-.19.05-.37.05-.56,0-.17,0-.35-.02-.53-.01-.21-.04-.41-.08-.61-.06-.35-.09-.7-.1-1.05,0-.25.02-.63.07-1.16.05-.35.07-.71.07-1.07v-3.18c0-.32-.01-.59-.03-.82s-.05-.43-.08-.61c-.03-.18-.08-.42-.15-.71-.07-.41-.12-.82-.14-1.24-.03-.32,0-.65.07-.97.08-.52.42-.96.9-1.17.47-.19.97-.29,1.48-.29.1,0,.2,0,.31.02.1.01.2.02.31.02.18.02.36.03.54.03h2.04c.23,0,.47.04.68.14.18.09.27.29.27.61v.37c0,.18,0,.4-.02.66-.01.26-.03.54-.05.85s-.06.6-.1.87c-.02.32-.05.58-.07.8-.02.22-.04.4-.05.56-.01.14-.01.28,0,.43.01.12.02.27.02.43.02.16.05.35.09.58.03.23.07.45.1.66.03.22.06.4.09.56,0,.1.03.21.07.31.11.18.3.28.51.27.13,0,.26-.02.37-.07.11-.04.19-.14.22-.26.05-.31.08-.62.09-.94,0-.43.02-.86.07-1.29.05-.41.11-.88.2-1.43.02-.16.04-.3.05-.43.01-.12.02-.27.03-.44.01-.17.02-.37.03-.61s.02-.56.02-.97Zm19.28,2.72c.05.23.08.44.1.63.02.29,0,.58-.03.87-.02.2-.03.4-.02.6.01.15.04.36.08.63.05.39.07.73.08,1.02.01.26,0,.52-.05.78-.11.62-.4,1.19-.85,1.63-.44.45-.99.78-1.6.95-.23.07-.4.12-.51.17-.13.06-.24.14-.34.24-.45.34-.93.63-1.44.87-.52.21-1.09.31-1.65.29-.15,0-.3-.02-.44-.07-.05-.02-.11-.04-.17-.03v.39c0,.26.01.56.03.9s.04.67.05.99c0,.23.02.45.05.68.03.15.04.31.05.46.01.19.02.37.02.53.02.34-.05.68-.22.98-.23.26-.59.39-.93.34h-.25c-.1,0-.19-.01-.29-.03-.11,0-.32,0-.63-.02l-.93-.03c-.32-.01-.61-.03-.88-.05-.17,0-.35-.03-.51-.1-.3-.18-.53-.45-.65-.78-.07-.13-.12-.26-.17-.37-.05-.13-.08-.26-.1-.39-.02-.15-.04-.33-.05-.56-.01-.23-.02-.52-.02-.88-.02-.36-.04-.75-.05-1.16,0-.31-.03-.62-.09-.92-.05-.54-.07-1.08-.05-1.61.01-.67.07-1.33.15-1.99.05-.54.09-1,.12-1.36s.05-.71.05-1.05-.01-.7-.03-1.09c-.02-.39-.06-.85-.1-1.39-.02-.41-.05-.83-.07-1.27-.02-.44-.04-.87-.05-1.27-.01-.36,0-.71.02-1.07.01-.21.03-.42.07-.63.08-.33.25-.63.48-.88.1-.13.25-.21.41-.24.11-.02.23-.03.34-.03h1.21c.33,0,.66,0,1,.02s.66.03.95.07c.22.02.43.06.65.12.11.05.22.07.34.07h.85c.13,0,.25-.01.37-.03l.95-.1c.1,0,.19,0,.29-.02.07-.01.15-.02.22-.02.6,0,1.18.19,1.67.54.49.35.82.87.92,1.46.04.1.08.21.1.32.02.07.03.15.03.22.19.45.45.86.78,1.22.18.23.34.48.48.73.12.24.21.5.27.76Zm-5.98,3.64c.17-.1.33-.22.48-.36.15-.14.26-.31.34-.49.1-.17.16-.36.17-.56-.01-.26-.04-.51-.1-.77-.07-.27-.11-.47-.14-.6-.02-.23-.02-.47,0-.7,0-.26,0-.51-.03-.77-.03-.14-.1-.26-.2-.36-.08-.09-.19-.13-.31-.14-.16,0-.32.04-.48.09-.13.03-.26.08-.37.15-.05.05-.03.22.03.51.05.27.08.52.1.73.02.23.03.45.02.68-.01.27-.04.53-.08.8-.05.29-.11.66-.2,1.09-.08.29-.13.59-.17.88,0,.02.02.03.07.03.15-.01.3-.04.44-.09.15-.04.29-.09.43-.15Z"/>
    <rect id="Rechteck_2612" data-name="Rechteck 2612" class="cls-1" x="163" y="30.14" width="44" height="15"/>
    <rect id="Rechteck_2613" data-name="Rechteck 2613" class="cls-4" x="209" y="30.14" width="44" height="15"/>
    <rect id="Rechteck_2614" data-name="Rechteck 2614" class="cls-4" x="255" y="30.14" width="44" height="15"/>
    <path id="Pfad_4021-2" data-name="Pfad 4021-2" class="cls-3" d="m173.17,8.06c.07-.15.12-.31.15-.48.06-.23.11-.46.15-.71.07-.29.12-.53.15-.7s.07-.32.1-.46c.03-.13.07-.26.12-.39.05-.12.1-.28.17-.46.14-.32.25-.66.34-1,.08-.38.14-.76.17-1.14.02-.31.06-.63.12-.93.03-.15.11-.28.22-.39.11-.11.24-.19.39-.24.23-.05.46-.08.7-.07h.37c.34,0,.58,0,.73-.02s.35-.04.6-.08c.36-.07.68-.12.95-.15.26-.03.52-.05.78-.05.45-.05.9.05,1.29.29.27.29.41.68.41,1.07.02.17.02.35,0,.53-.02.17-.07.46-.14.87-.05.23-.08.41-.1.56-.02.15-.04.29-.05.43-.01.13-.02.27-.03.43s-.02.35-.02.6v1c0,.3.02.6.07.9.1,1.01.14,2.02.12,3.03-.01,1.13-.06,2.19-.15,3.16-.04.26-.07.53-.07.8v.93c.02.7.04,1.26.05,1.68s.02.74.02.97v.46c0,.08-.01.15-.03.22-.04.35-.26.65-.58.78l-.2.1c-.08.03-.16.04-.24.03-.07,0-.13,0-.2-.02-.1-.01-.2-.02-.31-.02h-.73c-.32,0-.58,0-.8.02-.23.01-.47.04-.7.08-.16.04-.33.07-.49.07h-.39c-.15,0-.3,0-.44-.03-.25-.12-.44-.34-.51-.61-.12-.64-.12-1.3,0-1.94l.2-1.43c.07-.48.12-.9.17-1.26.02-.16.05-.33.07-.51s.05-.33.07-.44c.08-.32.03-.66-.14-.95-.07-.09-.12-.14-.17-.14s-.13.08-.26.24c-.17.16-.32.35-.44.54-.1.16-.19.33-.27.51-.04.11-.07.22-.09.34-.01.11-.02.35-.02.71,0,.43,0,.7-.02.82-.02.13-.09.25-.19.34-.16.13-.35.22-.56.24-.22.04-.44.06-.66.07-.26.01-.51-.07-.71-.24-.24-.24-.42-.53-.54-.85-.13-.29-.3-.57-.51-.82-.14-.13-.25-.29-.34-.46-.09-.21-.17-.42-.24-.63-.11-.32-.22-.58-.32-.8-.1-.22-.2-.31-.29-.29-.02,0-.04.1-.05.29-.01.19-.02.58-.01,1.17-.02.79-.02,1.45,0,1.95.02.52.08,1.04.17,1.55.12.53.12,1.07,0,1.6-.05.2-.15.38-.27.54-.09.14-.22.26-.37.34-.21.08-.43.11-.65.1h-.41c-.16,0-.35-.01-.58-.03-.1,0-.19,0-.29-.02-.07-.01-.15-.02-.22-.02-.11,0-.23,0-.34.02s-.25.03-.41.05c-.18.02-.35.04-.51.05-.16.01-.31.02-.44.02-.24,0-.48-.02-.72-.07-.54-.07-.85-.29-.92-.68-.05-.25-.07-.51-.03-.77.02-.4.07-.98.14-1.75.07-.68.1-1.25.1-1.72,0-.46-.04-.92-.13-1.38l-.07-.61c-.02-.22-.03-.44-.03-.66v-.81c0-.31.01-.69.03-1.14.02-.36.04-.67.05-.92s.02-.48.02-.68c0-.2,0-.42-.02-.65-.01-.23-.02-.49-.02-.78-.02-.73-.06-1.43-.1-2.11s-.09-1.19-.14-1.53c-.05-.37-.06-.74-.05-1.11,0-.29.03-.58.08-.87.09-.31.27-.6.51-.82.24-.22.56-.34.88-.34.15,0,.3.01.44.03.17.02.34.06.51.1l.58.17.99-.07c.25-.02.5-.03.76-.03h.56c.24.02.48.06.71.12.18.04.36.11.51.22.11.06.19.15.26.25.07.11.11.23.12.36,0,.05.02.22.07.53.05.31.11.66.2,1.07.23,1.02.43,2.1.61,3.23.05.11.13.34.26.68.12.34.26.69.39,1.05.13.36.26.68.39.95l.19.41c.02-.07.04-.14.07-.2.05-.11.1-.24.15-.39s.11-.3.17-.46c.06-.16.1-.29.12-.38ZM190.2.04c.78.03,1.53.3,2.14.78.18.14.38.26.58.37.22.09.45.16.68.2.46.11.89.32,1.26.61.31.26.55.58.71.95.16.38.27.79.31,1.21.05.46.07.92.07,1.38,0,.43,0,.75.02.97.01.21.04.42.08.63.07.32.1.64.1.97,0,.44-.04.87-.1,1.31-.02.39-.04.71-.05.99-.01.26,0,.51.02.76.03.26.07.51.12.76.06.27.14.6.26.99.48,1.32.69,2.72.61,4.12-.03.27-.08.54-.14.8-.06.29-.17.57-.31.83-.13.24-.3.46-.51.65-.21.18-.47.28-.75.27h-.26c-.1,0-.2-.03-.29-.07-.1-.04-.2-.06-.31-.07h-.56c-.13,0-.26.01-.39.03-.1.02-.2.03-.31.03h-.27c-.53.04-1.06-.17-1.41-.57-.32-.42-.5-.93-.53-1.46-.02-.3-.06-.6-.12-.9-.08-.36-.19-.72-.32-1.07-.09-.2-.13-.42-.14-.65-.04-.21-.1-.41-.19-.6-.11-.19-.32-.29-.53-.26-.21,0-.41.12-.51.31l-.14.17.03,1.09v.93c0,.19.02.38.07.56.09.52.06,1.06-.1,1.56-.25.94-1.14,1.57-2.11,1.5h-.36c-.09,0-.17,0-.25-.03l-.72-.24c-.13-.05-.27-.09-.42-.12-.11-.03-.21-.04-.32-.05-.18,0-.33,0-.44.02-.15.02-.3.05-.44.08-.08.04-.17.07-.25.07h-.19c-.21-.06-.39-.2-.51-.37-.17-.23-.3-.5-.37-.78-.05-.25-.08-.5-.07-.75,0-.36.02-.73.07-1.09.11-.77.11-1.55,0-2.31-.04-.23-.07-.47-.08-.7-.01-.19,0-.55.02-1.07,0-.66.02-1.21.07-1.65.05-.44.12-.95.24-1.51.07-.27.12-.54.15-.82.01-.16.02-.4.02-.71,0-.32-.01-.65-.05-.97-.07-.44-.16-.88-.29-1.31-.11-.48-.19-.88-.24-1.21-.05-.36-.06-.71-.03-1.07,0-.35.04-.71.12-1.05.07-.31.17-.62.29-.92.05-.13.09-.26.14-.37.06-.17.18-.32.34-.41.2-.12.41-.22.63-.29.23-.08.47-.14.71-.19.18-.04.37-.06.56-.07.45.01.89.07,1.33.17.28.06.56.09.85.1.16,0,.32-.02.48-.05l.54-.12c.45-.11.8-.19,1.04-.22.24-.03.48-.06.73-.08Zm-.48,10.44c.13.02.27-.02.37-.1.16-.2.29-.42.37-.66.11-.23.18-.48.2-.73,0-.08-.02-.16-.03-.24-.03-.13-.06-.25-.1-.37-.18-.61-.18-1.26,0-1.87.15-.38.25-.77.31-1.17.03-.23-.02-.46-.14-.66-.18-.35-.56-.56-.95-.51-.26-.02-.51.05-.73.19-.19.15-.33.34-.42.56-.06.16-.1.34-.12.51,0,.21,0,.41.05.61.04.26.06.53.05.8-.02.3-.06.6-.12.9-.06.26-.09.52-.1.78.02.09.05.22.08.37.03.16.07.32.12.48s.09.3.14.43c.05.12.08.21.1.26.22.29.56.45.92.44Zm16.56,2.45c.02.1.05.2.08.29.01.01.03,0,.05-.05.03-.09.04-.18.03-.27,0-.16.01-.32.03-.48,0-.16.01-.39.03-.68s.05-.58.07-.85c.05-.56.06-1.12.05-1.68,0-.43-.04-.85-.12-1.27-.07-.36-.12-.65-.15-.85-.04-.2-.06-.42-.08-.65-.02-.23-.03-.52-.03-.87v-3.09c0-.28,0-.57.03-.85,0-.14.04-.27.1-.39.06-.09.13-.17.2-.24.13-.15.3-.26.49-.31.29-.05.58-.08.87-.07.18,0,.4,0,.66-.02s.48-.03.66-.05c.29-.05.59-.07.88-.07h.88c.18,0,.36.03.53.08.17.04.32.16.39.32.05.09.08.19.08.29.01.12.02.49.02,1.1.02.34.03.7.03,1.07,0,.28,0,.56.03.83.02.34.04.66.05.95.01.31,0,.61-.02.92-.02.32-.05.66-.08,1.02-.03.36-.08.77-.15,1.22-.09.57-.15,1.01-.17,1.34-.02.42-.02.85,0,1.27.07,1.29.12,2.39.15,3.3.04.91.04,1.67.02,2.28,0,.54-.02,1-.05,1.36-.02.3-.08.61-.15.9-.05.21-.14.4-.26.58-.11.15-.24.28-.39.39-.19.13-.42.2-.65.2-.3-.01-.6-.06-.88-.14-.31-.09-.57-.14-.76-.18-.19-.03-.37-.05-.56-.05-.11,0-.21,0-.32.02-.1.01-.22.03-.36.05-.16.02-.29.04-.39.05-.08.01-.17.02-.26.02-.04,0-.08,0-.12-.02s-.08-.02-.12-.02c-.16-.02-.31-.06-.46-.14-.14-.09-.26-.21-.34-.36-.13-.23-.24-.47-.33-.72-.11-.31-.25-.71-.41-1.21-.09-.34-.18-.62-.26-.85-.08-.23-.15-.43-.2-.6-.05-.16-.11-.31-.19-.46-.07-.13-.16-.29-.27-.48l-.41-.71s-.07.15-.07.44c-.02.41-.02.82.02,1.22.03.52.07,1.03.12,1.53.09.51.1,1.03.03,1.55-.06.3-.25.55-.51.7-.15.09-.33.14-.51.14-.22-.01-.43-.05-.65-.1-.27-.06-.54-.1-.82-.1-.17,0-.34.02-.51.05-.16.03-.36.08-.61.15-.38.13-.79.2-1.19.2-.27,0-.54-.06-.78-.18-.24-.15-.37-.42-.34-.7v-2.65c0-.39,0-.7.02-.93s.02-.44.03-.61c.01-.17.03-.37.05-.6.06-.52.1-1.04.1-1.56,0-.5-.04-1-.1-1.5-.08-.47-.14-.94-.17-1.41-.02-.39-.01-.78.03-1.17.07-.86.11-1.59.12-2.19.01-.6,0-1.24-.05-1.92l-.14-2.01c-.02-.18-.04-.37-.05-.56-.01-.19-.02-.35-.02-.46,0-.1,0-.2.02-.31.04-.08.09-.15.15-.2l.41-.27s.08-.07.14-.08c.05-.01.11-.02.19-.03s.19-.02.32-.03c.13-.01.34-.02.61-.02.54-.02.97-.05,1.29-.07.32-.02.71-.07,1.19-.14.12-.02.25-.03.37-.03h.34c.24-.01.48.02.71.1l.44.37c.09.08.17.18.22.29.05.14.09.28.12.42.07.32.13.7.2,1.14.07.44.12.96.17,1.55.05.48.09.88.12,1.22.03.34.08.65.14.94.06.28.12.56.2.83.09.3.2.6.32.88.11.32.2.59.27.82.07.22.12.44.15.66.03.22.06.45.08.7s.05.57.07.95c.02.43.05.77.08,1.02s.08.5.13.75ZM221.48.04c.78.03,1.53.3,2.14.78.18.14.38.26.58.37.22.09.45.16.68.2.46.11.89.32,1.26.61.31.26.55.58.71.95.16.38.27.79.31,1.21.05.46.07.92.07,1.38,0,.43,0,.75.02.97.01.21.04.42.08.63.07.32.1.64.1.97,0,.44-.04.87-.1,1.31-.02.39-.04.71-.05.99-.01.26,0,.51.02.76.03.26.07.51.12.76.06.27.14.6.25.99.48,1.32.69,2.72.61,4.11-.03.27-.08.54-.14.8-.06.29-.17.57-.31.83-.13.24-.3.46-.51.65-.21.18-.47.28-.75.27h-.26c-.1,0-.2-.03-.29-.07-.1-.04-.2-.06-.31-.06h-.56c-.13,0-.26.01-.39.03-.1.02-.2.03-.31.03h-.27c-.53.04-1.06-.17-1.41-.57-.32-.42-.5-.93-.53-1.46-.02-.3-.06-.6-.12-.9-.08-.36-.19-.72-.32-1.07-.09-.2-.13-.42-.14-.65-.04-.21-.1-.41-.19-.6-.11-.19-.32-.29-.53-.26-.21,0-.41.12-.51.31l-.14.17.03,1.09v.93c0,.19.02.38.07.56.09.52.06,1.06-.1,1.56-.25.94-1.14,1.57-2.11,1.5h-.36c-.09,0-.18,0-.26-.04l-.71-.24c-.13-.05-.27-.09-.42-.12-.11-.03-.21-.04-.32-.05-.18,0-.33,0-.44.02-.15.02-.3.05-.44.08-.08.04-.17.07-.26.07h-.19c-.21-.06-.39-.2-.51-.37-.17-.23-.3-.5-.37-.78-.05-.25-.08-.5-.07-.75,0-.36.02-.73.07-1.09.11-.77.11-1.55,0-2.31-.04-.23-.07-.47-.08-.7-.01-.19,0-.55.02-1.07,0-.66.02-1.21.07-1.65.05-.44.13-.95.24-1.51.07-.27.12-.54.15-.82.01-.16.02-.4.02-.71,0-.32-.01-.65-.05-.97-.07-.44-.16-.88-.29-1.31-.11-.48-.19-.88-.24-1.21-.05-.36-.06-.71-.03-1.07,0-.35.04-.71.12-1.05.07-.31.17-.62.29-.92.05-.13.09-.26.14-.37.06-.17.18-.32.34-.41.2-.12.41-.22.63-.29.23-.08.47-.14.71-.19.18-.04.37-.06.56-.07.45.01.89.07,1.33.17.28.06.56.09.85.1.16,0,.32-.02.48-.05l.54-.12c.45-.11.8-.19,1.04-.22s.48-.06.73-.08h0Zm-.48,10.44c.13.02.27-.02.37-.1.16-.2.29-.42.37-.66.11-.23.18-.48.2-.73,0-.08-.02-.16-.03-.24-.03-.13-.06-.25-.1-.37-.18-.61-.18-1.26,0-1.87.15-.38.25-.77.31-1.17.03-.23-.02-.46-.14-.66-.18-.35-.56-.56-.95-.51-.26-.02-.51.05-.73.19-.19.15-.33.34-.42.56-.06.16-.1.34-.12.51,0,.21,0,.41.05.61.04.26.06.53.05.8-.02.3-.06.6-.12.9-.06.26-.09.52-.1.78.02.09.05.22.08.37.03.16.07.32.12.48.05.16.09.3.14.43.05.12.08.21.1.26.22.29.56.45.92.44Z"/>
    <rect id="Rechteck_2615" data-name="Rechteck 2615" class="cls-1" x="326" y="30.14" width="44" height="15"/>
    <rect id="Rechteck_2616" data-name="Rechteck 2616" class="cls-2" x="372" y="30.14" width="44" height="15"/>
    <rect id="Rechteck_2617" data-name="Rechteck 2617" class="cls-4" x="418" y="30.14" width="44" height="15"/>
    <path id="Pfad_4022-2" data-name="Pfad 4022-2" class="cls-3" d="m338.21,2.76c-.05.1-.08.2-.1.31-.02.09-.04.18-.07.27-.16.58-.46,1.1-.88,1.53-.23.22-.45.46-.65.71-.12.16-.22.33-.31.51-.1.2-.24.38-.39.54-.14.16-.3.3-.46.44-.07.02-.12.04-.17.05-.06.01-.11.02-.17.02-.24,0-.48-.04-.7-.14-.22-.11-.44-.25-.63-.41-.25-.18-.51-.37-.78-.56-.18-.14-.37-.26-.58-.36-.1-.03-.2-.04-.31-.03-.36,0-.59.08-.68.24-.05.14-.06.29-.03.44.03.37.18.72.44.99.29.31.63.58,1,.8.39.23.8.43,1.22.6.42.16.78.28,1.07.37.36.09.67.18.92.26.22.07.44.15.65.26.18.09.35.18.49.27s.3.19.46.31c.3.29.55.61.77.97.24.38.46.79.64,1.2.29,1.1.22,2.27-.2,3.33-.37,1.12-1.02,2.13-1.9,2.92-.31.31-.65.59-1.02.83-.33.21-.69.38-1.06.49-.37.11-.75.19-1.14.22-.4.03-.83.05-1.31.05-.24,0-.49-.02-.73-.06-.28-.05-.57-.1-.85-.17s-.56-.15-.82-.24c-.23-.08-.45-.17-.66-.27-.14-.09-.29-.2-.48-.32-.19-.14-.38-.29-.54-.46-.45-.38-.94-.71-1.46-.99-.31-.13-.59-.32-.83-.56-.17-.18-.26-.42-.25-.66,0-.21.05-.42.15-.6.17-.24.39-.45.63-.62.11-.09.22-.18.32-.27s.18-.16.22-.2c.05-.05.13-.14.25-.29.13-.16.25-.32.36-.49.14-.25.3-.49.49-.7.16-.15.33-.27.53-.36.07-.02.14-.05.22-.07.07-.02.15-.03.22-.03.03,0,.07,0,.1-.02s.07-.02.1-.02c.12,0,.24.06.32.15.1.1.27.28.49.53.36.44.77.84,1.22,1.19.3.21.66.31,1.02.31.3.04.59-.08.78-.31.17-.2.27-.44.31-.7.05-.23.04-.47-.03-.7-.04-.07-.07-.13-.12-.19-.06-.08-.14-.16-.22-.22-.12-.11-.24-.22-.37-.32-.16-.12-.33-.25-.5-.39-.17-.13-.33-.26-.46-.37-.09-.08-.19-.15-.31-.2-.05-.02-.17-.07-.37-.14-.2-.07-.43-.15-.68-.24-.43-.16-.79-.29-1.07-.41-.26-.1-.51-.23-.75-.37-.23-.15-.44-.32-.63-.51-.25-.26-.49-.53-.71-.82-.3-.37-.56-.77-.78-1.19-.15-.34-.23-.7-.24-1.06-.02-.26-.01-.52.03-.78.07-.33.16-.66.27-.99l.14-.54c.05-.2.08-.41.1-.61.05-.61.24-1.19.54-1.72.29-.48.68-.89,1.14-1.21.48-.32,1.01-.57,1.56-.73.58-.17,1.18-.26,1.78-.25.58-.01,1.15.05,1.72.17.53.14,1.04.34,1.51.61.27.16.55.29.85.39.35.1.7.19,1.05.25.36.05.71.13,1.05.24.17.06.3.2.34.37.02.08.03.16.02.24,0,.07-.05.23-.11.48Zm10.68,10.68c0,.45,0,.83.02,1.14s.03.57.05.8c.02.23.05.44.07.63.02.2.06.4.1.6.09.48.16.87.2,1.17.04.25.06.5.05.75,0,.16-.04.32-.12.46-.08.12-.18.23-.31.31-.24.16-.53.25-.82.24h-.27c-.1,0-.2-.01-.3-.03-.12-.02-.25-.03-.37-.03h-.34c-.46,0-.91.05-1.36.14-.3.06-.61.09-.92.1-.49.02-.95-.28-1.12-.74-.06-.22-.08-.45-.07-.68,0-.36.02-.73.07-1.09.02-.16.04-.44.05-.83s.02-.84.02-1.34v-.88c0-.25,0-.47.02-.66s.02-.37.03-.54.03-.36.05-.56c.02-.23.04-.41.05-.56s.02-.3.02-.44v-1.11c0-.32,0-.66-.02-1.04s-.03-.66-.05-.87c-.02-.23-.04-.45-.03-.68v-.61l.03-.51h-.27c-.07,0-.2,0-.41.02-.21.01-.41.04-.61.09-.41.05-.75.09-1.04.12-.24.03-.49.05-.73.05-.25.01-.5-.02-.73-.1-.18-.07-.34-.19-.46-.34-.17-.17-.29-.39-.32-.63-.03-.46-.03-.92.02-1.38.04-.31.05-.62.05-.94-.02-.19-.05-.38-.09-.56-.04-.13-.07-.27-.09-.41-.01-.13-.02-.24-.02-.31.01-.36.12-.7.32-1,.16-.32.48-.52.83-.53.12,0,.24.01.36.03.12.02.28.06.46.1.12.04.25.07.37.08.1.01.2.02.31.02h.27c.13,0,.27,0,.41-.02l.39-.03c.08,0,.15-.02.22-.05.06-.03.12-.04.19-.03.11,0,.22-.01.32-.03.15,0,.3-.01.44-.03.16-.02.29-.05.41-.07.17-.04.34-.07.51-.07h.83c.13,0,.26.01.39.03.59.07,1.18.1,1.77.1.23,0,.46,0,.71-.02.25-.01.53-.03.85-.05s.62-.03.9-.03h.8c.43-.03.87,0,1.29.1.28.06.51.25.61.51.04.07.07.15.08.24,0,.12,0,.25-.02.37-.03.24-.05.48-.05.71-.01.36-.02.74-.02,1.12-.05.75-.08,1.25-.1,1.51-.02.23-.06.45-.14.66-.09.22-.24.41-.44.54-.24.13-.51.19-.78.17-.18,0-.4-.01-.66-.03-.29-.03-.58-.07-.87-.14-.27-.05-.48-.09-.61-.12-.1-.03-.2-.05-.31-.05-.09,0-.14.02-.14.07-.05.19-.08.39-.08.6-.01.24-.04.61-.08,1.11-.05.73-.06,1.3-.05,1.72.01.45.05.9.12,1.34.05.33.08.66.08.99.01.38.03.87.05,1.46Zm14.76-12.41c.22.05.44.12.65.22.16.08.31.19.44.32.14.12.26.26.36.42.16.28.3.57.42.87.11.2.23.41.34.63.11.22.2.38.27.49.22.28.37.59.46.94.06.4.07.81.02,1.21-.02.42-.02.84,0,1.26.04.37.05.74.03,1.11-.02.22-.08.43-.17.63-.11.29-.21.56-.29.8-.09.27-.21.52-.36.77-.2.36-.49.65-.85.85-.08.07-.16.12-.26.17-.12.06-.23.12-.36.17-.04.04-.1.08-.15.1-.06.02-.11.05-.15.07-.04.04-.09.07-.14.1-.02,0,.02.12.14.37s.22.45.31.61c.1.21.23.41.37.59.13.17.37.44.71.8.24.25.47.51.66.8.13.25.22.52.26.8.04.28.11.55.2.82.07.18.2.49.41.92.16.3.3.62.42.94.06.12.06.26.02.39-.13.19-.33.32-.56.36-.22.05-.44.08-.66.09-.13,0-.31,0-.54-.02-.23-.01-.53-.03-.91-.05h-.71c-.15,0-.3.01-.44.03-.16.02-.29.04-.41.05s-.22.02-.31.02c-.36.03-.71-.11-.94-.39-.2-.29-.34-.62-.39-.97-.02-.11-.05-.25-.07-.41-.02-.14-.05-.28-.1-.41-.06-.16-.13-.32-.2-.48-.07-.13-.24-.42-.51-.85-.11-.17-.21-.35-.31-.53-.11-.22-.23-.41-.34-.6-.23-.39-.42-.7-.58-.93s-.26-.33-.31-.29c-.02,0-.03.14-.02.43s.04.65.08,1.11c.05.97.07,1.72.07,2.24.02.37-.02.74-.14,1.09-.1.26-.27.48-.49.65-.23.18-.51.3-.8.34-.19.04-.38.05-.58.05-.32.01-.67.02-1.05.02s-.74,0-1.06-.02c-.21,0-.41-.02-.61-.05-.14,0-.28-.05-.39-.14-.09-.08-.16-.17-.22-.27-.1-.19-.15-.41-.14-.63,0-.26.02-.65.07-1.17.02-.23.04-.5.05-.82.01-.32.03-.6.05-.85.02-.23.04-.49.05-.8.01-.31.03-.57.05-.8.05-.52.07-.97.07-1.36s-.02-.87-.07-1.46c-.02-.23-.04-.43-.05-.61s-.02-.39-.03-.61c-.01-.23-.02-.51-.02-.85v-3.32c0-.19,0-.35-.02-.48,0-.11-.03-.22-.05-.32-.22-1.04-.32-2.1-.31-3.16.07-.39.29-.74.61-.99.22-.13.45-.22.7-.27.3-.07.6-.12.9-.15.32-.03.62-.06.92-.08s.54-.03.75-.03c.34,0,.68.01,1.02.05.24.02.48.07.71.15.15.05.3.07.46.07.19,0,.58.01,1.17.03.41,0,.75,0,1.04.02s.53.03.73.05c.2.02.39.05.54.07.17.03.34.06.51.1Zm-2.69,7.38c.04-.08.06-.17.07-.26-.01-.12-.03-.24-.07-.36-.02-.12-.04-.25-.05-.37-.01-.13-.02-.26-.02-.37,0-.11,0-.23-.03-.34-.02-.05-.06-.12-.1-.24-.21-.34-.54-.58-.92-.68,0-.02-.02-.03-.07-.03h-.03s-.07.05-.08.14c-.01.09-.04.29-.08.61-.02.23-.05.5-.07.83-.02.33-.03.65-.03.95s0,.56.02.77c.01.2.03.31.05.31.3-.03.58-.15.82-.32.27-.14.48-.36.61-.63Zm14.08-3.13c-.11.04-.22.07-.34.07h-.65c-.1,0-.21-.01-.31-.03-.03,0-.06,0-.08-.02-.01-.01-.03-.02-.05-.02-.07.01-.13.05-.17.1-.1.1-.16.23-.17.37-.03.26-.04.52-.03.78,0,.2,0,.41-.02.61-.01.2-.03.39-.05.54-.02.13-.04.25-.05.36-.01.1,0,.17.02.19,0,.02.14.03.41.03.29,0,.66-.02,1.1-.05.44-.03.78-.07,1.04-.12.28-.08.56-.13.85-.14.13,0,.25.03.37.07.12.08.2.2.24.34.02.22,0,.43-.03.65-.04.22-.06.44-.07.66.01.21.05.42.1.63.23.93.1,1.54-.37,1.84-.18.11-.4.17-.61.17-.11,0-.23,0-.34-.03-.13-.03-.27-.04-.41-.05-.16-.01-.34-.02-.54-.02-.36,0-.72.02-1.07.05-.22,0-.44.05-.63.15-.04.04-.08.09-.12.14-.03.04-.05.09-.05.14-.03.07-.03.15-.02.22.01.1.03.21.05.32.02.11.05.25.07.41.02.14.03.27.03.41l.03.44.17.07c.08.03.16.04.24.03.46-.03.91-.1,1.36-.2.41-.09.73-.16.97-.2.22-.04.44-.07.66-.07.1,0,.19,0,.29.02.11,0,.22.02.33.05.17.05.35.08.53.09.19.01.35.02.46.02.3-.01.6.03.88.12.21.08.39.23.51.43.11.12.17.28.17.44-.02.24-.06.48-.14.71-.16.53-.2,1.08-.14,1.63.06.23.09.47.08.71,0,.18-.05.35-.12.51-.16.32-.43.57-.76.71-.34.16-.7.24-1.07.24-.07,0-.13,0-.2-.02-.09-.01-.19-.03-.31-.05-.18-.02-.47-.06-.85-.12-.39-.06-.72-.11-.99-.15-.11-.02-.23-.04-.34-.05-.11-.01-.23-.02-.34-.02-.13,0-.28,0-.42.02s-.31.03-.49.05c-.21.05-.43.08-.65.09-.25.01-.46.03-.65.05-.18.02-.37.04-.56.05-.15,0-.31.02-.46.05-.13.03-.27.05-.41.06-.16.01-.32.02-.48.02-.46,0-.91-.07-1.34-.24-.43-.21-.77-.56-.97-.99-.05-.11-.09-.23-.12-.36-.01-.08-.03-.27-.05-.56,0-.25.01-.54.03-.88s.07-.86.14-1.56c0-.45-.01-.9-.03-1.33-.02-.45-.09-.89-.2-1.33-.09-.36-.16-.67-.2-.93-.04-.26-.08-.51-.1-.75-.02-.25-.02-.5,0-.75.02-.26.06-.56.1-.9.05-.32.1-.73.15-1.24s.11-.92.15-1.24c.02-.93-.13-1.85-.44-2.72-.11-.43-.16-.88-.14-1.33.03-.65.29-1.27.75-1.73.1-.13.23-.25.37-.34.15-.06.31-.11.48-.14.32,0,.61.01.88.03s.57.06.88.1c.32.07.57.12.76.15s.36.06.51.08c.15.02.31.03.46.03h.61c.5-.02.99-.05,1.46-.08.48-.03,1.04-.1,1.7-.19.36-.05.67-.08.92-.1.25-.02.48-.03.68-.03.42-.04.83.08,1.17.32.28.32.42.75.39,1.17.02.16.04.34.05.54,0,.17.03.34.08.51.15.53.11,1.09-.1,1.6-.27.62-.89,1-1.56.95-.21,0-.42-.02-.63-.07-.22-.05-.42-.09-.63-.14-.32-.09-.65-.13-.99-.14h-.32c-.12,0-.23.02-.34.06Zm14.07,7.65c.02.1.05.2.08.29.01.01.03,0,.05-.05.03-.09.04-.18.03-.27,0-.16.01-.32.03-.48,0-.16.01-.39.03-.68s.05-.58.07-.85c.05-.56.06-1.12.05-1.68,0-.43-.04-.85-.12-1.27-.07-.36-.12-.65-.15-.85s-.06-.42-.08-.65c-.02-.23-.03-.52-.03-.87v-3.09c0-.28,0-.57.03-.85,0-.14.04-.27.1-.39.06-.09.13-.17.2-.24.13-.15.3-.26.49-.31.29-.05.58-.08.87-.07.18,0,.4,0,.66-.02s.49-.03.68-.05c.29-.05.59-.07.88-.07h.88c.18,0,.36.03.53.08.17.04.32.16.39.32.05.09.08.19.08.29.01.12.02.49.02,1.1.02.34.03.7.03,1.07,0,.28,0,.56.03.83.02.34.04.66.05.95.01.31,0,.61-.02.92-.02.32-.05.66-.08,1.02-.03.36-.08.77-.15,1.22-.09.57-.15,1.01-.17,1.34-.02.42-.02.85,0,1.27.07,1.29.12,2.39.15,3.3s.04,1.67.02,2.28c0,.54-.02,1-.05,1.36-.02.3-.08.61-.15.9-.05.21-.14.4-.25.58-.11.15-.24.29-.39.4-.19.13-.42.2-.65.2-.3-.01-.6-.06-.88-.14-.32-.09-.58-.15-.77-.18-.19-.03-.37-.05-.56-.05-.11,0-.22,0-.32.02-.1.01-.22.03-.36.05-.16.02-.29.04-.39.05-.08.01-.17.02-.26.02-.04,0-.08,0-.11-.02-.04-.01-.08-.02-.12-.02-.16-.02-.32-.06-.46-.14-.14-.09-.26-.21-.34-.36-.13-.23-.24-.47-.32-.72-.11-.31-.25-.71-.41-1.21-.09-.34-.18-.62-.26-.85-.08-.23-.15-.43-.2-.6-.05-.16-.11-.31-.19-.46-.07-.13-.16-.29-.27-.48l-.41-.71s-.07.15-.07.44c-.02.41-.02.82.02,1.22.03.52.07,1.03.12,1.53.09.51.1,1.03.03,1.55-.06.3-.25.55-.51.7-.15.09-.33.14-.51.14-.22-.01-.43-.05-.65-.1-.27-.06-.54-.1-.82-.1-.17,0-.34.02-.51.05-.16.03-.36.08-.61.15-.38.13-.79.2-1.19.2-.27,0-.54-.06-.78-.18-.24-.15-.37-.42-.34-.7v-2.65c0-.39,0-.7.02-.93s.02-.44.03-.61c.01-.17.03-.37.05-.6.06-.52.1-1.04.1-1.56,0-.5-.04-1-.1-1.5-.08-.47-.14-.94-.17-1.41-.02-.39-.01-.78.03-1.17.07-.86.11-1.59.12-2.19.01-.6,0-1.24-.05-1.92l-.14-2.01c-.02-.18-.04-.37-.05-.56-.01-.19-.02-.35-.02-.46,0-.1,0-.2.02-.31.04-.08.09-.15.15-.2l.41-.27s.08-.07.14-.08c.05-.01.11-.02.19-.03s.19-.02.32-.03c.13-.01.34-.02.61-.02.54-.02.97-.05,1.29-.07.32-.02.71-.07,1.19-.14.12-.02.25-.03.37-.03h.34c.24-.01.48.02.71.1l.44.37c.09.08.17.18.22.29.05.14.09.28.12.42.07.32.13.7.2,1.14.07.44.12.96.17,1.55.05.48.08.88.12,1.22.03.34.08.65.14.94.06.28.12.56.2.83.09.3.2.6.32.88.11.32.2.59.27.82.07.22.12.44.15.66.03.22.06.45.08.7s.05.57.07.95c.02.43.05.77.08,1.02s.07.5.12.75Zm16.46,9.15c-.13.03-.27.05-.41.07-.03,0-.06,0-.08-.02s-.06-.02-.08-.02c-.07-.02-.13-.19-.19-.49-.06-.34-.1-.68-.12-1.02-.02-.37-.03-.73-.03-1.07v-.65c.05-.16.05-.24,0-.24l-.03.03s-.04.03-.05.03c-.01,0-.03.01-.05.03-.17.13-.35.25-.54.34-.23.11-.46.22-.71.32-.24.1-.49.18-.75.24-.22.05-.45.08-.68.09-.62,0-1.24-.09-1.84-.25-.6-.17-1.17-.45-1.67-.83-.35-.23-.66-.52-.92-.85-.26-.31-.49-.66-.68-1.02-.11-.24-.18-.49-.22-.75-.04-.37-.06-.75-.05-1.12v-.54c0-.14-.01-.28-.03-.43-.02-.15-.05-.32-.08-.53-.03-.2-.09-.49-.15-.85-.04-.19-.07-.38-.08-.58-.01-.18-.02-.4-.02-.65,0-.35.03-.69.08-1.04.06-.31.16-.78.32-1.41.11-.39.2-.72.25-1,.05-.26.09-.52.1-.78.01-.24,0-.48-.02-.71-.02-.24-.06-.5-.1-.8-.07-.48-.06-.97.02-1.44.09-.46.26-.89.53-1.28.48-.71,1.12-1.31,1.85-1.75.74-.44,1.6-.67,2.46-.66.27,0,.55.02.82.07.28.06.55.14.82.24.54.23,1.04.41,1.5.56.44.15.9.25,1.36.32.54.07,1.06.28,1.5.61.4.31.74.7.99,1.14.25.46.44.95.54,1.46.11.53.17,1.07.17,1.61.02.56-.09,1.12-.31,1.63-.2.43-.71.65-1.53.65-.06,0-.13,0-.19-.02s-.12-.02-.19-.02c-.08-.02-.17-.03-.25-.03h-.23c-.18,0-.36.02-.53.07-.22.06-.43.14-.63.24-.27.14-.58.22-.88.24-.23,0-.46-.09-.61-.27-.11-.12-.19-.28-.2-.44-.02-.18-.03-.57-.03-1.16,0-.29,0-.52.02-.68.01-.13,0-.26-.02-.39-.02-.09-.05-.18-.08-.27-.04-.1-.1-.2-.15-.29-.1-.21-.31-.34-.54-.34-.41,0-.73.31-.95.92-.12.32-.17.65-.17.99,0,.36.03.88.1,1.56.08,1.01.05,2.02-.1,3.03-.19.88-.12,1.81.2,2.65.08.15.18.28.31.39.12.11.28.16.44.15.14,0,.27-.06.36-.17.11-.12.18-.27.22-.43.05-.17.08-.35.1-.53.02-.15.03-.29.03-.44-.03-.08-.05-.16-.05-.24-.01-.11-.03-.23-.05-.34-.03-.15-.04-.29-.05-.44,0-.16-.03-.32-.05-.48-.03-.16-.06-.32-.07-.48,0-.07.03-.14.07-.2.15-.22.38-.37.65-.41.21-.08.42-.13.65-.14.09,0,.18,0,.27.02.09.01.2.03.34.05.14.02.33.05.58.07l.78.07c.27.02.53.04.78.05.25.01.44.02.58.02.16,0,.32-.03.48-.07.1-.03.2-.04.31-.03.32,0,.51.28.58.85.02.12.04.25.05.37,0,.13.03.25.05.37.03.29.04.59.03.88,0,.48,0,1.04-.02,1.68-.01.65-.02,1.33-.03,2.06-.01.72-.03,1.4-.05,2.04-.02.63-.05,1.17-.07,1.6,0,.25-.03.5-.07.75-.08.36-.42.59-.78.54-.07,0-.13,0-.2-.02-.11-.01-.23-.02-.34-.02-.25-.02-.48-.03-.7-.03h-1.12c-.14,0-.28,0-.43.03Zm14.42-8.64c0,.45,0,.83.02,1.14.01.31.03.57.05.8.02.23.05.44.07.63.02.2.06.4.1.6.09.48.16.87.2,1.17.04.25.06.5.05.75,0,.16-.04.32-.12.46-.08.12-.18.23-.31.31-.24.16-.53.25-.82.24h-.27c-.1,0-.2-.01-.3-.03-.12-.02-.25-.03-.37-.03h-.34c-.46,0-.91.05-1.36.14-.3.06-.61.09-.92.1-.49.02-.95-.28-1.12-.74-.06-.22-.08-.45-.07-.68,0-.36.02-.73.07-1.09.02-.16.04-.44.05-.83s.02-.85.01-1.35v-.88c0-.25,0-.47.02-.66.01-.19.02-.37.03-.54.01-.17.03-.36.05-.56.02-.23.04-.41.05-.56s.02-.29.02-.44v-1.11c0-.32,0-.66-.02-1.04-.01-.37-.03-.66-.05-.87-.02-.23-.04-.45-.03-.68v-.61l.03-.51h-.27c-.07,0-.2,0-.41.02-.21.01-.41.04-.61.09-.41.05-.75.09-1.04.12-.24.03-.49.05-.73.05-.25.01-.5-.02-.73-.1-.18-.07-.34-.19-.46-.34-.17-.17-.29-.39-.32-.63-.03-.46-.03-.92.02-1.38.04-.31.05-.62.05-.94-.02-.19-.05-.38-.08-.56-.04-.13-.07-.27-.08-.41-.01-.13-.02-.24-.02-.31.01-.36.12-.7.32-1,.16-.32.48-.52.83-.53.12,0,.24.01.36.03.12.02.28.06.46.1.12.04.25.07.37.08.1.01.2.02.31.02h.27c.13,0,.27,0,.41-.02l.39-.03c.08,0,.15-.02.22-.05.06-.03.12-.04.19-.03.11,0,.22-.01.32-.03.15,0,.3-.01.44-.03.16-.02.29-.05.41-.07.17-.04.34-.07.51-.07h.83c.13,0,.26.01.39.03.59.07,1.18.1,1.77.1.23,0,.46,0,.71-.02s.53-.03.85-.05c.32-.02.62-.03.9-.03h.8c.43-.03.87,0,1.29.1.28.06.51.25.61.51.04.07.07.15.08.24,0,.12,0,.25-.02.37-.03.24-.05.47-.05.71-.01.36-.02.74-.02,1.12-.05.75-.08,1.25-.1,1.51-.02.23-.06.45-.14.66-.09.22-.24.41-.44.54-.24.13-.51.19-.78.17-.18,0-.4-.01-.66-.03-.29-.03-.58-.07-.86-.14-.27-.05-.48-.09-.61-.12-.1-.03-.2-.05-.31-.05-.09,0-.14.02-.14.07-.05.19-.08.39-.08.6-.01.24-.04.61-.08,1.11-.05.73-.07,1.3-.06,1.72.01.45.05.9.12,1.34.05.33.08.66.08.99.01.38.03.87.05,1.46Zm12.95-10.3c0-.43,0-.76.02-1,.01-.24.02-.41.03-.53,0-.08.02-.16.03-.24,0-.04.03-.07.05-.1.16-.23.38-.41.65-.51.14-.03.29-.04.44-.03h.39c.18,0,.35.01.53.03.2,0,.39,0,.54.02s.29.02.41.02c.16,0,.29,0,.41-.02.11-.01.25-.03.41-.05.3-.06.61-.09.92-.1.26-.02.51.04.73.17.19.14.34.33.43.54.06.09.1.2.12.31.01.17.02.34.02.51,0,.21-.01.42-.03.63-.04.29-.1.58-.17.87-.05.25-.1.53-.15.83-.06.31-.1.55-.12.73-.05.21-.08.43-.1.65s-.05.43-.1.65c-.06.39-.1.79-.1,1.19,0,.4.05.8.14,1.19.04.12.07.25.08.37.01.11.02.26.03.44.01.18.02.42.03.71.01.29.02.71.02,1.26.02.86.03,1.47.03,1.84,0,.3.02.59.07.88.05.22.08.44.08.66.01.24.02.54.02.9,0,.25-.01.54-.03.87-.02.32-.08.63-.19.93-.09.28-.25.54-.46.75-.22.21-.51.32-.82.31-.22,0-.44-.04-.65-.1-.18-.05-.33-.08-.46-.1-.12-.02-.24-.03-.36-.03-.2,0-.4.03-.6.1-.19.07-.41.16-.66.27-.14.09-.29.15-.44.19-.12.01-.25.02-.37.02-.11,0-.22,0-.32-.02-.08-.02-.16-.06-.22-.12-.07-.05-.14-.11-.2-.17l-.17-.17c-.1-.14-.17-.29-.2-.46-.02-.23-.02-.47,0-.7.05-.37.05-.75,0-1.12,0-.16,0-.37-.02-.63-.01-.26-.02-.49-.02-.7,0-.22,0-.44-.02-.66-.01-.06-.04-.11-.08-.15-.12-.09-.26-.14-.41-.14-.19,0-.36.11-.44.27-.04.09-.07.18-.08.27,0,.21.02.41.05.61.09.57.1,1.14.05,1.72-.06.44-.2.87-.39,1.27-.1.19-.22.37-.37.53-.13.16-.31.27-.51.32-.13.05-.27.08-.41.09-.16.01-.43.03-.82.05-.25.02-.55.05-.9.07-.29.01-.58.05-.87.1-.34.05-.62.08-.83.1-.17.02-.35.03-.53.03-.52.03-.99-.31-1.12-.82-.08-.35-.11-.71-.08-1.07.01-.51.06-1.01.15-1.51.05-.32.08-.58.12-.78.03-.19.05-.37.05-.56,0-.17,0-.35-.02-.53-.01-.21-.04-.41-.08-.61-.06-.35-.09-.7-.1-1.05,0-.25.02-.63.07-1.16.05-.35.07-.71.07-1.07v-3.18c0-.32-.01-.59-.03-.82-.02-.23-.05-.43-.08-.61-.03-.18-.09-.42-.15-.71-.07-.41-.12-.82-.14-1.24-.03-.32,0-.65.07-.97.08-.52.42-.96.9-1.17.47-.19.97-.29,1.48-.29.1,0,.2,0,.31.02.1.01.2.02.31.02.18.02.36.03.54.03h2.04c.23,0,.47.04.68.14.18.09.27.29.27.61v.37c0,.18,0,.4-.02.66-.01.26-.03.54-.05.85s-.06.6-.1.87c-.02.32-.05.58-.07.8s-.04.4-.05.56c-.01.14-.01.28,0,.43.01.12.02.27.02.43.02.16.05.35.08.58.03.23.07.45.1.66.03.22.06.4.08.56,0,.1.03.21.07.31.11.18.3.28.51.27.13,0,.26-.02.37-.07.11-.04.19-.14.22-.26.05-.31.08-.62.08-.94,0-.43.02-.86.07-1.29.05-.41.11-.88.2-1.43.02-.16.04-.3.05-.43.01-.12.02-.27.03-.44.01-.17.02-.37.03-.61.01-.24.01-.56,0-.97h0Z"/>
    <rect id="Rechteck_2618" data-name="Rechteck 2618" class="cls-1" x="489" y="30.14" width="44" height="15"/>
    <rect id="Rechteck_2619" data-name="Rechteck 2619" class="cls-2" x="535" y="30.14" width="44" height="15"/>
    <rect id="Rechteck_2620" data-name="Rechteck 2620" class="cls-2" x="581" y="30.14" width="44" height="15"/>
    <path id="Pfad_4023-2" data-name="Pfad 4023-2" class="cls-3" d="m501.21,2.76c-.05.1-.08.2-.1.31-.02.09-.04.18-.07.27-.16.58-.46,1.1-.88,1.53-.23.22-.45.46-.65.71-.12.16-.22.33-.31.51-.1.2-.24.38-.39.54-.14.16-.3.3-.46.44-.07.02-.12.04-.17.05-.06.01-.11.02-.17.02-.24,0-.48-.04-.7-.14-.22-.11-.44-.25-.63-.41-.25-.18-.51-.37-.78-.56-.18-.14-.37-.26-.58-.36-.1-.03-.2-.04-.31-.03-.36,0-.59.08-.68.24-.05.14-.06.29-.03.44.03.37.18.72.44.99.29.31.63.58,1,.8.39.23.8.43,1.22.6.42.16.78.28,1.07.37.36.09.67.18.92.26.22.07.44.15.65.26.18.09.35.18.49.27s.3.19.46.31c.3.29.55.61.77.97.24.38.46.79.64,1.2.29,1.1.22,2.27-.2,3.33-.37,1.12-1.02,2.13-1.9,2.92-.31.31-.65.59-1.02.83-.33.21-.69.38-1.06.49-.37.11-.75.19-1.14.22-.4.03-.83.05-1.31.05-.24,0-.49-.02-.73-.06-.28-.05-.57-.1-.85-.17s-.56-.15-.82-.24c-.23-.08-.45-.17-.66-.27-.14-.09-.29-.2-.48-.32-.19-.14-.38-.29-.54-.46-.45-.38-.94-.71-1.46-.99-.31-.13-.59-.32-.83-.56-.17-.18-.26-.42-.25-.66,0-.21.05-.42.15-.6.17-.24.39-.45.63-.62.11-.09.22-.18.32-.27s.18-.16.22-.2c.05-.05.13-.14.25-.29.13-.16.25-.32.36-.49.14-.25.3-.49.49-.7.16-.15.33-.27.53-.36.07-.02.14-.05.22-.07.07-.02.15-.03.22-.03.03,0,.07,0,.1-.02s.07-.02.1-.02c.12,0,.24.06.32.15.1.1.27.28.49.53.36.44.77.84,1.22,1.19.3.21.66.31,1.02.31.3.04.59-.08.78-.31.17-.2.27-.44.31-.7.05-.23.04-.47-.03-.7-.04-.07-.07-.13-.12-.19-.06-.08-.14-.16-.22-.22-.12-.11-.24-.22-.37-.32-.16-.12-.33-.25-.5-.39-.17-.13-.33-.26-.46-.37-.09-.08-.19-.15-.31-.2-.05-.02-.17-.07-.37-.14-.2-.07-.43-.15-.68-.24-.43-.16-.79-.29-1.07-.41-.26-.1-.51-.23-.75-.37-.23-.15-.44-.32-.63-.51-.25-.26-.49-.53-.71-.82-.3-.37-.56-.77-.78-1.19-.15-.34-.23-.7-.24-1.06-.02-.26-.01-.52.03-.78.07-.33.16-.66.27-.99l.14-.54c.05-.2.08-.41.1-.61.05-.61.24-1.19.54-1.72.29-.48.68-.89,1.14-1.21.48-.32,1.01-.57,1.56-.73.58-.17,1.18-.26,1.78-.25.58-.01,1.15.05,1.72.17.53.14,1.04.34,1.51.61.27.16.55.29.85.39.35.1.7.19,1.05.25.36.05.71.13,1.05.24.17.06.3.2.34.37.02.08.03.16.02.24,0,.07-.05.23-.11.48Zm13.33,3.09c.05.23.08.44.1.63.02.29,0,.58-.03.87-.02.2-.03.4-.02.6.01.15.04.36.08.63.05.39.07.73.08,1.02.01.26,0,.52-.05.78-.11.62-.4,1.19-.85,1.63-.44.45-.99.78-1.6.95-.23.07-.4.12-.51.17-.13.06-.24.14-.34.24-.45.34-.93.63-1.44.87-.52.21-1.09.31-1.65.29-.15,0-.3-.02-.44-.07-.05-.02-.11-.04-.17-.03v.39c0,.26.01.56.03.9s.04.67.05.99c0,.23.02.45.05.68.03.15.04.31.05.46.01.19.02.37.02.53.02.34-.05.68-.22.98-.23.26-.59.39-.93.34h-.25c-.1,0-.2-.01-.29-.03-.11,0-.32,0-.63-.02l-.93-.03c-.32-.01-.61-.03-.88-.05-.17,0-.35-.03-.51-.1-.3-.18-.53-.45-.65-.78-.07-.13-.12-.26-.17-.37-.05-.13-.08-.26-.1-.39-.02-.15-.04-.33-.05-.56-.01-.23-.02-.52-.02-.88-.02-.36-.04-.75-.05-1.16,0-.31-.03-.62-.09-.92-.05-.54-.07-1.08-.05-1.61.01-.67.07-1.33.15-1.99.05-.54.09-1,.12-1.36.03-.36.05-.71.05-1.05s-.01-.7-.03-1.09c-.02-.39-.06-.85-.1-1.39-.02-.41-.05-.83-.07-1.27-.02-.44-.04-.87-.05-1.27-.01-.36,0-.71.02-1.07.01-.21.03-.42.07-.63.08-.33.25-.63.48-.88.1-.13.25-.21.41-.24.11-.02.23-.03.34-.03h1.21c.33,0,.66,0,1,.02s.66.03.95.07c.22.02.43.06.65.12.11.05.22.07.34.07h.85c.13,0,.25-.01.37-.03l.95-.1c.1,0,.19,0,.29-.02.07-.01.15-.02.22-.02.6,0,1.18.19,1.67.54.49.35.82.87.92,1.46.04.1.08.21.1.32.02.07.03.15.03.22.19.45.45.86.78,1.22.18.23.34.48.48.73.12.24.21.5.27.76Zm-5.98,3.64c.17-.1.33-.22.48-.36.15-.14.26-.31.34-.49.1-.17.16-.36.17-.56-.01-.26-.04-.51-.1-.77-.07-.27-.11-.47-.14-.6-.02-.23-.02-.47,0-.7,0-.26,0-.51-.03-.77-.03-.14-.1-.26-.2-.36-.08-.09-.19-.13-.31-.14-.16,0-.32.04-.48.09-.13.03-.26.08-.37.15-.05.05-.03.22.03.51.05.27.08.52.1.73.02.23.03.45.02.68-.01.27-.04.53-.08.8-.05.29-.11.66-.2,1.09-.08.29-.13.59-.17.88,0,.02.02.03.07.03.15-.01.3-.04.44-.09.15-.04.29-.09.43-.15Zm14.55-4.22c-.11.04-.22.07-.34.07h-.65c-.1,0-.21-.01-.31-.03-.03,0-.06,0-.08-.02-.01-.01-.03-.02-.05-.02-.07.01-.13.05-.17.1-.1.1-.16.23-.17.37-.03.26-.04.52-.03.78,0,.2,0,.41-.02.61s-.03.39-.05.54c-.02.13-.04.25-.05.36-.01.1,0,.17.02.19,0,.02.14.03.41.03.29,0,.66-.02,1.1-.05.44-.03.78-.07,1.04-.12.28-.08.56-.13.85-.14.13,0,.25.03.37.07.12.08.2.2.24.34.02.22,0,.43-.03.65-.04.22-.06.44-.07.66.01.21.05.42.1.63.23.93.11,1.54-.37,1.84-.18.11-.4.17-.61.17-.11,0-.23,0-.34-.03-.13-.03-.27-.04-.41-.05-.16-.01-.34-.02-.54-.02-.36,0-.72.02-1.07.05-.22,0-.44.05-.63.15-.04.04-.08.09-.12.14-.03.04-.05.09-.05.14-.03.07-.03.15-.02.22.01.1.03.21.05.32.02.11.05.25.07.41.02.13.03.27.04.4l.03.44.17.07c.08.03.16.04.24.03.46-.03.91-.1,1.36-.2.41-.09.73-.16.97-.2.22-.04.44-.07.66-.07.1,0,.19,0,.29.02.1.01.21.03.32.05.17.05.35.08.53.09.19.01.35.02.46.02.3-.01.6.03.88.12.21.08.39.23.51.43.11.12.17.28.17.44-.02.24-.06.48-.14.71-.16.53-.2,1.08-.14,1.63.06.23.09.47.08.71,0,.18-.05.35-.12.51-.16.32-.43.57-.76.71-.34.16-.7.24-1.07.24-.07,0-.13,0-.2-.02-.09-.01-.19-.03-.31-.05-.18-.02-.46-.06-.85-.12-.39-.06-.72-.11-.99-.16-.11-.02-.23-.04-.34-.05-.11-.01-.23-.02-.34-.02-.13,0-.28,0-.42.02-.15.01-.31.03-.49.05-.21.05-.43.08-.65.09-.25.01-.46.03-.65.05-.18.02-.37.04-.56.05-.15,0-.3.02-.45.05-.14.03-.27.05-.41.06-.16.01-.32.02-.48.02-.46,0-.92-.07-1.34-.24-.43-.21-.77-.56-.97-.99-.05-.11-.09-.23-.12-.36-.01-.08-.03-.27-.05-.56,0-.25.01-.54.03-.88s.07-.86.14-1.56c0-.45-.01-.9-.03-1.33-.02-.45-.09-.89-.2-1.33-.09-.36-.16-.67-.2-.93-.04-.26-.08-.51-.1-.75-.02-.25-.02-.5,0-.75.02-.26.06-.56.1-.9.05-.32.1-.73.15-1.24s.11-.92.15-1.24c.02-.93-.13-1.85-.44-2.72-.11-.43-.16-.88-.14-1.33.03-.65.29-1.27.75-1.73.1-.13.23-.25.37-.34.15-.06.31-.11.48-.14.32,0,.61.01.88.03.27.02.57.06.88.1.32.07.57.12.76.15s.36.06.51.08c.15.02.31.03.46.03h.61c.5-.02.99-.05,1.46-.08s1.04-.1,1.7-.19c.36-.05.67-.08.92-.1.25-.02.48-.03.68-.03.42-.04.83.08,1.17.32.28.32.42.75.39,1.17.02.16.04.34.05.54,0,.17.03.34.08.51.15.53.11,1.09-.1,1.6-.27.62-.89,1-1.56.95-.21,0-.42-.02-.63-.07-.22-.05-.43-.09-.63-.14-.32-.09-.65-.13-.99-.14h-.32c-.11,0-.22.02-.33.06Zm13.09,0c-.11.04-.22.07-.34.07h-.65c-.1,0-.21-.01-.31-.03-.03,0-.06,0-.08-.02-.01-.01-.03-.02-.05-.02-.07.01-.13.05-.17.1-.1.1-.16.23-.17.37-.03.26-.04.52-.03.78,0,.2,0,.41-.02.61-.01.2-.03.39-.05.54-.02.13-.04.25-.05.36-.01.1,0,.17.02.19,0,.02.14.03.41.03.29,0,.66-.02,1.1-.05s.78-.07,1.04-.12c.28-.08.56-.13.85-.14.13,0,.25.03.37.07.12.08.2.2.24.34.02.22,0,.43-.03.65-.04.22-.06.44-.07.66.01.21.05.42.1.63.23.93.11,1.54-.37,1.84-.18.11-.4.17-.61.17-.11,0-.23,0-.34-.03-.13-.03-.27-.04-.41-.05-.16-.01-.34-.02-.54-.02-.36,0-.72.02-1.07.05-.22,0-.44.05-.63.15-.04.04-.08.08-.12.13-.03.04-.05.09-.05.14-.03.07-.03.15-.02.22.01.1.03.21.05.32.02.11.05.25.07.41.02.14.03.27.03.41l.03.44.17.07c.08.03.16.04.24.03.46-.03.91-.1,1.36-.2.41-.09.73-.16.97-.2.22-.04.44-.07.66-.07.1,0,.19,0,.29.02.1.01.21.03.32.05.17.05.35.08.53.09.19.01.35.02.46.02.3-.01.6.03.88.12.21.08.39.23.51.43.11.12.17.28.17.44-.02.24-.06.48-.14.71-.16.53-.2,1.08-.14,1.63.06.23.09.47.08.71,0,.18-.05.35-.12.51-.16.32-.43.57-.76.71-.34.16-.7.24-1.07.24-.07,0-.13,0-.2-.02-.09-.01-.19-.03-.31-.06-.18-.02-.46-.06-.85-.12-.39-.06-.71-.11-.98-.15-.11-.02-.23-.04-.34-.05-.11-.01-.23-.02-.34-.02-.13,0-.27,0-.42.02-.15.01-.32.03-.5.05-.21.05-.43.08-.65.09-.25.01-.46.03-.65.05-.18.02-.37.04-.56.05-.15,0-.31.02-.46.05-.14.03-.27.05-.41.06-.16,0-.32.01-.48.01-.46.01-.91-.07-1.34-.24-.43-.21-.77-.56-.97-.99-.05-.11-.09-.23-.12-.36-.01-.08-.03-.27-.05-.56,0-.25.01-.54.03-.88s.07-.86.14-1.56c0-.45-.01-.9-.03-1.33-.02-.45-.09-.89-.2-1.33-.09-.36-.16-.67-.2-.93-.04-.26-.08-.51-.1-.75-.02-.25-.02-.5,0-.75.02-.26.06-.56.1-.9.05-.32.1-.73.15-1.24.06-.51.11-.92.15-1.24.02-.93-.13-1.85-.44-2.72-.11-.43-.16-.88-.14-1.33.03-.65.29-1.27.75-1.73.1-.13.23-.25.37-.34.15-.06.31-.11.48-.14.32,0,.61.01.88.03.27.02.57.06.88.1.32.07.57.12.76.15s.36.06.51.08c.15.02.31.03.46.03h.61c.5-.02.99-.05,1.46-.08s1.04-.1,1.7-.19c.36-.05.67-.08.92-.1.25-.02.48-.03.68-.03.42-.04.83.08,1.17.32.28.32.42.75.39,1.17.02.16.04.34.05.54,0,.17.03.34.08.51.15.53.11,1.09-.1,1.6-.27.62-.89,1-1.56.95-.21,0-.42-.02-.63-.07-.22-.05-.42-.09-.63-.14-.32-.09-.65-.13-.99-.14h-.32c-.11,0-.23.02-.33.06h0Zm11.32-4.93c.32.1.64.22.95.36.34.15.78.35,1.33.6.27.13.55.26.83.37l.6.24c.22.08.43.17.63.27.16.08.3.18.44.29.13.11.24.23.34.37.12.18.23.37.32.56.32.6.59,1.21.82,1.85.22.64.39,1.29.51,1.95.39,1.68.39,3.42,0,5.1-.19.75-.48,1.48-.87,2.16-.36.66-.79,1.28-1.28,1.85-.2.23-.38.43-.53.61-.15.18-.31.41-.49.68-.13.21-.28.41-.44.6-.16.17-.34.31-.54.43-.33.22-.71.38-1.1.46-.63.12-1.26.2-1.9.24-.59.07-1.04.12-1.34.17-.32.05-.63.13-.94.24-.25.1-.5.17-.76.22-.16.03-.33.05-.5.05-.48.02-.94-.21-1.22-.61-.16-.34-.23-.71-.22-1.09,0-.54.05-1.07.15-1.6.05-.29.07-.52.08-.68.01-.16.02-.45.02-.88,0-.57-.02-1.07-.05-1.51s-.1-.92-.19-1.45c-.09-.5-.15-.93-.19-1.29-.03-.36-.05-.71-.03-1.07.01-.37.05-.74.12-1.1.07-.39.16-.85.27-1.39.07-.29.11-.52.14-.68.03-.25.04-.5.03-.75,0-.27,0-.53-.03-.8-.02-.19-.07-.5-.14-.94-.1-.47-.16-.94-.19-1.41-.02-.29.01-.58.08-.87.08-.25.2-.48.36-.68.14-.21.31-.41.49-.58.21-.13.44-.23.68-.31.26-.09.54-.15.82-.17h1.46c.45.05.76.07.94.08.18.01.35.04.53.08Zm0,5.27c-.11,0-.18.09-.2.27-.03.12-.05.25-.05.37-.01.18-.02.4-.02.66s0,.53.02.82.03.55.05.8c.07.6.1,1.21.09,1.82-.01.65-.04,1.2-.08,1.65-.07.48-.11.95-.14,1.43-.03.33-.02.66.03.99.11.54.31.82.58.82.11-.04.21-.08.31-.14.23-.16.44-.36.6-.6.19-.23.33-.49.42-.76.05-.21.06-.42.05-.63-.03-.35-.09-.7-.19-1.04-.09-.41-.16-.82-.2-1.24-.01-.36.03-.72.14-1.07.11-.45.19-.79.22-1.02.04-.28.04-.57.02-.85-.02-.29-.05-.58-.08-.85-.03-.26-.1-.5-.22-.73-.11-.21-.27-.39-.48-.51-.27-.14-.56-.21-.86-.19h0Z"/>
    <rect id="Rechteck_2621" data-name="Rechteck 2621" class="cls-1" x="652" y="30.14" width="44" height="15"/>
    <rect id="Rechteck_2622" data-name="Rechteck 2622" class="cls-2" x="698" y="30.14" width="44" height="15"/>
    <rect id="Rechteck_2623" data-name="Rechteck 2623" class="cls-2" x="744" y="30.14" width="44" height="15"/>
    <path id="Pfad_4024-2" data-name="Pfad 4024-2" class="cls-3" d="m660.64.04c.78.03,1.53.3,2.14.78.18.14.38.26.58.37.22.09.45.16.68.2.46.11.89.32,1.26.61.31.26.55.58.71.95.16.38.27.79.31,1.21.05.46.07.92.07,1.38,0,.43,0,.75.02.97.01.21.04.42.09.63.07.32.1.64.1.97,0,.44-.04.87-.1,1.31-.02.39-.04.71-.05.99-.01.26,0,.51.02.76.03.26.07.51.12.76.06.27.14.6.26.99.48,1.32.69,2.72.61,4.11-.03.27-.08.54-.14.8-.06.29-.17.57-.31.83-.13.24-.3.46-.51.65-.21.18-.47.28-.75.27h-.26c-.1,0-.2-.03-.29-.07-.1-.04-.2-.06-.31-.07h-.56c-.13,0-.26.01-.39.03-.1.02-.2.03-.31.03h-.27c-.53.04-1.06-.17-1.41-.57-.32-.42-.5-.93-.53-1.46-.02-.3-.06-.6-.12-.9-.08-.36-.19-.72-.32-1.07-.09-.2-.13-.42-.14-.65-.04-.21-.1-.41-.19-.6-.11-.19-.32-.29-.53-.26-.21,0-.41.12-.51.31l-.14.17.03,1.09v.93c0,.19.02.38.07.56.09.52.06,1.06-.1,1.56-.26.94-1.14,1.56-2.11,1.5h-.36c-.09,0-.17,0-.25-.03l-.71-.24c-.14-.05-.28-.08-.42-.11-.1-.03-.21-.05-.32-.06-.18,0-.33,0-.44.02-.15.02-.3.05-.44.08-.08.04-.17.07-.25.07h-.19c-.21-.06-.39-.2-.51-.37-.17-.23-.3-.5-.37-.78-.05-.25-.08-.5-.07-.75,0-.36.02-.73.07-1.09.11-.77.11-1.55,0-2.31-.04-.23-.07-.46-.09-.7-.01-.19,0-.55.02-1.07,0-.66.02-1.21.07-1.65.05-.44.13-.95.24-1.51.07-.27.12-.54.15-.82.01-.16.02-.4.02-.71,0-.32-.01-.65-.05-.97-.07-.44-.16-.88-.29-1.31-.11-.48-.19-.88-.24-1.21-.05-.36-.06-.71-.03-1.07,0-.35.04-.71.12-1.05.07-.31.17-.62.29-.92.05-.13.09-.26.14-.37.06-.17.18-.32.34-.41.2-.12.41-.22.63-.29.23-.08.47-.14.71-.19.18-.04.37-.06.56-.07.45,0,.89.07,1.33.17.28.06.56.09.85.1.16,0,.32-.02.48-.05l.54-.12c.45-.11.8-.19,1.04-.22.24-.03.48-.06.73-.08Zm-.48,10.44c.13.02.27-.02.37-.1.16-.2.29-.42.37-.66.11-.23.18-.48.2-.73,0-.08-.02-.16-.03-.24-.03-.13-.06-.25-.1-.37-.18-.61-.18-1.26,0-1.87.15-.38.25-.77.31-1.17.03-.23-.02-.46-.14-.66-.18-.35-.56-.56-.95-.51-.26-.02-.51.05-.73.19-.19.15-.33.34-.43.56-.06.16-.1.34-.12.51,0,.21,0,.41.05.61.04.26.06.53.05.8-.02.3-.06.6-.12.9-.06.26-.09.52-.1.78.02.09.05.22.09.37.03.16.07.32.12.47.05.16.09.3.14.43.05.12.08.21.1.26.22.29.56.46.92.44Zm22.13-8.47c-.37.81-.6,1.67-.68,2.55-.05.39-.1.73-.15,1.02-.06.29-.14.65-.25,1.05-.13.52-.25.97-.34,1.36-.09.39-.2.89-.31,1.5-.07.41-.13.75-.19,1.04-.06.28-.12.58-.2.88-.08.31-.18.66-.31,1.07-.12.41-.29.93-.5,1.56-.11.39-.23.78-.36,1.19s-.21.73-.25.95c-.16.52-.29.95-.41,1.27-.11.32-.23.63-.37.94-.17.35-.38.68-.63.99-.26.3-.64.47-1.04.44-.11,0-.23,0-.34-.02-.11-.01-.26-.03-.44-.05-.15-.02-.31-.03-.46-.03h-.63c-.13,0-.25.01-.37.03-.15.04-.3.06-.46.07h-.36c-.22,0-.43-.02-.65-.05-.21-.02-.41-.06-.61-.12-.22-.09-.4-.25-.51-.46-.2-.45-.35-.91-.48-1.38-.07-.27-.14-.52-.22-.75-.08-.23-.21-.53-.39-.92l-.39-.95c-.1-.24-.19-.49-.25-.75-.07-.25-.13-.52-.2-.82-.07-.29-.13-.67-.2-1.12-.09-.59-.2-1.18-.32-1.78-.12-.6-.3-1.35-.53-2.26-.09-.43-.17-.79-.24-1.07s-.12-.54-.15-.78c-.03-.24-.06-.49-.08-.77-.02-.27-.06-.61-.1-1.02-.02-.18-.05-.42-.09-.71-.03-.29-.07-.57-.12-.82-.07-.45-.12-.83-.15-1.14-.04-.25-.03-.5.02-.75.04-.18.13-.34.26-.48.14-.14.31-.25.49-.32.33-.17.69-.27,1.05-.27.15,0,.3.02.44.05l.48.12c.28.1.58.14.88.14.11,0,.23,0,.34-.02s.23-.03.34-.05c.11-.02.23-.03.34-.03h.3c.45.07.74.21.85.44.05.16.08.31.1.48.05.27.09.58.14.92.05.36.1.73.15,1.09.06.36.11.63.15.82.05.23.08.42.12.58.03.16.05.33.05.49,0,.17,0,.35-.02.54-.01.19-.03.43-.05.7-.02.2-.04.39-.05.56l-.03.51c-.01.17-.02.37-.02.61v.86c0,.45,0,.87.02,1.24.01.37.02.62.02.73.07.5.13.75.2.75.07,0,.15-.31.24-.92.09-.41.18-.82.25-1.22.08-.41.14-.82.19-1.22.07-.5.13-.97.19-1.41.05-.42.13-.83.22-1.24.07-.39.12-.71.15-.99s.08-.61.12-1.02c.04-.64.15-1.27.32-1.89.11-.45.31-.87.59-1.24.11-.14.27-.24.44-.29.3-.04.61-.06.92-.05h.74c.22,0,.44,0,.66.03.18.02.44.04.78.05s.67.02.99.02c.54,0,.88,0,1.02.02.12,0,.23.04.34.08.25.07.4.33.34.58-.05.11-.09.21-.12.32-.06.18-.13.36-.22.53Zm5.75-1.36c.35.01.71-.02,1.05-.1.11-.02.22-.04.31-.05.1-.01.2-.02.31-.02.27,0,.55.04.82.1.18.05.42.1.73.17.31.07.6.13.87.2l1.36.31c.71.2,1.3.7,1.63,1.36.18.37.3.77.37,1.17.07.52.08,1.04.03,1.56-.02.25-.03.52-.03.8v.7c0,.16,0,.29.02.41.01.11.03.22.07.32.03.1.07.22.12.34.06.16.12.31.2.46.11.25.2.51.27.78.05.29.06.59.03.88-.02.18-.04.37-.05.56,0,.13-.02.26-.05.39l-.23,1.42c-.16,1.23-.46,2.44-.9,3.6-.43,1.17-1.18,2.19-2.16,2.96-.31.21-.63.39-.97.54-.34.14-.7.21-1.07.2-.14,0-.27,0-.41-.03-.11-.01-.22-.04-.32-.07-.17-.05-.37-.09-.6-.14l-.82-.2h-.81c-.43,0-.8-.01-1.1-.04-.29-.02-.57-.08-.83-.19-.26-.11-.49-.27-.68-.48-.24-.27-.45-.57-.61-.9-.09-.16-.19-.33-.31-.53-.1-.17-.21-.34-.34-.49-.23-.32-.43-.66-.61-1.02-.15-.29-.28-.6-.37-.92-.09-.45-.14-.9-.14-1.36-.02-.66-.02-1.42,0-2.28.02-.79.07-1.48.14-2.06.08-.62.19-1.24.34-1.85.07-.32.12-.58.17-.8.05-.22.09-.41.12-.58.03-.17.06-.34.07-.51.01-.17.02-.38.02-.63,0-.27,0-.49.02-.66,0-.15.03-.31.07-.46.04-.14.09-.28.15-.41l.24-.48c.29-.73.89-1.29,1.63-1.55.74-.26,1.5-.41,2.28-.46Zm.03,10.81c-.19,1.11-.08,2.25.31,3.3.07.15.15.29.26.42.1.16.27.25.46.25.08-.02.16-.04.24-.07.15-.07.28-.18.39-.31.13-.13.24-.28.32-.44.07-.16.13-.32.19-.49.06-.2.11-.4.14-.6.04-.27.06-.53.07-.8.01-.31.02-.67.02-1.11,0-.36,0-.67.02-.93.01-.26.02-.5.03-.71.01-.21.03-.42.07-.63.03-.2.07-.43.12-.68s.08-.45.1-.6c.03-.2.04-.4.03-.6.02-.35-.04-.71-.17-1.04-.18-.32-.41-.6-.68-.83-.11-.09-.22-.18-.31-.26-.09-.08-.15-.13-.17-.15-.04-.05-.1-.09-.17-.1-.08.02-.16.04-.24.07-.54.42-.89,1.05-.95,1.73-.07.27-.11.55-.12.83,0,.36,0,.72.05,1.07.12.88.12,1.78,0,2.66h0Zm9.73-6.22c-.16-1.31-.24-2.29-.26-2.92-.04-.43,0-.86.15-1.26.12-.21.32-.38.54-.48.25-.09.52-.12.78-.1.18,0,.39,0,.61.02.23.01.49.03.78.05.14,0,.28,0,.42.02.11.01.22.02.32.02.13,0,.27,0,.41-.02.14-.01.31-.03.51-.05.12-.02.25-.03.37-.03h.31c.19-.01.37.02.54.08.13.07.22.19.27.32.08.13.11.28.1.42,0,.19-.05.65-.14,1.38-.02.32-.05.58-.07.8-.02.22-.05.42-.07.6-.02.18-.05.36-.08.54-.03.18-.07.4-.12.65-.07.45-.13.85-.19,1.19-.05.32-.09.64-.1.97-.01.31-.01.6,0,.88.01.28.03.6.05.94.07.56.1,1.13.1,1.7,0,.54-.02,1.04-.07,1.5-.02.2-.05.45-.08.73s-.06.57-.07.85c-.01.28-.01.56,0,.82.01.26.03.47.05.63,0,.11.01.29.03.54l.07.74c.06.25.09.5.1.75v.58c0,.15-.03.3-.07.44-.03.09-.08.19-.13.27-.17.32-.46.56-.82.65-.13.04-.27.07-.41.09-.11.01-.4.02-.85.02h-.85c-.21,0-.41.03-.61.07-.26.05-.52.09-.78.1-.04,0-.08,0-.12-.02s-.08-.02-.12-.02c-.21-.09-.39-.25-.51-.44-.06-.08-.11-.16-.15-.26-.04-.1-.06-.21-.07-.32-.01-.13-.02-.32-.02-.56v-.97c.02-.41.03-.87.02-1.39-.01-.52-.02-.94-.02-1.26-.05-.64-.05-1.28-.02-1.92.03-.6.07-1.16.12-1.68.02-.2.05-.5.07-.9s.06-.79.1-1.17c.02-.39.04-.71.05-.97.01-.26.02-.52.02-.77,0-.25-.01-.52-.03-.8-.02-.28-.06-.63-.1-1.03Zm12.85-4.89c.32.1.64.22.95.36.34.15.78.35,1.33.6.27.13.55.26.83.37l.6.24c.22.08.43.17.63.27.16.08.3.18.44.29.13.11.24.23.34.37.12.18.23.37.32.56.32.6.59,1.21.82,1.85.22.64.39,1.29.51,1.95.39,1.68.39,3.42,0,5.1-.19.75-.48,1.48-.87,2.16-.36.66-.79,1.28-1.28,1.85-.2.23-.38.43-.53.61-.15.18-.31.41-.49.68-.13.21-.28.41-.44.6-.16.17-.34.31-.54.43-.33.22-.71.38-1.1.46-.63.12-1.26.2-1.9.24-.59.07-1.04.12-1.34.17-.32.05-.63.13-.93.24-.25.09-.5.17-.76.22-.16.03-.33.05-.49.05-.49.02-.95-.21-1.23-.61-.15-.34-.23-.71-.22-1.09,0-.54.05-1.07.15-1.6.05-.29.07-.52.08-.68.01-.16.02-.45.02-.88,0-.57-.02-1.07-.05-1.51s-.1-.92-.19-1.45c-.09-.5-.15-.93-.19-1.29-.04-.36-.05-.71-.04-1.07.01-.37.05-.74.12-1.1.07-.39.16-.85.27-1.39.07-.29.11-.52.14-.68.03-.25.04-.5.03-.75,0-.27,0-.53-.03-.8-.02-.19-.07-.5-.14-.94-.1-.47-.16-.94-.19-1.41-.02-.29.01-.58.08-.87.08-.25.2-.48.36-.68.14-.21.31-.41.49-.58.21-.13.44-.23.68-.31.26-.09.54-.15.82-.17h1.46c.45.05.77.07.94.08.18.01.35.04.53.08Zm0,5.27c-.11,0-.18.09-.2.27-.03.12-.05.25-.05.37-.01.18-.02.4-.02.66s0,.53.02.82.03.55.05.8c.07.6.1,1.21.08,1.82-.01.65-.04,1.2-.08,1.65-.07.48-.11.95-.14,1.43-.03.33-.02.66.03.99.11.54.31.82.58.82.11-.04.21-.08.31-.14.23-.16.44-.36.6-.6.19-.23.33-.49.42-.76.05-.21.06-.42.05-.63-.03-.35-.09-.7-.19-1.04-.09-.41-.16-.82-.2-1.24-.01-.36.03-.72.14-1.07.11-.45.19-.79.22-1.02.04-.28.04-.57.02-.85-.02-.29-.05-.58-.08-.85-.03-.26-.1-.5-.22-.73-.11-.21-.27-.39-.48-.51-.26-.14-.56-.21-.86-.19h0Z"/>
    <rect id="Rechteck_2624" data-name="Rechteck 2624" class="cls-1" x="815" y="30.14" width="44" height="15"/>
    <rect id="Rechteck_2625" data-name="Rechteck 2625" class="cls-4" x="861" y="30.14" width="44" height="15"/>
    <rect id="Rechteck_2626" data-name="Rechteck 2626" class="cls-4" x="907" y="30.14" width="44" height="15"/>
    <path id="Pfad_4025-2" data-name="Pfad 4025-2" class="cls-3" d="m823.64.04c.78.03,1.53.3,2.14.78.18.14.38.26.58.37.22.09.45.16.68.2.46.11.89.32,1.26.61.31.26.55.58.71.95.16.38.27.79.31,1.21.05.46.07.92.07,1.38,0,.43,0,.75.02.97.01.21.04.42.09.63.07.32.1.64.1.97,0,.44-.04.87-.1,1.31-.02.39-.04.71-.05.99-.01.26,0,.51.02.76.03.26.07.51.12.76.06.27.14.6.26.99.48,1.32.69,2.72.61,4.11-.03.27-.08.54-.14.8-.06.29-.17.57-.31.83-.13.24-.3.46-.51.65-.21.18-.47.28-.75.27h-.26c-.1,0-.2-.03-.29-.07-.1-.04-.2-.06-.31-.07h-.56c-.13,0-.26.01-.39.03-.1.02-.2.03-.31.03h-.27c-.53.04-1.06-.17-1.41-.57-.32-.42-.5-.93-.53-1.46-.02-.3-.06-.6-.12-.9-.08-.36-.19-.72-.32-1.07-.09-.2-.13-.42-.14-.65-.04-.21-.1-.41-.19-.6-.11-.19-.32-.29-.53-.26-.21,0-.41.12-.51.31l-.14.17.03,1.09v.93c0,.19.02.38.07.56.09.52.06,1.06-.1,1.56-.26.94-1.14,1.56-2.11,1.5h-.36c-.09,0-.17,0-.25-.03l-.71-.24c-.14-.05-.28-.08-.42-.11-.1-.03-.21-.05-.32-.06-.18,0-.33,0-.44.02-.15.02-.3.05-.44.08-.08.04-.17.07-.25.07h-.19c-.21-.06-.39-.2-.51-.37-.17-.23-.3-.5-.37-.78-.05-.25-.08-.5-.07-.75,0-.36.02-.73.07-1.09.11-.77.11-1.55,0-2.31-.04-.23-.07-.46-.09-.7-.01-.19,0-.55.02-1.07,0-.66.02-1.21.07-1.65.05-.44.13-.95.24-1.51.07-.27.12-.54.15-.82.01-.16.02-.4.02-.71,0-.32-.01-.65-.05-.97-.07-.44-.16-.88-.29-1.31-.11-.48-.19-.88-.24-1.21-.05-.36-.06-.71-.03-1.07,0-.35.04-.71.12-1.05.07-.31.17-.62.29-.92.05-.13.09-.26.14-.37.06-.17.18-.32.34-.41.2-.12.41-.22.63-.29.23-.08.47-.14.71-.19.18-.04.37-.06.56-.07.45,0,.89.07,1.33.17.28.06.56.09.85.1.16,0,.32-.02.48-.05l.54-.12c.45-.11.8-.19,1.04-.22.24-.03.48-.06.73-.08Zm-.48,10.44c.13.02.27-.02.37-.1.16-.2.29-.42.37-.66.11-.23.18-.48.2-.73,0-.08-.02-.16-.03-.24-.03-.13-.06-.25-.1-.37-.18-.61-.18-1.26,0-1.87.15-.38.25-.77.31-1.17.03-.23-.02-.46-.14-.66-.18-.35-.56-.56-.95-.51-.26-.02-.51.05-.73.19-.19.15-.33.34-.43.56-.06.16-.1.34-.12.51,0,.21,0,.41.05.61.04.26.06.53.05.8-.02.3-.06.6-.12.9-.06.26-.09.52-.1.78.02.09.05.22.09.37.03.16.07.32.12.47.05.16.09.3.14.43.05.12.08.21.1.26.22.29.56.46.92.44Zm18.16-9.45c.22.05.44.12.65.22.16.08.31.19.44.32.14.12.26.26.36.42.16.28.3.57.42.87.11.2.23.41.34.63.11.22.2.38.27.49.22.28.37.59.46.94.06.4.07.81.02,1.21-.02.42-.02.84,0,1.26.04.37.05.74.03,1.11-.02.22-.08.43-.17.63-.11.29-.21.56-.29.8-.09.27-.21.52-.36.77-.2.36-.49.65-.85.85-.08.07-.16.12-.25.17-.12.06-.23.12-.36.17-.04.04-.1.08-.15.1-.06.02-.11.05-.15.07-.04.04-.09.07-.14.1-.02,0,.02.12.14.37s.22.45.31.61c.1.21.23.41.37.59.13.17.37.44.71.8.24.25.47.51.66.8.13.25.22.52.25.8.04.28.11.55.2.82.07.18.2.49.41.92.16.3.3.62.42.94.06.12.06.26.02.39-.13.19-.33.32-.56.36-.22.05-.44.08-.66.09-.13,0-.31,0-.54-.02-.23-.01-.54-.03-.92-.05h-.71c-.15,0-.3.01-.44.03-.16.02-.29.04-.41.05s-.22.02-.31.02c-.36.03-.71-.11-.93-.39-.2-.29-.34-.62-.39-.97-.02-.11-.05-.25-.07-.41-.02-.14-.05-.28-.1-.41-.06-.16-.13-.32-.2-.48-.07-.13-.24-.42-.51-.85-.11-.17-.21-.35-.31-.53-.11-.22-.23-.41-.34-.6-.23-.39-.42-.7-.58-.93-.16-.24-.26-.33-.31-.29-.02,0-.03.14-.02.43s.04.65.08,1.11c.05.97.07,1.72.07,2.24.02.37-.02.74-.14,1.09-.1.26-.27.48-.5.65-.23.18-.51.3-.8.34-.19.04-.38.05-.58.05-.32.01-.67.02-1.05.02s-.74,0-1.05-.02c-.21,0-.41-.02-.62-.05-.14,0-.28-.05-.39-.14-.09-.08-.16-.17-.22-.27-.1-.19-.15-.41-.14-.63,0-.26.02-.65.07-1.17.02-.23.04-.5.05-.82.01-.32.03-.6.05-.85.02-.23.04-.49.05-.8.01-.31.03-.57.05-.8.05-.52.07-.97.07-1.36s-.02-.87-.07-1.46c-.02-.23-.04-.43-.05-.61s-.02-.39-.03-.61-.02-.51-.02-.85v-3.32c0-.19,0-.35-.02-.48,0-.11-.03-.22-.05-.32-.22-1.04-.32-2.1-.31-3.16.07-.39.29-.74.61-.99.22-.13.45-.22.7-.27.3-.07.6-.12.9-.15.32-.03.62-.06.92-.08.29-.02.54-.03.75-.03.34,0,.68.01,1.02.05.24.02.48.07.71.15.15.05.3.07.46.07.19,0,.58.01,1.17.03.41,0,.75,0,1.04.02s.53.03.73.05c.2.02.39.05.54.07.17.03.34.06.51.11Zm-2.69,7.38c.04-.08.06-.17.07-.26-.01-.12-.03-.24-.07-.36-.02-.12-.04-.25-.05-.37-.01-.13-.02-.26-.02-.37,0-.11,0-.23-.03-.34-.02-.05-.06-.12-.1-.24-.21-.34-.54-.58-.92-.68,0-.02-.02-.03-.07-.03h-.03s-.07.05-.08.14c-.01.09-.04.29-.08.61-.02.23-.05.5-.07.83-.02.33-.03.65-.03.95s0,.56.02.77.03.31.05.31c.3-.03.58-.15.82-.32.27-.14.48-.36.61-.63Zm16.18-.34c.07-.15.12-.31.15-.48.06-.23.11-.46.15-.71.07-.29.12-.53.15-.7.04-.17.07-.32.1-.46.03-.13.07-.26.12-.39.05-.12.1-.28.17-.46.14-.32.25-.66.34-1,.08-.38.14-.76.17-1.14.02-.31.06-.63.12-.93.03-.15.11-.28.22-.39.11-.11.24-.19.39-.24.23-.05.46-.08.7-.07h.37c.34,0,.58,0,.73-.02s.35-.04.6-.08c.36-.07.68-.12.95-.15.26-.03.52-.05.78-.05.45-.05.9.05,1.29.29.27.29.41.68.4,1.07.02.17.02.35,0,.53-.02.17-.07.46-.14.87-.05.23-.08.41-.1.56s-.04.29-.05.43c-.01.13-.02.27-.03.43s-.02.35-.01.59v1c0,.3.02.6.07.9.1,1.01.14,2.02.12,3.03-.01,1.13-.06,2.19-.15,3.16-.04.26-.07.53-.07.8v.93c.02.7.04,1.26.05,1.68.01.42.02.74.02.97v.46c0,.08-.01.15-.03.22-.04.35-.26.64-.58.78l-.2.1c-.08.03-.16.04-.24.03-.07,0-.13,0-.2-.02-.1-.01-.2-.02-.31-.02h-.71c-.32,0-.58,0-.8.02-.23.01-.47.04-.7.09-.16.04-.33.07-.49.07h-.39c-.15,0-.3,0-.45-.03-.25-.12-.44-.34-.51-.61-.12-.64-.12-1.3,0-1.94l.2-1.43c.07-.48.12-.9.17-1.26.02-.16.05-.33.07-.51.02-.18.05-.33.07-.44.08-.32.03-.66-.14-.95-.07-.09-.12-.14-.17-.14s-.14.08-.27.24c-.17.16-.32.35-.44.54-.1.16-.19.33-.27.51-.04.11-.07.22-.08.34-.01.11-.02.35-.02.71,0,.43,0,.7-.02.82-.02.13-.09.25-.19.34-.16.13-.35.22-.56.24-.22.04-.44.06-.66.07-.26.01-.51-.07-.71-.24-.24-.24-.42-.53-.54-.85-.13-.29-.3-.57-.51-.82-.14-.13-.25-.29-.34-.46-.09-.21-.17-.42-.24-.63-.11-.32-.22-.58-.32-.8-.1-.22-.2-.31-.29-.29-.02,0-.04.1-.05.29s-.02.58-.02,1.17c-.02.79-.02,1.45,0,1.95.02.52.08,1.04.17,1.55.12.53.12,1.07,0,1.6-.05.2-.15.38-.27.54-.09.14-.22.26-.37.34-.21.08-.43.11-.65.1h-.41c-.16,0-.35-.01-.58-.03-.1,0-.19,0-.29-.02-.07-.01-.15-.02-.22-.02-.11,0-.23,0-.34.02s-.25.03-.41.05c-.18.02-.35.04-.51.05-.16.01-.31.02-.44.02-.24,0-.48-.02-.71-.07-.54-.07-.85-.29-.92-.68-.05-.25-.06-.51-.03-.76.02-.4.07-.98.14-1.75.07-.68.1-1.25.1-1.72,0-.46-.05-.92-.14-1.38l-.07-.61c-.02-.22-.03-.44-.03-.66v-.81c0-.31.01-.69.03-1.14.02-.36.04-.67.05-.92s.02-.48.02-.68,0-.42-.02-.65c-.01-.23-.02-.49-.02-.78-.02-.73-.06-1.43-.1-2.11s-.09-1.19-.14-1.53c-.05-.37-.06-.74-.05-1.11,0-.29.03-.58.08-.87.09-.31.27-.6.51-.82.24-.22.56-.34.88-.34.15,0,.3.01.44.03.17.02.34.06.51.1l.58.17.99-.07c.25-.02.5-.03.76-.03h.56c.24.02.48.06.71.12.18.04.36.11.51.22.11.06.19.15.26.25.07.11.11.23.12.36,0,.05.02.22.07.53s.11.66.2,1.07c.23,1.02.43,2.1.61,3.23.05.11.13.34.26.68s.26.69.39,1.05c.13.36.26.68.39.95l.19.41c.02-.07.04-.14.07-.2.05-.11.1-.24.15-.39.06-.15.11-.3.17-.46.06-.16.1-.29.12-.38Zm14.18-7.42c.35.01.71-.02,1.05-.1.11-.02.22-.04.31-.05.1-.01.2-.02.31-.02.27,0,.55.04.82.1.18.05.42.1.73.17.31.07.6.13.87.2l1.36.31c.71.2,1.3.7,1.63,1.36.18.37.3.77.37,1.17.07.51.08,1.03.03,1.55-.02.25-.03.52-.03.8v.7c0,.16,0,.29.02.41.01.11.03.22.07.32.03.1.07.22.12.34.06.16.12.31.2.46.11.25.2.51.27.78.05.29.06.59.03.88-.02.18-.04.37-.05.56,0,.13-.02.26-.05.39l-.24,1.43c-.16,1.23-.46,2.44-.9,3.6-.43,1.17-1.18,2.2-2.16,2.97-.31.21-.63.39-.97.54-.34.14-.7.21-1.07.2-.14,0-.28,0-.41-.03-.11-.01-.22-.04-.32-.07-.17-.05-.37-.09-.6-.14l-.82-.2h-.82c-.43,0-.8-.01-1.1-.03-.29-.02-.57-.08-.83-.19-.26-.11-.49-.27-.68-.48-.24-.27-.45-.57-.61-.9-.09-.16-.19-.33-.31-.53-.1-.17-.21-.34-.34-.49-.23-.32-.43-.66-.61-1.02-.15-.29-.28-.6-.37-.92-.09-.45-.14-.9-.14-1.36-.02-.66-.02-1.42,0-2.28.02-.79.07-1.48.14-2.06.08-.62.19-1.24.34-1.85.07-.32.12-.58.17-.8s.09-.41.12-.58c.03-.17.06-.34.07-.51.01-.17.02-.38.02-.63,0-.27,0-.49.02-.66,0-.15.03-.31.07-.46.04-.14.09-.28.15-.41l.24-.48c.29-.73.89-1.29,1.63-1.55.74-.26,1.5-.42,2.28-.47Zm.03,10.81c-.19,1.11-.08,2.25.31,3.3.07.15.15.29.26.42.1.16.27.25.46.25.08-.02.16-.04.24-.07.15-.07.28-.18.39-.31.13-.13.24-.28.33-.44.07-.16.13-.32.19-.49.06-.2.11-.4.14-.6.04-.27.06-.53.07-.8.01-.31.02-.67.02-1.11,0-.36,0-.67.02-.93.01-.26.02-.5.03-.71.01-.21.03-.42.07-.63.03-.2.07-.43.12-.68.05-.25.08-.45.1-.6.03-.2.04-.4.03-.6.02-.35-.04-.71-.17-1.04-.18-.32-.41-.6-.68-.83-.11-.09-.22-.18-.31-.26-.09-.08-.15-.13-.17-.15-.04-.05-.1-.09-.17-.1-.08.02-.16.04-.24.07-.54.42-.89,1.05-.95,1.73-.07.27-.11.55-.12.83,0,.36,0,.72.05,1.07.11.88.11,1.78,0,2.66h0Zm19.27-10.43c.22.05.44.12.65.22.16.08.31.19.44.32.14.12.26.26.36.42.16.28.3.57.43.87.11.2.23.41.34.63.11.22.2.38.27.49.22.28.37.59.46.94.06.4.07.81.02,1.21-.02.42-.02.84,0,1.26.04.37.05.74.03,1.11-.02.22-.08.43-.17.63-.11.29-.21.56-.29.8-.09.27-.21.52-.36.77-.2.36-.49.65-.85.85-.08.07-.16.12-.25.17-.12.06-.23.12-.36.17-.04.04-.1.08-.15.1-.06.02-.11.05-.15.07-.04.04-.09.07-.14.1-.02,0,.02.12.14.37s.22.45.31.61c.1.21.23.41.37.59.13.17.37.44.71.8.24.25.47.51.66.8.13.25.22.52.25.8.04.28.11.55.2.82.07.18.2.49.41.92.16.3.3.62.43.94.06.12.06.26.02.39-.13.19-.33.32-.56.36-.22.05-.44.08-.66.09-.13,0-.31,0-.54-.02-.23-.01-.53-.03-.91-.05h-.71c-.15,0-.3.01-.44.03-.16.02-.29.04-.41.05s-.22.02-.31.02c-.36.03-.71-.11-.93-.39-.2-.29-.34-.62-.39-.97-.02-.11-.05-.25-.07-.41-.02-.14-.05-.28-.1-.41-.06-.16-.13-.32-.2-.48-.07-.13-.24-.42-.51-.85-.11-.17-.21-.35-.31-.53-.11-.22-.23-.41-.34-.6-.23-.39-.42-.7-.58-.93-.16-.24-.26-.33-.31-.29-.02,0-.03.14-.02.43.01.28.04.65.08,1.11.05.97.07,1.72.07,2.24.02.37-.02.74-.14,1.09-.1.26-.27.48-.49.65-.23.18-.51.3-.8.34-.19.04-.38.05-.58.05-.32.01-.67.02-1.05.02s-.74,0-1.07-.02c-.2,0-.41-.02-.61-.05-.14,0-.28-.05-.39-.14-.09-.08-.16-.17-.22-.27-.1-.19-.15-.41-.14-.63,0-.26.02-.65.07-1.17.02-.23.04-.5.05-.82.01-.32.03-.6.05-.85.02-.23.04-.49.05-.8.01-.31.03-.57.05-.8.05-.52.07-.97.07-1.36s-.02-.87-.07-1.46c-.02-.23-.04-.43-.05-.61-.01-.18-.02-.39-.03-.61-.01-.23-.02-.51-.02-.85v-3.32c0-.19,0-.35-.02-.48,0-.11-.03-.22-.05-.32-.22-1.04-.32-2.1-.31-3.16.07-.39.29-.74.61-.99.22-.13.45-.22.7-.27.3-.07.6-.12.9-.15.32-.03.62-.06.92-.08.29-.02.54-.03.75-.03.34,0,.68.01,1.02.05.24.02.48.07.71.15.15.05.3.07.46.07.19,0,.58.01,1.17.03.41,0,.75,0,1.04.02s.53.03.73.05.39.05.54.07c.17.03.34.06.5.11Zm-2.69,7.38c.04-.08.06-.17.07-.26-.01-.12-.03-.24-.07-.36-.02-.12-.04-.25-.05-.37-.01-.13-.02-.26-.02-.37,0-.11,0-.23-.03-.34-.02-.05-.06-.12-.1-.24-.21-.34-.54-.58-.92-.68,0-.02-.02-.03-.07-.03h-.03s-.07.05-.08.14c-.01.09-.04.29-.08.61-.02.23-.05.5-.07.83-.02.33-.03.65-.03.95,0,.31,0,.56.02.77s.03.31.05.31c.3-.03.58-.15.82-.32.27-.14.48-.36.61-.63h0Z"/>
  </g>
</svg>