<svg xmlns="http://www.w3.org/2000/svg" width="1521" height="83" viewBox="0 0 1521 83">
  <g id="Gruppe_7024" data-name="Gruppe 7024" transform="translate(-694 -447)">
    <path id="Pfad_4031" data-name="Pfad 4031" d="M13.33-8.215h6.138a6.539,6.539,0,0,1-.837,2.945A7.2,7.2,0,0,1,12.307-1.8a8.288,8.288,0,0,1-8.4-8.494,8.268,8.268,0,0,1,8.463-8.556,7.591,7.591,0,0,1,5.022,1.736,10.923,10.923,0,0,1,1.953,2.139l1.7-1.55a12.652,12.652,0,0,0-2.387-2.449,10.294,10.294,0,0,0-6.324-2.046A10.544,10.544,0,0,0,1.55-10.323,10.511,10.511,0,0,0,12.276.372a9.277,9.277,0,0,0,7.688-3.72,11.393,11.393,0,0,0,1.984-6.541v-.5H13.33ZM35.154-4.309a5.125,5.125,0,0,1-1.333,1.767,3.911,3.911,0,0,1-2.635.93,4.121,4.121,0,0,1-4.092-4.371H37.107A8.637,8.637,0,0,0,35.9-10.819a5.756,5.756,0,0,0-4.867-2.356c-3.875,0-6.231,2.976-6.231,6.82,0,4.774,3.255,6.727,6.355,6.727a6.245,6.245,0,0,0,4.278-1.581,7.7,7.7,0,0,0,1.581-2.077ZM27.249-7.843a3.91,3.91,0,0,1,3.782-3.348,3.85,3.85,0,0,1,3.782,3.348ZM40.517,0h2.232V-6.727a5.419,5.419,0,0,1,.93-3.472,2.813,2.813,0,0,1,2.263-.992,2.525,2.525,0,0,1,2.108.93A3.782,3.782,0,0,1,48.639-7.9V0h2.232V-7.967a5.738,5.738,0,0,0-.744-3.441,4.364,4.364,0,0,0-3.689-1.767,4.538,4.538,0,0,0-3.689,1.8v-1.488H40.517ZM64.635-4.309A5.125,5.125,0,0,1,63.3-2.542a3.911,3.911,0,0,1-2.635.93,4.121,4.121,0,0,1-4.092-4.371H66.588a8.637,8.637,0,0,0-1.209-4.836,5.756,5.756,0,0,0-4.867-2.356c-3.875,0-6.231,2.976-6.231,6.82,0,4.774,3.255,6.727,6.355,6.727a6.245,6.245,0,0,0,4.278-1.581A7.7,7.7,0,0,0,66.5-3.286ZM56.73-7.843a3.91,3.91,0,0,1,3.782-3.348,3.85,3.85,0,0,1,3.782,3.348ZM70,0H72.23V-6.789c0-2.108.372-2.976.744-3.472a2.161,2.161,0,0,1,1.8-.806,2.3,2.3,0,0,1,1.3.434l1.054-2.015a4.714,4.714,0,0,0-1.984-.527,3.575,3.575,0,0,0-2.914,1.7v-1.395H70ZM88.381-11.036a5.323,5.323,0,0,0-4.4-2.139c-3.286,0-6.262,2.294-6.262,6.727,0,4.526,3.007,6.82,6.262,6.82a5.427,5.427,0,0,0,4.4-2.17V0h2.232V-12.865H88.381Zm-4.154-.155c1.984,0,4.278,1.457,4.278,4.774,0,2.542-1.55,4.805-4.278,4.805-2.666,0-4.216-2.077-4.216-4.836C80.011-9.579,82.026-11.191,84.227-11.191ZM94.829-22.6V0h2.232V-22.6Zm16.74-.341a52.031,52.031,0,0,0-1.829,5.952,36.289,36.289,0,0,0-.868,8.06,40.3,40.3,0,0,0,.651,7.192,43.765,43.765,0,0,0,2.046,7.006l1.953-.9A38.967,38.967,0,0,1,111.91-1.3a34.344,34.344,0,0,1-.744-7.564,37.1,37.1,0,0,1,.775-7.812,34.231,34.231,0,0,1,1.581-5.363ZM124.31.372a6.526,6.526,0,0,0,5.3-3.1,13.427,13.427,0,0,0,2.077-7.6,13.427,13.427,0,0,0-2.077-7.6,6.526,6.526,0,0,0-5.3-3.1,6.526,6.526,0,0,0-5.3,3.1,13.427,13.427,0,0,0-2.077,7.6,13.427,13.427,0,0,0,2.077,7.6A6.526,6.526,0,0,0,124.31.372Zm0-19.282a4.316,4.316,0,0,1,3.565,2.294,12.063,12.063,0,0,1,1.519,6.293,12.063,12.063,0,0,1-1.519,6.293,4.316,4.316,0,0,1-3.565,2.294,4.316,4.316,0,0,1-3.565-2.294,12.063,12.063,0,0,1-1.519-6.293,12.063,12.063,0,0,1,1.519-6.293A4.316,4.316,0,0,1,124.31-18.91ZM133.362,0h2.728l4.061-5.239L144.212,0h2.728l-5.332-6.851,4.712-6.014h-2.728l-3.379,4.371L136.9-12.865h-2.728l4.681,5.983Zm22.63.372a6.526,6.526,0,0,0,5.3-3.1,13.427,13.427,0,0,0,2.077-7.6,13.427,13.427,0,0,0-2.077-7.6,6.526,6.526,0,0,0-5.3-3.1,6.526,6.526,0,0,0-5.3,3.1,13.427,13.427,0,0,0-2.077,7.6,13.427,13.427,0,0,0,2.077,7.6A6.526,6.526,0,0,0,155.992.372Zm0-19.282a4.316,4.316,0,0,1,3.565,2.294,12.063,12.063,0,0,1,1.519,6.293,12.063,12.063,0,0,1-1.519,6.293,4.316,4.316,0,0,1-3.565,2.294,4.316,4.316,0,0,1-3.565-2.294,12.063,12.063,0,0,1-1.519-6.293,12.063,12.063,0,0,1,1.519-6.293A4.316,4.316,0,0,1,155.992-18.91ZM173.6.372a6.526,6.526,0,0,0,5.3-3.1,13.427,13.427,0,0,0,2.077-7.6,13.427,13.427,0,0,0-2.077-7.6,6.526,6.526,0,0,0-5.3-3.1,6.526,6.526,0,0,0-5.3,3.1,13.427,13.427,0,0,0-2.077,7.6,13.427,13.427,0,0,0,2.077,7.6A6.526,6.526,0,0,0,173.6.372Zm0-19.282a4.316,4.316,0,0,1,3.565,2.294,12.063,12.063,0,0,1,1.519,6.293,12.063,12.063,0,0,1-1.519,6.293A4.316,4.316,0,0,1,173.6-1.736a4.316,4.316,0,0,1-3.565-2.294,12.063,12.063,0,0,1-1.519-6.293,12.063,12.063,0,0,1,1.519-6.293A4.316,4.316,0,0,1,173.6-18.91ZM191.208.372a6.526,6.526,0,0,0,5.3-3.1,13.427,13.427,0,0,0,2.077-7.6,13.427,13.427,0,0,0-2.077-7.6,6.526,6.526,0,0,0-5.3-3.1,6.526,6.526,0,0,0-5.3,3.1,13.427,13.427,0,0,0-2.077,7.6,13.427,13.427,0,0,0,2.077,7.6A6.526,6.526,0,0,0,191.208.372Zm0-19.282a4.316,4.316,0,0,1,3.565,2.294,12.063,12.063,0,0,1,1.519,6.293,12.063,12.063,0,0,1-1.519,6.293,4.316,4.316,0,0,1-3.565,2.294,4.316,4.316,0,0,1-3.565-2.294,12.063,12.063,0,0,1-1.519-6.293,12.063,12.063,0,0,1,1.519-6.293A4.316,4.316,0,0,1,191.208-18.91ZM202-1.24a1.575,1.575,0,0,0,1.55,1.55,1.575,1.575,0,0,0,1.55-1.55,1.575,1.575,0,0,0-1.55-1.55A1.575,1.575,0,0,0,202-1.24ZM215.884.372a6.526,6.526,0,0,0,5.3-3.1,13.427,13.427,0,0,0,2.077-7.6,13.427,13.427,0,0,0-2.077-7.6,6.526,6.526,0,0,0-5.3-3.1,6.526,6.526,0,0,0-5.3,3.1,13.427,13.427,0,0,0-2.077,7.6,13.427,13.427,0,0,0,2.077,7.6A6.526,6.526,0,0,0,215.884.372Zm0-19.282a4.316,4.316,0,0,1,3.565,2.294,12.063,12.063,0,0,1,1.519,6.293,12.063,12.063,0,0,1-1.519,6.293,4.316,4.316,0,0,1-3.565,2.294,4.316,4.316,0,0,1-3.565-2.294,12.063,12.063,0,0,1-1.519-6.293,12.063,12.063,0,0,1,1.519-6.293A4.316,4.316,0,0,1,215.884-18.91ZM233.492.372a6.526,6.526,0,0,0,5.3-3.1,13.427,13.427,0,0,0,2.077-7.6,13.427,13.427,0,0,0-2.077-7.6,6.526,6.526,0,0,0-5.3-3.1,6.526,6.526,0,0,0-5.3,3.1,13.427,13.427,0,0,0-2.077,7.6,13.427,13.427,0,0,0,2.077,7.6A6.526,6.526,0,0,0,233.492.372Zm0-19.282a4.316,4.316,0,0,1,3.565,2.294,12.063,12.063,0,0,1,1.519,6.293,12.063,12.063,0,0,1-1.519,6.293,4.316,4.316,0,0,1-3.565,2.294,4.316,4.316,0,0,1-3.565-2.294,12.063,12.063,0,0,1-1.519-6.293,12.063,12.063,0,0,1,1.519-6.293A4.316,4.316,0,0,1,233.492-18.91ZM251.1.372a6.526,6.526,0,0,0,5.3-3.1,13.427,13.427,0,0,0,2.077-7.6,13.427,13.427,0,0,0-2.077-7.6,6.526,6.526,0,0,0-5.3-3.1,6.526,6.526,0,0,0-5.3,3.1,13.427,13.427,0,0,0-2.077,7.6,13.427,13.427,0,0,0,2.077,7.6A6.526,6.526,0,0,0,251.1.372Zm0-19.282a4.316,4.316,0,0,1,3.565,2.294,12.063,12.063,0,0,1,1.519,6.293,12.063,12.063,0,0,1-1.519,6.293A4.316,4.316,0,0,1,251.1-1.736a4.316,4.316,0,0,1-3.565-2.294,12.063,12.063,0,0,1-1.519-6.293,12.063,12.063,0,0,1,1.519-6.293A4.316,4.316,0,0,1,251.1-18.91Zm10.788-3.131a34.232,34.232,0,0,1,1.581,5.363,37.1,37.1,0,0,1,.775,7.812A34.345,34.345,0,0,1,263.5-1.3a38.968,38.968,0,0,1-1.612,5.673l1.953.9a43.764,43.764,0,0,0,2.046-7.006,40.3,40.3,0,0,0,.651-7.192,36.288,36.288,0,0,0-.868-8.06,52.031,52.031,0,0,0-1.829-5.952Z" transform="translate(722.006 501.594)" fill="#ff6200"/>
    <path id="Pfad_4030" data-name="Pfad 4030" d="M14.849-20.677H6.634L3.627-10.695a6.751,6.751,0,0,1,4-1.426A4.9,4.9,0,0,1,12.71-7.037a5.137,5.137,0,0,1-5.084,5.3,5.073,5.073,0,0,1-3.348-1.24A4.809,4.809,0,0,1,2.883-4.65l-1.829,1.3a8.607,8.607,0,0,0,1.8,2.108A7.009,7.009,0,0,0,7.471.372,7.234,7.234,0,0,0,15-7.068c0-4.03-2.666-7.161-6.82-7.161a5.629,5.629,0,0,0-1.3.124l1.333-4.464h6.634Zm3.007,7.812L24.18.837l6.324-13.7h-2.48L24.18-4.185l-3.844-8.68ZM45.6-20.677H37.386l-3.007,9.982a6.751,6.751,0,0,1,4-1.426,4.9,4.9,0,0,1,5.084,5.084,5.137,5.137,0,0,1-5.084,5.3,5.073,5.073,0,0,1-3.348-1.24A4.809,4.809,0,0,1,33.635-4.65l-1.829,1.3A8.607,8.607,0,0,0,33.6-1.24,7.009,7.009,0,0,0,38.223.372a7.234,7.234,0,0,0,7.533-7.44c0-4.03-2.666-7.161-6.82-7.161a5.629,5.629,0,0,0-1.3.124l1.333-4.464H45.6Z" transform="translate(1165.496 501.594)" fill="#fff" opacity="0.655"/>
    <path id="Pfad_4029" data-name="Pfad 4029" d="M8.246,0H10.54V-20.677H5.983l-1.209,2.17H8.246ZM24.459.372a6.526,6.526,0,0,0,5.3-3.1,13.427,13.427,0,0,0,2.077-7.6,13.427,13.427,0,0,0-2.077-7.6,6.526,6.526,0,0,0-5.3-3.1,6.526,6.526,0,0,0-5.3,3.1,13.427,13.427,0,0,0-2.077,7.6,13.427,13.427,0,0,0,2.077,7.6A6.526,6.526,0,0,0,24.459.372Zm0-19.282a4.316,4.316,0,0,1,3.565,2.294,12.063,12.063,0,0,1,1.519,6.293A12.063,12.063,0,0,1,28.024-4.03a4.316,4.316,0,0,1-3.565,2.294A4.316,4.316,0,0,1,20.894-4.03a12.063,12.063,0,0,1-1.519-6.293,12.063,12.063,0,0,1,1.519-6.293A4.316,4.316,0,0,1,24.459-18.91ZM37.572,0l2.046-14.384L46.562.868,53.6-14.384,55.552,0h2.356L54.684-21.855,46.593-4.371,38.657-21.824,35.216,0Z" transform="translate(1406.496 501.594)" fill="#fff" opacity="0.655"/>
    <path id="Pfad_4028" data-name="Pfad 4028" d="M8.8.372a6.526,6.526,0,0,0,5.3-3.1,13.427,13.427,0,0,0,2.077-7.6,13.427,13.427,0,0,0-2.077-7.6,6.526,6.526,0,0,0-5.3-3.1,6.526,6.526,0,0,0-5.3,3.1,13.427,13.427,0,0,0-2.077,7.6A13.427,13.427,0,0,0,3.5-2.728,6.526,6.526,0,0,0,8.8.372Zm0-19.282a4.316,4.316,0,0,1,3.565,2.294,12.063,12.063,0,0,1,1.519,6.293A12.063,12.063,0,0,1,12.369-4.03,4.316,4.316,0,0,1,8.8-1.736,4.316,4.316,0,0,1,5.239-4.03,12.063,12.063,0,0,1,3.72-10.323a12.063,12.063,0,0,1,1.519-6.293A4.316,4.316,0,0,1,8.8-18.91ZM32.519,0V-2.108H23.777l4.309-4.867c.837-.961,1.953-2.232,2.821-3.441a7.3,7.3,0,0,0,1.643-4.433,6.1,6.1,0,0,0-6.386-6.169,6.129,6.129,0,0,0-4.9,2.108,6.587,6.587,0,0,0-1.55,4.278H22.01a4.588,4.588,0,0,1,.682-2.449,3.976,3.976,0,0,1,3.441-1.829,3.916,3.916,0,0,1,4.123,4.03,5.326,5.326,0,0,1-1.147,3.162c-.5.744-1.891,2.387-2.418,3.007L19.158,0ZM37.2-1.24A1.575,1.575,0,0,0,38.75.31,1.575,1.575,0,0,0,40.3-1.24a1.575,1.575,0,0,0-1.55-1.55A1.575,1.575,0,0,0,37.2-1.24ZM51.088.372a6.526,6.526,0,0,0,5.3-3.1,13.427,13.427,0,0,0,2.077-7.6,13.427,13.427,0,0,0-2.077-7.6,6.526,6.526,0,0,0-5.3-3.1,6.526,6.526,0,0,0-5.3,3.1,13.427,13.427,0,0,0-2.077,7.6,13.427,13.427,0,0,0,2.077,7.6A6.526,6.526,0,0,0,51.088.372Zm0-19.282a4.316,4.316,0,0,1,3.565,2.294,12.063,12.063,0,0,1,1.519,6.293A12.063,12.063,0,0,1,54.653-4.03a4.316,4.316,0,0,1-3.565,2.294A4.316,4.316,0,0,1,47.523-4.03,12.063,12.063,0,0,1,46-10.323a12.063,12.063,0,0,1,1.519-6.293A4.316,4.316,0,0,1,51.088-18.91ZM65.038,0h2.294V-20.677H62.775l-1.209,2.17h3.472Zm9.8-1.24A1.575,1.575,0,0,0,76.384.31a1.575,1.575,0,0,0,1.55-1.55,1.575,1.575,0,0,0-1.55-1.55A1.575,1.575,0,0,0,74.834-1.24Zm20,1.24V-2.108H86.087L90.4-6.975c.837-.961,1.953-2.232,2.821-3.441a7.3,7.3,0,0,0,1.643-4.433,6.1,6.1,0,0,0-6.386-6.169,6.129,6.129,0,0,0-4.9,2.108,6.587,6.587,0,0,0-1.55,4.278H84.32A4.588,4.588,0,0,1,85-17.081a3.976,3.976,0,0,1,3.441-1.829,3.916,3.916,0,0,1,4.123,4.03,5.326,5.326,0,0,1-1.147,3.162c-.5.744-1.891,2.387-2.418,3.007L81.468,0Zm10.726.372a6.526,6.526,0,0,0,5.3-3.1,13.427,13.427,0,0,0,2.077-7.6,13.427,13.427,0,0,0-2.077-7.6,6.526,6.526,0,0,0-5.3-3.1,6.526,6.526,0,0,0-5.3,3.1,13.427,13.427,0,0,0-2.077,7.6,13.427,13.427,0,0,0,2.077,7.6A6.526,6.526,0,0,0,105.555.372Zm0-19.282a4.316,4.316,0,0,1,3.565,2.294,12.063,12.063,0,0,1,1.519,6.293A12.063,12.063,0,0,1,109.12-4.03a4.316,4.316,0,0,1-3.565,2.294A4.316,4.316,0,0,1,101.99-4.03a12.063,12.063,0,0,1-1.519-6.293,12.063,12.063,0,0,1,1.519-6.293A4.316,4.316,0,0,1,105.555-18.91ZM129.27,0V-2.108h-8.742l4.309-4.867c.837-.961,1.953-2.232,2.821-3.441a7.3,7.3,0,0,0,1.643-4.433,6.1,6.1,0,0,0-6.386-6.169,6.129,6.129,0,0,0-4.9,2.108,6.587,6.587,0,0,0-1.55,4.278h2.294a4.588,4.588,0,0,1,.682-2.449,3.976,3.976,0,0,1,3.441-1.829,3.916,3.916,0,0,1,4.123,4.03,5.326,5.326,0,0,1-1.147,3.162c-.5.744-1.891,2.387-2.418,3.007L115.909,0Zm14.663-21.824-12.9,17.918h10.6V0h2.294V-3.906h2.542V-6.014h-2.542ZM135.1-6.014l6.541-9.145v9.145ZM148.335,4.123l1.457.589,3.131-7.006-2.046-.744ZM170.562,0h2.294V-20.677H168.3l-1.209,2.17h3.472Zm19.623,0V-2.108h-8.742l4.309-4.867c.837-.961,1.953-2.232,2.821-3.441a7.3,7.3,0,0,0,1.643-4.433,6.1,6.1,0,0,0-6.386-6.169,6.129,6.129,0,0,0-4.9,2.108,6.587,6.587,0,0,0-1.55,4.278h2.294a4.588,4.588,0,0,1,.682-2.449A3.976,3.976,0,0,1,183.8-18.91a3.916,3.916,0,0,1,4.123,4.03,5.326,5.326,0,0,1-1.147,3.162c-.5.744-1.891,2.387-2.418,3.007L176.824,0Zm4.681-11.625a1.575,1.575,0,0,0,1.55,1.55,1.575,1.575,0,0,0,1.55-1.55,1.575,1.575,0,0,0-1.55-1.55A1.575,1.575,0,0,0,194.866-11.625Zm0,10.447a1.575,1.575,0,0,0,1.55,1.55,1.575,1.575,0,0,0,1.55-1.55,1.575,1.575,0,0,0-1.55-1.55A1.575,1.575,0,0,0,194.866-1.178ZM204.91-15.562a4.14,4.14,0,0,1,.806-2.17,3.138,3.138,0,0,1,2.666-1.178,3.263,3.263,0,0,1,3.534,3.534,3.278,3.278,0,0,1-1.736,3.069,4.584,4.584,0,0,1-2.356.434v2.046a5.328,5.328,0,0,1,2.356.434,3.671,3.671,0,0,1,2.046,3.472,4.1,4.1,0,0,1-4.061,4.185,3.826,3.826,0,0,1-3.193-1.55,4.64,4.64,0,0,1-.744-2.077h-2.294a6.067,6.067,0,0,0,.465,2.17A5.971,5.971,0,0,0,208.165.372a6.02,6.02,0,0,0,6.355-6.231c0-3.565-2.263-4.712-2.976-4.991a4.946,4.946,0,0,0,2.666-4.588,5.431,5.431,0,0,0-5.828-5.58,5.446,5.446,0,0,0-4.805,2.418,6.4,6.4,0,0,0-.961,3.038ZM221.154,0h2.294V-20.677h-4.557l-1.209,2.17h3.472Z" transform="translate(1621.496 501.594)" fill="#fff" opacity="0.655"/>
    <rect id="Rechteck_2528" data-name="Rechteck 2528" width="313" height="83" transform="translate(1902 447)" fill="#ff6200"/>
    <path id="Pfad_4027" data-name="Pfad 4027" d="M11.55-14.3a3,3,0,0,0,.125-.775q.025-.475.075-.825a3.374,3.374,0,0,0,0-.85q-.05-.2-.2-.75a8.872,8.872,0,0,1-.225-1.475q-.025-.575-.025-.9a1.373,1.373,0,0,0-.05-.45q-.05-.125-.25-.125h-.15q-1.25.15-1.75.25a4.212,4.212,0,0,1-.75.1h-.1a.933.933,0,0,1-.7-.7,1.757,1.757,0,0,1,0-.85q0-.25.025-.55t.025-.55a2.251,2.251,0,0,0,.025-.575A6.035,6.035,0,0,0,7.5-24.05q-.1-.55-.15-1.125T7.3-26.3q-.15-.15.025-.35a1.474,1.474,0,0,1,.5-.35,6.013,6.013,0,0,1,.725-.275q.4-.125.6-.175a4.96,4.96,0,0,1,1-.2.541.541,0,0,1,.4.15,3.274,3.274,0,0,0,1.05.4,11.112,11.112,0,0,0,2.8.35,7.485,7.485,0,0,0,.875-.05,8.554,8.554,0,0,0,1.275-.3,8.234,8.234,0,0,1,.925-.15,8.4,8.4,0,0,1,.875-.05,1.985,1.985,0,0,1,.9.2,1.1,1.1,0,0,1,.55.75,2.215,2.215,0,0,1,.125.675A1.6,1.6,0,0,1,19.85-25a6.806,6.806,0,0,0-.15.675q-.1.525-.175,1.125T19.4-22.05q-.05.55-.05.8t.025.6a4.887,4.887,0,0,0,.075.6,5.751,5.751,0,0,1,.1,1.025,13.346,13.346,0,0,1-.15,1.575q-.15.8-.2,1.3t-.05.925a6.647,6.647,0,0,0,.05.825,8.747,8.747,0,0,0,.2,1,7.228,7.228,0,0,1,.15,1.8,14.867,14.867,0,0,1-.075,1.65,9.84,9.84,0,0,1-.275,1.4,3.171,3.171,0,0,0-.1.475q-.05.325-.1.675a13.145,13.145,0,0,1-.525,2.3A6.387,6.387,0,0,1,17.45-3.25q-.25.25-.75.8t-1.05,1.1A14.461,14.461,0,0,1,14.225-.075a5.041,5.041,0,0,1-1.3.725,5.753,5.753,0,0,1-1.45.325Q10.7,1.05,9.6,1.05A9.7,9.7,0,0,1,7.35.8a4.6,4.6,0,0,1-2-1.1q-.2-.2-.475-.425T4.4-1.1A18.032,18.032,0,0,1,2.625-2.675,4.194,4.194,0,0,1,1.45-4.6a1.1,1.1,0,0,1-.15-.375,1.1,1.1,0,0,0-.15-.375,2.6,2.6,0,0,1-.125-.625Q1-6.3,1.05-7.55,1.05-8.9,1-9.8a8.2,8.2,0,0,0-.2-1.5q-.05-.25-.075-.5T.65-12.3a1.421,1.421,0,0,1,.55-1.3,2.668,2.668,0,0,1,1.45-.35,3.857,3.857,0,0,1,.425.025A6,6,0,0,0,3.7-13.9q.55.05,1.45.075t1.6.025H7.875a3.2,3.2,0,0,1,.65.05.657.657,0,0,1,.325.15.628.628,0,0,1,.15.25,1.386,1.386,0,0,1,.125.325,2.688,2.688,0,0,1-.075.675,5.636,5.636,0,0,0,.1,2.65A2.921,2.921,0,0,1,9.2-8.1a1.831,1.831,0,0,0,.1,1.2,1.355,1.355,0,0,0,.375.225,1.269,1.269,0,0,0,.525.125.962.962,0,0,0,.9-.65,2.478,2.478,0,0,0,.25-.75,3.268,3.268,0,0,0-.05-.95,20.327,20.327,0,0,1-.05-2.525A21.3,21.3,0,0,1,11.55-14.3Zm17.6-12.9a5.845,5.845,0,0,0,1.55-.15q.25-.05.45-.075a3.654,3.654,0,0,1,.45-.025,6.453,6.453,0,0,1,1.2.15q.4.1,1.075.25t1.275.3l2,.45a3.856,3.856,0,0,1,2.4,2,6.7,6.7,0,0,1,.55,1.725,9.806,9.806,0,0,1,.05,2.275q-.05.55-.05,1.175V-18.1q0,.35.025.6a2.185,2.185,0,0,0,.1.475q.075.225.175.5a6.649,6.649,0,0,0,.3.675,6.85,6.85,0,0,1,.4,1.15,5.025,5.025,0,0,1,.05,1.3q-.05.4-.075.825A2.644,2.644,0,0,1,41-12l-.35,2.1a23.743,23.743,0,0,1-1.325,5.3A9.915,9.915,0,0,1,36.15-.25a9.692,9.692,0,0,1-1.425.8,3.848,3.848,0,0,1-1.575.3,2.29,2.29,0,0,1-.6-.05,2.611,2.611,0,0,1-.475-.1Q31.7.6,31.2.5L30,.2H28.8q-.95,0-1.625-.05A4,4,0,0,1,25.95-.125a2.873,2.873,0,0,1-1-.7,6.058,6.058,0,0,1-.9-1.325q-.2-.35-.45-.775a5.455,5.455,0,0,0-.5-.725,11.168,11.168,0,0,1-.9-1.5,7.665,7.665,0,0,1-.55-1.35,10.192,10.192,0,0,1-.2-2q-.05-1.45,0-3.35.05-1.75.2-3.025a23.229,23.229,0,0,1,.5-2.725q.15-.7.25-1.175t.175-.85a5.782,5.782,0,0,0,.1-.75q.025-.375.025-.925,0-.6.025-.975a3.85,3.85,0,0,1,.1-.675,2.931,2.931,0,0,1,.225-.6l.35-.7a3.987,3.987,0,0,1,2.4-2.275A12.338,12.338,0,0,1,29.15-27.2Zm.05,15.9a9.444,9.444,0,0,0,.45,4.85,3.052,3.052,0,0,0,.375.625.814.814,0,0,0,.675.375,2.09,2.09,0,0,0,.35-.1A1.751,1.751,0,0,0,31.625-6a2.89,2.89,0,0,0,.475-.65q.15-.35.275-.725a5.249,5.249,0,0,0,.2-.875,10.706,10.706,0,0,0,.1-1.175q.025-.675.025-1.625,0-.8.025-1.375t.05-1.05a8.266,8.266,0,0,1,.1-.925q.075-.45.175-1t.15-.875a6.03,6.03,0,0,0,.05-.875A3.662,3.662,0,0,0,33-18.675,4.463,4.463,0,0,0,32-19.9q-.25-.2-.45-.375T31.3-20.5a.409.409,0,0,0-.25-.15,2.09,2.09,0,0,0-.35.1A3.668,3.668,0,0,0,29.3-18a6.031,6.031,0,0,0-.175,1.225A11.252,11.252,0,0,0,29.2-15.2,15.263,15.263,0,0,1,29.2-11.3Zm14.3-9.15q-.35-2.9-.375-4.3a4.267,4.267,0,0,1,.225-1.85,1.664,1.664,0,0,1,.8-.7,2.932,2.932,0,0,1,1.15-.15q.4,0,.9.025t1.15.075a6,6,0,0,1,.625.025,4.3,4.3,0,0,0,.475.025q.3,0,.6-.025t.75-.075a3.366,3.366,0,0,1,.55-.05h.45a1.9,1.9,0,0,1,.8.125.892.892,0,0,1,.4.475,1.046,1.046,0,0,1,.15.625q0,.425-.2,2.025-.05.7-.1,1.175t-.1.875q-.05.4-.125.8t-.175.95q-.15,1-.275,1.75a11.209,11.209,0,0,0-.15,1.425q-.025.675,0,1.3T51.1-14.55a21.827,21.827,0,0,1,.15,2.5q0,1.2-.1,2.2-.05.45-.125,1.075t-.1,1.25q-.025.625,0,1.2T51-5.4q0,.25.05.8l.1,1.1a5.6,5.6,0,0,1,.15,1.1v.85a3.79,3.79,0,0,1-.1.65,2.191,2.191,0,0,1-.2.4,1.88,1.88,0,0,1-1.2.95,3.518,3.518,0,0,1-.6.125Q48.95.6,47.95.6H46.7a4.635,4.635,0,0,0-.9.1,7.141,7.141,0,0,1-1.15.15.554.554,0,0,1-.175-.025A.554.554,0,0,0,44.3.8a1.679,1.679,0,0,1-.75-.65,1.856,1.856,0,0,1-.225-.375,1.566,1.566,0,0,1-.1-.475Q43.2-1,43.2-1.525V-2.95q.05-.9.025-2.05T43.2-6.85a23.008,23.008,0,0,1-.025-2.825Q43.25-11,43.35-12.15q.05-.45.1-1.325T43.6-15.2q.05-.85.075-1.425T43.7-17.75q0-.55-.05-1.175T43.5-20.45ZM66.45-9.15a2.368,2.368,0,0,0,.125.425q.025.025.075-.075a1.04,1.04,0,0,0,.05-.4,5.735,5.735,0,0,1,.05-.7q0-.35.05-1t.1-1.25a24.7,24.7,0,0,0,.075-2.475A9.77,9.77,0,0,0,66.8-16.5q-.15-.8-.225-1.25t-.125-.95q-.05-.5-.05-1.275v-4.55a11.574,11.574,0,0,1,.05-1.25,1.447,1.447,0,0,1,.15-.575,2.425,2.425,0,0,1,.3-.35,1.343,1.343,0,0,1,.725-.45,6.007,6.007,0,0,1,1.275-.1q.4,0,.975-.025t.975-.075a8.537,8.537,0,0,1,1.3-.1h1.3a2.769,2.769,0,0,1,.775.125.84.84,0,0,1,.575.475.918.918,0,0,1,.125.425q.025.275.025,1.625.05.75.05,1.575A10.846,10.846,0,0,0,75.05-22q.05.75.075,1.4a12.312,12.312,0,0,1-.025,1.35q-.05.7-.125,1.5t-.225,1.8q-.2,1.25-.25,1.975a17.365,17.365,0,0,0,0,1.875q.15,2.85.225,4.85T74.75-3.9q0,1.2-.075,2A7.473,7.473,0,0,1,74.45-.575a2.889,2.889,0,0,1-.375.85A2.354,2.354,0,0,1,73.5.85a1.685,1.685,0,0,1-.95.3,5.62,5.62,0,0,1-1.3-.2q-.7-.2-1.125-.275A4.745,4.745,0,0,0,69.3.6a4.305,4.305,0,0,0-.475.025Q68.6.65,68.3.7q-.35.05-.575.075A3.5,3.5,0,0,1,67.35.8a.554.554,0,0,1-.175-.025A.554.554,0,0,0,67,.75a1.9,1.9,0,0,1-.675-.2,1.387,1.387,0,0,1-.5-.525,6.5,6.5,0,0,1-.475-1.05Q65.1-1.7,64.75-2.8q-.2-.75-.375-1.25t-.3-.875A5.161,5.161,0,0,0,63.8-5.6q-.15-.3-.4-.7l-.6-1.05q-.1,0-.1.65a13.475,13.475,0,0,0,.025,1.8q.075,1.15.175,2.25a7.57,7.57,0,0,1,.05,2.275A1.522,1.522,0,0,1,62.2.65a1.487,1.487,0,0,1-.75.2A5.591,5.591,0,0,1,60.5.7,5.364,5.364,0,0,0,59.3.55a3.576,3.576,0,0,0-.75.075Q58.2.7,57.65.85a5.519,5.519,0,0,1-1.75.3A2.347,2.347,0,0,1,54.75.875a1.064,1.064,0,0,1-.5-1.025v-3.9q0-.85.025-1.375t.05-.9Q54.35-6.7,54.4-7.2a20.332,20.332,0,0,0,.15-2.3,17.847,17.847,0,0,0-.15-2.2,19.728,19.728,0,0,1-.25-2.075A9.9,9.9,0,0,1,54.2-15.5q.15-1.9.175-3.225T54.3-21.55l-.2-2.95q-.05-.4-.075-.825T54-26a2.423,2.423,0,0,1,.025-.45.837.837,0,0,1,.225-.3l.6-.4a.442.442,0,0,1,.2-.125q.1-.025.275-.05t.475-.05q.3-.025.9-.025,1.2-.05,1.9-.1t1.75-.2a3.366,3.366,0,0,1,.55-.05h.5a2.8,2.8,0,0,1,1.05.15l.65.55a1.507,1.507,0,0,1,.325.425A4.03,4.03,0,0,1,63.6-26q.15.7.3,1.675t.25,2.275q.1,1.05.175,1.8t.2,1.375q.125.625.3,1.225a11.508,11.508,0,0,0,.475,1.3q.25.7.4,1.2a7.425,7.425,0,0,1,.225.975q.075.475.125,1.025t.1,1.4q.05.95.125,1.5T66.45-9.15ZM99.9-27.4q2.15.05,2.75,1.5a2.321,2.321,0,0,1,.125.4q.075.3.125.6a4.9,4.9,0,0,1,.15.8,3.709,3.709,0,0,0,.15.75,5.913,5.913,0,0,1,.1,1.85,2.29,2.29,0,0,1-.45,1.25,1.424,1.424,0,0,1-1.1.5h-.275a1.55,1.55,0,0,1-.375-.05,3.106,3.106,0,0,0-.6-.05,2.778,2.778,0,0,0-.625.075q-.325.075-.975.275a3.716,3.716,0,0,1-.65.15,4.616,4.616,0,0,1-.65.05,3.409,3.409,0,0,1-1.75-.5,9,9,0,0,0-1-.45q-1.55,0-1.85.55a4.443,4.443,0,0,0-.3,1.95,5.127,5.127,0,0,0,.175,1.5q.175.55,1.175.55H95.6q.5,0,.95-.025t.55-.025a4.99,4.99,0,0,1,.6-.1.711.711,0,0,1,.4.1,2.424,2.424,0,0,1,.35.3,1.307,1.307,0,0,1,.375.675,6.182,6.182,0,0,1,.025,1.325,7.075,7.075,0,0,0-.025.975,4.583,4.583,0,0,0,.125.675,2.367,2.367,0,0,1-.65,2.55,1.3,1.3,0,0,1-.55.3,4.531,4.531,0,0,1-.8.05h-.6a3.955,3.955,0,0,0-.725-.05h-1.9a1.35,1.35,0,0,0-.475.05L93-8.85v.4a7.017,7.017,0,0,0,.1.95q.1.65.225,1.4t.25,1.45q.125.7.225,1.1a6.87,6.87,0,0,1,.225,1.075q.025.325.025.725a2.29,2.29,0,0,1-.05.6,5.2,5.2,0,0,1-.25.55,3.877,3.877,0,0,1-.65.75,2.424,2.424,0,0,1-.35.3A1.111,1.111,0,0,1,92.4.6a2.373,2.373,0,0,1-.55.05H89.325A2.516,2.516,0,0,0,88.75.7a4.616,4.616,0,0,1-.65.05h-.6a2.925,2.925,0,0,1-1-.1,2.125,2.125,0,0,1-.55-.275,3.77,3.77,0,0,1-.5-.425A2.522,2.522,0,0,1,84.9-1a8.239,8.239,0,0,1-.25-1.35,13.738,13.738,0,0,1,0-1.775q.05-1.525.125-3.5t.175-4.05q.1-2.075.2-3.475.1-1.25.15-2.2t.05-1.725q0-.775-.025-1.5T85.2-22.05a12.582,12.582,0,0,1-.075-2.275A3.654,3.654,0,0,1,85.6-25.8a2.732,2.732,0,0,1,2.55-1.6,18.153,18.153,0,0,1,2.35.15q1.15.15,2.35.4,1,0,1.975-.075T96.8-27.1q1.35-.2,2.025-.25T99.9-27.4Zm4.8,6.95q-.35-2.9-.375-4.3a4.267,4.267,0,0,1,.225-1.85,1.664,1.664,0,0,1,.8-.7,2.932,2.932,0,0,1,1.15-.15q.4,0,.9.025t1.15.075a6,6,0,0,1,.625.025,4.305,4.305,0,0,0,.475.025q.3,0,.6-.025T111-27.4a3.366,3.366,0,0,1,.55-.05H112a1.9,1.9,0,0,1,.8.125.892.892,0,0,1,.4.475,1.046,1.046,0,0,1,.15.625q0,.425-.2,2.025-.05.7-.1,1.175t-.1.875q-.05.4-.125.8t-.175.95q-.15,1-.275,1.75a11.209,11.209,0,0,0-.15,1.425q-.025.675,0,1.3t.075,1.375a21.827,21.827,0,0,1,.15,2.5q0,1.2-.1,2.2-.05.45-.125,1.075t-.1,1.25q-.025.625,0,1.2t.075.925q0,.25.05.8l.1,1.1a5.6,5.6,0,0,1,.15,1.1v.85a3.79,3.79,0,0,1-.1.65,2.192,2.192,0,0,1-.2.4,1.88,1.88,0,0,1-1.2.95,3.518,3.518,0,0,1-.6.125Q110.15.6,109.15.6H107.9a4.635,4.635,0,0,0-.9.1,7.141,7.141,0,0,1-1.15.15.554.554,0,0,1-.175-.025A.554.554,0,0,0,105.5.8a1.679,1.679,0,0,1-.75-.65,1.856,1.856,0,0,1-.225-.375,1.566,1.566,0,0,1-.1-.475q-.025-.3-.025-.825V-2.95q.05-.9.025-2.05T104.4-6.85a23.005,23.005,0,0,1-.025-2.825q.075-1.325.175-2.475.05-.45.1-1.325t.15-1.725q.05-.85.075-1.425t.025-1.125q0-.55-.05-1.175T104.7-20.45ZM128.9,4.3a4.989,4.989,0,0,1-.6.1.2.2,0,0,1-.125-.025.2.2,0,0,0-.125-.025q-.15-.05-.275-.725a12.4,12.4,0,0,1-.175-1.5q-.05-.825-.05-1.575V-.4q.1-.35,0-.35l-.05.05q-.05.05-.075.05t-.075.05a4.178,4.178,0,0,1-.8.5q-.5.25-1.05.475a7,7,0,0,1-1.1.35,4.548,4.548,0,0,1-1,.125,10.048,10.048,0,0,1-2.7-.375A7.058,7.058,0,0,1,118.25-.75,5.839,5.839,0,0,1,116.9-2a8.354,8.354,0,0,1-1-1.5,3.939,3.939,0,0,1-.325-1.1,13.3,13.3,0,0,1-.075-1.65v-.8a4.112,4.112,0,0,0-.05-.625q-.05-.325-.125-.775T115.1-9.7a5.516,5.516,0,0,1-.125-.85q-.025-.4-.025-.95a8.422,8.422,0,0,1,.125-1.525q.125-.675.475-2.075.25-.85.375-1.475a7.792,7.792,0,0,0,.15-1.15,7.365,7.365,0,0,0-.025-1.05q-.05-.525-.15-1.175a6.935,6.935,0,0,1,.025-2.125,4.934,4.934,0,0,1,.775-1.875,8.727,8.727,0,0,1,2.725-2.575,6.91,6.91,0,0,1,3.625-.975,6.211,6.211,0,0,1,1.2.1,8.811,8.811,0,0,1,1.2.35q1.2.5,2.2.825a12.429,12.429,0,0,0,2,.475,4.67,4.67,0,0,1,2.2.9,5.575,5.575,0,0,1,1.45,1.675,7.54,7.54,0,0,1,.8,2.15,11.381,11.381,0,0,1,.25,2.375,5.607,5.607,0,0,1-.45,2.4q-.45.95-2.25.95a1.4,1.4,0,0,1-.275-.025,1.4,1.4,0,0,0-.275-.025,1.55,1.55,0,0,0-.375-.05H130.4a3,3,0,0,0-.775.1,6.176,6.176,0,0,0-.925.35,3.17,3.17,0,0,1-1.3.35,1.141,1.141,0,0,1-.9-.4,1.078,1.078,0,0,1-.3-.65q-.05-.4-.05-1.7,0-.65.025-1a2.048,2.048,0,0,0-.025-.575,2.265,2.265,0,0,0-.125-.4,3.67,3.67,0,0,0-.225-.425.9.9,0,0,0-.8-.5q-.9,0-1.4,1.35a4.011,4.011,0,0,0-.25,1.45q0,.8.15,2.3a19.2,19.2,0,0,1-.15,4.45,6.949,6.949,0,0,0,.3,3.9,2.3,2.3,0,0,0,.45.575.935.935,0,0,0,.65.225.687.687,0,0,0,.525-.25,1.491,1.491,0,0,0,.325-.625,5.793,5.793,0,0,0,.15-.775,5.47,5.47,0,0,0,.05-.65,1.109,1.109,0,0,1-.075-.35q-.025-.25-.075-.5a5.036,5.036,0,0,1-.075-.65,6.949,6.949,0,0,0-.075-.7,5.4,5.4,0,0,1-.1-.7.538.538,0,0,1,.1-.3,1.39,1.39,0,0,1,.95-.6,2.854,2.854,0,0,1,.95-.2,3.222,3.222,0,0,1,.4.025q.2.025.5.075t.85.1q.55.05,1.15.1t1.15.075q.55.025.85.025a4.213,4.213,0,0,0,.7-.1,1.517,1.517,0,0,1,.45-.05q.7,0,.85,1.25a4.88,4.88,0,0,1,.075.55,4.88,4.88,0,0,0,.075.55,9.511,9.511,0,0,1,.05,1.3q0,1.05-.025,2.475t-.05,3.025q-.025,1.6-.075,3t-.1,2.35a7.338,7.338,0,0,1-.1,1.1,1.038,1.038,0,0,1-1.15.8,2.652,2.652,0,0,1-.3-.025,4.146,4.146,0,0,0-.5-.025q-.55-.05-1.025-.05h-1.65A3.264,3.264,0,0,0,128.9,4.3Zm19.45-27.85q0-.95.025-1.475t.05-.775a2.822,2.822,0,0,1,.05-.35.317.317,0,0,1,.075-.15,2.035,2.035,0,0,1,.95-.75,2.239,2.239,0,0,1,.65-.05h.575a7.163,7.163,0,0,1,.775.05q.45,0,.8.025t.6.025q.35,0,.6-.025t.6-.075a8.218,8.218,0,0,1,1.35-.15,1.935,1.935,0,0,1,1.075.25,1.844,1.844,0,0,1,.625.8,1.187,1.187,0,0,1,.175.45,7.275,7.275,0,0,1,.025.75,7.942,7.942,0,0,1-.05.925,12.533,12.533,0,0,1-.25,1.275q-.1.55-.225,1.225T156.65-20.5a6.331,6.331,0,0,0-.15.95,6.329,6.329,0,0,1-.15.95,11.283,11.283,0,0,0-.15,1.75,8.541,8.541,0,0,0,.2,1.75,2.563,2.563,0,0,1,.125.55q.025.25.05.65t.05,1.05q.025.65.025,1.85.05,1.9.05,2.7a6.856,6.856,0,0,0,.1,1.3,5.76,5.76,0,0,1,.125.975q.025.525.025,1.325,0,.55-.05,1.275a5.3,5.3,0,0,1-.275,1.375,2.846,2.846,0,0,1-.675,1.1,1.622,1.622,0,0,1-1.2.45,4.167,4.167,0,0,1-.95-.15q-.4-.1-.675-.15a2.937,2.937,0,0,0-.525-.05,2.61,2.61,0,0,0-.875.15q-.425.15-.975.4a2.168,2.168,0,0,1-.65.275,4.685,4.685,0,0,1-.55.025,2.91,2.91,0,0,1-.475-.025A.9.9,0,0,1,148.75-.2a1.987,1.987,0,0,1-.3-.25L148.2-.7a1.6,1.6,0,0,1-.3-.675,5.09,5.09,0,0,1,0-1.025,6.83,6.83,0,0,0,0-1.65q0-.35-.025-.925T147.85-6a9.42,9.42,0,0,0-.025-.975A.436.436,0,0,0,147.7-7.2a.931.931,0,0,0-.6-.2.745.745,0,0,0-.65.4,2.067,2.067,0,0,0-.125.4,4.848,4.848,0,0,0,.075.9,10.315,10.315,0,0,1,.075,2.525A6.371,6.371,0,0,1,145.9-1.3a3.314,3.314,0,0,1-.55.775,1.548,1.548,0,0,1-.75.475,2,2,0,0,1-.6.125q-.35.025-1.2.075-.55.05-1.325.1A9.977,9.977,0,0,0,140.2.4q-.75.1-1.225.15A7.709,7.709,0,0,1,138.2.6a1.6,1.6,0,0,1-1.65-1.2,5.527,5.527,0,0,1-.125-1.575A15.029,15.029,0,0,1,136.65-4.4q.1-.7.175-1.15a5.049,5.049,0,0,0,.075-.825q0-.375-.025-.775a6.8,6.8,0,0,0-.125-.9,11.206,11.206,0,0,1-.15-1.55q0-.55.1-1.7a11.213,11.213,0,0,0,.1-1.575V-17.55q0-.7-.05-1.2t-.125-.9q-.075-.4-.225-1.05a14.908,14.908,0,0,1-.2-1.825,4.213,4.213,0,0,1,.1-1.425,2.267,2.267,0,0,1,1.325-1.725A5.622,5.622,0,0,1,139.8-26.1a3.654,3.654,0,0,1,.45.025,3.656,3.656,0,0,0,.45.025,6.443,6.443,0,0,0,.8.05h3a2.226,2.226,0,0,1,1,.2q.4.2.4.9v.55q0,.4-.025.975t-.075,1.25q-.05.675-.15,1.275-.05.7-.1,1.175t-.075.825a3.9,3.9,0,0,0,0,.625q.025.275.025.625.05.35.125.85t.15.975q.075.475.125.825a1.831,1.831,0,0,0,.1.45.826.826,0,0,0,.75.4,1.247,1.247,0,0,0,.55-.1.529.529,0,0,0,.325-.375,8.741,8.741,0,0,0,.125-1.375,17.222,17.222,0,0,1,.1-1.9q.1-.9.3-2.1.05-.35.075-.625t.05-.65q.025-.375.05-.9T148.35-23.55ZM172.8-8.4q0,1,.025,1.675T172.9-5.55q.05.5.1.925a8.751,8.751,0,0,0,.15.875q.2,1.05.3,1.725a5.581,5.581,0,0,1,.075,1.1,1.481,1.481,0,0,1-.175.675,1.445,1.445,0,0,1-.45.45,2.039,2.039,0,0,1-1.2.35h-.4a2.317,2.317,0,0,1-.45-.05,3.366,3.366,0,0,0-.55-.05h-.5a10.175,10.175,0,0,0-2,.2,7.537,7.537,0,0,1-1.35.15A1.7,1.7,0,0,1,164.8-.3a3.205,3.205,0,0,1-.1-1,13.73,13.73,0,0,1,.1-1.6q.05-.35.075-1.225T164.9-6.1V-7.4q0-.55.025-.975t.05-.8Q165-9.55,165.05-10q.05-.5.075-.825t.025-.65V-13.1q0-.7-.025-1.525T165.05-15.9a9.109,9.109,0,0,1-.05-1v-.9l.05-.75h-.4q-.15,0-.6.025a5.566,5.566,0,0,0-.9.125q-.9.1-1.525.175a9.213,9.213,0,0,1-1.075.075,3.011,3.011,0,0,1-1.075-.15,1.742,1.742,0,0,1-.675-.5,1.6,1.6,0,0,1-.475-.925,11.875,11.875,0,0,1,.025-2.025,10.342,10.342,0,0,0,.075-1.375,7.179,7.179,0,0,0-.125-.825,2.567,2.567,0,0,1-.125-.6q-.025-.3-.025-.45a2.838,2.838,0,0,1,.475-1.475,1.406,1.406,0,0,1,1.225-.775,2.937,2.937,0,0,1,.525.05q.275.05.675.15a3.909,3.909,0,0,0,.55.125,3.654,3.654,0,0,0,.45.025h.4q.3,0,.6-.025l.575-.05a.677.677,0,0,0,.325-.075.456.456,0,0,1,.275-.05,2.425,2.425,0,0,0,.475-.05,4.616,4.616,0,0,0,.65-.05q.35-.05.6-.1a3.1,3.1,0,0,1,.75-.1h1.225a3.5,3.5,0,0,1,.575.05,23.56,23.56,0,0,0,2.6.15q.5,0,1.05-.025t1.25-.075q.7-.05,1.325-.05H175.9a6.762,6.762,0,0,1,1.9.15,1.234,1.234,0,0,1,.9.75,1.278,1.278,0,0,1,.125.35,2.266,2.266,0,0,1-.025.55,8.065,8.065,0,0,0-.075,1.05q-.025.8-.025,1.65-.1,1.65-.15,2.225a3.717,3.717,0,0,1-.2.975,1.769,1.769,0,0,1-.65.8,2.182,2.182,0,0,1-1.15.25q-.4,0-.975-.05a10.466,10.466,0,0,1-1.275-.2q-.6-.1-.9-.175a2.051,2.051,0,0,0-.45-.075q-.2,0-.2.1a3.926,3.926,0,0,0-.125.875q-.025.525-.125,1.625-.1,1.6-.075,2.525A17.313,17.313,0,0,0,172.6-12a10.947,10.947,0,0,1,.125,1.45Q172.75-9.7,172.8-8.4Z" transform="translate(1969 500.594)" fill="#fff"/>
    <g id="Rechteck_2932" data-name="Rechteck 2932" transform="translate(694 447)" fill="none" stroke="#ff6200" stroke-width="1">
      <rect width="1521" height="83" stroke="none"/>
      <rect x="0.5" y="0.5" width="1520" height="82" fill="none"/>
    </g>
  </g>
</svg>
