<svg xmlns="http://www.w3.org/2000/svg" width="266" height="15" viewBox="0 0 266 15">
  <g id="Gruppe_7030" data-name="Gruppe 7030" transform="translate(-421 -385)">
    <g id="Gruppe_7028" data-name="Gruppe 7028" transform="translate(0 20)">
      <rect id="Rechteck_2551" data-name="Rechteck 2551" width="266" height="15" transform="translate(421 365)" fill="#1a1a1a"/>
      <rect id="Rechteck_2931" data-name="Rechteck 2931" width="250" height="15" transform="translate(421 365)" fill="#00fe7f"/>
    </g>
    <path id="Pfad_4039" data-name="Pfad 4039" d="M1.125-4.44a1.335,1.335,0,0,1-.36-.63,2.477,2.477,0,0,1-.113-.7A1.7,1.7,0,0,1,.72-6.36a1.473,1.473,0,0,1,.2-.382,3.092,3.092,0,0,1,.413-.427q.09-.075.2-.18t.188-.18a1.38,1.38,0,0,1,.72-.458,3.71,3.71,0,0,1,.87-.1q.375,0,.66.015a1.669,1.669,0,0,1,.517.1,1.309,1.309,0,0,1,.435.285,2.7,2.7,0,0,1,.412.54l.165.285q.06.105.1.188a.5.5,0,0,1,.045.158q.008.075.008.195a1.524,1.524,0,0,1-.015.24q-.015.09-.075.315a3.069,3.069,0,0,0-.068.3q-.022.135-.037.255a1.938,1.938,0,0,1-.165.615,1,1,0,0,1-.42.465l-.09.045L4.95-4a1.98,1.98,0,0,1,.51.352,1.159,1.159,0,0,1,.255.442,1.366,1.366,0,0,1,.06.247q.03.173.06.368.045.27.068.465a3.157,3.157,0,0,1,.023.36,1.386,1.386,0,0,1-.03.3,1.854,1.854,0,0,1-.09.285,1.5,1.5,0,0,1-.465.66,2.791,2.791,0,0,1-.7.412,3.339,3.339,0,0,1-.8.218,5.729,5.729,0,0,1-.81.06H2.678a.75.75,0,0,1-.233-.03A3.521,3.521,0,0,1,2,.03a4.2,4.2,0,0,1-.51-.187A2.608,2.608,0,0,1,1.02-.42a.922.922,0,0,1-.3-.33A.4.4,0,0,1,.652-.877q-.037-.1-.067-.188T.5-1.29q-.06-.135-.1-.255-.075-.15-.12-.263A.936.936,0,0,1,.21-2.04a1.15,1.15,0,0,1,0-.262q.015-.143.045-.352.075-.36.12-.555A1.55,1.55,0,0,1,.5-3.555a.874.874,0,0,1,.113-.18q.052-.06.173-.18A1.059,1.059,0,0,1,1.125-4.2l.165-.09ZM2.97-2.88a.441.441,0,0,0-.352.218.685.685,0,0,0-.158.382.653.653,0,0,0,.15.383.439.439,0,0,0,.36.2.5.5,0,0,0,.345-.135.48.48,0,0,0,.165-.33.733.733,0,0,0-.038-.375.489.489,0,0,0-.187-.255A.505.505,0,0,0,2.97-2.88Zm.09-2.565a.8.8,0,0,0,.09-.007q.06-.008.135-.023a.469.469,0,0,0,.128-.015.5.5,0,0,0,.082-.03.527.527,0,0,0,.165-.217.712.712,0,0,0,.075-.308.235.235,0,0,0-.1-.2.348.348,0,0,0-.217-.075,2.352,2.352,0,0,0-.4.068.36.36,0,0,0-.18.112.809.809,0,0,0-.128.165.312.312,0,0,0-.053.135.261.261,0,0,0,.105.27.489.489,0,0,0,.15.09A.242.242,0,0,0,3.06-5.445Zm7.98-2.49a1.141,1.141,0,0,1,.233.12.651.651,0,0,1,.157.135.52.52,0,0,1,.067.09.85.85,0,0,1,.068.135.809.809,0,0,0,.1.142,1.341,1.341,0,0,1,.112.158,1.07,1.07,0,0,1,.24.375,2.6,2.6,0,0,1,.09.57,2.056,2.056,0,0,1,.015.42q-.015.18-.045.42a2.071,2.071,0,0,1-.54,1.11,2.251,2.251,0,0,0-.165.2q-.105.135-.21.255-.27.345-.577.675t-.472.48a1.551,1.551,0,0,1-.142.127,1.125,1.125,0,0,0-.1.083q-.06.03.015.03a4.538,4.538,0,0,0,.577-.037,4,4,0,0,0,.563-.113,2.1,2.1,0,0,1,.285-.06,1.82,1.82,0,0,1,.225-.015.513.513,0,0,1,.48.225.592.592,0,0,1,.023.09,1.035,1.035,0,0,1,.007.15v.308q0,.2-.015.548t-.023.562a2.389,2.389,0,0,1-.03.338.876.876,0,0,1-.053.188.656.656,0,0,1-.075.127.36.36,0,0,1-.18.12,1.311,1.311,0,0,1-.33.03A1.562,1.562,0,0,1,10.935,0L10.6-.075a1.741,1.741,0,0,0-.225-.038l-.165-.015q-.075-.007-.165-.007-.135,0-.3.015t-.375.045Q9.135-.03,9-.015t-.217.03A.767.767,0,0,1,8.655.03h-.12q-.12,0-.345.023T7.71.12q-.12.015-.24.022t-.2.007a.319.319,0,0,1-.3-.127,1.144,1.144,0,0,1-.12-.337Q6.825-.45,6.8-.555a1.569,1.569,0,0,1-.03-.24,2.432,2.432,0,0,1,.008-.323q.015-.187.03-.487a1.432,1.432,0,0,0,.015-.2,1.311,1.311,0,0,0-.03-.247,3.319,3.319,0,0,1-.045-.428.46.46,0,0,1,.06-.232.892.892,0,0,1,.135-.2A1.97,1.97,0,0,1,7.23-3.15a4.8,4.8,0,0,0,.405-.33,2.945,2.945,0,0,0,.36-.4,4.672,4.672,0,0,1,.435-.5,5.641,5.641,0,0,1,.525-.465,2.748,2.748,0,0,0,.375-.382A.479.479,0,0,0,9.4-5.55q-.03-.39-.315-.39a.8.8,0,0,0-.285.075,1.951,1.951,0,0,0-.308.2q-.157.12-.442.39-.3.255-.428.367a1.45,1.45,0,0,1-.233.172.354.354,0,0,1-.15.045.261.261,0,0,1-.1-.045.291.291,0,0,1-.083-.09,2.246,2.246,0,0,1-.112-.225L6.863-5.22A1.012,1.012,0,0,0,6.75-5.4q-.135-.21-.27-.472a2.642,2.642,0,0,1-.18-.412.349.349,0,0,1-.008-.187,1.348,1.348,0,0,1,.142-.248A1.529,1.529,0,0,1,6.69-7q.135-.112.36-.277.105-.075.225-.157t.2-.128a2.165,2.165,0,0,1,1.395-.51h.39q.24,0,.63.015.315,0,.5.008t.3.022a1.012,1.012,0,0,1,.18.038Q10.935-7.965,11.04-7.935ZM12.57-.21a.767.767,0,0,1,.06-.33q.075-.21.33-.765a5.656,5.656,0,0,0,.24-.533q.075-.2.18-.5.075-.21.158-.4t.113-.285l.39-.855q.15-.33.315-.66.12-.225.21-.435t.2-.48q.112-.27.255-.645l.353-.93q.18-.495.307-.81t.2-.495a1.186,1.186,0,0,1,.127-.247q.052-.068.1-.068.015,0,.045-.03a.412.412,0,0,1,.233-.083,2.185,2.185,0,0,1,.247-.023q.075,0,.15.007t.15.023a.639.639,0,0,0,.225.03h.4q.315.015.405.015a.245.245,0,0,1,.135.03.177.177,0,0,1,.06.2,1.884,1.884,0,0,1-.21.457q-.075.135-.165.315t-.21.48q-.24.555-.45.952t-.51.878q-.3.5-.57,1.035a4.588,4.588,0,0,0-.39,1.11q-.03.1-.052.195t-.068.217q-.045.128-.128.33t-.217.548q-.165.4-.307.78t-.172.5q-.075.225-.1.278A.557.557,0,0,1,14.55-.3a.809.809,0,0,1-.4.195.613.613,0,0,1-.195.03h-.4q-.12,0-.2-.008T13.2-.09a1.244,1.244,0,0,0-.15.008,1.012,1.012,0,0,0-.12.022.667.667,0,0,1-.127.015H12.72a.146.146,0,0,1-.1-.03Q12.57-.105,12.57-.21ZM18.75-4q.015-.66.022-1.185t-.007-.63a7.1,7.1,0,0,1-.015-.8q.015-.413.045-.653a2.421,2.421,0,0,1,.112-.48.247.247,0,0,1,.173-.15,1.273,1.273,0,0,1,.36-.03h.3q.18,0,.45.015.465.015.6.03a.414.414,0,0,1,.225.09.3.3,0,0,1,.142.225,2.422,2.422,0,0,1-.022.54,4.3,4.3,0,0,0-.03.5,6.012,6.012,0,0,0,.06.712q.015.15.03.248a1.281,1.281,0,0,1,.015.195v.517q0,.255-.022.495t-.052.45q-.045.39-.052.758a4.95,4.95,0,0,0,.022.638q.045.465.068.78t.022.525a3.018,3.018,0,0,1-.015.338,1.476,1.476,0,0,1-.045.232A.976.976,0,0,1,20.7,0a.332.332,0,0,1-.1.015h-.083a.636.636,0,0,1-.157-.03.9.9,0,0,0-.218-.03h-.33a.727.727,0,0,0-.142.015,1.89,1.89,0,0,1-.33.045.247.247,0,0,1-.06-.008A.247.247,0,0,0,19.215,0Q19-.015,18.87-.375a1.466,1.466,0,0,1-.022-.18q-.007-.1.007-.405Q18.84-1.3,18.8-1.62t-.1-.645q0-.06.007-.563T18.75-4Zm3.45.45a.481.481,0,0,1-.023-.2q.007-.128.052-.518.03-.2.052-.412t.023-.338q.03-.285.067-.607a3.366,3.366,0,0,1,.135-.63,2.467,2.467,0,0,1,.263-.57,1.467,1.467,0,0,1,.435-.443,8.344,8.344,0,0,1,.847-.495,2.041,2.041,0,0,1,.938-.225q.165,0,.263.007t.188.023a1.05,1.05,0,0,1,.24.082l.315.143q.165.075.308.157a2.262,2.262,0,0,1,.2.128,2.108,2.108,0,0,1,.42.412,2.938,2.938,0,0,1,.36.533,2.548,2.548,0,0,1,.218.6,4.708,4.708,0,0,1,.112.7,2.775,2.775,0,0,1-.022.555q-.037.24-.142.645-.06.225-.09.367t-.052.27q-.023.128-.038.263t-.03.33a3.719,3.719,0,0,1-.2.968,3.716,3.716,0,0,1-.465.923,2.569,2.569,0,0,1-.7.69,1.674,1.674,0,0,1-.937.27A1.765,1.765,0,0,1,23.9-.262a3.47,3.47,0,0,1-.84-.848,4.565,4.565,0,0,1-.57-1.095,3.943,3.943,0,0,1-.24-1.1q-.015-.075-.023-.15A.333.333,0,0,0,22.2-3.555Zm2.13-1.41q-.03.15-.067.383a2.555,2.555,0,0,0-.038.4A.91.91,0,0,0,24.24-4q.015.068.06.233.03.09.075.233t.075.262a2.344,2.344,0,0,0,.127.45.49.49,0,0,0,.158.18.261.261,0,0,0,.1.045.275.275,0,0,0,.218-.128,1.431,1.431,0,0,0,.172-.3,2.357,2.357,0,0,0,.12-.345q.045-.173.06-.262a5.145,5.145,0,0,0,.09-.645,3.166,3.166,0,0,0-.045-.645q-.015-.15-.038-.33a2.5,2.5,0,0,1-.022-.3q-.03-.255-.045-.338a.234.234,0,0,0-.09-.142.162.162,0,0,0-.12-.045.473.473,0,0,0-.315.157.642.642,0,0,0-.195.278.4.4,0,0,0-.068.127q-.037.1-.083.188a1.758,1.758,0,0,0-.082.195A1.55,1.55,0,0,1,24.33-4.965Zm3.99,1.41a.481.481,0,0,1-.023-.2q.007-.128.052-.518.03-.2.052-.412t.023-.338q.03-.285.067-.607a3.366,3.366,0,0,1,.135-.63,2.467,2.467,0,0,1,.263-.57,1.467,1.467,0,0,1,.435-.443,8.344,8.344,0,0,1,.847-.495,2.041,2.041,0,0,1,.938-.225q.165,0,.263.007t.188.023a1.05,1.05,0,0,1,.24.082l.315.143q.165.075.308.157a2.262,2.262,0,0,1,.2.128,2.108,2.108,0,0,1,.42.412,2.938,2.938,0,0,1,.36.533,2.548,2.548,0,0,1,.217.6,4.708,4.708,0,0,1,.113.7,2.775,2.775,0,0,1-.023.555q-.037.24-.142.645-.06.225-.09.367t-.053.27q-.022.128-.037.263t-.03.33a3.719,3.719,0,0,1-.2.968,3.716,3.716,0,0,1-.465.923,2.569,2.569,0,0,1-.7.69,1.674,1.674,0,0,1-.937.27,1.765,1.765,0,0,1-1.035-.337,3.47,3.47,0,0,1-.84-.848A4.565,4.565,0,0,1,28.6-2.2a3.943,3.943,0,0,1-.24-1.1q-.015-.075-.023-.15A.333.333,0,0,0,28.32-3.555Zm2.13-1.41q-.03.15-.067.383a2.555,2.555,0,0,0-.038.4A.91.91,0,0,0,30.36-4q.015.068.06.233.03.09.075.233t.075.262a2.344,2.344,0,0,0,.127.45.49.49,0,0,0,.158.18.261.261,0,0,0,.1.045.275.275,0,0,0,.218-.128,1.431,1.431,0,0,0,.172-.3,2.357,2.357,0,0,0,.12-.345q.045-.173.06-.262a5.145,5.145,0,0,0,.09-.645,3.166,3.166,0,0,0-.045-.645q-.015-.15-.038-.33a2.5,2.5,0,0,1-.022-.3q-.03-.255-.045-.338a.234.234,0,0,0-.09-.142.162.162,0,0,0-.12-.045.473.473,0,0,0-.315.157.642.642,0,0,0-.195.278.4.4,0,0,0-.068.127q-.037.1-.083.188a1.758,1.758,0,0,0-.082.195A1.55,1.55,0,0,1,30.45-4.965Z" transform="translate(538 396)" fill="#005d2f"/>
  </g>
</svg>
