<svg xmlns="http://www.w3.org/2000/svg" width="1521" height="83" viewBox="0 0 1521 83">
  <g id="Gruppe_7026" data-name="Gruppe 7026" transform="translate(-701 -433)">
    <path id="Pfad_4036" data-name="Pfad 4036" d="M16.492,0h2.542L9.765-21.669.248,0H2.79L5.27-5.828h8.8ZM6.169-8,9.7-16.275,13.175-8Zm32.3-3.038a5.351,5.351,0,0,0-4.4-2.139,6.343,6.343,0,0,0-4.4,1.736,6.748,6.748,0,0,0-1.86,4.991,6.967,6.967,0,0,0,1.86,5.084,6.162,6.162,0,0,0,4.4,1.736,5.427,5.427,0,0,0,4.4-2.17V.062a5.981,5.981,0,0,1-.713,3.286,3.607,3.607,0,0,1-3.41,1.8,3.984,3.984,0,0,1-3.1-1.24,4.05,4.05,0,0,1-.992-2.666h-2.2a5.8,5.8,0,0,0,1.674,4.154A6.371,6.371,0,0,0,34.317,7.13a6.259,6.259,0,0,0,5.146-2.387A8.094,8.094,0,0,0,40.7-.31V-12.865H38.471Zm-4.154-.155a4.125,4.125,0,0,1,2.914,1.147,5.086,5.086,0,0,1,1.364,3.627A5.215,5.215,0,0,1,37.138-2.7a3.808,3.808,0,0,1-2.821,1.085,3.892,3.892,0,0,1-2.759-1.054A4.959,4.959,0,0,1,30.1-6.448a4.9,4.9,0,0,1,1.3-3.534A3.988,3.988,0,0,1,34.317-11.191ZM44.919,0h2.232V-6.789c0-2.108.372-2.976.744-3.472a2.161,2.161,0,0,1,1.8-.806,2.3,2.3,0,0,1,1.3.434l1.054-2.015a4.714,4.714,0,0,0-1.984-.527,3.575,3.575,0,0,0-2.914,1.7v-1.395H44.919ZM59.365.372a6.6,6.6,0,0,0,6.82-6.758,6.606,6.606,0,0,0-6.82-6.789,6.606,6.606,0,0,0-6.82,6.789A6.6,6.6,0,0,0,59.365.372Zm0-11.563a4.453,4.453,0,0,1,4.526,4.8,4.461,4.461,0,0,1-4.526,4.774,4.459,4.459,0,0,1-4.526-4.774A4.471,4.471,0,0,1,59.365-11.191Zm12.462-1.674H69.6v7.75A5.114,5.114,0,0,0,70.773-1.24,5.376,5.376,0,0,0,74.71.372,5.376,5.376,0,0,0,78.647-1.24a5.114,5.114,0,0,0,1.178-3.875v-7.75H77.593v7.5a4.379,4.379,0,0,1-.62,2.759,2.732,2.732,0,0,1-2.263.992A2.732,2.732,0,0,1,72.447-2.6a4.379,4.379,0,0,1-.62-2.759ZM86.273-1.8a5.462,5.462,0,0,0,4.5,2.17c3.906,0,6.169-3.193,6.169-6.727,0-3.472-2.232-6.82-6.262-6.82a5.532,5.532,0,0,0-4.4,2.108v-1.8H84.041V7.13h2.232Zm4.185.186c-2.635,0-4.309-2.139-4.309-4.774a4.465,4.465,0,0,1,4.278-4.8c2.077,0,4.216,1.674,4.216,4.836C94.643-3.782,93.062-1.612,90.458-1.612ZM113.584.372a6.6,6.6,0,0,0,6.82-6.758,6.606,6.606,0,0,0-6.82-6.789,6.606,6.606,0,0,0-6.82,6.789A6.6,6.6,0,0,0,113.584.372Zm0-11.563a4.453,4.453,0,0,1,4.526,4.8,4.461,4.461,0,0,1-4.526,4.774,4.459,4.459,0,0,1-4.526-4.774A4.471,4.471,0,0,1,113.584-11.191Zm15.686.372v-2.046h-3.162v-5.363a3.867,3.867,0,0,1,.279-1.86,1.565,1.565,0,0,1,1.426-.682,4.049,4.049,0,0,1,1.457.279v-2.17a4.313,4.313,0,0,0-1.581-.279,4,4,0,0,0-2.573.837,4.451,4.451,0,0,0-1.24,3.627v5.611h-1.24v2.046h1.24V0h2.232V-10.819Zm18.755,6.51a5.125,5.125,0,0,1-1.333,1.767,3.911,3.911,0,0,1-2.635.93,4.121,4.121,0,0,1-4.092-4.371h10.013a8.637,8.637,0,0,0-1.209-4.836,5.756,5.756,0,0,0-4.867-2.356c-3.875,0-6.231,2.976-6.231,6.82,0,4.774,3.255,6.727,6.355,6.727A6.245,6.245,0,0,0,148.3-1.209a7.7,7.7,0,0,0,1.581-2.077Zm-7.9-3.534a3.91,3.91,0,0,1,3.782-3.348,3.85,3.85,0,0,1,3.782,3.348Zm11.408-5.022,6.324,13.7,6.324-13.7H161.7l-3.844,8.68-3.844-8.68Zm15,0V0h2.232V-12.865Zm-.465-4.867a1.588,1.588,0,0,0,1.581,1.581,1.588,1.588,0,0,0,1.581-1.581,1.588,1.588,0,0,0-1.581-1.581A1.588,1.588,0,0,0,166.067-17.732ZM172.98-22.6V0h2.232V-22.6Zm14.229,1.922V0h5.146a7.543,7.543,0,0,0,4.96-1.364,5.714,5.714,0,0,0,2.108-4.464,5.184,5.184,0,0,0-3.937-5.208,4.665,4.665,0,0,0,2.046-4.061,5.139,5.139,0,0,0-1.86-4.278,7.678,7.678,0,0,0-4.743-1.3Zm2.294,2.17h1.8c.651,0,4,.062,4,3.472,0,3.193-2.852,3.441-4.061,3.441H189.5Zm0,8.959h2.356a7.208,7.208,0,0,1,3.5.62,3.35,3.35,0,0,1,1.767,3.038,3.485,3.485,0,0,1-1.364,2.852,5.716,5.716,0,0,1-3.627.868H189.5ZM209.1.372a6.6,6.6,0,0,0,6.82-6.758,6.606,6.606,0,0,0-6.82-6.789,6.606,6.606,0,0,0-6.82,6.789A6.6,6.6,0,0,0,209.1.372Zm0-11.563a4.453,4.453,0,0,1,4.526,4.8A4.461,4.461,0,0,1,209.1-1.612a4.459,4.459,0,0,1-4.526-4.774A4.471,4.471,0,0,1,209.1-11.191ZM219.325,0h2.232V-6.727a5.419,5.419,0,0,1,.93-3.472,2.813,2.813,0,0,1,2.263-.992,2.525,2.525,0,0,1,2.108.93,3.782,3.782,0,0,1,.589,2.356V0h2.232V-7.967a5.738,5.738,0,0,0-.744-3.441,4.364,4.364,0,0,0-3.689-1.767,4.539,4.539,0,0,0-3.689,1.8v-1.488h-2.232ZM233.9-22.6V0h2.232V-5.3l.558-.558L241.831,0h2.914l-6.51-7.347,5.518-5.518h-2.914l-4.712,4.774V-22.6ZM254.107-10.85a3.711,3.711,0,0,0-3.534-2.325,3.459,3.459,0,0,0-3.751,3.6,2.794,2.794,0,0,0,.589,1.891A8.392,8.392,0,0,0,250.542-5.8c1.209.527,2.077.93,2.077,2.139a2,2,0,0,1-2.108,2.046,2.911,2.911,0,0,1-2.6-2.108l-1.922.806a4.6,4.6,0,0,0,4.5,3.286,4.092,4.092,0,0,0,4.433-4.216,3.045,3.045,0,0,0-.682-2.077A7.822,7.822,0,0,0,251.007-7.9c-1.457-.62-2.077-.9-2.077-1.829a1.421,1.421,0,0,1,1.55-1.457,1.973,1.973,0,0,1,1.8,1.3Zm20.863-.186a5.323,5.323,0,0,0-4.4-2.139c-3.286,0-6.262,2.294-6.262,6.727,0,4.526,3.007,6.82,6.262,6.82a5.427,5.427,0,0,0,4.4-2.17V0H277.2V-12.865H274.97Zm-4.154-.155c1.984,0,4.278,1.457,4.278,4.774,0,2.542-1.55,4.805-4.278,4.805-2.666,0-4.216-2.077-4.216-4.836C266.6-9.579,268.615-11.191,270.816-11.191ZM281.418,0h2.232V-6.789c0-2.108.372-2.976.744-3.472a2.161,2.161,0,0,1,1.8-.806,2.3,2.3,0,0,1,1.3.434l1.054-2.015a4.714,4.714,0,0,0-1.984-.527,3.575,3.575,0,0,0-2.914,1.7v-1.395h-2.232ZM299.4-4.309a5.125,5.125,0,0,1-1.333,1.767,3.911,3.911,0,0,1-2.635.93,4.121,4.121,0,0,1-4.092-4.371h10.013a8.638,8.638,0,0,0-1.209-4.836,5.756,5.756,0,0,0-4.867-2.356c-3.875,0-6.231,2.976-6.231,6.82,0,4.774,3.255,6.727,6.355,6.727a6.245,6.245,0,0,0,4.278-1.581,7.7,7.7,0,0,0,1.581-2.077Zm-7.9-3.534a3.91,3.91,0,0,1,3.782-3.348,3.85,3.85,0,0,1,3.782,3.348Zm30.349-3.193a5.323,5.323,0,0,0-4.4-2.139c-3.286,0-6.262,2.294-6.262,6.727,0,4.526,3.007,6.82,6.262,6.82a5.427,5.427,0,0,0,4.4-2.17V0h2.232V-22.6h-2.232Zm-4.154-.155c1.984,0,4.278,1.457,4.278,4.774,0,2.542-1.55,4.805-4.278,4.805-2.666,0-4.216-2.077-4.216-4.836C313.472-9.579,315.487-11.191,317.688-11.191Zm20.15,6.882a5.125,5.125,0,0,1-1.333,1.767,3.911,3.911,0,0,1-2.635.93,4.121,4.121,0,0,1-4.092-4.371h10.013a8.638,8.638,0,0,0-1.209-4.836,5.756,5.756,0,0,0-4.867-2.356c-3.875,0-6.231,2.976-6.231,6.82,0,4.774,3.255,6.727,6.355,6.727a6.245,6.245,0,0,0,4.278-1.581A7.7,7.7,0,0,0,339.7-3.286Zm-7.9-3.534a3.91,3.91,0,0,1,3.782-3.348A3.85,3.85,0,0,1,337.5-7.843Zm20.4-3.007a3.711,3.711,0,0,0-3.534-2.325,3.459,3.459,0,0,0-3.751,3.6,2.794,2.794,0,0,0,.589,1.891A8.392,8.392,0,0,0,346.766-5.8c1.209.527,2.077.93,2.077,2.139a2,2,0,0,1-2.108,2.046,2.911,2.911,0,0,1-2.6-2.108l-1.922.806A4.6,4.6,0,0,0,346.7.372a4.092,4.092,0,0,0,4.433-4.216,3.045,3.045,0,0,0-.682-2.077A7.822,7.822,0,0,0,347.231-7.9c-1.457-.62-2.077-.9-2.077-1.829a1.421,1.421,0,0,1,1.55-1.457,1.973,1.973,0,0,1,1.8,1.3Zm8.308.031v-2.046h-2.232v-4.65h-2.232v4.65h-1.364v2.046h1.364V0h2.232V-10.819ZM360.747,0h2.232V-6.789c0-2.108.372-2.976.744-3.472a2.161,2.161,0,0,1,1.8-.806,2.3,2.3,0,0,1,1.3.434l1.054-2.015a4.714,4.714,0,0,0-1.984-.527,3.575,3.575,0,0,0-2.914,1.7v-1.395h-2.232Zm14.446.372a6.6,6.6,0,0,0,6.82-6.758,6.606,6.606,0,0,0-6.82-6.789,6.606,6.606,0,0,0-6.82,6.789A6.6,6.6,0,0,0,375.193.372Zm0-11.563a4.453,4.453,0,0,1,4.526,4.8,4.461,4.461,0,0,1-4.526,4.774,4.459,4.459,0,0,1-4.526-4.774A4.471,4.471,0,0,1,375.193-11.191Zm10.2,18.321h2.48l9.455-19.995h-2.48l-4.185,9.207-4.557-9.207h-2.542l5.921,11.656Zm14.291-19.995V0h2.232V-12.865Zm-.465-4.867a1.588,1.588,0,0,0,1.581,1.581,1.588,1.588,0,0,0,1.581-1.581,1.588,1.588,0,0,0-1.581-1.581A1.588,1.588,0,0,0,399.218-17.732ZM406.131,0h2.232V-6.727a5.419,5.419,0,0,1,.93-3.472,2.813,2.813,0,0,1,2.263-.992,2.525,2.525,0,0,1,2.108.93,3.782,3.782,0,0,1,.589,2.356V0h2.232V-7.967a5.738,5.738,0,0,0-.744-3.441,4.364,4.364,0,0,0-3.689-1.767,4.539,4.539,0,0,0-3.689,1.8v-1.488h-2.232Zm24.428-11.036a5.351,5.351,0,0,0-4.4-2.139,6.343,6.343,0,0,0-4.4,1.736,6.748,6.748,0,0,0-1.86,4.991,6.967,6.967,0,0,0,1.86,5.084,6.162,6.162,0,0,0,4.4,1.736,5.427,5.427,0,0,0,4.4-2.17V.062a5.981,5.981,0,0,1-.713,3.286,3.607,3.607,0,0,1-3.41,1.8,3.984,3.984,0,0,1-3.1-1.24,4.05,4.05,0,0,1-.992-2.666h-2.2a5.8,5.8,0,0,0,1.674,4.154A6.371,6.371,0,0,0,426.4,7.13a6.259,6.259,0,0,0,5.146-2.387,8.094,8.094,0,0,0,1.24-5.053V-12.865h-2.232Zm-4.154-.155a4.125,4.125,0,0,1,2.914,1.147,5.086,5.086,0,0,1,1.364,3.627,5.215,5.215,0,0,1-1.457,3.72A3.808,3.808,0,0,1,426.4-1.612a3.892,3.892,0,0,1-2.759-1.054,4.959,4.959,0,0,1-1.457-3.782,4.9,4.9,0,0,1,1.3-3.534A3.988,3.988,0,0,1,426.4-11.191Zm22.351.372v-2.046h-2.232v-4.65h-2.232v4.65h-1.364v2.046h1.364V0h2.232V-10.819ZM450.864,0H453.1V-6.727a5.419,5.419,0,0,1,.93-3.472,2.813,2.813,0,0,1,2.263-.992,2.525,2.525,0,0,1,2.108.93,3.782,3.782,0,0,1,.589,2.356V0h2.232V-7.967a5.738,5.738,0,0,0-.744-3.441,4.364,4.364,0,0,0-3.689-1.767,4.539,4.539,0,0,0-3.689,1.8V-22.6h-2.232Zm23.808-4.309a5.125,5.125,0,0,1-1.333,1.767,3.911,3.911,0,0,1-2.635.93,4.121,4.121,0,0,1-4.092-4.371h10.013a8.638,8.638,0,0,0-1.209-4.836,5.756,5.756,0,0,0-4.867-2.356c-3.875,0-6.231,2.976-6.231,6.82,0,4.774,3.255,6.727,6.355,6.727a6.245,6.245,0,0,0,4.278-1.581,7.7,7.7,0,0,0,1.581-2.077Zm-7.9-3.534a3.91,3.91,0,0,1,3.782-3.348,3.85,3.85,0,0,1,3.782,3.348ZM485.4-12.865l6.324,13.7,6.324-13.7h-2.48l-3.844,8.68-3.844-8.68Zm15,0V0h2.232V-12.865Zm-.465-4.867a1.588,1.588,0,0,0,1.581,1.581,1.588,1.588,0,0,0,1.581-1.581,1.588,1.588,0,0,0-1.581-1.581A1.588,1.588,0,0,0,499.937-17.732ZM506.85-22.6V0h2.232V-22.6Zm6.448,0V0h2.232V-22.6ZM529.6-11.036a5.323,5.323,0,0,0-4.4-2.139c-3.286,0-6.262,2.294-6.262,6.727,0,4.526,3.007,6.82,6.262,6.82a5.427,5.427,0,0,0,4.4-2.17V0h2.232V-12.865H529.6Zm-4.154-.155c1.984,0,4.278,1.457,4.278,4.774,0,2.542-1.55,4.805-4.278,4.805-2.666,0-4.216-2.077-4.216-4.836C521.234-9.579,523.249-11.191,525.45-11.191Zm20.46.155a5.351,5.351,0,0,0-4.4-2.139,6.343,6.343,0,0,0-4.4,1.736,6.748,6.748,0,0,0-1.86,4.991,6.967,6.967,0,0,0,1.86,5.084,6.162,6.162,0,0,0,4.4,1.736,5.427,5.427,0,0,0,4.4-2.17V.062a5.981,5.981,0,0,1-.713,3.286,3.607,3.607,0,0,1-3.41,1.8,3.984,3.984,0,0,1-3.1-1.24,4.05,4.05,0,0,1-.992-2.666h-2.2a5.8,5.8,0,0,0,1.674,4.154,6.371,6.371,0,0,0,4.588,1.736A6.259,6.259,0,0,0,546.9,4.743a8.094,8.094,0,0,0,1.24-5.053V-12.865H545.91Zm-4.154-.155a4.125,4.125,0,0,1,2.914,1.147,5.087,5.087,0,0,1,1.364,3.627,5.215,5.215,0,0,1-1.457,3.72,3.808,3.808,0,0,1-2.821,1.085A3.892,3.892,0,0,1,539-2.666a4.959,4.959,0,0,1-1.457-3.782,4.9,4.9,0,0,1,1.3-3.534A3.988,3.988,0,0,1,541.756-11.191Zm20.15,6.882a5.125,5.125,0,0,1-1.333,1.767,3.911,3.911,0,0,1-2.635.93,4.121,4.121,0,0,1-4.092-4.371h10.013a8.638,8.638,0,0,0-1.209-4.836,5.756,5.756,0,0,0-4.867-2.356c-3.875,0-6.231,2.976-6.231,6.82,0,4.774,3.255,6.727,6.355,6.727a6.245,6.245,0,0,0,4.278-1.581,7.7,7.7,0,0,0,1.581-2.077ZM554-7.843a3.91,3.91,0,0,1,3.782-3.348,3.85,3.85,0,0,1,3.782,3.348Zm16.616,3.658V-20.677h-2.232V-4.185ZM567.951-1.24A1.575,1.575,0,0,0,569.5.31a1.575,1.575,0,0,0,1.55-1.55,1.575,1.575,0,0,0-1.55-1.55A1.575,1.575,0,0,0,567.951-1.24Z" transform="translate(729 488)" fill="#ff6200"/>
    <path id="Pfad_4035" data-name="Pfad 4035" d="M14.849-20.677H6.634L3.627-10.695a6.751,6.751,0,0,1,4-1.426A4.9,4.9,0,0,1,12.71-7.037a5.137,5.137,0,0,1-5.084,5.3,5.073,5.073,0,0,1-3.348-1.24A4.809,4.809,0,0,1,2.883-4.65l-1.829,1.3a8.607,8.607,0,0,0,1.8,2.108A7.009,7.009,0,0,0,7.471.372,7.234,7.234,0,0,0,15-7.068c0-4.03-2.666-7.161-6.82-7.161a5.629,5.629,0,0,0-1.3.124l1.333-4.464h6.634Zm3.007,7.812L24.18.837l6.324-13.7h-2.48L24.18-4.185l-3.844-8.68ZM45.6-20.677H37.386l-3.007,9.982a6.751,6.751,0,0,1,4-1.426,4.9,4.9,0,0,1,5.084,5.084,5.137,5.137,0,0,1-5.084,5.3,5.073,5.073,0,0,1-3.348-1.24A4.809,4.809,0,0,1,33.635-4.65l-1.829,1.3A8.607,8.607,0,0,0,33.6-1.24,7.009,7.009,0,0,0,38.223.372a7.234,7.234,0,0,0,7.533-7.44c0-4.03-2.666-7.161-6.82-7.161a5.629,5.629,0,0,0-1.3.124l1.333-4.464H45.6Z" transform="translate(1406.496 487.594)" fill="#fff" opacity="0.655"/>
    <path id="Pfad_4034" data-name="Pfad 4034" d="M2.666-20.677V0H4.96V-20.677ZM14.26-10.819v-2.046H12.028v-4.65H9.8v4.65H8.432v2.046H9.8V0h2.232V-10.819Zm11.656,6.51a5.125,5.125,0,0,1-1.333,1.767,3.911,3.911,0,0,1-2.635.93,4.121,4.121,0,0,1-4.092-4.371H27.869a8.637,8.637,0,0,0-1.209-4.836,5.756,5.756,0,0,0-4.867-2.356c-3.875,0-6.231,2.976-6.231,6.82,0,4.774,3.255,6.727,6.355,6.727a6.245,6.245,0,0,0,4.278-1.581,7.7,7.7,0,0,0,1.581-2.077ZM18.011-7.843a3.91,3.91,0,0,1,3.782-3.348,3.85,3.85,0,0,1,3.782,3.348ZM31.279,0h2.232V-7.006c0-1.55.279-4.185,2.821-4.185,2.356,0,2.325,2.666,2.325,3.565V0h2.232V-7.161c0-1.55.279-4.03,2.852-4.03,2.108,0,2.294,1.922,2.294,3.379V0h2.232V-8.153c0-1.829-.372-5.022-4.185-5.022A4.3,4.3,0,0,0,40.207-11.1a3.852,3.852,0,0,0-3.5-2.077A3.737,3.737,0,0,0,33.511-11.5v-1.364H31.279ZM59.644-10.85a3.711,3.711,0,0,0-3.534-2.325,3.459,3.459,0,0,0-3.751,3.6,2.794,2.794,0,0,0,.589,1.891A8.392,8.392,0,0,0,56.079-5.8c1.209.527,2.077.93,2.077,2.139a2,2,0,0,1-2.108,2.046,2.911,2.911,0,0,1-2.6-2.108l-1.922.806A4.6,4.6,0,0,0,56.017.372,4.092,4.092,0,0,0,60.45-3.844a3.045,3.045,0,0,0-.682-2.077A7.822,7.822,0,0,0,56.544-7.9c-1.457-.62-2.077-.9-2.077-1.829a1.421,1.421,0,0,1,1.55-1.457,1.973,1.973,0,0,1,1.8,1.3Z" transform="translate(1580.992 487.594)" fill="#fff" opacity="0.655"/>
    <path id="Pfad_4033" data-name="Pfad 4033" d="M8.8.372a6.526,6.526,0,0,0,5.3-3.1,13.427,13.427,0,0,0,2.077-7.6,13.427,13.427,0,0,0-2.077-7.6,6.526,6.526,0,0,0-5.3-3.1,6.526,6.526,0,0,0-5.3,3.1,13.427,13.427,0,0,0-2.077,7.6A13.427,13.427,0,0,0,3.5-2.728,6.526,6.526,0,0,0,8.8.372Zm0-19.282a4.316,4.316,0,0,1,3.565,2.294,12.063,12.063,0,0,1,1.519,6.293A12.063,12.063,0,0,1,12.369-4.03,4.316,4.316,0,0,1,8.8-1.736,4.316,4.316,0,0,1,5.239-4.03,12.063,12.063,0,0,1,3.72-10.323a12.063,12.063,0,0,1,1.519-6.293A4.316,4.316,0,0,1,8.8-18.91ZM17.67-.713,19.468.5,33.294-20.677H18.1v2.108H29.419ZM34.1-11.625a1.575,1.575,0,0,0,1.55,1.55,1.575,1.575,0,0,0,1.55-1.55,1.575,1.575,0,0,0-1.55-1.55A1.575,1.575,0,0,0,34.1-11.625Zm0,10.447A1.575,1.575,0,0,0,35.65.372a1.575,1.575,0,0,0,1.55-1.55,1.575,1.575,0,0,0-1.55-1.55A1.575,1.575,0,0,0,34.1-1.178ZM47.43,0h2.294V-20.677H45.167l-1.209,2.17H47.43ZM64.914-10.757a5.049,5.049,0,0,0,2.511-4.526,5.5,5.5,0,0,0-5.7-5.735,5.5,5.5,0,0,0-5.7,5.735,5.049,5.049,0,0,0,2.511,4.526A5.218,5.218,0,0,0,55.4-5.7C55.4-2.48,57.505.372,61.721.372S68.045-2.48,68.045-5.7A5.218,5.218,0,0,0,64.914-10.757Zm-3.193-.93a3.464,3.464,0,0,1-3.534-3.565,3.486,3.486,0,0,1,3.534-3.658,3.486,3.486,0,0,1,3.534,3.658A3.464,3.464,0,0,1,61.721-11.687Zm0,9.951a3.857,3.857,0,0,1-4.03-4.03A3.817,3.817,0,0,1,61.721-9.7a3.817,3.817,0,0,1,4.03,3.937A3.857,3.857,0,0,1,61.721-1.736ZM72.633,0h2.232V-7.006c0-1.55.279-4.185,2.821-4.185,2.356,0,2.325,2.666,2.325,3.565V0h2.232V-7.161c0-1.55.279-4.03,2.852-4.03,2.108,0,2.294,1.922,2.294,3.379V0h2.232V-8.153c0-1.829-.372-5.022-4.185-5.022A4.3,4.3,0,0,0,81.561-11.1a3.852,3.852,0,0,0-3.5-2.077A3.737,3.737,0,0,0,74.865-11.5v-1.364H72.633Z" transform="translate(1721.992 487.594)" fill="#fff" opacity="0.655"/>
    <rect id="Rechteck_2528" data-name="Rechteck 2528" width="313" height="83" transform="translate(1909 433)" fill="#ff6200"/>
    <path id="Pfad_4032" data-name="Pfad 4032" d="M17.95-24.1a1.785,1.785,0,0,0-.15.45,3.46,3.46,0,0,1-.1.4A5.1,5.1,0,0,1,16.4-21a9.754,9.754,0,0,0-.95,1.05,5.584,5.584,0,0,0-.45.75,3.424,3.424,0,0,1-.575.8,7.788,7.788,0,0,1-.675.65q-.15.05-.25.075a1.052,1.052,0,0,1-.25.025,2.392,2.392,0,0,1-1.025-.2,4.774,4.774,0,0,1-.925-.6q-.55-.4-1.15-.825A5.107,5.107,0,0,0,9.3-19.8a1.517,1.517,0,0,0-.45-.05q-.8,0-1,.35a1.325,1.325,0,0,0-.05.65,2.31,2.31,0,0,0,.65,1.45,6.632,6.632,0,0,0,1.475,1.175,11.2,11.2,0,0,0,1.8.875q.925.35,1.575.55.8.2,1.35.375a6.641,6.641,0,0,1,.95.375q.4.2.725.4T17-13.2a6.731,6.731,0,0,1,1.125,1.425A12.148,12.148,0,0,1,19.05-10a7.945,7.945,0,0,1-.3,4.9,10.041,10.041,0,0,1-2.8,4.3A8.813,8.813,0,0,1,14.45.425a6.534,6.534,0,0,1-1.55.725,7.845,7.845,0,0,1-1.675.325Q10.35,1.55,9.3,1.55a6.951,6.951,0,0,1-1.075-.1q-.625-.1-1.25-.25T5.775.85A8.319,8.319,0,0,1,4.8.45q-.3-.2-.7-.475A5.738,5.738,0,0,1,3.3-.7,12.756,12.756,0,0,0,1.15-2.15,3.786,3.786,0,0,1-.075-2.975,1.431,1.431,0,0,1-.45-3.95a1.668,1.668,0,0,1,.225-.875A3.937,3.937,0,0,1,.7-5.75q.25-.2.475-.4t.325-.3q.1-.1.375-.425A6.241,6.241,0,0,0,2.4-7.6a5.787,5.787,0,0,1,.725-1.025A2.976,2.976,0,0,1,3.9-9.15q.15-.05.325-.1A1.188,1.188,0,0,1,4.55-9.3a.348.348,0,0,0,.15-.025.348.348,0,0,1,.15-.025.669.669,0,0,1,.475.225q.225.225.725.775A11.68,11.68,0,0,0,7.85-6.6a2.57,2.57,0,0,0,1.5.45A1.287,1.287,0,0,0,10.5-6.6a2,2,0,0,0,.45-1.025A2.032,2.032,0,0,0,10.9-8.65a2.254,2.254,0,0,0-.175-.275A1.5,1.5,0,0,0,10.4-9.25a6.322,6.322,0,0,0-.55-.475Q9.5-10,9.125-10.3t-.675-.55a1.686,1.686,0,0,0-.45-.3q-.1-.05-.55-.2t-1-.35q-.95-.35-1.575-.6a6.764,6.764,0,0,1-1.1-.55,5.372,5.372,0,0,1-.925-.75A14.87,14.87,0,0,1,1.8-14.8,10.075,10.075,0,0,1,.65-16.55,4.246,4.246,0,0,1,.3-18.1a4.375,4.375,0,0,1,.05-1.15,11.166,11.166,0,0,1,.4-1.45l.2-.8a6.323,6.323,0,0,0,.15-.9,6.011,6.011,0,0,1,.8-2.525A5.684,5.684,0,0,1,3.575-26.7a8.1,8.1,0,0,1,2.3-1.075A9.255,9.255,0,0,1,8.5-28.15a10.843,10.843,0,0,1,2.525.25,9.436,9.436,0,0,1,2.225.9,6.65,6.65,0,0,0,1.25.575,15.307,15.307,0,0,0,1.55.375,10.268,10.268,0,0,1,1.55.35.757.757,0,0,1,.5.55.868.868,0,0,1,.025.35Q18.1-24.65,17.95-24.1ZM31.3-1.85Q30.85.95,28.25.95h-.525a1.817,1.817,0,0,1-.575-.1,4.019,4.019,0,0,0-.675-.075Q26,.75,25.5.75q-.7,0-1-.025A.66.66,0,0,1,24.1.6a1.114,1.114,0,0,1-.35-.275A1.4,1.4,0,0,1,23.5-.2a6.592,6.592,0,0,1-.175-.975Q23.25-1.8,23.15-2.75q-.05-.55-.075-1.65t-.05-2.475Q23-8.25,22.975-9.75t-.025-2.8q0-2.35-.1-3.2a1.544,1.544,0,0,0-.45-1.1.579.579,0,0,0-.4-.1,5.528,5.528,0,0,0-1.25.2q-.4.1-.65.15a2.544,2.544,0,0,1-.5.05.868.868,0,0,1-.85-.6,1.867,1.867,0,0,1-.05-.8,3.857,3.857,0,0,1,.025-.425,5.1,5.1,0,0,0,.025-.55q0-.325-.025-.85T18.7-21.15v-1.125a1.54,1.54,0,0,1,.1-.575,3.251,3.251,0,0,1,.375-1.025A4.395,4.395,0,0,1,19.6-24.6a1.113,1.113,0,0,1,.5-.1,5.931,5.931,0,0,1,1.55.25,11.736,11.736,0,0,0,1.5.35,8.87,8.87,0,0,0,1.35.1,12.573,12.573,0,0,0,1.275-.075q.725-.075,1.775-.175a4.248,4.248,0,0,1,.775-.1h1a4.224,4.224,0,0,1,.575.05q.5.05,1.1.05h1.15q.5,0,1.1-.025t1-.025q.65,0,.85.025a1.85,1.85,0,0,1,.45.125,1.471,1.471,0,0,1,.75.65,2.637,2.637,0,0,1,.2,1.15,6.109,6.109,0,0,1-.075,1,12.03,12.03,0,0,1-.325,1.3,6.3,6.3,0,0,0-.25.8,5.371,5.371,0,0,0-.05.9,1.922,1.922,0,0,1-.35,1.375,2.142,2.142,0,0,1-1.4.325H33.4a3.1,3.1,0,0,1-.75-.1,5.034,5.034,0,0,0-1.1-.15,1.073,1.073,0,0,0-1,.5,1.319,1.319,0,0,0-.1.575,10.575,10.575,0,0,0,.1,1.175q.15,1.05.325,2.225t.3,2.275q.125,1.1.225,2.05a15.418,15.418,0,0,1,.1,1.55V-5.4q0,.7-.025,1.375T31.4-2.75Q31.35-2.15,31.3-1.85ZM50.45.45a6.37,6.37,0,0,1-1.6-.1q-.3-.1-.5-.675a3.861,3.861,0,0,1-.2-1.275q0-.45-.025-1T48.05-3.65q-.05-.5-.075-.85a.918.918,0,0,0-.075-.4.739.739,0,0,0-.35-.325A1.11,1.11,0,0,0,47-5.4a.82.82,0,0,0-.375.125.671.671,0,0,0-.275.225q-.05.05-.025.35t.025.7q.2,3.7-1.6,4.45a1.947,1.947,0,0,1-.575.125Q43.85.6,42.7.65L41.15.725A8.156,8.156,0,0,0,40.1.85,9.256,9.256,0,0,1,38.65,1,2.588,2.588,0,0,1,38,.95,1.472,1.472,0,0,1,37.2.3a4.185,4.185,0,0,1-.175-.95q-.075-.7-.125-2.5v-1.4q0-.55.025-1.05t.1-1.075q.075-.575.225-1.375.1-.85.15-1.35t.05-1.2q0-.5-.025-.85t-.075-.75q-.05-.4-.15-.925t-.25-1.325a15.263,15.263,0,0,1-.275-2.05,7.446,7.446,0,0,1,.125-1.55,2.645,2.645,0,0,0,.125-.65q.025-.35.025-.5a3.463,3.463,0,0,1,.6-1.85,3.3,3.3,0,0,0,.5-1.1,4.558,4.558,0,0,1,.35-.9,3.285,3.285,0,0,1,.45-.65,2.4,2.4,0,0,1,.55-.5,1.162,1.162,0,0,1,.225-.175A.967.967,0,0,0,39.8-24.5a.628.628,0,0,1,.425-.1q.325,0,1.425-.05h2q1.25,0,2.25-.05h2a11.157,11.157,0,0,1,1.25.05,7.97,7.97,0,0,0,.9.075q.6.025,1.15.025l1.3.1.6.3a2.023,2.023,0,0,1,.425.225,2.253,2.253,0,0,0,.275.175q.05.1.175.3a2.35,2.35,0,0,1,.225.5q.15.25.35.575t.35.525a4.911,4.911,0,0,1,.925,1.55,6.707,6.707,0,0,1,.275,1.7,8.4,8.4,0,0,0,.05.875q.05.475.1.725a5.41,5.41,0,0,1,.075.725q.025.475.075.875,0,.65-.025,1.025T56.25-13.15a8.185,8.185,0,0,0-.125,1.075q-.025.525-.025.775a12.184,12.184,0,0,0,.125,1.5A17.408,17.408,0,0,0,56.6-7.85q.1.6.175,1.1T56.9-5.675q.05.575.1,1.275t.05,1.7v1.325q0,.475-.025.725a2.819,2.819,0,0,1-.05.35.977.977,0,0,1-.075.2q-.4.95-2.1.95-.55,0-1.1-.05A6.364,6.364,0,0,1,52.6.6,8.156,8.156,0,0,0,51.55.475Q51.05.45,50.45.45ZM47.8-17.9q-.15-.25-.7-.25a1.887,1.887,0,0,0-.6.1.8.8,0,0,0-.45.35,3.817,3.817,0,0,0-.075.85q-.025.75-.025,1.675T46-13.35q.05.9.1,1.3a6.344,6.344,0,0,0,.3,1.4,1.5,1.5,0,0,0,.35.65.768.768,0,0,0,.3.1,1.081,1.081,0,0,0,.55-.25.865.865,0,0,0,.45-.525A7.733,7.733,0,0,0,48-12.1q-.1-1.45-.15-2.9T47.8-17.9Zm18.9-6.55h.875a7.924,7.924,0,0,0,.875-.05,3.644,3.644,0,0,1,.6-.05h.6a5.78,5.78,0,0,1,2.425.45A4.611,4.611,0,0,1,73.9-22.35a3.7,3.7,0,0,1,.625,1.225A7.658,7.658,0,0,1,74.65-19.5l-.05,1.1.35,1.15a9.532,9.532,0,0,1,.35,1.05q.1.4.175.65a1.477,1.477,0,0,1,.075.4v.35a3.72,3.72,0,0,1-.95,2.5q-.1.15-.225.35t-.175.3a1.949,1.949,0,0,1-.35.5,8.235,8.235,0,0,1-.65.675q-.35.325-.7.625a6.251,6.251,0,0,1-.5.4l-.35.175-.25.125a.327.327,0,0,0-.075.425A13.577,13.577,0,0,0,72.15-7.6q.1.15.275.425a5.97,5.97,0,0,0,.375.525,6.537,6.537,0,0,0,.725,1,14.973,14.973,0,0,0,1.225,1.1A9.886,9.886,0,0,1,77-2.3a4.69,4.69,0,0,1,.6,1.275A1.963,1.963,0,0,1,77.7,0a.857.857,0,0,1-.575.475,7.89,7.89,0,0,1-1.05.3,6.794,6.794,0,0,1-1.15.15Q74.35.95,74.1.95h-.675A1.963,1.963,0,0,1,72.8.85,2.425,2.425,0,0,0,72.325.8H70.45a1.393,1.393,0,0,1-.725-.125A3.837,3.837,0,0,1,69.15.05a3.077,3.077,0,0,1-.5-.65q-.2-.35-.65-1.35-.1-.2-.275-.525T67.4-3.05a6.231,6.231,0,0,1-.525-.85q-.325-.6-.625-1.2-.3-.65-.575-1.15a3.579,3.579,0,0,0-.375-.6l-.2-.2.05.6q0,.25.05.85t.1,1.15q.15,1.7.225,2.6A4.438,4.438,0,0,1,65.5-.55,1.438,1.438,0,0,1,65.075.475,3.6,3.6,0,0,1,63.6.8a7.062,7.062,0,0,0-.825.05Q62.35.9,62.1.95a3.1,3.1,0,0,1-.75.1H60.7A6.23,6.23,0,0,1,59.4.9a1.237,1.237,0,0,1-.95-.75,1.2,1.2,0,0,1-.075-.55q.025-.3.125-1a6.992,6.992,0,0,0,.125-.85,8.889,8.889,0,0,0-.025-1.1,8.958,8.958,0,0,1-.025-1.15q.025-.55.075-1.2a9.766,9.766,0,0,0,.1-1.25q0-.5-.05-1.55a15.194,15.194,0,0,1-.1-1.775q0-.925.05-2.175.05-1.5.05-2.375t-.025-1.5a9.13,9.13,0,0,0-.125-1.2q-.1-.575-.3-1.425-.15-.7-.2-1.05A7.559,7.559,0,0,1,58-21a7.235,7.235,0,0,1,.225-1.975A3.687,3.687,0,0,1,58.9-24.3l.3-.3h.9q.4,0,.825.025a7,7,0,0,1,.725.075q.25.05.425.075a2.655,2.655,0,0,0,.375.025,2.652,2.652,0,0,0,.3-.025,3.655,3.655,0,0,1,.45-.025q.3-.05.55-.075t.5-.025a3.222,3.222,0,0,1,.4.025,3.655,3.655,0,0,0,.45.025,7.517,7.517,0,0,0,.825.05Zm.7,6.6a1.49,1.49,0,0,0-.2-.15,3.269,3.269,0,0,0-.35-.2l-.45-.25-.55.1a1.971,1.971,0,0,0-.55.15.833.833,0,0,0-.075.375q-.025.325-.025.775t.025.975q.025.525.025.975l.1,1.4h.35a3.693,3.693,0,0,0,.95-.15,1.1,1.1,0,0,0,.75-.55,2.029,2.029,0,0,0,.225-.7,2.941,2.941,0,0,0,.025-.85A8.617,8.617,0,0,0,67.4-17.85Zm21.85,16Q88.8.95,86.2.95h-.525A1.817,1.817,0,0,1,85.1.85a4.018,4.018,0,0,0-.675-.075Q83.95.75,83.45.75q-.7,0-1-.025A.66.66,0,0,1,82.05.6,1.114,1.114,0,0,1,81.7.325,1.4,1.4,0,0,1,81.45-.2a6.592,6.592,0,0,1-.175-.975Q81.2-1.8,81.1-2.75q-.05-.55-.075-1.65t-.05-2.475q-.025-1.375-.05-2.875t-.025-2.8q0-2.35-.1-3.2a1.544,1.544,0,0,0-.45-1.1.579.579,0,0,0-.4-.1,5.529,5.529,0,0,0-1.25.2q-.4.1-.65.15a2.544,2.544,0,0,1-.5.05.868.868,0,0,1-.85-.6,1.867,1.867,0,0,1-.05-.8,3.858,3.858,0,0,1,.025-.425,5.1,5.1,0,0,0,.025-.55q0-.325-.025-.85T76.65-21.15v-1.125a1.54,1.54,0,0,1,.1-.575,3.25,3.25,0,0,1,.375-1.025,4.4,4.4,0,0,1,.425-.725,1.113,1.113,0,0,1,.5-.1,5.931,5.931,0,0,1,1.55.25,11.736,11.736,0,0,0,1.5.35,8.87,8.87,0,0,0,1.35.1,12.573,12.573,0,0,0,1.275-.075q.725-.075,1.775-.175a4.248,4.248,0,0,1,.775-.1h1a4.224,4.224,0,0,1,.575.05q.5.05,1.1.05H90.1q.5,0,1.1-.025t1-.025q.65,0,.85.025a1.85,1.85,0,0,1,.45.125,1.471,1.471,0,0,1,.75.65,2.637,2.637,0,0,1,.2,1.15,6.109,6.109,0,0,1-.075,1,12.03,12.03,0,0,1-.325,1.3,6.294,6.294,0,0,0-.25.8,5.371,5.371,0,0,0-.05.9,1.922,1.922,0,0,1-.35,1.375,2.142,2.142,0,0,1-1.4.325h-.65a3.1,3.1,0,0,1-.75-.1,5.034,5.034,0,0,0-1.1-.15,1.073,1.073,0,0,0-1,.5,1.319,1.319,0,0,0-.1.575,10.575,10.575,0,0,0,.1,1.175q.15,1.05.325,2.225t.3,2.275q.125,1.1.225,2.05a15.419,15.419,0,0,1,.1,1.55V-5.4q0,.7-.025,1.375T89.35-2.75Q89.3-2.15,89.25-1.85Zm30.95,3.2a.724.724,0,0,1-.175.675A3.84,3.84,0,0,1,119,2.45a2.125,2.125,0,0,0-.65.2q-.15.1-.85.5a5.59,5.59,0,0,1-.6.35,3.855,3.855,0,0,1-.45.2,1.947,1.947,0,0,1-.575.125q-.325.025-.625.025-.3-.1-.85-1.15-.15-.35-.3-.675a3.765,3.765,0,0,0-.25-.475.628.628,0,0,1-.15-.25,1.94,1.94,0,0,0-.1-.25L113.5.8l-.45.1a1.615,1.615,0,0,1-.6.1H111a1.113,1.113,0,0,1-.5-.1,4.534,4.534,0,0,1-.875-.35q-.625-.3-1.3-.65T107-.825q-.65-.375-1-.625a7.149,7.149,0,0,1-2.25-2.9q-.25-.55-.425-.95a3.622,3.622,0,0,1-.25-.825q-.075-.425-.125-.95t-.1-1.275q-.05-1.2-.1-1.75a12.07,12.07,0,0,0-.25-1.45,7.5,7.5,0,0,1-.075-1.35,13.177,13.177,0,0,1,.225-1.75,11.883,11.883,0,0,1,.475-1.975,7.865,7.865,0,0,1,.825-1.625,6.233,6.233,0,0,0,.625-1q.125-.3.325-.95a5.576,5.576,0,0,1,2.15-3.25,6.524,6.524,0,0,1,3.7-1q1,0,2.125.1A13.791,13.791,0,0,1,115-24a9.92,9.92,0,0,1,1.475.225A7.513,7.513,0,0,1,118-23.25a5.638,5.638,0,0,1,1.325.85,2.793,2.793,0,0,1,.825,1.25,4.661,4.661,0,0,1,.25.775q.15.575.3,1.225t.275,1.225a4.548,4.548,0,0,1,.125.775,2.759,2.759,0,0,1,.025.65q-.025.35-.125,1.05-.1.5-.175,1.15t-.125,1.1q-.05.45-.125,1.225T120.4-10.5q-.1.7-.15,1.6t-.1,1.6q-.05,1.2-.125,1.775T119.85-4.45q-.15.5-.4,1.15a4.609,4.609,0,0,1-.5,1l-.25.45.2.35a5.87,5.87,0,0,1,.3.55l.425.85A8.9,8.9,0,0,1,120,.75,6.135,6.135,0,0,1,120.2,1.35ZM111.45-17a7.881,7.881,0,0,0-.625,1.8,5.5,5.5,0,0,0-.125,1.85,6.685,6.685,0,0,1,.075.9,13.121,13.121,0,0,0,.125,1.35q.05.7.1,1.575t.05,1.425q.05.55.075,1.025a2.073,2.073,0,0,0,.075.575,2.352,2.352,0,0,0,.525.9,1.18,1.18,0,0,0,.875.5l.3-.15a4.01,4.01,0,0,0,.75-1.65,6.4,6.4,0,0,0,.125-.7,8.306,8.306,0,0,0-.025-1.05q-.1-1.45-.075-3.075t.125-2.425a10.1,10.1,0,0,0,.125-2.25,1.728,1.728,0,0,0-.375-1.15.492.492,0,0,0-.175-.125,1.294,1.294,0,0,0-.325-.025h-.4a2.43,2.43,0,0,0-.8.075A1.478,1.478,0,0,0,111.45-17Zm19.35-2.4a17.208,17.208,0,0,1,.15,2.225q0,1.075-.1,2.075-.05.4-.075.675t-.025.625v.85q0,.5.05,1.35.05,1.05.1,1.725t.125,1.1a3.529,3.529,0,0,0,.175.675,1.957,1.957,0,0,0,.25.45.452.452,0,0,0,.4.25.407.407,0,0,0,.3-.1,1.617,1.617,0,0,0,.5-1.15,7.792,7.792,0,0,0,.225-1.55q.075-1.05.1-2.25t0-2.35a16.128,16.128,0,0,0-.125-1.85q-.05-.25-.15-.85t-.2-1.15a11.98,11.98,0,0,1-.275-2.95,4.107,4.107,0,0,1,.625-2,2.176,2.176,0,0,1,.5-.525,2.1,2.1,0,0,1,.8-.275,5.085,5.085,0,0,1,1-.125q.6-.025,1.3-.025h.75a3.96,3.96,0,0,1,.65.05q.4.05,1,.075T140-24.4q1,.05,1.3.1a.481.481,0,0,1,.4.3,4.758,4.758,0,0,1,.2.925A11.72,11.72,0,0,1,142-21.4a17.853,17.853,0,0,1-.05,2.325q-.1,1.125-.45,3.075-.2,1.35-.325,2.125t-.2,1.25a5.388,5.388,0,0,0-.075.825v.9q.05.8.075,1.275A9.1,9.1,0,0,0,141.2-8.25q.25,1.35.3,2a7.2,7.2,0,0,1,0,1.2q-.4,3.5-2.5,4.825A9.97,9.97,0,0,1,133.6,1.1a3.655,3.655,0,0,1-.45-.025,3.222,3.222,0,0,0-.4-.025h-.9q-.6,0-1.25-.025T129.375.95Q128.8.9,128.5.85a7.716,7.716,0,0,1-1.5-.6,9.344,9.344,0,0,1-1.6-1A6.93,6.93,0,0,1,123.375-4a13.574,13.574,0,0,1-.475-5.05,32.228,32.228,0,0,0,.075-3.75q-.075-1.7-.325-3.85-.1-1.25-.1-2.75a24.488,24.488,0,0,1,.15-2.8q.1-.7.15-1a.765.765,0,0,1,.15-.4,1.75,1.75,0,0,1,.575-.4,1.777,1.777,0,0,1,.675-.25q.1,0,.35.025t.5.075a2.672,2.672,0,0,0,.525.05h1.4a8.352,8.352,0,0,0,1.125-.1,4.225,4.225,0,0,1,.575-.05h.375a2.588,2.588,0,0,1,.65.05,1.366,1.366,0,0,1,.9.8,6.311,6.311,0,0,1,.1,2.15v.95Q130.75-19.9,130.8-19.4Zm23.25,9.9a1.156,1.156,0,0,1-1.1.7,2.665,2.665,0,0,1-.6-.05,2.1,2.1,0,0,0-.5-.05.488.488,0,0,0-.35.1q-.1.1-.35.4a1.282,1.282,0,0,0-.075.4q-.025.3-.025,1.1a10.984,10.984,0,0,0-.025,1.2q.025.2.125.2a1.377,1.377,0,0,0,.375-.1,6.933,6.933,0,0,1,.675-.2,7.02,7.02,0,0,1,1.15-.325,7.621,7.621,0,0,1,1.2-.075h2.575a6.648,6.648,0,0,0,.825-.05,4.306,4.306,0,0,0,.475-.025,3.857,3.857,0,0,1,.425-.025q1.25,0,1.45.55a1.149,1.149,0,0,1,.05.65,10.408,10.408,0,0,0,.15,3,6.745,6.745,0,0,1,.15.8,5.3,5.3,0,0,1,.05.6,1.606,1.606,0,0,1-.25.95,1.7,1.7,0,0,1-.675.55,2.812,2.812,0,0,1-.925.25q-.5.05-.95.05a2.979,2.979,0,0,1-.65-.05,8.779,8.779,0,0,0-.975-.175Q155.7.8,155.05.75T153.825.675Q153.25.65,152.85.65a10.166,10.166,0,0,0-1.15.075Q151.05.8,149.95.9a7,7,0,0,1-1.15.1h-1.15a5.27,5.27,0,0,0-.7-.075Q146.5.9,146.15.9a7.943,7.943,0,0,1-.825-.025A1.917,1.917,0,0,1,144.9.75a.947.947,0,0,1-.325-.275Q144.5.35,144.3-.05a7.3,7.3,0,0,1-.4-.95,4.472,4.472,0,0,1-.2-1.025,10.826,10.826,0,0,1-.025-1.3q.025-.725.125-1.775.05-.75.075-1.225a7.65,7.65,0,0,0,0-.875q-.025-.4-.075-.8a7,7,0,0,0-.2-.95q-.25-1.05-.375-1.775A8.106,8.106,0,0,1,143.1-12.1a11.332,11.332,0,0,1,.075-1.3,11.455,11.455,0,0,1,.275-1.45q.1-.55.175-.975a5.026,5.026,0,0,0,.075-.875,8.017,8.017,0,0,0-.075-1.025q-.075-.575-.175-1.425a10.125,10.125,0,0,1-.125-1.3q-.025-.7,0-1.375t.1-1.225a2.212,2.212,0,0,1,.225-.8,1.319,1.319,0,0,1,.4-.425,2.476,2.476,0,0,1,.55-.325,2.149,2.149,0,0,1,.575-.05h2.375a4.746,4.746,0,0,1,1.1.1,3.143,3.143,0,0,0,.5.05h1.025q.325,0,.875-.05t.875-.075q.325-.025.575-.025t.5.025q.25.025.55.075.5.05.9.075t.8.025a6.713,6.713,0,0,0,1.5-.15,8.152,8.152,0,0,1,1.6-.15,5.238,5.238,0,0,1,1.225.15,1.006,1.006,0,0,1,.775.85,1.091,1.091,0,0,1,.025.425q-.025.275-.075.675a3.493,3.493,0,0,0-.05.975q.05.325.2.925a3.011,3.011,0,0,1-.125,1.9,1.92,1.92,0,0,1-1.075,1.25,1.04,1.04,0,0,1-.4.05q-.25,0-.8-.05t-1.55-.2q-.7-.1-1.075-.15a5.156,5.156,0,0,0-.675-.05,3.428,3.428,0,0,0-.65.05q-.25.05-.6.1t-.65.1q-1.1.15-1.45.225a1.531,1.531,0,0,0-.5.175.605.605,0,0,0-.4.475,6.027,6.027,0,0,0,.1,1.375,4.584,4.584,0,0,1,.125.675q.025.275.025.375a.2.2,0,0,0,.05.15.521.521,0,0,0,.3.05,1.2,1.2,0,0,0,.375.05h.375a3.266,3.266,0,0,1,.95-.1h.4q.55,0,.7.35a4.069,4.069,0,0,1,.2,1,17.105,17.105,0,0,1,.1,2.05q0,.75-.025.95A1.85,1.85,0,0,1,154.05-9.5Zm22.7-15.4a4.307,4.307,0,0,0,.7.05h3.6q1.4,0,2.85.05,1.25,0,1.8-.025a9.678,9.678,0,0,0,1.15-.125,5.214,5.214,0,0,1,1.025-.1h1.075q.45,0,.95.025a4.352,4.352,0,0,1,.95.15,2.83,2.83,0,0,1,.85.4,1.7,1.7,0,0,1,.6.725,4.969,4.969,0,0,1,.175.775A3.8,3.8,0,0,1,192.5-22a5.731,5.731,0,0,0,.025,1.175q.075.725.225,1.575.1.55.125.725a1.71,1.71,0,0,1-.075.575,1.585,1.585,0,0,1-1.7,1.4,5.864,5.864,0,0,1-1.2-.15,1.152,1.152,0,0,0-.4-.1h-.25a1.108,1.108,0,0,0-.35.05q-.8.15-.95.575a3.462,3.462,0,0,0-.15,1.125,4.971,4.971,0,0,1,.025.875q-.025.475-.075,1.075-.05.65-.075,1.275a12.981,12.981,0,0,0,.025,1.375q.05.75.175,1.75t.325,2.4q.1.8.175,1.3t.1.85q.025.35.025.6v.65a6.3,6.3,0,0,1-.1,1.075,4.477,4.477,0,0,1-.325,1.075,2.111,2.111,0,0,1-.65.825A1.719,1.719,0,0,1,186.35.4q-.2,0-.45-.025T185.35.3q-.25-.05-.45-.075A3.655,3.655,0,0,0,184.45.2a7.332,7.332,0,0,0-.8.05Q183.2.3,182.4.4h-.35A7.666,7.666,0,0,1,180.9.3a1.1,1.1,0,0,1-.9-.65,1.85,1.85,0,0,1-.125-.45q-.025-.2.025-1.35.05-.65.075-1.425A9.2,9.2,0,0,1,180.1-4.9q.05-.45.1-1.375t.1-2.15q.05-1.225.1-2.725t.05-3.15l.05-1.95-.85-.85-.9-.1q-.7-.1-1.15-.15a7.715,7.715,0,0,0-.85-.05,3.943,3.943,0,0,0-.775.075q-.375.075-.925.175t-1.275.2q-.725.1-1.275.15-.6.1-1.325.175a4.362,4.362,0,0,0-.825.125.549.549,0,0,0-.325.275,1.584,1.584,0,0,0-.075.575,2.168,2.168,0,0,0,.1.725,2.08,2.08,0,0,0,.5.675,1.878,1.878,0,0,0,.625.5,9.081,9.081,0,0,0,1.325.4,22.516,22.516,0,0,1,2.275.7,8.417,8.417,0,0,1,1.55.75,3.576,3.576,0,0,1,1,.925A6.068,6.068,0,0,1,178-9.7a9.237,9.237,0,0,1,.525,2.475A8.2,8.2,0,0,1,178.4-4.7a4.975,4.975,0,0,1-.45,1.2,9.3,9.3,0,0,1-.85,1.375,15.8,15.8,0,0,1-1.025,1.25A6.337,6.337,0,0,1,175.05.05,4.93,4.93,0,0,1,173.5.7a7.4,7.4,0,0,1-1.7.2,12.107,12.107,0,0,1-2.05-.2,12.218,12.218,0,0,0-2-.15,5.345,5.345,0,0,0-1.05.1q-.2.05-.525.125T165.5.95a4.246,4.246,0,0,1-1.25.2,1.947,1.947,0,0,1-.7-.1,1.244,1.244,0,0,1-.55-.3,1.487,1.487,0,0,1-.225-.275A1.219,1.219,0,0,1,162.65.1a5.142,5.142,0,0,1-.075-.675Q162.55-1,162.55-1.75V-3.275a3.835,3.835,0,0,0-.1-.925,7.611,7.611,0,0,1-.1-1.75,2.195,2.195,0,0,1,.3-1.2.442.442,0,0,1,.2-.125,2.864,2.864,0,0,1,.5-.025,11.543,11.543,0,0,1,1.475.1q.775.1,1.975.35.7.15,1.075.2a5.86,5.86,0,0,0,.775.05q.15,0,.575-.05a8.748,8.748,0,0,0,.875-.15q.45-.1.8-.2t.35-.2q0-.25-.35-.45a5.993,5.993,0,0,0-.8-.375q-.45-.175-.875-.3T168.65-8.5A7.139,7.139,0,0,1,166-9.6a12.458,12.458,0,0,1-2.1-1.95q-.25-.25-.55-.575a3.677,3.677,0,0,1-.45-.575,4.12,4.12,0,0,1-1.05-2.8,9.921,9.921,0,0,1,.525-3.1,10.709,10.709,0,0,1,1.5-2.95,8.47,8.47,0,0,1,2.3-2.2,5.392,5.392,0,0,1,2.975-.85h.5a3.366,3.366,0,0,1,.55.05q.3,0,.55.025t.45.025a5.86,5.86,0,0,0,.775-.05q.375-.05,1.025-.15.7-.1,1.325-.175a10.278,10.278,0,0,1,1.225-.075h.6A3.644,3.644,0,0,1,176.75-24.9Z" transform="translate(1969 486.594)" fill="#fff"/>
    <g id="Rechteck_2933" data-name="Rechteck 2933" transform="translate(701 433)" fill="none" stroke="#ff6200" stroke-width="1">
      <rect width="1521" height="83" stroke="none"/>
      <rect x="0.5" y="0.5" width="1520" height="82" fill="none"/>
    </g>
  </g>
</svg>
