<?xml version="1.0" encoding="utf-8"?>
<!-- Generator: Adobe Illustrator 27.6.1, SVG Export Plug-In . SVG Version: 6.00 Build 0)  -->
<svg version="1.1" id="Ebene_1" xmlns="http://www.w3.org/2000/svg" xmlns:xlink="http://www.w3.org/1999/xlink" x="0px" y="0px"
	 viewBox="0 0 951 45.1" style="enable-background:new 0 0 951 45.1;" xml:space="preserve">
<style type="text/css">
	.st0{fill:#00FF80;}
	.st1{fill:#00FE7F;}
	.st2{fill:#8F9091;}
	.st3{fill:#3F4142;}
</style>
<g id="Gruppe_7012" transform="translate(-1094.569 -1046.858)">
	<rect id="Rechteck_2609" x="1094.6" y="1077" class="st0" width="44" height="15"/>
	<rect id="Rechteck_2610" x="1140.6" y="1077" class="st1" width="44" height="15"/>
	<rect id="Rechteck_2611" x="1186.6" y="1077" class="st1" width="44" height="15"/>
	<path id="Pfad_4020-2" class="st2" d="M1103.4,1050c0-0.4,0-0.8,0-1s0-0.4,0-0.5c0-0.1,0-0.2,0-0.2c0,0,0-0.1,0.1-0.1
		c0.2-0.2,0.4-0.4,0.6-0.5c0.1,0,0.3,0,0.4,0h0.4c0.2,0,0.4,0,0.5,0c0.2,0,0.4,0,0.5,0c0.2,0,0.3,0,0.4,0c0.2,0,0.3,0,0.4,0
		c0.1,0,0.2,0,0.4-0.1c0.3-0.1,0.6-0.1,0.9-0.1c0.3,0,0.5,0,0.7,0.2c0.2,0.1,0.3,0.3,0.4,0.5c0.1,0.1,0.1,0.2,0.1,0.3
		c0,0.2,0,0.3,0,0.5c0,0.2,0,0.4,0,0.6c0,0.3-0.1,0.6-0.2,0.9c0,0.2-0.1,0.5-0.2,0.8c-0.1,0.3-0.1,0.5-0.1,0.7
		c0,0.2-0.1,0.4-0.1,0.6c0,0.2-0.1,0.4-0.1,0.6c-0.1,0.4-0.1,0.8-0.1,1.2c0,0.4,0,0.8,0.1,1.2c0,0.1,0.1,0.2,0.1,0.4
		c0,0.1,0,0.3,0,0.4c0,0.2,0,0.4,0,0.7c0,0.3,0,0.7,0,1.3c0,0.9,0,1.5,0,1.8c0,0.3,0,0.6,0.1,0.9c0,0.2,0.1,0.4,0.1,0.7
		c0,0.2,0,0.5,0,0.9c0,0.2,0,0.5,0,0.9c0,0.3-0.1,0.6-0.2,0.9c-0.1,0.3-0.3,0.5-0.5,0.7c-0.2,0.2-0.5,0.3-0.8,0.3
		c-0.2,0-0.4,0-0.6-0.1c-0.2,0-0.3-0.1-0.5-0.1c-0.1,0-0.2,0-0.4,0c-0.2,0-0.4,0-0.6,0.1c-0.2,0.1-0.4,0.2-0.7,0.3
		c-0.1,0.1-0.3,0.1-0.4,0.2c-0.1,0-0.2,0-0.4,0c-0.1,0-0.2,0-0.3,0c-0.1,0-0.2-0.1-0.2-0.1c-0.1-0.1-0.1-0.1-0.2-0.2l-0.2-0.2
		c-0.1-0.1-0.2-0.3-0.2-0.5c0-0.2,0-0.5,0-0.7c0-0.4,0-0.7,0-1.1c0-0.2,0-0.4,0-0.6c0-0.3,0-0.5,0-0.7c0-0.2,0-0.4,0-0.7
		c0-0.1,0-0.1-0.1-0.2c-0.1-0.1-0.3-0.1-0.4-0.1c-0.2,0-0.4,0.1-0.4,0.3c0,0.1-0.1,0.2-0.1,0.3c0,0.2,0,0.4,0.1,0.6
		c0.1,0.6,0.1,1.1,0.1,1.7c-0.1,0.4-0.2,0.9-0.4,1.3c-0.1,0.2-0.2,0.4-0.4,0.5c-0.1,0.2-0.3,0.3-0.5,0.3c-0.1,0-0.3,0.1-0.4,0.1
		c-0.2,0-0.4,0-0.8,0c-0.2,0-0.5,0-0.9,0.1c-0.3,0-0.6,0-0.9,0.1c-0.3,0-0.6,0.1-0.8,0.1c-0.2,0-0.4,0-0.5,0c-0.5,0-1-0.3-1.1-0.8
		c-0.1-0.4-0.1-0.7-0.1-1.1c0-0.5,0.1-1,0.2-1.5c0-0.3,0.1-0.6,0.1-0.8c0-0.2,0-0.4,0.1-0.6c0-0.2,0-0.3,0-0.5c0-0.2,0-0.4-0.1-0.6
		c-0.1-0.3-0.1-0.7-0.1-1.1c0-0.2,0-0.6,0.1-1.2c0-0.4,0.1-0.7,0.1-1.1v-3.2c0-0.3,0-0.6,0-0.8c0-0.2-0.1-0.4-0.1-0.6
		c0-0.2-0.1-0.4-0.2-0.7c-0.1-0.4-0.1-0.8-0.1-1.2c0-0.3,0-0.7,0.1-1c0.1-0.5,0.4-1,0.9-1.2c0.5-0.2,1-0.3,1.5-0.3
		c0.1,0,0.2,0,0.3,0c0.1,0,0.2,0,0.3,0c0.2,0,0.4,0,0.5,0h2c0.2,0,0.5,0,0.7,0.1c0.2,0.1,0.3,0.3,0.3,0.6v0.4c0,0.2,0,0.4,0,0.7
		c0,0.3,0,0.5-0.1,0.8c0,0.3-0.1,0.6-0.1,0.9c0,0.3,0,0.6-0.1,0.8c0,0.2,0,0.4-0.1,0.6c0,0.1,0,0.3,0,0.4c0,0.1,0,0.3,0,0.4
		c0,0.2,0.1,0.4,0.1,0.6c0,0.2,0.1,0.4,0.1,0.7c0,0.2,0.1,0.4,0.1,0.6c0,0.1,0,0.2,0.1,0.3c0.1,0.2,0.3,0.3,0.5,0.3
		c0.1,0,0.3,0,0.4-0.1c0.1,0,0.2-0.1,0.2-0.3c0.1-0.3,0.1-0.6,0.1-0.9c0-0.4,0-0.9,0.1-1.3c0-0.4,0.1-0.9,0.2-1.4
		c0-0.2,0-0.3,0.1-0.4c0-0.1,0-0.3,0-0.4c0-0.2,0-0.4,0-0.6C1103.4,1050.7,1103.4,1050.4,1103.4,1050z M1122.7,1052.7
		c0,0.2,0.1,0.4,0.1,0.6c0,0.3,0,0.6,0,0.9c0,0.2,0,0.4,0,0.6c0,0.1,0,0.4,0.1,0.6c0,0.4,0.1,0.7,0.1,1c0,0.3,0,0.5-0.1,0.8
		c-0.1,0.6-0.4,1.2-0.8,1.6c-0.4,0.4-1,0.8-1.6,1c-0.2,0.1-0.4,0.1-0.5,0.2c-0.1,0.1-0.2,0.1-0.3,0.2c-0.4,0.3-0.9,0.6-1.4,0.9
		c-0.5,0.2-1.1,0.3-1.6,0.3c-0.2,0-0.3,0-0.4-0.1c-0.1,0-0.1,0-0.2,0v0.4c0,0.3,0,0.6,0,0.9s0,0.7,0.1,1c0,0.2,0,0.5,0.1,0.7
		c0,0.2,0,0.3,0.1,0.5c0,0.2,0,0.4,0,0.5c0,0.3-0.1,0.7-0.2,1c-0.2,0.3-0.6,0.4-0.9,0.3h-0.3c-0.1,0-0.2,0-0.3,0c-0.1,0-0.3,0-0.6,0
		l-0.9,0c-0.3,0-0.6,0-0.9-0.1c-0.2,0-0.3,0-0.5-0.1c-0.3-0.2-0.5-0.5-0.6-0.8c-0.1-0.1-0.1-0.3-0.2-0.4c0-0.1-0.1-0.3-0.1-0.4
		c0-0.1,0-0.3-0.1-0.6s0-0.5,0-0.9c0-0.4,0-0.7-0.1-1.2c0-0.3,0-0.6-0.1-0.9c0-0.5-0.1-1.1-0.1-1.6c0-0.7,0.1-1.3,0.2-2
		c0-0.5,0.1-1,0.1-1.4c0-0.4,0.1-0.7,0.1-1.1s0-0.7,0-1.1c0-0.4-0.1-0.8-0.1-1.4c0-0.4,0-0.8-0.1-1.3c0-0.4,0-0.9-0.1-1.3
		c0-0.4,0-0.7,0-1.1c0-0.2,0-0.4,0.1-0.6c0.1-0.3,0.2-0.6,0.5-0.9c0.1-0.1,0.2-0.2,0.4-0.2c0.1,0,0.2,0,0.3,0h1.2c0.3,0,0.7,0,1,0
		c0.3,0,0.7,0,1,0.1c0.2,0,0.4,0.1,0.6,0.1c0.1,0,0.2,0.1,0.3,0.1h0.8c0.1,0,0.3,0,0.4,0l1-0.1c0.1,0,0.2,0,0.3,0c0.1,0,0.1,0,0.2,0
		c0.6,0,1.2,0.2,1.7,0.5c0.5,0.3,0.8,0.9,0.9,1.5c0,0.1,0.1,0.2,0.1,0.3c0,0.1,0,0.1,0,0.2c0.2,0.4,0.5,0.9,0.8,1.2
		c0.2,0.2,0.3,0.5,0.5,0.7C1122.5,1052.2,1122.6,1052.4,1122.7,1052.7z M1116.7,1056.3c0.2-0.1,0.3-0.2,0.5-0.4
		c0.1-0.1,0.3-0.3,0.3-0.5c0.1-0.2,0.2-0.4,0.2-0.6c0-0.3,0-0.5-0.1-0.8c-0.1-0.3-0.1-0.5-0.1-0.6c0-0.2,0-0.5,0-0.7
		c0-0.3,0-0.5,0-0.8c0-0.1-0.1-0.3-0.2-0.4c-0.1-0.1-0.2-0.1-0.3-0.1c-0.2,0-0.3,0-0.5,0.1c-0.1,0-0.3,0.1-0.4,0.2c0,0,0,0.2,0,0.5
		c0,0.3,0.1,0.5,0.1,0.7c0,0.2,0,0.5,0,0.7c0,0.3,0,0.5-0.1,0.8c0,0.3-0.1,0.7-0.2,1.1c-0.1,0.3-0.1,0.6-0.2,0.9c0,0,0,0,0.1,0
		c0.2,0,0.3,0,0.4-0.1C1116.4,1056.5,1116.6,1056.4,1116.7,1056.3z"/>
	<rect id="Rechteck_2612" x="1257.6" y="1077" class="st0" width="44" height="15"/>
	<rect id="Rechteck_2613" x="1303.6" y="1077" class="st3" width="44" height="15"/>
	<rect id="Rechteck_2614" x="1349.6" y="1077" class="st3" width="44" height="15"/>
	<path id="Pfad_4021-2" class="st2" d="M1267.7,1054.9c0.1-0.2,0.1-0.3,0.2-0.5c0.1-0.2,0.1-0.5,0.2-0.7c0.1-0.3,0.1-0.5,0.2-0.7
		c0-0.2,0.1-0.3,0.1-0.5c0-0.1,0.1-0.3,0.1-0.4c0-0.1,0.1-0.3,0.2-0.5c0.1-0.3,0.3-0.7,0.3-1c0.1-0.4,0.1-0.8,0.2-1.1
		c0-0.3,0.1-0.6,0.1-0.9c0-0.1,0.1-0.3,0.2-0.4c0.1-0.1,0.2-0.2,0.4-0.2c0.2-0.1,0.5-0.1,0.7-0.1h0.4c0.3,0,0.6,0,0.7,0
		s0.3,0,0.6-0.1c0.4-0.1,0.7-0.1,1-0.2c0.3,0,0.5-0.1,0.8-0.1c0.5,0,0.9,0.1,1.3,0.3c0.3,0.3,0.4,0.7,0.4,1.1c0,0.2,0,0.4,0,0.5
		c0,0.2-0.1,0.5-0.1,0.9c0,0.2-0.1,0.4-0.1,0.6s0,0.3-0.1,0.4c0,0.1,0,0.3,0,0.4c0,0.2,0,0.3,0,0.6v1c0,0.3,0,0.6,0.1,0.9
		c0.1,1,0.1,2,0.1,3c0,1.1-0.1,2.2-0.2,3.2c0,0.3-0.1,0.5-0.1,0.8v0.9c0,0.7,0,1.3,0.1,1.7s0,0.7,0,1v0.5c0,0.1,0,0.1,0,0.2
		c0,0.3-0.3,0.6-0.6,0.8l-0.2,0.1c-0.1,0-0.2,0-0.2,0c-0.1,0-0.1,0-0.2,0c-0.1,0-0.2,0-0.3,0h-0.7c-0.3,0-0.6,0-0.8,0
		c-0.2,0-0.5,0-0.7,0.1c-0.2,0-0.3,0.1-0.5,0.1h-0.4c-0.1,0-0.3,0-0.4,0c-0.3-0.1-0.4-0.3-0.5-0.6c-0.1-0.6-0.1-1.3,0-1.9l0.2-1.4
		c0.1-0.5,0.1-0.9,0.2-1.3c0-0.2,0-0.3,0.1-0.5c0-0.2,0-0.3,0.1-0.4c0.1-0.3,0-0.7-0.1-1c-0.1-0.1-0.1-0.1-0.2-0.1
		c0,0-0.1,0.1-0.3,0.2c-0.2,0.2-0.3,0.3-0.4,0.5c-0.1,0.2-0.2,0.3-0.3,0.5c0,0.1-0.1,0.2-0.1,0.3c0,0.1,0,0.4,0,0.7
		c0,0.4,0,0.7,0,0.8c0,0.1-0.1,0.3-0.2,0.3c-0.2,0.1-0.4,0.2-0.6,0.2c-0.2,0-0.4,0.1-0.7,0.1c-0.3,0-0.5-0.1-0.7-0.2
		c-0.2-0.2-0.4-0.5-0.5-0.8c-0.1-0.3-0.3-0.6-0.5-0.8c-0.1-0.1-0.3-0.3-0.3-0.5c-0.1-0.2-0.2-0.4-0.2-0.6c-0.1-0.3-0.2-0.6-0.3-0.8
		c-0.1-0.2-0.2-0.3-0.3-0.3c0,0,0,0.1-0.1,0.3c0,0.2,0,0.6,0,1.2c0,0.8,0,1.4,0,2c0,0.5,0.1,1,0.2,1.5c0.1,0.5,0.1,1.1,0,1.6
		c-0.1,0.2-0.1,0.4-0.3,0.5c-0.1,0.1-0.2,0.3-0.4,0.3c-0.2,0.1-0.4,0.1-0.6,0.1h-0.4c-0.2,0-0.4,0-0.6,0c-0.1,0-0.2,0-0.3,0
		c-0.1,0-0.1,0-0.2,0c-0.1,0-0.2,0-0.3,0c-0.1,0-0.2,0-0.4,0.1c-0.2,0-0.3,0-0.5,0.1c-0.2,0-0.3,0-0.4,0c-0.2,0-0.5,0-0.7-0.1
		c-0.5-0.1-0.8-0.3-0.9-0.7c-0.1-0.3-0.1-0.5,0-0.8c0-0.4,0.1-1,0.1-1.8c0.1-0.7,0.1-1.3,0.1-1.7c0-0.5,0-0.9-0.1-1.4l-0.1-0.6
		c0-0.2,0-0.4,0-0.7v-0.8c0-0.3,0-0.7,0-1.1c0-0.4,0-0.7,0.1-0.9c0-0.2,0-0.5,0-0.7s0-0.4,0-0.6s0-0.5,0-0.8c0-0.7-0.1-1.4-0.1-2.1
		c0-0.7-0.1-1.2-0.1-1.5c0-0.4-0.1-0.7-0.1-1.1c0-0.3,0-0.6,0.1-0.9c0.1-0.3,0.3-0.6,0.5-0.8c0.2-0.2,0.6-0.3,0.9-0.3
		c0.1,0,0.3,0,0.4,0c0.2,0,0.3,0.1,0.5,0.1l0.6,0.2l1-0.1c0.2,0,0.5,0,0.8,0h0.6c0.2,0,0.5,0.1,0.7,0.1c0.2,0,0.4,0.1,0.5,0.2
		c0.1,0.1,0.2,0.1,0.3,0.3c0.1,0.1,0.1,0.2,0.1,0.4c0,0,0,0.2,0.1,0.5c0,0.3,0.1,0.7,0.2,1.1c0.2,1,0.4,2.1,0.6,3.2
		c0,0.1,0.1,0.3,0.3,0.7c0.1,0.3,0.3,0.7,0.4,1.1c0.1,0.4,0.3,0.7,0.4,1l0.2,0.4c0-0.1,0-0.1,0.1-0.2c0-0.1,0.1-0.2,0.2-0.4
		s0.1-0.3,0.2-0.5C1267.7,1055.1,1267.7,1055,1267.7,1054.9z M1284.8,1046.9c0.8,0,1.5,0.3,2.1,0.8c0.2,0.1,0.4,0.3,0.6,0.4
		c0.2,0.1,0.4,0.2,0.7,0.2c0.5,0.1,0.9,0.3,1.3,0.6c0.3,0.3,0.6,0.6,0.7,1c0.2,0.4,0.3,0.8,0.3,1.2c0,0.5,0.1,0.9,0.1,1.4
		c0,0.4,0,0.8,0,1c0,0.2,0,0.4,0.1,0.6c0.1,0.3,0.1,0.6,0.1,1c0,0.4,0,0.9-0.1,1.3c0,0.4,0,0.7-0.1,1c0,0.3,0,0.5,0,0.8
		c0,0.3,0.1,0.5,0.1,0.8c0.1,0.3,0.1,0.6,0.3,1c0.5,1.3,0.7,2.7,0.6,4.1c0,0.3-0.1,0.5-0.1,0.8c-0.1,0.3-0.2,0.6-0.3,0.8
		c-0.1,0.2-0.3,0.5-0.5,0.6c-0.2,0.2-0.5,0.3-0.7,0.3h-0.3c-0.1,0-0.2,0-0.3-0.1c-0.1,0-0.2-0.1-0.3-0.1h-0.6c-0.1,0-0.3,0-0.4,0
		c-0.1,0-0.2,0-0.3,0h-0.3c-0.5,0-1.1-0.2-1.4-0.6c-0.3-0.4-0.5-0.9-0.5-1.5c0-0.3-0.1-0.6-0.1-0.9c-0.1-0.4-0.2-0.7-0.3-1.1
		c-0.1-0.2-0.1-0.4-0.1-0.6c0-0.2-0.1-0.4-0.2-0.6c-0.1-0.2-0.3-0.3-0.5-0.3c-0.2,0-0.4,0.1-0.5,0.3l-0.1,0.2l0,1.1v0.9
		c0,0.2,0,0.4,0.1,0.6c0.1,0.5,0.1,1.1-0.1,1.6c-0.3,0.9-1.1,1.6-2.1,1.5h-0.4c-0.1,0-0.2,0-0.3,0l-0.7-0.2c-0.1,0-0.3-0.1-0.4-0.1
		c-0.1,0-0.2,0-0.3-0.1c-0.2,0-0.3,0-0.4,0c-0.1,0-0.3,0-0.4,0.1c-0.1,0-0.2,0.1-0.3,0.1h-0.2c-0.2-0.1-0.4-0.2-0.5-0.4
		c-0.2-0.2-0.3-0.5-0.4-0.8c-0.1-0.2-0.1-0.5-0.1-0.7c0-0.4,0-0.7,0.1-1.1c0.1-0.8,0.1-1.5,0-2.3c0-0.2-0.1-0.5-0.1-0.7
		c0-0.2,0-0.5,0-1.1c0-0.7,0-1.2,0.1-1.6c0-0.4,0.1-0.9,0.2-1.5c0.1-0.3,0.1-0.5,0.2-0.8c0-0.2,0-0.4,0-0.7c0-0.3,0-0.6-0.1-1
		c-0.1-0.4-0.2-0.9-0.3-1.3c-0.1-0.5-0.2-0.9-0.2-1.2c0-0.4-0.1-0.7,0-1.1c0-0.4,0-0.7,0.1-1.1c0.1-0.3,0.2-0.6,0.3-0.9
		c0-0.1,0.1-0.3,0.1-0.4c0.1-0.2,0.2-0.3,0.3-0.4c0.2-0.1,0.4-0.2,0.6-0.3c0.2-0.1,0.5-0.1,0.7-0.2c0.2,0,0.4-0.1,0.6-0.1
		c0.4,0,0.9,0.1,1.3,0.2c0.3,0.1,0.6,0.1,0.9,0.1c0.2,0,0.3,0,0.5-0.1l0.5-0.1c0.5-0.1,0.8-0.2,1-0.2
		C1284.3,1046.9,1284.5,1046.9,1284.8,1046.9z M1284.3,1057.3c0.1,0,0.3,0,0.4-0.1c0.2-0.2,0.3-0.4,0.4-0.7c0.1-0.2,0.2-0.5,0.2-0.7
		c0-0.1,0-0.2,0-0.2c0-0.1-0.1-0.3-0.1-0.4c-0.2-0.6-0.2-1.3,0-1.9c0.1-0.4,0.2-0.8,0.3-1.2c0-0.2,0-0.5-0.1-0.7
		c-0.2-0.4-0.6-0.6-1-0.5c-0.3,0-0.5,0-0.7,0.2c-0.2,0.1-0.3,0.3-0.4,0.6c-0.1,0.2-0.1,0.3-0.1,0.5c0,0.2,0,0.4,0.1,0.6
		c0,0.3,0.1,0.5,0.1,0.8c0,0.3-0.1,0.6-0.1,0.9c-0.1,0.3-0.1,0.5-0.1,0.8c0,0.1,0.1,0.2,0.1,0.4c0,0.2,0.1,0.3,0.1,0.5
		c0,0.2,0.1,0.3,0.1,0.4c0,0.1,0.1,0.2,0.1,0.3C1283.6,1057.2,1283.9,1057.3,1284.3,1057.3z M1300.9,1059.8c0,0.1,0,0.2,0.1,0.3
		c0,0,0,0,0.1-0.1c0-0.1,0-0.2,0-0.3c0-0.2,0-0.3,0-0.5c0-0.2,0-0.4,0-0.7c0-0.3,0-0.6,0.1-0.8c0-0.6,0.1-1.1,0.1-1.7
		c0-0.4,0-0.9-0.1-1.3c-0.1-0.4-0.1-0.6-0.2-0.9c0-0.2-0.1-0.4-0.1-0.6c0-0.2,0-0.5,0-0.9v-3.1c0-0.3,0-0.6,0-0.8
		c0-0.1,0-0.3,0.1-0.4c0.1-0.1,0.1-0.2,0.2-0.2c0.1-0.2,0.3-0.3,0.5-0.3c0.3-0.1,0.6-0.1,0.9-0.1c0.2,0,0.4,0,0.7,0
		c0.3,0,0.5,0,0.7-0.1c0.3,0,0.6-0.1,0.9-0.1h0.9c0.2,0,0.4,0,0.5,0.1c0.2,0,0.3,0.2,0.4,0.3c0.1,0.1,0.1,0.2,0.1,0.3
		c0,0.1,0,0.5,0,1.1c0,0.3,0,0.7,0,1.1c0,0.3,0,0.6,0,0.8c0,0.3,0,0.7,0.1,1c0,0.3,0,0.6,0,0.9c0,0.3-0.1,0.7-0.1,1
		c0,0.4-0.1,0.8-0.2,1.2c-0.1,0.6-0.1,1-0.2,1.3c0,0.4,0,0.9,0,1.3c0.1,1.3,0.1,2.4,0.2,3.3c0,0.9,0,1.7,0,2.3c0,0.5,0,1-0.1,1.4
		c0,0.3-0.1,0.6-0.2,0.9c-0.1,0.2-0.1,0.4-0.3,0.6c-0.1,0.2-0.2,0.3-0.4,0.4c-0.2,0.1-0.4,0.2-0.6,0.2c-0.3,0-0.6-0.1-0.9-0.1
		c-0.3-0.1-0.6-0.1-0.8-0.2c-0.2,0-0.4-0.1-0.6-0.1c-0.1,0-0.2,0-0.3,0c-0.1,0-0.2,0-0.4,0.1c-0.2,0-0.3,0-0.4,0.1
		c-0.1,0-0.2,0-0.3,0c0,0-0.1,0-0.1,0c0,0-0.1,0-0.1,0c-0.2,0-0.3-0.1-0.5-0.1c-0.1-0.1-0.3-0.2-0.3-0.4c-0.1-0.2-0.2-0.5-0.3-0.7
		c-0.1-0.3-0.2-0.7-0.4-1.2c-0.1-0.3-0.2-0.6-0.3-0.8c-0.1-0.2-0.1-0.4-0.2-0.6c-0.1-0.2-0.1-0.3-0.2-0.5c-0.1-0.1-0.2-0.3-0.3-0.5
		l-0.4-0.7c0,0-0.1,0.1-0.1,0.4c0,0.4,0,0.8,0,1.2c0,0.5,0.1,1,0.1,1.5c0.1,0.5,0.1,1,0,1.5c-0.1,0.3-0.2,0.6-0.5,0.7
		c-0.2,0.1-0.3,0.1-0.5,0.1c-0.2,0-0.4,0-0.6-0.1c-0.3-0.1-0.5-0.1-0.8-0.1c-0.2,0-0.3,0-0.5,0.1c-0.2,0-0.4,0.1-0.6,0.2
		c-0.4,0.1-0.8,0.2-1.2,0.2c-0.3,0-0.5-0.1-0.8-0.2c-0.2-0.1-0.4-0.4-0.3-0.7v-2.7c0-0.4,0-0.7,0-0.9c0-0.2,0-0.4,0-0.6
		c0-0.2,0-0.4,0.1-0.6c0.1-0.5,0.1-1,0.1-1.6c0-0.5,0-1-0.1-1.5c-0.1-0.5-0.1-0.9-0.2-1.4c0-0.4,0-0.8,0-1.2
		c0.1-0.9,0.1-1.6,0.1-2.2c0-0.6,0-1.2-0.1-1.9l-0.1-2c0-0.2,0-0.4-0.1-0.6c0-0.2,0-0.3,0-0.5c0-0.1,0-0.2,0-0.3
		c0-0.1,0.1-0.1,0.2-0.2l0.4-0.3c0,0,0.1-0.1,0.1-0.1c0,0,0.1,0,0.2,0c0.1,0,0.2,0,0.3,0c0.1,0,0.3,0,0.6,0c0.5,0,1,0,1.3-0.1
		c0.3,0,0.7-0.1,1.2-0.1c0.1,0,0.2,0,0.4,0h0.3c0.2,0,0.5,0,0.7,0.1l0.4,0.4c0.1,0.1,0.2,0.2,0.2,0.3c0.1,0.1,0.1,0.3,0.1,0.4
		c0.1,0.3,0.1,0.7,0.2,1.1c0.1,0.4,0.1,1,0.2,1.5c0,0.5,0.1,0.9,0.1,1.2c0,0.3,0.1,0.7,0.1,0.9c0.1,0.3,0.1,0.6,0.2,0.8
		c0.1,0.3,0.2,0.6,0.3,0.9c0.1,0.3,0.2,0.6,0.3,0.8c0.1,0.2,0.1,0.4,0.2,0.7c0,0.2,0.1,0.4,0.1,0.7s0,0.6,0.1,1c0,0.4,0.1,0.8,0.1,1
		C1300.8,1059.3,1300.8,1059.5,1300.9,1059.8z M1316.1,1046.9c0.8,0,1.5,0.3,2.1,0.8c0.2,0.1,0.4,0.3,0.6,0.4
		c0.2,0.1,0.4,0.2,0.7,0.2c0.5,0.1,0.9,0.3,1.3,0.6c0.3,0.3,0.6,0.6,0.7,1c0.2,0.4,0.3,0.8,0.3,1.2c0,0.5,0.1,0.9,0.1,1.4
		c0,0.4,0,0.8,0,1c0,0.2,0,0.4,0.1,0.6c0.1,0.3,0.1,0.6,0.1,1c0,0.4,0,0.9-0.1,1.3c0,0.4,0,0.7-0.1,1c0,0.3,0,0.5,0,0.8
		c0,0.3,0.1,0.5,0.1,0.8c0.1,0.3,0.1,0.6,0.3,1c0.5,1.3,0.7,2.7,0.6,4.1c0,0.3-0.1,0.5-0.1,0.8c-0.1,0.3-0.2,0.6-0.3,0.8
		c-0.1,0.2-0.3,0.5-0.5,0.6c-0.2,0.2-0.5,0.3-0.7,0.3h-0.3c-0.1,0-0.2,0-0.3-0.1c-0.1,0-0.2-0.1-0.3-0.1h-0.6c-0.1,0-0.3,0-0.4,0
		c-0.1,0-0.2,0-0.3,0h-0.3c-0.5,0-1.1-0.2-1.4-0.6c-0.3-0.4-0.5-0.9-0.5-1.5c0-0.3-0.1-0.6-0.1-0.9c-0.1-0.4-0.2-0.7-0.3-1.1
		c-0.1-0.2-0.1-0.4-0.1-0.6c0-0.2-0.1-0.4-0.2-0.6c-0.1-0.2-0.3-0.3-0.5-0.3c-0.2,0-0.4,0.1-0.5,0.3l-0.1,0.2l0,1.1v0.9
		c0,0.2,0,0.4,0.1,0.6c0.1,0.5,0.1,1.1-0.1,1.6c-0.3,0.9-1.1,1.6-2.1,1.5h-0.4c-0.1,0-0.2,0-0.3,0l-0.7-0.2c-0.1,0-0.3-0.1-0.4-0.1
		c-0.1,0-0.2,0-0.3-0.1c-0.2,0-0.3,0-0.4,0c-0.1,0-0.3,0-0.4,0.1c-0.1,0-0.2,0.1-0.3,0.1h-0.2c-0.2-0.1-0.4-0.2-0.5-0.4
		c-0.2-0.2-0.3-0.5-0.4-0.8c-0.1-0.2-0.1-0.5-0.1-0.7c0-0.4,0-0.7,0.1-1.1c0.1-0.8,0.1-1.5,0-2.3c0-0.2-0.1-0.5-0.1-0.7
		c0-0.2,0-0.5,0-1.1c0-0.7,0-1.2,0.1-1.6s0.1-0.9,0.2-1.5c0.1-0.3,0.1-0.5,0.2-0.8c0-0.2,0-0.4,0-0.7c0-0.3,0-0.6-0.1-1
		c-0.1-0.4-0.2-0.9-0.3-1.3c-0.1-0.5-0.2-0.9-0.2-1.2c0-0.4-0.1-0.7,0-1.1c0-0.4,0-0.7,0.1-1.1c0.1-0.3,0.2-0.6,0.3-0.9
		c0-0.1,0.1-0.3,0.1-0.4c0.1-0.2,0.2-0.3,0.3-0.4c0.2-0.1,0.4-0.2,0.6-0.3c0.2-0.1,0.5-0.1,0.7-0.2c0.2,0,0.4-0.1,0.6-0.1
		c0.4,0,0.9,0.1,1.3,0.2c0.3,0.1,0.6,0.1,0.8,0.1c0.2,0,0.3,0,0.5-0.1l0.5-0.1c0.5-0.1,0.8-0.2,1-0.2
		C1315.6,1046.9,1315.8,1046.9,1316.1,1046.9L1316.1,1046.9z M1315.6,1057.3c0.1,0,0.3,0,0.4-0.1c0.2-0.2,0.3-0.4,0.4-0.7
		c0.1-0.2,0.2-0.5,0.2-0.7c0-0.1,0-0.2,0-0.2c0-0.1-0.1-0.3-0.1-0.4c-0.2-0.6-0.2-1.3,0-1.9c0.1-0.4,0.2-0.8,0.3-1.2
		c0-0.2,0-0.5-0.1-0.7c-0.2-0.4-0.6-0.6-1-0.5c-0.3,0-0.5,0-0.7,0.2c-0.2,0.1-0.3,0.3-0.4,0.6c-0.1,0.2-0.1,0.3-0.1,0.5
		c0,0.2,0,0.4,0.1,0.6c0,0.3,0.1,0.5,0.1,0.8c0,0.3-0.1,0.6-0.1,0.9c-0.1,0.3-0.1,0.5-0.1,0.8c0,0.1,0.1,0.2,0.1,0.4
		c0,0.2,0.1,0.3,0.1,0.5c0,0.2,0.1,0.3,0.1,0.4c0,0.1,0.1,0.2,0.1,0.3C1314.9,1057.2,1315.2,1057.3,1315.6,1057.3z"/>
	<rect id="Rechteck_2615" x="1420.6" y="1077" class="st0" width="44" height="15"/>
	<rect id="Rechteck_2616" x="1466.6" y="1077" class="st1" width="44" height="15"/>
	<rect id="Rechteck_2617" x="1512.6" y="1077" class="st3" width="44" height="15"/>
	<path id="Pfad_4022-2" class="st2" d="M1432.8,1049.6c0,0.1-0.1,0.2-0.1,0.3c0,0.1,0,0.2-0.1,0.3c-0.2,0.6-0.5,1.1-0.9,1.5
		c-0.2,0.2-0.4,0.5-0.6,0.7c-0.1,0.2-0.2,0.3-0.3,0.5c-0.1,0.2-0.2,0.4-0.4,0.5c-0.1,0.2-0.3,0.3-0.5,0.4c-0.1,0-0.1,0-0.2,0.1
		c-0.1,0-0.1,0-0.2,0c-0.2,0-0.5,0-0.7-0.1c-0.2-0.1-0.4-0.2-0.6-0.4c-0.2-0.2-0.5-0.4-0.8-0.6c-0.2-0.1-0.4-0.3-0.6-0.4
		c-0.1,0-0.2,0-0.3,0c-0.4,0-0.6,0.1-0.7,0.2c0,0.1-0.1,0.3,0,0.4c0,0.4,0.2,0.7,0.4,1c0.3,0.3,0.6,0.6,1,0.8
		c0.4,0.2,0.8,0.4,1.2,0.6c0.4,0.2,0.8,0.3,1.1,0.4c0.4,0.1,0.7,0.2,0.9,0.3c0.2,0.1,0.4,0.2,0.6,0.3c0.2,0.1,0.3,0.2,0.5,0.3
		c0.1,0.1,0.3,0.2,0.5,0.3c0.3,0.3,0.6,0.6,0.8,1c0.2,0.4,0.5,0.8,0.6,1.2c0.3,1.1,0.2,2.3-0.2,3.3c-0.4,1.1-1,2.1-1.9,2.9
		c-0.3,0.3-0.7,0.6-1,0.8c-0.3,0.2-0.7,0.4-1.1,0.5c-0.4,0.1-0.8,0.2-1.1,0.2c-0.4,0-0.8,0.1-1.3,0.1c-0.2,0-0.5,0-0.7-0.1
		c-0.3,0-0.6-0.1-0.8-0.2c-0.3-0.1-0.6-0.1-0.8-0.2c-0.2-0.1-0.4-0.2-0.7-0.3c-0.1-0.1-0.3-0.2-0.5-0.3c-0.2-0.1-0.4-0.3-0.5-0.5
		c-0.5-0.4-0.9-0.7-1.5-1c-0.3-0.1-0.6-0.3-0.8-0.6c-0.2-0.2-0.3-0.4-0.3-0.7c0-0.2,0-0.4,0.2-0.6c0.2-0.2,0.4-0.5,0.6-0.6
		c0.1-0.1,0.2-0.2,0.3-0.3c0.1-0.1,0.2-0.2,0.2-0.2c0,0,0.1-0.1,0.3-0.3c0.1-0.2,0.2-0.3,0.4-0.5c0.1-0.3,0.3-0.5,0.5-0.7
		c0.2-0.1,0.3-0.3,0.5-0.4c0.1,0,0.1,0,0.2-0.1c0.1,0,0.1,0,0.2,0c0,0,0.1,0,0.1,0s0.1,0,0.1,0c0.1,0,0.2,0.1,0.3,0.2
		c0.1,0.1,0.3,0.3,0.5,0.5c0.4,0.4,0.8,0.8,1.2,1.2c0.3,0.2,0.7,0.3,1,0.3c0.3,0,0.6-0.1,0.8-0.3c0.2-0.2,0.3-0.4,0.3-0.7
		c0-0.2,0-0.5,0-0.7c0-0.1-0.1-0.1-0.1-0.2c-0.1-0.1-0.1-0.2-0.2-0.2c-0.1-0.1-0.2-0.2-0.4-0.3c-0.2-0.1-0.3-0.3-0.5-0.4
		s-0.3-0.3-0.5-0.4c-0.1-0.1-0.2-0.2-0.3-0.2c0,0-0.2-0.1-0.4-0.1c-0.2-0.1-0.4-0.1-0.7-0.2c-0.4-0.2-0.8-0.3-1.1-0.4
		c-0.3-0.1-0.5-0.2-0.7-0.4c-0.2-0.1-0.4-0.3-0.6-0.5c-0.3-0.3-0.5-0.5-0.7-0.8c-0.3-0.4-0.6-0.8-0.8-1.2c-0.1-0.3-0.2-0.7-0.2-1.1
		c0-0.3,0-0.5,0-0.8c0.1-0.3,0.2-0.7,0.3-1l0.1-0.5c0-0.2,0.1-0.4,0.1-0.6c0.1-0.6,0.2-1.2,0.5-1.7c0.3-0.5,0.7-0.9,1.1-1.2
		c0.5-0.3,1-0.6,1.6-0.7c0.6-0.2,1.2-0.3,1.8-0.3c0.6,0,1.2,0,1.7,0.2c0.5,0.1,1,0.3,1.5,0.6c0.3,0.2,0.6,0.3,0.8,0.4
		c0.3,0.1,0.7,0.2,1.1,0.3c0.4,0.1,0.7,0.1,1.1,0.2c0.2,0.1,0.3,0.2,0.3,0.4c0,0.1,0,0.2,0,0.2
		C1432.9,1049.2,1432.8,1049.4,1432.8,1049.6z M1443.5,1060.3c0,0.5,0,0.8,0,1.1s0,0.6,0.1,0.8c0,0.2,0,0.4,0.1,0.6
		c0,0.2,0.1,0.4,0.1,0.6c0.1,0.5,0.2,0.9,0.2,1.2c0,0.2,0.1,0.5,0.1,0.7c0,0.2,0,0.3-0.1,0.5c-0.1,0.1-0.2,0.2-0.3,0.3
		c-0.2,0.2-0.5,0.2-0.8,0.2h-0.3c-0.1,0-0.2,0-0.3,0c-0.1,0-0.2,0-0.4,0h-0.3c-0.5,0-0.9,0-1.4,0.1c-0.3,0.1-0.6,0.1-0.9,0.1
		c-0.5,0-0.9-0.3-1.1-0.7c-0.1-0.2-0.1-0.5-0.1-0.7c0-0.4,0-0.7,0.1-1.1c0-0.2,0-0.4,0.1-0.8c0-0.4,0-0.8,0-1.3v-0.9
		c0-0.2,0-0.5,0-0.7c0-0.2,0-0.4,0-0.5c0-0.2,0-0.4,0.1-0.6c0-0.2,0-0.4,0.1-0.6s0-0.3,0-0.4v-1.1c0-0.3,0-0.7,0-1
		c0-0.4,0-0.7-0.1-0.9c0-0.2,0-0.5,0-0.7v-0.6l0-0.5h-0.3c-0.1,0-0.2,0-0.4,0c-0.2,0-0.4,0-0.6,0.1c-0.4,0-0.8,0.1-1,0.1
		c-0.2,0-0.5,0-0.7,0.1c-0.2,0-0.5,0-0.7-0.1c-0.2-0.1-0.3-0.2-0.5-0.3c-0.2-0.2-0.3-0.4-0.3-0.6c0-0.5,0-0.9,0-1.4
		c0-0.3,0.1-0.6,0.1-0.9c0-0.2,0-0.4-0.1-0.6c0-0.1-0.1-0.3-0.1-0.4c0-0.1,0-0.2,0-0.3c0-0.4,0.1-0.7,0.3-1c0.2-0.3,0.5-0.5,0.8-0.5
		c0.1,0,0.2,0,0.4,0c0.1,0,0.3,0.1,0.5,0.1c0.1,0,0.2,0.1,0.4,0.1c0.1,0,0.2,0,0.3,0h0.3c0.1,0,0.3,0,0.4,0l0.4,0
		c0.1,0,0.2,0,0.2-0.1c0.1,0,0.1,0,0.2,0c0.1,0,0.2,0,0.3,0c0.1,0,0.3,0,0.4,0c0.2,0,0.3,0,0.4-0.1c0.2,0,0.3-0.1,0.5-0.1h0.8
		c0.1,0,0.3,0,0.4,0c0.6,0.1,1.2,0.1,1.8,0.1c0.2,0,0.5,0,0.7,0s0.5,0,0.8-0.1c0.3,0,0.6,0,0.9,0h0.8c0.4,0,0.9,0,1.3,0.1
		c0.3,0.1,0.5,0.2,0.6,0.5c0,0.1,0.1,0.2,0.1,0.2c0,0.1,0,0.3,0,0.4c0,0.2,0,0.5-0.1,0.7c0,0.4,0,0.7,0,1.1c0,0.7-0.1,1.3-0.1,1.5
		c0,0.2-0.1,0.4-0.1,0.7c-0.1,0.2-0.2,0.4-0.4,0.5c-0.2,0.1-0.5,0.2-0.8,0.2c-0.2,0-0.4,0-0.7,0c-0.3,0-0.6-0.1-0.9-0.1
		c-0.3,0-0.5-0.1-0.6-0.1c-0.1,0-0.2,0-0.3-0.1c-0.1,0-0.1,0-0.1,0.1c-0.1,0.2-0.1,0.4-0.1,0.6c0,0.2,0,0.6-0.1,1.1
		c0,0.7-0.1,1.3-0.1,1.7c0,0.4,0.1,0.9,0.1,1.3c0.1,0.3,0.1,0.7,0.1,1C1443.4,1059.2,1443.4,1059.7,1443.5,1060.3z M1458.2,1047.9
		c0.2,0.1,0.4,0.1,0.6,0.2c0.2,0.1,0.3,0.2,0.4,0.3c0.1,0.1,0.3,0.3,0.4,0.4c0.2,0.3,0.3,0.6,0.4,0.9c0.1,0.2,0.2,0.4,0.3,0.6
		c0.1,0.2,0.2,0.4,0.3,0.5c0.2,0.3,0.4,0.6,0.5,0.9c0.1,0.4,0.1,0.8,0,1.2c0,0.4,0,0.8,0,1.3c0,0.4,0.1,0.7,0,1.1
		c0,0.2-0.1,0.4-0.2,0.6c-0.1,0.3-0.2,0.6-0.3,0.8c-0.1,0.3-0.2,0.5-0.4,0.8c-0.2,0.4-0.5,0.7-0.8,0.8c-0.1,0.1-0.2,0.1-0.3,0.2
		c-0.1,0.1-0.2,0.1-0.4,0.2c0,0-0.1,0.1-0.2,0.1c-0.1,0-0.1,0-0.2,0.1c0,0-0.1,0.1-0.1,0.1c0,0,0,0.1,0.1,0.4
		c0.1,0.2,0.2,0.5,0.3,0.6c0.1,0.2,0.2,0.4,0.4,0.6c0.1,0.2,0.4,0.4,0.7,0.8c0.2,0.2,0.5,0.5,0.7,0.8c0.1,0.3,0.2,0.5,0.3,0.8
		c0,0.3,0.1,0.5,0.2,0.8c0.1,0.2,0.2,0.5,0.4,0.9c0.2,0.3,0.3,0.6,0.4,0.9c0.1,0.1,0.1,0.3,0,0.4c-0.1,0.2-0.3,0.3-0.6,0.4
		c-0.2,0.1-0.4,0.1-0.7,0.1c-0.1,0-0.3,0-0.5,0c-0.2,0-0.5,0-0.9-0.1h-0.7c-0.1,0-0.3,0-0.4,0c-0.2,0-0.3,0-0.4,0.1
		c-0.1,0-0.2,0-0.3,0c-0.4,0-0.7-0.1-0.9-0.4c-0.2-0.3-0.3-0.6-0.4-1c0-0.1,0-0.2-0.1-0.4c0-0.1-0.1-0.3-0.1-0.4
		c-0.1-0.2-0.1-0.3-0.2-0.5c-0.1-0.1-0.2-0.4-0.5-0.9c-0.1-0.2-0.2-0.3-0.3-0.5c-0.1-0.2-0.2-0.4-0.3-0.6c-0.2-0.4-0.4-0.7-0.6-0.9
		c-0.2-0.2-0.3-0.3-0.3-0.3c0,0,0,0.1,0,0.4s0,0.7,0.1,1.1c0,1,0.1,1.7,0.1,2.2c0,0.4,0,0.7-0.1,1.1c-0.1,0.3-0.3,0.5-0.5,0.6
		c-0.2,0.2-0.5,0.3-0.8,0.3c-0.2,0-0.4,0.1-0.6,0.1c-0.3,0-0.7,0-1.1,0c-0.4,0-0.7,0-1.1,0c-0.2,0-0.4,0-0.6-0.1
		c-0.1,0-0.3-0.1-0.4-0.1c-0.1-0.1-0.2-0.2-0.2-0.3c-0.1-0.2-0.1-0.4-0.1-0.6c0-0.3,0-0.7,0.1-1.2c0-0.2,0-0.5,0.1-0.8
		c0-0.3,0-0.6,0.1-0.8c0-0.2,0-0.5,0.1-0.8c0-0.3,0-0.6,0.1-0.8c0-0.5,0.1-1,0.1-1.4s0-0.9-0.1-1.5c0-0.2,0-0.4,0-0.6
		c0-0.2,0-0.4,0-0.6c0-0.2,0-0.5,0-0.9v-3.3c0-0.2,0-0.4,0-0.5c0-0.1,0-0.2-0.1-0.3c-0.2-1-0.3-2.1-0.3-3.2c0.1-0.4,0.3-0.7,0.6-1
		c0.2-0.1,0.5-0.2,0.7-0.3c0.3-0.1,0.6-0.1,0.9-0.2c0.3,0,0.6-0.1,0.9-0.1s0.5,0,0.7,0c0.3,0,0.7,0,1,0.1c0.2,0,0.5,0.1,0.7,0.2
		c0.1,0.1,0.3,0.1,0.5,0.1c0.2,0,0.6,0,1.2,0c0.4,0,0.8,0,1,0c0.3,0,0.5,0,0.7,0.1c0.2,0,0.4,0,0.5,0.1
		C1457.9,1047.8,1458,1047.8,1458.2,1047.9z M1455.5,1055.3c0-0.1,0.1-0.2,0.1-0.3c0-0.1,0-0.2-0.1-0.4c0-0.1,0-0.2-0.1-0.4
		c0-0.1,0-0.3,0-0.4c0-0.1,0-0.2,0-0.3c0,0-0.1-0.1-0.1-0.2c-0.2-0.3-0.5-0.6-0.9-0.7c0,0,0,0-0.1,0h0c0,0-0.1,0-0.1,0.1
		c0,0.1,0,0.3-0.1,0.6c0,0.2,0,0.5-0.1,0.8c0,0.3,0,0.6,0,1s0,0.6,0,0.8s0,0.3,0.1,0.3c0.3,0,0.6-0.1,0.8-0.3
		C1455.2,1055.7,1455.4,1055.5,1455.5,1055.3z M1469.6,1052.1c-0.1,0-0.2,0.1-0.3,0.1h-0.6c-0.1,0-0.2,0-0.3,0c0,0-0.1,0-0.1,0
		c0,0,0,0-0.1,0c-0.1,0-0.1,0-0.2,0.1c-0.1,0.1-0.2,0.2-0.2,0.4c0,0.3,0,0.5,0,0.8c0,0.2,0,0.4,0,0.6s0,0.4-0.1,0.5
		c0,0.1,0,0.3-0.1,0.4c0,0.1,0,0.2,0,0.2c0,0,0.1,0,0.4,0c0.3,0,0.7,0,1.1-0.1c0.4,0,0.8-0.1,1-0.1c0.3-0.1,0.6-0.1,0.8-0.1
		c0.1,0,0.3,0,0.4,0.1c0.1,0.1,0.2,0.2,0.2,0.3c0,0.2,0,0.4,0,0.6c0,0.2-0.1,0.4-0.1,0.7c0,0.2,0,0.4,0.1,0.6
		c0.2,0.9,0.1,1.5-0.4,1.8c-0.2,0.1-0.4,0.2-0.6,0.2c-0.1,0-0.2,0-0.3,0c-0.1,0-0.3,0-0.4-0.1c-0.2,0-0.3,0-0.5,0
		c-0.4,0-0.7,0-1.1,0.1c-0.2,0-0.4,0-0.6,0.2c0,0-0.1,0.1-0.1,0.1c0,0,0,0.1-0.1,0.1c0,0.1,0,0.1,0,0.2c0,0.1,0,0.2,0.1,0.3
		c0,0.1,0,0.2,0.1,0.4c0,0.1,0,0.3,0,0.4l0,0.4l0.2,0.1c0.1,0,0.2,0,0.2,0c0.5,0,0.9-0.1,1.4-0.2c0.4-0.1,0.7-0.2,1-0.2
		c0.2,0,0.4-0.1,0.7-0.1c0.1,0,0.2,0,0.3,0c0.1,0,0.2,0,0.3,0c0.2,0,0.3,0.1,0.5,0.1c0.2,0,0.3,0,0.5,0c0.3,0,0.6,0,0.9,0.1
		c0.2,0.1,0.4,0.2,0.5,0.4c0.1,0.1,0.2,0.3,0.2,0.4c0,0.2-0.1,0.5-0.1,0.7c-0.2,0.5-0.2,1.1-0.1,1.6c0.1,0.2,0.1,0.5,0.1,0.7
		c0,0.2-0.1,0.3-0.1,0.5c-0.2,0.3-0.4,0.6-0.8,0.7c-0.3,0.2-0.7,0.2-1.1,0.2c-0.1,0-0.1,0-0.2,0c-0.1,0-0.2,0-0.3-0.1
		c-0.2,0-0.5-0.1-0.9-0.1c-0.4-0.1-0.7-0.1-1-0.2c-0.1,0-0.2,0-0.3-0.1c-0.1,0-0.2,0-0.3,0c-0.1,0-0.3,0-0.4,0s-0.3,0-0.5,0.1
		c-0.2,0-0.4,0.1-0.6,0.1c-0.2,0-0.5,0-0.6,0.1c-0.2,0-0.4,0-0.6,0.1c-0.2,0-0.3,0-0.5,0.1c-0.1,0-0.3,0-0.4,0.1c-0.2,0-0.3,0-0.5,0
		c-0.5,0-0.9-0.1-1.3-0.2c-0.4-0.2-0.8-0.6-1-1c-0.1-0.1-0.1-0.2-0.1-0.4c0-0.1,0-0.3-0.1-0.6c0-0.2,0-0.5,0-0.9
		c0-0.3,0.1-0.9,0.1-1.6c0-0.5,0-0.9,0-1.3c0-0.4-0.1-0.9-0.2-1.3c-0.1-0.4-0.2-0.7-0.2-0.9c0-0.3-0.1-0.5-0.1-0.7
		c0-0.2,0-0.5,0-0.7c0-0.3,0.1-0.6,0.1-0.9c0-0.3,0.1-0.7,0.2-1.2c0.1-0.5,0.1-0.9,0.2-1.2c0-0.9-0.1-1.8-0.4-2.7
		c-0.1-0.4-0.2-0.9-0.1-1.3c0-0.7,0.3-1.3,0.7-1.7c0.1-0.1,0.2-0.2,0.4-0.3c0.2-0.1,0.3-0.1,0.5-0.1c0.3,0,0.6,0,0.9,0
		c0.3,0,0.6,0.1,0.9,0.1c0.3,0.1,0.6,0.1,0.8,0.2c0.2,0,0.4,0.1,0.5,0.1c0.2,0,0.3,0,0.5,0h0.6c0.5,0,1-0.1,1.5-0.1
		c0.5,0,1-0.1,1.7-0.2c0.4,0,0.7-0.1,0.9-0.1c0.2,0,0.5,0,0.7,0c0.4,0,0.8,0.1,1.2,0.3c0.3,0.3,0.4,0.7,0.4,1.2c0,0.2,0,0.3,0.1,0.5
		c0,0.2,0,0.3,0.1,0.5c0.1,0.5,0.1,1.1-0.1,1.6c-0.3,0.6-0.9,1-1.6,1c-0.2,0-0.4,0-0.6-0.1c-0.2,0-0.4-0.1-0.6-0.1
		c-0.3-0.1-0.7-0.1-1-0.1h-0.3C1469.8,1052.1,1469.7,1052.1,1469.6,1052.1z M1483.7,1059.8c0,0.1,0,0.2,0.1,0.3c0,0,0,0,0.1-0.1
		c0-0.1,0-0.2,0-0.3c0-0.2,0-0.3,0-0.5c0-0.2,0-0.4,0-0.7c0-0.3,0-0.6,0.1-0.8c0-0.6,0.1-1.1,0.1-1.7c0-0.4,0-0.9-0.1-1.3
		c-0.1-0.4-0.1-0.6-0.2-0.9c0-0.2-0.1-0.4-0.1-0.6c0-0.2,0-0.5,0-0.9v-3.1c0-0.3,0-0.6,0-0.8c0-0.1,0-0.3,0.1-0.4
		c0.1-0.1,0.1-0.2,0.2-0.2c0.1-0.2,0.3-0.3,0.5-0.3c0.3-0.1,0.6-0.1,0.9-0.1c0.2,0,0.4,0,0.7,0c0.3,0,0.5,0,0.7-0.1
		c0.3,0,0.6-0.1,0.9-0.1h0.9c0.2,0,0.4,0,0.5,0.1c0.2,0,0.3,0.2,0.4,0.3c0.1,0.1,0.1,0.2,0.1,0.3c0,0.1,0,0.5,0,1.1
		c0,0.3,0,0.7,0,1.1c0,0.3,0,0.6,0,0.8c0,0.3,0,0.7,0.1,1c0,0.3,0,0.6,0,0.9c0,0.3-0.1,0.7-0.1,1c0,0.4-0.1,0.8-0.2,1.2
		c-0.1,0.6-0.1,1-0.2,1.3c0,0.4,0,0.9,0,1.3c0.1,1.3,0.1,2.4,0.2,3.3c0,0.9,0,1.7,0,2.3c0,0.5,0,1-0.1,1.4c0,0.3-0.1,0.6-0.2,0.9
		c-0.1,0.2-0.1,0.4-0.3,0.6c-0.1,0.2-0.2,0.3-0.4,0.4c-0.2,0.1-0.4,0.2-0.6,0.2c-0.3,0-0.6-0.1-0.9-0.1c-0.3-0.1-0.6-0.1-0.8-0.2
		c-0.2,0-0.4-0.1-0.6-0.1c-0.1,0-0.2,0-0.3,0c-0.1,0-0.2,0-0.4,0.1c-0.2,0-0.3,0-0.4,0.1c-0.1,0-0.2,0-0.3,0c0,0-0.1,0-0.1,0
		c0,0-0.1,0-0.1,0c-0.2,0-0.3-0.1-0.5-0.1c-0.1-0.1-0.3-0.2-0.3-0.4c-0.1-0.2-0.2-0.5-0.3-0.7c-0.1-0.3-0.2-0.7-0.4-1.2
		c-0.1-0.3-0.2-0.6-0.3-0.8c-0.1-0.2-0.1-0.4-0.2-0.6c-0.1-0.2-0.1-0.3-0.2-0.5c-0.1-0.1-0.2-0.3-0.3-0.5l-0.4-0.7
		c0,0-0.1,0.1-0.1,0.4c0,0.4,0,0.8,0,1.2c0,0.5,0.1,1,0.1,1.5c0.1,0.5,0.1,1,0,1.5c-0.1,0.3-0.2,0.6-0.5,0.7
		c-0.2,0.1-0.3,0.1-0.5,0.1c-0.2,0-0.4,0-0.6-0.1c-0.3-0.1-0.5-0.1-0.8-0.1c-0.2,0-0.3,0-0.5,0.1c-0.2,0-0.4,0.1-0.6,0.2
		c-0.4,0.1-0.8,0.2-1.2,0.2c-0.3,0-0.5-0.1-0.8-0.2c-0.2-0.1-0.4-0.4-0.3-0.7v-2.7c0-0.4,0-0.7,0-0.9c0-0.2,0-0.4,0-0.6
		c0-0.2,0-0.4,0.1-0.6c0.1-0.5,0.1-1,0.1-1.6c0-0.5,0-1-0.1-1.5c-0.1-0.5-0.1-0.9-0.2-1.4c0-0.4,0-0.8,0-1.2
		c0.1-0.9,0.1-1.6,0.1-2.2c0-0.6,0-1.2-0.1-1.9l-0.1-2c0-0.2,0-0.4-0.1-0.6c0-0.2,0-0.3,0-0.5c0-0.1,0-0.2,0-0.3
		c0-0.1,0.1-0.1,0.2-0.2l0.4-0.3c0,0,0.1-0.1,0.1-0.1c0,0,0.1,0,0.2,0c0.1,0,0.2,0,0.3,0c0.1,0,0.3,0,0.6,0c0.5,0,1,0,1.3-0.1
		c0.3,0,0.7-0.1,1.2-0.1c0.1,0,0.2,0,0.4,0h0.3c0.2,0,0.5,0,0.7,0.1l0.4,0.4c0.1,0.1,0.2,0.2,0.2,0.3c0.1,0.1,0.1,0.3,0.1,0.4
		c0.1,0.3,0.1,0.7,0.2,1.1c0.1,0.4,0.1,1,0.2,1.5c0,0.5,0.1,0.9,0.1,1.2c0,0.3,0.1,0.7,0.1,0.9c0.1,0.3,0.1,0.6,0.2,0.8
		c0.1,0.3,0.2,0.6,0.3,0.9c0.1,0.3,0.2,0.6,0.3,0.8c0.1,0.2,0.1,0.4,0.2,0.7c0,0.2,0.1,0.4,0.1,0.7c0,0.3,0,0.6,0.1,1
		c0,0.4,0.1,0.8,0.1,1C1483.6,1059.3,1483.6,1059.5,1483.7,1059.8z M1500.1,1068.9c-0.1,0-0.3,0.1-0.4,0.1c0,0-0.1,0-0.1,0
		c0,0-0.1,0-0.1,0c-0.1,0-0.1-0.2-0.2-0.5c-0.1-0.3-0.1-0.7-0.1-1c0-0.4,0-0.7,0-1.1v-0.6c0-0.2,0-0.2,0-0.2l0,0c0,0,0,0-0.1,0
		c0,0,0,0-0.1,0c-0.2,0.1-0.4,0.2-0.5,0.3c-0.2,0.1-0.5,0.2-0.7,0.3c-0.2,0.1-0.5,0.2-0.7,0.2c-0.2,0.1-0.5,0.1-0.7,0.1
		c-0.6,0-1.2-0.1-1.8-0.3c-0.6-0.2-1.2-0.4-1.7-0.8c-0.3-0.2-0.7-0.5-0.9-0.8c-0.3-0.3-0.5-0.7-0.7-1c-0.1-0.2-0.2-0.5-0.2-0.7
		c0-0.4-0.1-0.7-0.1-1.1v-0.5c0-0.1,0-0.3,0-0.4c0-0.1-0.1-0.3-0.1-0.5c0-0.2-0.1-0.5-0.2-0.9c0-0.2-0.1-0.4-0.1-0.6
		c0-0.2,0-0.4,0-0.6c0-0.3,0-0.7,0.1-1c0.1-0.3,0.2-0.8,0.3-1.4c0.1-0.4,0.2-0.7,0.3-1c0.1-0.3,0.1-0.5,0.1-0.8c0-0.2,0-0.5,0-0.7
		c0-0.2-0.1-0.5-0.1-0.8c-0.1-0.5-0.1-1,0-1.4c0.1-0.5,0.3-0.9,0.5-1.3c0.5-0.7,1.1-1.3,1.9-1.8c0.7-0.4,1.6-0.7,2.5-0.7
		c0.3,0,0.5,0,0.8,0.1c0.3,0.1,0.5,0.1,0.8,0.2c0.5,0.2,1,0.4,1.5,0.6c0.4,0.1,0.9,0.3,1.4,0.3c0.5,0.1,1.1,0.3,1.5,0.6
		c0.4,0.3,0.7,0.7,1,1.1c0.3,0.5,0.4,0.9,0.5,1.5c0.1,0.5,0.2,1.1,0.2,1.6c0,0.6-0.1,1.1-0.3,1.6c-0.2,0.4-0.7,0.6-1.5,0.6
		c-0.1,0-0.1,0-0.2,0c-0.1,0-0.1,0-0.2,0c-0.1,0-0.2,0-0.3,0h-0.2c-0.2,0-0.4,0-0.5,0.1c-0.2,0.1-0.4,0.1-0.6,0.2
		c-0.3,0.1-0.6,0.2-0.9,0.2c-0.2,0-0.5-0.1-0.6-0.3c-0.1-0.1-0.2-0.3-0.2-0.4c0-0.2,0-0.6,0-1.2c0-0.3,0-0.5,0-0.7
		c0-0.1,0-0.3,0-0.4c0-0.1,0-0.2-0.1-0.3c0-0.1-0.1-0.2-0.2-0.3c-0.1-0.2-0.3-0.3-0.5-0.3c-0.4,0-0.7,0.3-1,0.9
		c-0.1,0.3-0.2,0.6-0.2,1c0,0.4,0,0.9,0.1,1.6c0.1,1,0.1,2-0.1,3c-0.2,0.9-0.1,1.8,0.2,2.7c0.1,0.1,0.2,0.3,0.3,0.4
		c0.1,0.1,0.3,0.2,0.4,0.2c0.1,0,0.3-0.1,0.4-0.2c0.1-0.1,0.2-0.3,0.2-0.4c0-0.2,0.1-0.3,0.1-0.5c0-0.1,0-0.3,0-0.4
		c0-0.1,0-0.2-0.1-0.2c0-0.1,0-0.2-0.1-0.3c0-0.1,0-0.3-0.1-0.4c0-0.2,0-0.3-0.1-0.5c0-0.2-0.1-0.3-0.1-0.5c0-0.1,0-0.1,0.1-0.2
		c0.1-0.2,0.4-0.4,0.6-0.4c0.2-0.1,0.4-0.1,0.6-0.1c0.1,0,0.2,0,0.3,0c0.1,0,0.2,0,0.3,0.1c0.1,0,0.3,0,0.6,0.1l0.8,0.1
		c0.3,0,0.5,0,0.8,0.1c0.2,0,0.4,0,0.6,0c0.2,0,0.3,0,0.5-0.1c0.1,0,0.2,0,0.3,0c0.3,0,0.5,0.3,0.6,0.8c0,0.1,0,0.2,0.1,0.4
		c0,0.1,0,0.3,0.1,0.4c0,0.3,0,0.6,0,0.9c0,0.5,0,1,0,1.7c0,0.6,0,1.3,0,2.1c0,0.7,0,1.4,0,2c0,0.6,0,1.2-0.1,1.6
		c0,0.3,0,0.5-0.1,0.7c-0.1,0.4-0.4,0.6-0.8,0.5c-0.1,0-0.1,0-0.2,0c-0.1,0-0.2,0-0.3,0c-0.2,0-0.5,0-0.7,0h-1.1
		C1500.4,1068.9,1500.3,1068.9,1500.1,1068.9z M1514.5,1060.3c0,0.5,0,0.8,0,1.1s0,0.6,0.1,0.8c0,0.2,0,0.4,0.1,0.6
		c0,0.2,0.1,0.4,0.1,0.6c0.1,0.5,0.2,0.9,0.2,1.2c0,0.2,0.1,0.5,0.1,0.7c0,0.2,0,0.3-0.1,0.5c-0.1,0.1-0.2,0.2-0.3,0.3
		c-0.2,0.2-0.5,0.2-0.8,0.2h-0.3c-0.1,0-0.2,0-0.3,0c-0.1,0-0.2,0-0.4,0h-0.3c-0.5,0-0.9,0-1.4,0.1c-0.3,0.1-0.6,0.1-0.9,0.1
		c-0.5,0-0.9-0.3-1.1-0.7c-0.1-0.2-0.1-0.5-0.1-0.7c0-0.4,0-0.7,0.1-1.1c0-0.2,0-0.4,0.1-0.8c0-0.4,0-0.8,0-1.3v-0.9
		c0-0.2,0-0.5,0-0.7c0-0.2,0-0.4,0-0.5c0-0.2,0-0.4,0.1-0.6c0-0.2,0-0.4,0.1-0.6s0-0.3,0-0.4v-1.1c0-0.3,0-0.7,0-1
		c0-0.4,0-0.7-0.1-0.9c0-0.2,0-0.5,0-0.7v-0.6l0-0.5h-0.3c-0.1,0-0.2,0-0.4,0c-0.2,0-0.4,0-0.6,0.1c-0.4,0-0.8,0.1-1,0.1
		c-0.2,0-0.5,0-0.7,0.1c-0.2,0-0.5,0-0.7-0.1c-0.2-0.1-0.3-0.2-0.5-0.3c-0.2-0.2-0.3-0.4-0.3-0.6c0-0.5,0-0.9,0-1.4
		c0-0.3,0.1-0.6,0.1-0.9c0-0.2,0-0.4-0.1-0.6c0-0.1-0.1-0.3-0.1-0.4c0-0.1,0-0.2,0-0.3c0-0.4,0.1-0.7,0.3-1c0.2-0.3,0.5-0.5,0.8-0.5
		c0.1,0,0.2,0,0.4,0c0.1,0,0.3,0.1,0.5,0.1c0.1,0,0.2,0.1,0.4,0.1c0.1,0,0.2,0,0.3,0h0.3c0.1,0,0.3,0,0.4,0l0.4,0
		c0.1,0,0.2,0,0.2-0.1c0.1,0,0.1,0,0.2,0c0.1,0,0.2,0,0.3,0c0.1,0,0.3,0,0.4,0c0.2,0,0.3,0,0.4-0.1c0.2,0,0.3-0.1,0.5-0.1h0.8
		c0.1,0,0.3,0,0.4,0c0.6,0.1,1.2,0.1,1.8,0.1c0.2,0,0.5,0,0.7,0c0.2,0,0.5,0,0.8-0.1c0.3,0,0.6,0,0.9,0h0.8c0.4,0,0.9,0,1.3,0.1
		c0.3,0.1,0.5,0.2,0.6,0.5c0,0.1,0.1,0.2,0.1,0.2c0,0.1,0,0.3,0,0.4c0,0.2-0.1,0.5-0.1,0.7c0,0.4,0,0.7,0,1.1c0,0.7-0.1,1.3-0.1,1.5
		c0,0.2-0.1,0.4-0.1,0.7c-0.1,0.2-0.2,0.4-0.4,0.5c-0.2,0.1-0.5,0.2-0.8,0.2c-0.2,0-0.4,0-0.7,0c-0.3,0-0.6-0.1-0.9-0.1
		c-0.3,0-0.5-0.1-0.6-0.1c-0.1,0-0.2,0-0.3-0.1c-0.1,0-0.1,0-0.1,0.1c-0.1,0.2-0.1,0.4-0.1,0.6c0,0.2,0,0.6-0.1,1.1
		c-0.1,0.7-0.1,1.3-0.1,1.7c0,0.4,0.1,0.9,0.1,1.3c0.1,0.3,0.1,0.7,0.1,1C1514.5,1059.2,1514.5,1059.7,1514.5,1060.3z M1527.5,1050
		c0-0.4,0-0.8,0-1c0-0.2,0-0.4,0-0.5c0-0.1,0-0.2,0-0.2c0,0,0-0.1,0.1-0.1c0.2-0.2,0.4-0.4,0.6-0.5c0.1,0,0.3,0,0.4,0h0.4
		c0.2,0,0.4,0,0.5,0c0.2,0,0.4,0,0.5,0s0.3,0,0.4,0c0.2,0,0.3,0,0.4,0c0.1,0,0.2,0,0.4-0.1c0.3-0.1,0.6-0.1,0.9-0.1
		c0.3,0,0.5,0,0.7,0.2c0.2,0.1,0.3,0.3,0.4,0.5c0.1,0.1,0.1,0.2,0.1,0.3c0,0.2,0,0.3,0,0.5c0,0.2,0,0.4,0,0.6c0,0.3-0.1,0.6-0.2,0.9
		c0,0.2-0.1,0.5-0.2,0.8c-0.1,0.3-0.1,0.5-0.1,0.7c0,0.2-0.1,0.4-0.1,0.6c0,0.2-0.1,0.4-0.1,0.6c-0.1,0.4-0.1,0.8-0.1,1.2
		c0,0.4,0,0.8,0.1,1.2c0,0.1,0.1,0.2,0.1,0.4c0,0.1,0,0.3,0,0.4c0,0.2,0,0.4,0,0.7c0,0.3,0,0.7,0,1.3c0,0.9,0,1.5,0,1.8
		c0,0.3,0,0.6,0.1,0.9c0,0.2,0.1,0.4,0.1,0.7c0,0.2,0,0.5,0,0.9c0,0.2,0,0.5,0,0.9c0,0.3-0.1,0.6-0.2,0.9c-0.1,0.3-0.3,0.5-0.5,0.7
		c-0.2,0.2-0.5,0.3-0.8,0.3c-0.2,0-0.4,0-0.6-0.1c-0.2,0-0.3-0.1-0.5-0.1c-0.1,0-0.2,0-0.4,0c-0.2,0-0.4,0-0.6,0.1
		c-0.2,0.1-0.4,0.2-0.7,0.3c-0.1,0.1-0.3,0.1-0.4,0.2c-0.1,0-0.2,0-0.4,0c-0.1,0-0.2,0-0.3,0c-0.1,0-0.2-0.1-0.2-0.1
		c-0.1-0.1-0.1-0.1-0.2-0.2l-0.2-0.2c-0.1-0.1-0.2-0.3-0.2-0.5c0-0.2,0-0.5,0-0.7c0-0.4,0-0.7,0-1.1c0-0.2,0-0.4,0-0.6
		c0-0.3,0-0.5,0-0.7c0-0.2,0-0.4,0-0.7c0-0.1,0-0.1-0.1-0.2c-0.1-0.1-0.3-0.1-0.4-0.1c-0.2,0-0.4,0.1-0.4,0.3c0,0.1-0.1,0.2-0.1,0.3
		c0,0.2,0,0.4,0.1,0.6c0.1,0.6,0.1,1.1,0.1,1.7c-0.1,0.4-0.2,0.9-0.4,1.3c-0.1,0.2-0.2,0.4-0.4,0.5c-0.1,0.2-0.3,0.3-0.5,0.3
		c-0.1,0-0.3,0.1-0.4,0.1c-0.2,0-0.4,0-0.8,0.1c-0.2,0-0.5,0-0.9,0.1c-0.3,0-0.6,0-0.9,0.1c-0.3,0-0.6,0.1-0.8,0.1
		c-0.2,0-0.4,0-0.5,0c-0.5,0-1-0.3-1.1-0.8c-0.1-0.4-0.1-0.7-0.1-1.1c0-0.5,0.1-1,0.2-1.5c0-0.3,0.1-0.6,0.1-0.8
		c0-0.2,0-0.4,0.1-0.6c0-0.2,0-0.3,0-0.5c0-0.2,0-0.4-0.1-0.6c-0.1-0.3-0.1-0.7-0.1-1.1c0-0.2,0-0.6,0.1-1.2c0-0.4,0.1-0.7,0.1-1.1
		v-3.2c0-0.3,0-0.6,0-0.8s-0.1-0.4-0.1-0.6c0-0.2-0.1-0.4-0.2-0.7c-0.1-0.4-0.1-0.8-0.1-1.2c0-0.3,0-0.7,0.1-1
		c0.1-0.5,0.4-1,0.9-1.2c0.5-0.2,1-0.3,1.5-0.3c0.1,0,0.2,0,0.3,0c0.1,0,0.2,0,0.3,0c0.2,0,0.4,0,0.5,0h2c0.2,0,0.5,0,0.7,0.1
		c0.2,0.1,0.3,0.3,0.3,0.6v0.4c0,0.2,0,0.4,0,0.7s0,0.5-0.1,0.8c0,0.3-0.1,0.6-0.1,0.9c0,0.3,0,0.6-0.1,0.8c0,0.2,0,0.4-0.1,0.6
		c0,0.1,0,0.3,0,0.4c0,0.1,0,0.3,0,0.4c0,0.2,0.1,0.4,0.1,0.6c0,0.2,0.1,0.4,0.1,0.7c0,0.2,0.1,0.4,0.1,0.6c0,0.1,0,0.2,0.1,0.3
		c0.1,0.2,0.3,0.3,0.5,0.3c0.1,0,0.3,0,0.4-0.1c0.1,0,0.2-0.1,0.2-0.3c0.1-0.3,0.1-0.6,0.1-0.9c0-0.4,0-0.9,0.1-1.3
		c0-0.4,0.1-0.9,0.2-1.4c0-0.2,0-0.3,0.1-0.4c0-0.1,0-0.3,0-0.4s0-0.4,0-0.6C1527.5,1050.7,1527.5,1050.4,1527.5,1050L1527.5,1050z"
		/>
	<rect id="Rechteck_2618" x="1583.6" y="1077" class="st0" width="44" height="15"/>
	<rect id="Rechteck_2619" x="1629.6" y="1077" class="st3" width="44" height="15"/>
	<rect id="Rechteck_2620" x="1675.6" y="1077" class="st3" width="44" height="15"/>
	<path id="Pfad_4023-2" class="st2" d="M1595.8,1049.6c0,0.1-0.1,0.2-0.1,0.3c0,0.1,0,0.2-0.1,0.3c-0.2,0.6-0.5,1.1-0.9,1.5
		c-0.2,0.2-0.4,0.5-0.6,0.7c-0.1,0.2-0.2,0.3-0.3,0.5c-0.1,0.2-0.2,0.4-0.4,0.5c-0.1,0.2-0.3,0.3-0.5,0.4c-0.1,0-0.1,0-0.2,0.1
		c-0.1,0-0.1,0-0.2,0c-0.2,0-0.5,0-0.7-0.1c-0.2-0.1-0.4-0.2-0.6-0.4c-0.2-0.2-0.5-0.4-0.8-0.6c-0.2-0.1-0.4-0.3-0.6-0.4
		c-0.1,0-0.2,0-0.3,0c-0.4,0-0.6,0.1-0.7,0.2c0,0.1-0.1,0.3,0,0.4c0,0.4,0.2,0.7,0.4,1c0.3,0.3,0.6,0.6,1,0.8
		c0.4,0.2,0.8,0.4,1.2,0.6c0.4,0.2,0.8,0.3,1.1,0.4c0.4,0.1,0.7,0.2,0.9,0.3c0.2,0.1,0.4,0.2,0.6,0.3c0.2,0.1,0.3,0.2,0.5,0.3
		c0.1,0.1,0.3,0.2,0.5,0.3c0.3,0.3,0.6,0.6,0.8,1c0.2,0.4,0.5,0.8,0.6,1.2c0.3,1.1,0.2,2.3-0.2,3.3c-0.4,1.1-1,2.1-1.9,2.9
		c-0.3,0.3-0.7,0.6-1,0.8c-0.3,0.2-0.7,0.4-1.1,0.5c-0.4,0.1-0.8,0.2-1.1,0.2c-0.4,0-0.8,0.1-1.3,0.1c-0.2,0-0.5,0-0.7-0.1
		c-0.3,0-0.6-0.1-0.8-0.2c-0.3-0.1-0.6-0.1-0.8-0.2c-0.2-0.1-0.4-0.2-0.7-0.3c-0.1-0.1-0.3-0.2-0.5-0.3c-0.2-0.1-0.4-0.3-0.5-0.5
		c-0.5-0.4-0.9-0.7-1.5-1c-0.3-0.1-0.6-0.3-0.8-0.6c-0.2-0.2-0.3-0.4-0.3-0.7c0-0.2,0-0.4,0.2-0.6c0.2-0.2,0.4-0.5,0.6-0.6
		c0.1-0.1,0.2-0.2,0.3-0.3c0.1-0.1,0.2-0.2,0.2-0.2c0,0,0.1-0.1,0.3-0.3c0.1-0.2,0.2-0.3,0.4-0.5c0.1-0.3,0.3-0.5,0.5-0.7
		c0.2-0.1,0.3-0.3,0.5-0.4c0.1,0,0.1,0,0.2-0.1c0.1,0,0.1,0,0.2,0c0,0,0.1,0,0.1,0s0.1,0,0.1,0c0.1,0,0.2,0.1,0.3,0.2
		c0.1,0.1,0.3,0.3,0.5,0.5c0.4,0.4,0.8,0.8,1.2,1.2c0.3,0.2,0.7,0.3,1,0.3c0.3,0,0.6-0.1,0.8-0.3c0.2-0.2,0.3-0.4,0.3-0.7
		c0-0.2,0-0.5,0-0.7c0-0.1-0.1-0.1-0.1-0.2c-0.1-0.1-0.1-0.2-0.2-0.2c-0.1-0.1-0.2-0.2-0.4-0.3c-0.2-0.1-0.3-0.3-0.5-0.4
		s-0.3-0.3-0.5-0.4c-0.1-0.1-0.2-0.2-0.3-0.2c0,0-0.2-0.1-0.4-0.1c-0.2-0.1-0.4-0.1-0.7-0.2c-0.4-0.2-0.8-0.3-1.1-0.4
		c-0.3-0.1-0.5-0.2-0.7-0.4c-0.2-0.1-0.4-0.3-0.6-0.5c-0.3-0.3-0.5-0.5-0.7-0.8c-0.3-0.4-0.6-0.8-0.8-1.2c-0.1-0.3-0.2-0.7-0.2-1.1
		c0-0.3,0-0.5,0-0.8c0.1-0.3,0.2-0.7,0.3-1l0.1-0.5c0-0.2,0.1-0.4,0.1-0.6c0.1-0.6,0.2-1.2,0.5-1.7c0.3-0.5,0.7-0.9,1.1-1.2
		c0.5-0.3,1-0.6,1.6-0.7c0.6-0.2,1.2-0.3,1.8-0.3c0.6,0,1.2,0,1.7,0.2c0.5,0.1,1,0.3,1.5,0.6c0.3,0.2,0.6,0.3,0.8,0.4
		c0.3,0.1,0.7,0.2,1.1,0.3c0.4,0.1,0.7,0.1,1.1,0.2c0.2,0.1,0.3,0.2,0.3,0.4c0,0.1,0,0.2,0,0.2
		C1595.9,1049.2,1595.8,1049.4,1595.8,1049.6z M1609.1,1052.7c0,0.2,0.1,0.4,0.1,0.6c0,0.3,0,0.6,0,0.9c0,0.2,0,0.4,0,0.6
		c0,0.1,0,0.4,0.1,0.6c0,0.4,0.1,0.7,0.1,1c0,0.3,0,0.5-0.1,0.8c-0.1,0.6-0.4,1.2-0.8,1.6c-0.4,0.4-1,0.8-1.6,1
		c-0.2,0.1-0.4,0.1-0.5,0.2c-0.1,0.1-0.2,0.1-0.3,0.2c-0.4,0.3-0.9,0.6-1.4,0.9c-0.5,0.2-1.1,0.3-1.6,0.3c-0.2,0-0.3,0-0.4-0.1
		c-0.1,0-0.1,0-0.2,0v0.4c0,0.3,0,0.6,0,0.9c0,0.3,0,0.7,0.1,1c0,0.2,0,0.5,0.1,0.7c0,0.2,0,0.3,0.1,0.5c0,0.2,0,0.4,0,0.5
		c0,0.3-0.1,0.7-0.2,1c-0.2,0.3-0.6,0.4-0.9,0.3h-0.3c-0.1,0-0.2,0-0.3,0c-0.1,0-0.3,0-0.6,0l-0.9,0c-0.3,0-0.6,0-0.9-0.1
		c-0.2,0-0.3,0-0.5-0.1c-0.3-0.2-0.5-0.5-0.6-0.8c-0.1-0.1-0.1-0.3-0.2-0.4c0-0.1-0.1-0.3-0.1-0.4c0-0.1,0-0.3-0.1-0.6s0-0.5,0-0.9
		c0-0.4,0-0.7-0.1-1.2c0-0.3,0-0.6-0.1-0.9c0-0.5-0.1-1.1-0.1-1.6c0-0.7,0.1-1.3,0.2-2c0-0.5,0.1-1,0.1-1.4c0-0.4,0.1-0.7,0.1-1.1
		c0-0.3,0-0.7,0-1.1c0-0.4-0.1-0.9-0.1-1.4c0-0.4,0-0.8-0.1-1.3s0-0.9-0.1-1.3c0-0.4,0-0.7,0-1.1c0-0.2,0-0.4,0.1-0.6
		c0.1-0.3,0.2-0.6,0.5-0.9c0.1-0.1,0.2-0.2,0.4-0.2c0.1,0,0.2,0,0.3,0h1.2c0.3,0,0.7,0,1,0c0.3,0,0.7,0,1,0.1c0.2,0,0.4,0.1,0.6,0.1
		c0.1,0,0.2,0.1,0.3,0.1h0.8c0.1,0,0.3,0,0.4,0l1-0.1c0.1,0,0.2,0,0.3,0c0.1,0,0.1,0,0.2,0c0.6,0,1.2,0.2,1.7,0.5
		c0.5,0.3,0.8,0.9,0.9,1.5c0,0.1,0.1,0.2,0.1,0.3c0,0.1,0,0.1,0,0.2c0.2,0.4,0.5,0.9,0.8,1.2c0.2,0.2,0.3,0.5,0.5,0.7
		C1609,1052.2,1609,1052.4,1609.1,1052.7z M1603.1,1056.3c0.2-0.1,0.3-0.2,0.5-0.4c0.1-0.1,0.3-0.3,0.3-0.5c0.1-0.2,0.2-0.4,0.2-0.6
		c0-0.3,0-0.5-0.1-0.8c-0.1-0.3-0.1-0.5-0.1-0.6c0-0.2,0-0.5,0-0.7c0-0.3,0-0.5,0-0.8c0-0.1-0.1-0.3-0.2-0.4
		c-0.1-0.1-0.2-0.1-0.3-0.1c-0.2,0-0.3,0-0.5,0.1c-0.1,0-0.3,0.1-0.4,0.2c0,0,0,0.2,0,0.5c0,0.3,0.1,0.5,0.1,0.7c0,0.2,0,0.5,0,0.7
		c0,0.3,0,0.5-0.1,0.8c0,0.3-0.1,0.7-0.2,1.1c-0.1,0.3-0.1,0.6-0.2,0.9c0,0,0,0,0.1,0c0.2,0,0.3,0,0.4-0.1
		C1602.8,1056.5,1603,1056.4,1603.1,1056.3z M1617.7,1052.1c-0.1,0-0.2,0.1-0.3,0.1h-0.6c-0.1,0-0.2,0-0.3,0c0,0-0.1,0-0.1,0
		c0,0,0,0-0.1,0c-0.1,0-0.1,0-0.2,0.1c-0.1,0.1-0.2,0.2-0.2,0.4c0,0.3,0,0.5,0,0.8c0,0.2,0,0.4,0,0.6c0,0.2,0,0.4-0.1,0.5
		c0,0.1,0,0.3-0.1,0.4c0,0.1,0,0.2,0,0.2c0,0,0.1,0,0.4,0c0.3,0,0.7,0,1.1-0.1c0.4,0,0.8-0.1,1-0.1c0.3-0.1,0.6-0.1,0.8-0.1
		c0.1,0,0.3,0,0.4,0.1c0.1,0.1,0.2,0.2,0.2,0.3c0,0.2,0,0.4,0,0.6c0,0.2-0.1,0.4-0.1,0.7c0,0.2,0,0.4,0.1,0.6
		c0.2,0.9,0.1,1.5-0.4,1.8c-0.2,0.1-0.4,0.2-0.6,0.2c-0.1,0-0.2,0-0.3,0c-0.1,0-0.3,0-0.4-0.1c-0.2,0-0.3,0-0.5,0
		c-0.4,0-0.7,0-1.1,0.1c-0.2,0-0.4,0-0.6,0.2c0,0-0.1,0.1-0.1,0.1c0,0,0,0.1-0.1,0.1c0,0.1,0,0.1,0,0.2c0,0.1,0,0.2,0.1,0.3
		c0,0.1,0,0.2,0.1,0.4c0,0.1,0,0.3,0,0.4l0,0.4l0.2,0.1c0.1,0,0.2,0,0.2,0c0.5,0,0.9-0.1,1.4-0.2c0.4-0.1,0.7-0.2,1-0.2
		c0.2,0,0.4-0.1,0.7-0.1c0.1,0,0.2,0,0.3,0c0.1,0,0.2,0,0.3,0.1c0.2,0,0.3,0.1,0.5,0.1c0.2,0,0.3,0,0.5,0c0.3,0,0.6,0,0.9,0.1
		c0.2,0.1,0.4,0.2,0.5,0.4c0.1,0.1,0.2,0.3,0.2,0.4c0,0.2-0.1,0.5-0.1,0.7c-0.2,0.5-0.2,1.1-0.1,1.6c0.1,0.2,0.1,0.5,0.1,0.7
		c0,0.2-0.1,0.3-0.1,0.5c-0.2,0.3-0.4,0.6-0.8,0.7c-0.3,0.2-0.7,0.2-1.1,0.2c-0.1,0-0.1,0-0.2,0c-0.1,0-0.2,0-0.3-0.1
		c-0.2,0-0.5-0.1-0.9-0.1c-0.4-0.1-0.7-0.1-1-0.2c-0.1,0-0.2,0-0.3-0.1s-0.2,0-0.3,0c-0.1,0-0.3,0-0.4,0s-0.3,0-0.5,0.1
		c-0.2,0-0.4,0.1-0.6,0.1c-0.2,0-0.5,0-0.6,0.1c-0.2,0-0.4,0-0.6,0.1c-0.2,0-0.3,0-0.5,0.1c-0.1,0-0.3,0-0.4,0.1c-0.2,0-0.3,0-0.5,0
		c-0.5,0-0.9-0.1-1.3-0.2c-0.4-0.2-0.8-0.6-1-1c-0.1-0.1-0.1-0.2-0.1-0.4c0-0.1,0-0.3-0.1-0.6c0-0.2,0-0.5,0-0.9
		c0-0.3,0.1-0.9,0.1-1.6c0-0.5,0-0.9,0-1.3c0-0.4-0.1-0.9-0.2-1.3c-0.1-0.4-0.2-0.7-0.2-0.9c0-0.3-0.1-0.5-0.1-0.7
		c0-0.2,0-0.5,0-0.7c0-0.3,0.1-0.6,0.1-0.9c0-0.3,0.1-0.7,0.2-1.2s0.1-0.9,0.2-1.2c0-0.9-0.1-1.8-0.4-2.7c-0.1-0.4-0.2-0.9-0.1-1.3
		c0-0.7,0.3-1.3,0.7-1.7c0.1-0.1,0.2-0.2,0.4-0.3c0.2-0.1,0.3-0.1,0.5-0.1c0.3,0,0.6,0,0.9,0c0.3,0,0.6,0.1,0.9,0.1
		c0.3,0.1,0.6,0.1,0.8,0.2c0.2,0,0.4,0.1,0.5,0.1c0.2,0,0.3,0,0.5,0h0.6c0.5,0,1-0.1,1.5-0.1c0.5,0,1-0.1,1.7-0.2
		c0.4,0,0.7-0.1,0.9-0.1c0.2,0,0.5,0,0.7,0c0.4,0,0.8,0.1,1.2,0.3c0.3,0.3,0.4,0.7,0.4,1.2c0,0.2,0,0.3,0.1,0.5c0,0.2,0,0.3,0.1,0.5
		c0.1,0.5,0.1,1.1-0.1,1.6c-0.3,0.6-0.9,1-1.6,1c-0.2,0-0.4,0-0.6-0.1c-0.2,0-0.4-0.1-0.6-0.1c-0.3-0.1-0.7-0.1-1-0.1h-0.3
		C1617.9,1052.1,1617.8,1052.1,1617.7,1052.1z M1630.8,1052.1c-0.1,0-0.2,0.1-0.3,0.1h-0.6c-0.1,0-0.2,0-0.3,0c0,0-0.1,0-0.1,0
		c0,0,0,0-0.1,0c-0.1,0-0.1,0-0.2,0.1c-0.1,0.1-0.2,0.2-0.2,0.4c0,0.3,0,0.5,0,0.8c0,0.2,0,0.4,0,0.6s0,0.4-0.1,0.5
		c0,0.1,0,0.3-0.1,0.4c0,0.1,0,0.2,0,0.2c0,0,0.1,0,0.4,0c0.3,0,0.7,0,1.1-0.1c0.4,0,0.8-0.1,1-0.1c0.3-0.1,0.6-0.1,0.8-0.1
		c0.1,0,0.3,0,0.4,0.1c0.1,0.1,0.2,0.2,0.2,0.3c0,0.2,0,0.4,0,0.6c0,0.2-0.1,0.4-0.1,0.7c0,0.2,0,0.4,0.1,0.6
		c0.2,0.9,0.1,1.5-0.4,1.8c-0.2,0.1-0.4,0.2-0.6,0.2c-0.1,0-0.2,0-0.3,0c-0.1,0-0.3,0-0.4-0.1c-0.2,0-0.3,0-0.5,0
		c-0.4,0-0.7,0-1.1,0.1c-0.2,0-0.4,0-0.6,0.2c0,0-0.1,0.1-0.1,0.1c0,0,0,0.1-0.1,0.1c0,0.1,0,0.1,0,0.2c0,0.1,0,0.2,0.1,0.3
		c0,0.1,0,0.2,0.1,0.4c0,0.1,0,0.3,0,0.4l0,0.4l0.2,0.1c0.1,0,0.2,0,0.2,0c0.5,0,0.9-0.1,1.4-0.2c0.4-0.1,0.7-0.2,1-0.2
		c0.2,0,0.4-0.1,0.7-0.1c0.1,0,0.2,0,0.3,0c0.1,0,0.2,0,0.3,0.1c0.2,0,0.3,0.1,0.5,0.1c0.2,0,0.3,0,0.5,0c0.3,0,0.6,0,0.9,0.1
		c0.2,0.1,0.4,0.2,0.5,0.4c0.1,0.1,0.2,0.3,0.2,0.4c0,0.2-0.1,0.5-0.1,0.7c-0.2,0.5-0.2,1.1-0.1,1.6c0.1,0.2,0.1,0.5,0.1,0.7
		c0,0.2-0.1,0.3-0.1,0.5c-0.2,0.3-0.4,0.6-0.8,0.7c-0.3,0.2-0.7,0.2-1.1,0.2c-0.1,0-0.1,0-0.2,0c-0.1,0-0.2,0-0.3-0.1
		c-0.2,0-0.5-0.1-0.8-0.1s-0.7-0.1-1-0.2c-0.1,0-0.2,0-0.3-0.1s-0.2,0-0.3,0c-0.1,0-0.3,0-0.4,0s-0.3,0-0.5,0.1
		c-0.2,0-0.4,0.1-0.6,0.1c-0.2,0-0.5,0-0.6,0.1c-0.2,0-0.4,0-0.6,0.1c-0.2,0-0.3,0-0.5,0.1c-0.1,0-0.3,0-0.4,0.1c-0.2,0-0.3,0-0.5,0
		c-0.5,0-0.9-0.1-1.3-0.2c-0.4-0.2-0.8-0.6-1-1c-0.1-0.1-0.1-0.2-0.1-0.4c0-0.1,0-0.3-0.1-0.6c0-0.2,0-0.5,0-0.9
		c0-0.3,0.1-0.9,0.1-1.6c0-0.5,0-0.9,0-1.3c0-0.4-0.1-0.9-0.2-1.3c-0.1-0.4-0.2-0.7-0.2-0.9c0-0.3-0.1-0.5-0.1-0.7
		c0-0.2,0-0.5,0-0.7c0-0.3,0.1-0.6,0.1-0.9c0-0.3,0.1-0.7,0.2-1.2s0.1-0.9,0.2-1.2c0-0.9-0.1-1.8-0.4-2.7c-0.1-0.4-0.2-0.9-0.1-1.3
		c0-0.7,0.3-1.3,0.7-1.7c0.1-0.1,0.2-0.2,0.4-0.3c0.2-0.1,0.3-0.1,0.5-0.1c0.3,0,0.6,0,0.9,0c0.3,0,0.6,0.1,0.9,0.1
		c0.3,0.1,0.6,0.1,0.8,0.2c0.2,0,0.4,0.1,0.5,0.1c0.2,0,0.3,0,0.5,0h0.6c0.5,0,1-0.1,1.5-0.1c0.5,0,1-0.1,1.7-0.2
		c0.4,0,0.7-0.1,0.9-0.1c0.2,0,0.5,0,0.7,0c0.4,0,0.8,0.1,1.2,0.3c0.3,0.3,0.4,0.7,0.4,1.2c0,0.2,0,0.3,0.1,0.5c0,0.2,0,0.3,0.1,0.5
		c0.1,0.5,0.1,1.1-0.1,1.6c-0.3,0.6-0.9,1-1.6,1c-0.2,0-0.4,0-0.6-0.1c-0.2,0-0.4-0.1-0.6-0.1c-0.3-0.1-0.7-0.1-1-0.1h-0.3
		C1631,1052.1,1630.9,1052.1,1630.8,1052.1L1630.8,1052.1z M1642.1,1047.2c0.3,0.1,0.6,0.2,1,0.4c0.3,0.1,0.8,0.3,1.3,0.6
		c0.3,0.1,0.5,0.3,0.8,0.4l0.6,0.2c0.2,0.1,0.4,0.2,0.6,0.3c0.2,0.1,0.3,0.2,0.4,0.3c0.1,0.1,0.2,0.2,0.3,0.4
		c0.1,0.2,0.2,0.4,0.3,0.6c0.3,0.6,0.6,1.2,0.8,1.9c0.2,0.6,0.4,1.3,0.5,2c0.4,1.7,0.4,3.4,0,5.1c-0.2,0.8-0.5,1.5-0.9,2.2
		c-0.4,0.7-0.8,1.3-1.3,1.9c-0.2,0.2-0.4,0.4-0.5,0.6c-0.1,0.2-0.3,0.4-0.5,0.7c-0.1,0.2-0.3,0.4-0.4,0.6c-0.2,0.2-0.3,0.3-0.5,0.4
		c-0.3,0.2-0.7,0.4-1.1,0.5c-0.6,0.1-1.3,0.2-1.9,0.2c-0.6,0.1-1,0.1-1.3,0.2c-0.3,0-0.6,0.1-0.9,0.2c-0.2,0.1-0.5,0.2-0.8,0.2
		c-0.2,0-0.3,0-0.5,0.1c-0.5,0-0.9-0.2-1.2-0.6c-0.2-0.3-0.2-0.7-0.2-1.1c0-0.5,0-1.1,0.2-1.6c0-0.3,0.1-0.5,0.1-0.7
		c0-0.2,0-0.5,0-0.9c0-0.6,0-1.1-0.1-1.5c0-0.4-0.1-0.9-0.2-1.4c-0.1-0.5-0.2-0.9-0.2-1.3c0-0.4,0-0.7,0-1.1c0-0.4,0.1-0.7,0.1-1.1
		c0.1-0.4,0.2-0.8,0.3-1.4c0.1-0.3,0.1-0.5,0.1-0.7c0-0.2,0-0.5,0-0.7c0-0.3,0-0.5,0-0.8c0-0.2-0.1-0.5-0.1-0.9
		c-0.1-0.5-0.2-0.9-0.2-1.4c0-0.3,0-0.6,0.1-0.9c0.1-0.2,0.2-0.5,0.4-0.7c0.1-0.2,0.3-0.4,0.5-0.6c0.2-0.1,0.4-0.2,0.7-0.3
		c0.3-0.1,0.5-0.1,0.8-0.2h1.5c0.5,0,0.8,0.1,0.9,0.1C1641.7,1047.1,1641.9,1047.2,1642.1,1047.2z M1642.1,1052.5
		c-0.1,0-0.2,0.1-0.2,0.3c0,0.1,0,0.2-0.1,0.4c0,0.2,0,0.4,0,0.7c0,0.3,0,0.5,0,0.8s0,0.6,0.1,0.8c0.1,0.6,0.1,1.2,0.1,1.8
		c0,0.6,0,1.2-0.1,1.6c-0.1,0.5-0.1,1-0.1,1.4c0,0.3,0,0.7,0,1c0.1,0.5,0.3,0.8,0.6,0.8c0.1,0,0.2-0.1,0.3-0.1
		c0.2-0.2,0.4-0.4,0.6-0.6c0.2-0.2,0.3-0.5,0.4-0.8c0-0.2,0.1-0.4,0.1-0.6c0-0.4-0.1-0.7-0.2-1c-0.1-0.4-0.2-0.8-0.2-1.2
		c0-0.4,0-0.7,0.1-1.1c0.1-0.5,0.2-0.8,0.2-1c0-0.3,0-0.6,0-0.8c0-0.3-0.1-0.6-0.1-0.8c0-0.3-0.1-0.5-0.2-0.7
		c-0.1-0.2-0.3-0.4-0.5-0.5C1642.7,1052.5,1642.4,1052.4,1642.1,1052.5L1642.1,1052.5z"/>
	<rect id="Rechteck_2621" x="1746.6" y="1077" class="st0" width="44" height="15"/>
	<rect id="Rechteck_2622" x="1792.6" y="1077" class="st3" width="44" height="15"/>
	<rect id="Rechteck_2623" x="1838.6" y="1077" class="st3" width="44" height="15"/>
	<path id="Pfad_4024-2" class="st2" d="M1755.2,1046.9c0.8,0,1.5,0.3,2.1,0.8c0.2,0.1,0.4,0.3,0.6,0.4c0.2,0.1,0.4,0.2,0.7,0.2
		c0.5,0.1,0.9,0.3,1.3,0.6c0.3,0.3,0.6,0.6,0.7,1c0.2,0.4,0.3,0.8,0.3,1.2c0,0.5,0.1,0.9,0.1,1.4c0,0.4,0,0.8,0,1
		c0,0.2,0,0.4,0.1,0.6c0.1,0.3,0.1,0.6,0.1,1c0,0.4,0,0.9-0.1,1.3c0,0.4,0,0.7-0.1,1c0,0.3,0,0.5,0,0.8c0,0.3,0.1,0.5,0.1,0.8
		c0.1,0.3,0.1,0.6,0.3,1c0.5,1.3,0.7,2.7,0.6,4.1c0,0.3-0.1,0.5-0.1,0.8c-0.1,0.3-0.2,0.6-0.3,0.8c-0.1,0.2-0.3,0.5-0.5,0.6
		c-0.2,0.2-0.5,0.3-0.7,0.3h-0.3c-0.1,0-0.2,0-0.3-0.1c-0.1,0-0.2-0.1-0.3-0.1h-0.6c-0.1,0-0.3,0-0.4,0c-0.1,0-0.2,0-0.3,0h-0.3
		c-0.5,0-1.1-0.2-1.4-0.6c-0.3-0.4-0.5-0.9-0.5-1.5c0-0.3-0.1-0.6-0.1-0.9c-0.1-0.4-0.2-0.7-0.3-1.1c-0.1-0.2-0.1-0.4-0.1-0.6
		c0-0.2-0.1-0.4-0.2-0.6c-0.1-0.2-0.3-0.3-0.5-0.3c-0.2,0-0.4,0.1-0.5,0.3l-0.1,0.2l0,1.1v0.9c0,0.2,0,0.4,0.1,0.6
		c0.1,0.5,0.1,1.1-0.1,1.6c-0.3,0.9-1.1,1.6-2.1,1.5h-0.4c-0.1,0-0.2,0-0.3,0l-0.7-0.2c-0.1,0-0.3-0.1-0.4-0.1c-0.1,0-0.2,0-0.3-0.1
		c-0.2,0-0.3,0-0.4,0c-0.1,0-0.3,0-0.4,0.1c-0.1,0-0.2,0.1-0.3,0.1h-0.2c-0.2-0.1-0.4-0.2-0.5-0.4c-0.2-0.2-0.3-0.5-0.4-0.8
		c-0.1-0.2-0.1-0.5-0.1-0.7c0-0.4,0-0.7,0.1-1.1c0.1-0.8,0.1-1.5,0-2.3c0-0.2-0.1-0.5-0.1-0.7c0-0.2,0-0.5,0-1.1
		c0-0.7,0-1.2,0.1-1.6c0-0.4,0.1-0.9,0.2-1.5c0.1-0.3,0.1-0.5,0.2-0.8c0-0.2,0-0.4,0-0.7c0-0.3,0-0.6-0.1-1
		c-0.1-0.4-0.2-0.9-0.3-1.3c-0.1-0.5-0.2-0.9-0.2-1.2c0-0.4-0.1-0.7,0-1.1c0-0.4,0-0.7,0.1-1.1c0.1-0.3,0.2-0.6,0.3-0.9
		c0-0.1,0.1-0.3,0.1-0.4c0.1-0.2,0.2-0.3,0.3-0.4c0.2-0.1,0.4-0.2,0.6-0.3c0.2-0.1,0.5-0.1,0.7-0.2c0.2,0,0.4-0.1,0.6-0.1
		c0.4,0,0.9,0.1,1.3,0.2c0.3,0.1,0.6,0.1,0.8,0.1c0.2,0,0.3,0,0.5-0.1l0.5-0.1c0.5-0.1,0.8-0.2,1-0.2
		C1754.7,1046.9,1755,1046.9,1755.2,1046.9z M1754.7,1057.3c0.1,0,0.3,0,0.4-0.1c0.2-0.2,0.3-0.4,0.4-0.7c0.1-0.2,0.2-0.5,0.2-0.7
		c0-0.1,0-0.2,0-0.2c0-0.1-0.1-0.3-0.1-0.4c-0.2-0.6-0.2-1.3,0-1.9c0.1-0.4,0.2-0.8,0.3-1.2c0-0.2,0-0.5-0.1-0.7
		c-0.2-0.4-0.6-0.6-1-0.5c-0.3,0-0.5,0-0.7,0.2c-0.2,0.1-0.3,0.3-0.4,0.6c-0.1,0.2-0.1,0.3-0.1,0.5c0,0.2,0,0.4,0.1,0.6
		c0,0.3,0.1,0.5,0.1,0.8c0,0.3-0.1,0.6-0.1,0.9c-0.1,0.3-0.1,0.5-0.1,0.8c0,0.1,0.1,0.2,0.1,0.4c0,0.2,0.1,0.3,0.1,0.5
		c0,0.2,0.1,0.3,0.1,0.4c0,0.1,0.1,0.2,0.1,0.3C1754,1057.2,1754.4,1057.3,1754.7,1057.3z M1776.9,1048.9c-0.4,0.8-0.6,1.7-0.7,2.5
		c0,0.4-0.1,0.7-0.2,1s-0.1,0.6-0.3,1.1c-0.1,0.5-0.2,1-0.3,1.4c-0.1,0.4-0.2,0.9-0.3,1.5c-0.1,0.4-0.1,0.8-0.2,1s-0.1,0.6-0.2,0.9
		c-0.1,0.3-0.2,0.7-0.3,1.1s-0.3,0.9-0.5,1.6c-0.1,0.4-0.2,0.8-0.4,1.2s-0.2,0.7-0.3,1c-0.2,0.5-0.3,0.9-0.4,1.3
		c-0.1,0.3-0.2,0.6-0.4,0.9c-0.2,0.4-0.4,0.7-0.6,1c-0.3,0.3-0.6,0.5-1,0.4c-0.1,0-0.2,0-0.3,0c-0.1,0-0.3,0-0.4-0.1
		c-0.2,0-0.3,0-0.5,0h-0.6c-0.1,0-0.3,0-0.4,0c-0.1,0-0.3,0.1-0.5,0.1h-0.4c-0.2,0-0.4,0-0.7-0.1c-0.2,0-0.4-0.1-0.6-0.1
		c-0.2-0.1-0.4-0.2-0.5-0.5c-0.2-0.4-0.4-0.9-0.5-1.4c-0.1-0.3-0.1-0.5-0.2-0.7s-0.2-0.5-0.4-0.9l-0.4-1c-0.1-0.2-0.2-0.5-0.3-0.7
		c-0.1-0.2-0.1-0.5-0.2-0.8s-0.1-0.7-0.2-1.1c-0.1-0.6-0.2-1.2-0.3-1.8c-0.1-0.6-0.3-1.4-0.5-2.3c-0.1-0.4-0.2-0.8-0.2-1.1
		c-0.1-0.3-0.1-0.5-0.2-0.8c0-0.2-0.1-0.5-0.1-0.8c0-0.3-0.1-0.6-0.1-1c0-0.2-0.1-0.4-0.1-0.7c0-0.3-0.1-0.6-0.1-0.8
		c-0.1-0.5-0.1-0.8-0.2-1.1c0-0.2,0-0.5,0-0.7c0-0.2,0.1-0.3,0.3-0.5c0.1-0.1,0.3-0.2,0.5-0.3c0.3-0.2,0.7-0.3,1.1-0.3
		c0.1,0,0.3,0,0.4,0.1l0.5,0.1c0.3,0.1,0.6,0.1,0.9,0.1c0.1,0,0.2,0,0.3,0c0.1,0,0.2,0,0.3-0.1c0.1,0,0.2,0,0.3,0h0.3
		c0.5,0.1,0.7,0.2,0.8,0.4c0,0.2,0.1,0.3,0.1,0.5c0,0.3,0.1,0.6,0.1,0.9c0,0.4,0.1,0.7,0.2,1.1c0.1,0.4,0.1,0.6,0.2,0.8
		c0,0.2,0.1,0.4,0.1,0.6c0,0.2,0.1,0.3,0.1,0.5c0,0.2,0,0.4,0,0.5c0,0.2,0,0.4-0.1,0.7c0,0.2,0,0.4-0.1,0.6l0,0.5c0,0.2,0,0.4,0,0.6
		v0.9c0,0.5,0,0.9,0,1.2s0,0.6,0,0.7c0.1,0.5,0.1,0.7,0.2,0.7s0.1-0.3,0.2-0.9c0.1-0.4,0.2-0.8,0.3-1.2s0.1-0.8,0.2-1.2
		c0.1-0.5,0.1-1,0.2-1.4c0.1-0.4,0.1-0.8,0.2-1.2c0.1-0.4,0.1-0.7,0.2-1c0-0.3,0.1-0.6,0.1-1c0-0.6,0.1-1.3,0.3-1.9
		c0.1-0.5,0.3-0.9,0.6-1.2c0.1-0.1,0.3-0.2,0.4-0.3c0.3,0,0.6-0.1,0.9-0.1h0.7c0.2,0,0.4,0,0.7,0c0.2,0,0.4,0,0.8,0.1s0.7,0,1,0
		c0.5,0,0.9,0,1,0c0.1,0,0.2,0,0.3,0.1c0.2,0.1,0.4,0.3,0.3,0.6c0,0.1-0.1,0.2-0.1,0.3C1777,1048.5,1776.9,1048.7,1776.9,1048.9z
		 M1782.6,1047.5c0.4,0,0.7,0,1.1-0.1c0.1,0,0.2,0,0.3-0.1c0.1,0,0.2,0,0.3,0c0.3,0,0.5,0,0.8,0.1c0.2,0,0.4,0.1,0.7,0.2
		s0.6,0.1,0.9,0.2l1.4,0.3c0.7,0.2,1.3,0.7,1.6,1.4c0.2,0.4,0.3,0.8,0.4,1.2c0.1,0.5,0.1,1,0,1.6c0,0.2,0,0.5,0,0.8v0.7
		c0,0.2,0,0.3,0,0.4c0,0.1,0,0.2,0.1,0.3c0,0.1,0.1,0.2,0.1,0.3c0.1,0.2,0.1,0.3,0.2,0.5c0.1,0.3,0.2,0.5,0.3,0.8
		c0,0.3,0.1,0.6,0,0.9c0,0.2,0,0.4-0.1,0.6c0,0.1,0,0.3-0.1,0.4l-0.2,1.4c-0.2,1.2-0.5,2.4-0.9,3.6c-0.4,1.2-1.2,2.2-2.2,3
		c-0.3,0.2-0.6,0.4-1,0.5c-0.3,0.1-0.7,0.2-1.1,0.2c-0.1,0-0.3,0-0.4,0c-0.1,0-0.2,0-0.3-0.1c-0.2,0-0.4-0.1-0.6-0.1l-0.8-0.2h-0.8
		c-0.4,0-0.8,0-1.1,0c-0.3,0-0.6-0.1-0.8-0.2c-0.3-0.1-0.5-0.3-0.7-0.5c-0.2-0.3-0.4-0.6-0.6-0.9c-0.1-0.2-0.2-0.3-0.3-0.5
		c-0.1-0.2-0.2-0.3-0.3-0.5c-0.2-0.3-0.4-0.7-0.6-1c-0.2-0.3-0.3-0.6-0.4-0.9c-0.1-0.4-0.1-0.9-0.1-1.4c0-0.7,0-1.4,0-2.3
		c0-0.8,0.1-1.5,0.1-2.1c0.1-0.6,0.2-1.2,0.3-1.9c0.1-0.3,0.1-0.6,0.2-0.8c0-0.2,0.1-0.4,0.1-0.6c0-0.2,0.1-0.3,0.1-0.5
		c0-0.2,0-0.4,0-0.6c0-0.3,0-0.5,0-0.7c0-0.2,0-0.3,0.1-0.5c0-0.1,0.1-0.3,0.2-0.4l0.2-0.5c0.3-0.7,0.9-1.3,1.6-1.5
		C1781.1,1047.7,1781.8,1047.5,1782.6,1047.5z M1782.6,1058.3c-0.2,1.1-0.1,2.2,0.3,3.3c0.1,0.2,0.2,0.3,0.3,0.4
		c0.1,0.2,0.3,0.3,0.5,0.3c0.1,0,0.2,0,0.2-0.1c0.2-0.1,0.3-0.2,0.4-0.3c0.1-0.1,0.2-0.3,0.3-0.4c0.1-0.2,0.1-0.3,0.2-0.5
		c0.1-0.2,0.1-0.4,0.1-0.6c0-0.3,0.1-0.5,0.1-0.8c0-0.3,0-0.7,0-1.1c0-0.4,0-0.7,0-0.9c0-0.3,0-0.5,0-0.7c0-0.2,0-0.4,0.1-0.6
		c0-0.2,0.1-0.4,0.1-0.7c0-0.2,0.1-0.4,0.1-0.6c0-0.2,0-0.4,0-0.6c0-0.4,0-0.7-0.2-1c-0.2-0.3-0.4-0.6-0.7-0.8
		c-0.1-0.1-0.2-0.2-0.3-0.3s-0.1-0.1-0.2-0.2c0-0.1-0.1-0.1-0.2-0.1c-0.1,0-0.2,0-0.2,0.1c-0.5,0.4-0.9,1-1,1.7
		c-0.1,0.3-0.1,0.6-0.1,0.8c0,0.4,0,0.7,0.1,1.1C1782.8,1056.5,1782.8,1057.4,1782.6,1058.3L1782.6,1058.3z M1792.4,1052.1
		c-0.2-1.3-0.2-2.3-0.3-2.9c0-0.4,0-0.9,0.2-1.3c0.1-0.2,0.3-0.4,0.5-0.5c0.3-0.1,0.5-0.1,0.8-0.1c0.2,0,0.4,0,0.6,0
		c0.2,0,0.5,0,0.8,0.1c0.1,0,0.3,0,0.4,0c0.1,0,0.2,0,0.3,0c0.1,0,0.3,0,0.4,0s0.3,0,0.5-0.1c0.1,0,0.2,0,0.4,0h0.3
		c0.2,0,0.4,0,0.5,0.1c0.1,0.1,0.2,0.2,0.3,0.3c0.1,0.1,0.1,0.3,0.1,0.4c0,0.2,0,0.7-0.1,1.4c0,0.3,0,0.6-0.1,0.8
		c0,0.2,0,0.4-0.1,0.6c0,0.2-0.1,0.4-0.1,0.5c0,0.2-0.1,0.4-0.1,0.6c-0.1,0.5-0.1,0.8-0.2,1.2c-0.1,0.3-0.1,0.6-0.1,1
		c0,0.3,0,0.6,0,0.9c0,0.3,0,0.6,0.1,0.9c0.1,0.6,0.1,1.1,0.1,1.7c0,0.5,0,1-0.1,1.5c0,0.2-0.1,0.4-0.1,0.7c0,0.3-0.1,0.6-0.1,0.8
		s0,0.6,0,0.8c0,0.3,0,0.5,0.1,0.6c0,0.1,0,0.3,0,0.5l0.1,0.7c0.1,0.2,0.1,0.5,0.1,0.7v0.6c0,0.1,0,0.3-0.1,0.4
		c0,0.1-0.1,0.2-0.1,0.3c-0.2,0.3-0.5,0.6-0.8,0.6c-0.1,0-0.3,0.1-0.4,0.1c-0.1,0-0.4,0-0.8,0h-0.8c-0.2,0-0.4,0-0.6,0.1
		c-0.3,0.1-0.5,0.1-0.8,0.1c0,0-0.1,0-0.1,0c0,0-0.1,0-0.1,0c-0.2-0.1-0.4-0.2-0.5-0.4c-0.1-0.1-0.1-0.2-0.2-0.3
		c0-0.1-0.1-0.2-0.1-0.3c0-0.1,0-0.3,0-0.6v-1c0-0.4,0-0.9,0-1.4c0-0.5,0-0.9,0-1.3c0-0.6-0.1-1.3,0-1.9c0-0.6,0.1-1.2,0.1-1.7
		c0-0.2,0-0.5,0.1-0.9c0-0.4,0.1-0.8,0.1-1.2c0-0.4,0-0.7,0.1-1s0-0.5,0-0.8c0-0.2,0-0.5,0-0.8
		C1792.4,1052.8,1792.4,1052.5,1792.4,1052.1z M1805.2,1047.2c0.3,0.1,0.6,0.2,1,0.4c0.3,0.1,0.8,0.3,1.3,0.6
		c0.3,0.1,0.5,0.3,0.8,0.4l0.6,0.2c0.2,0.1,0.4,0.2,0.6,0.3c0.2,0.1,0.3,0.2,0.4,0.3c0.1,0.1,0.2,0.2,0.3,0.4
		c0.1,0.2,0.2,0.4,0.3,0.6c0.3,0.6,0.6,1.2,0.8,1.9c0.2,0.6,0.4,1.3,0.5,2c0.4,1.7,0.4,3.4,0,5.1c-0.2,0.8-0.5,1.5-0.9,2.2
		c-0.4,0.7-0.8,1.3-1.3,1.9c-0.2,0.2-0.4,0.4-0.5,0.6c-0.1,0.2-0.3,0.4-0.5,0.7c-0.1,0.2-0.3,0.4-0.4,0.6c-0.2,0.2-0.3,0.3-0.5,0.4
		c-0.3,0.2-0.7,0.4-1.1,0.5c-0.6,0.1-1.3,0.2-1.9,0.2c-0.6,0.1-1,0.1-1.3,0.2c-0.3,0-0.6,0.1-0.9,0.2c-0.2,0.1-0.5,0.2-0.8,0.2
		c-0.2,0-0.3,0-0.5,0.1c-0.5,0-0.9-0.2-1.2-0.6c-0.2-0.3-0.2-0.7-0.2-1.1c0-0.5,0-1.1,0.2-1.6c0-0.3,0.1-0.5,0.1-0.7
		c0-0.2,0-0.5,0-0.9c0-0.6,0-1.1-0.1-1.5c0-0.4-0.1-0.9-0.2-1.4c-0.1-0.5-0.2-0.9-0.2-1.3c0-0.4,0-0.7,0-1.1c0-0.4,0.1-0.7,0.1-1.1
		c0.1-0.4,0.2-0.8,0.3-1.4c0.1-0.3,0.1-0.5,0.1-0.7c0-0.2,0-0.5,0-0.7c0-0.3,0-0.5,0-0.8c0-0.2-0.1-0.5-0.1-0.9
		c-0.1-0.5-0.2-0.9-0.2-1.4c0-0.3,0-0.6,0.1-0.9c0.1-0.2,0.2-0.5,0.4-0.7c0.1-0.2,0.3-0.4,0.5-0.6c0.2-0.1,0.4-0.2,0.7-0.3
		c0.3-0.1,0.5-0.1,0.8-0.2h1.5c0.5,0,0.8,0.1,0.9,0.1C1804.9,1047.1,1805,1047.2,1805.2,1047.2z M1805.2,1052.5
		c-0.1,0-0.2,0.1-0.2,0.3c0,0.1,0,0.2-0.1,0.4c0,0.2,0,0.4,0,0.7c0,0.3,0,0.5,0,0.8s0,0.6,0.1,0.8c0.1,0.6,0.1,1.2,0.1,1.8
		c0,0.6,0,1.2-0.1,1.6c-0.1,0.5-0.1,1-0.1,1.4c0,0.3,0,0.7,0,1c0.1,0.5,0.3,0.8,0.6,0.8c0.1,0,0.2-0.1,0.3-0.1
		c0.2-0.2,0.4-0.4,0.6-0.6c0.2-0.2,0.3-0.5,0.4-0.8c0-0.2,0.1-0.4,0.1-0.6c0-0.4-0.1-0.7-0.2-1c-0.1-0.4-0.2-0.8-0.2-1.2
		c0-0.4,0-0.7,0.1-1.1c0.1-0.5,0.2-0.8,0.2-1c0-0.3,0-0.6,0-0.8c0-0.3-0.1-0.6-0.1-0.9c0-0.3-0.1-0.5-0.2-0.7
		c-0.1-0.2-0.3-0.4-0.5-0.5C1805.8,1052.5,1805.5,1052.5,1805.2,1052.5L1805.2,1052.5z"/>
	<rect id="Rechteck_2624" x="1909.6" y="1077" class="st0" width="44" height="15"/>
	<rect id="Rechteck_2625" x="1955.6" y="1077" class="st1" width="44" height="15"/>
	<rect id="Rechteck_2626" x="2001.6" y="1077" class="st1" width="44" height="15"/>
	<path id="Pfad_4025-2" class="st2" d="M1918.2,1046.9c0.8,0,1.5,0.3,2.1,0.8c0.2,0.1,0.4,0.3,0.6,0.4c0.2,0.1,0.4,0.2,0.7,0.2
		c0.5,0.1,0.9,0.3,1.3,0.6c0.3,0.3,0.6,0.6,0.7,1c0.2,0.4,0.3,0.8,0.3,1.2c0,0.5,0.1,0.9,0.1,1.4c0,0.4,0,0.8,0,1
		c0,0.2,0,0.4,0.1,0.6c0.1,0.3,0.1,0.6,0.1,1c0,0.4,0,0.9-0.1,1.3c0,0.4,0,0.7-0.1,1c0,0.3,0,0.5,0,0.8c0,0.3,0.1,0.5,0.1,0.8
		c0.1,0.3,0.1,0.6,0.3,1c0.5,1.3,0.7,2.7,0.6,4.1c0,0.3-0.1,0.5-0.1,0.8c-0.1,0.3-0.2,0.6-0.3,0.8c-0.1,0.2-0.3,0.5-0.5,0.6
		c-0.2,0.2-0.5,0.3-0.7,0.3h-0.3c-0.1,0-0.2,0-0.3-0.1c-0.1,0-0.2-0.1-0.3-0.1h-0.6c-0.1,0-0.3,0-0.4,0c-0.1,0-0.2,0-0.3,0h-0.3
		c-0.5,0-1.1-0.2-1.4-0.6c-0.3-0.4-0.5-0.9-0.5-1.5c0-0.3-0.1-0.6-0.1-0.9c-0.1-0.4-0.2-0.7-0.3-1.1c-0.1-0.2-0.1-0.4-0.1-0.6
		c0-0.2-0.1-0.4-0.2-0.6c-0.1-0.2-0.3-0.3-0.5-0.3c-0.2,0-0.4,0.1-0.5,0.3l-0.1,0.2l0,1.1v0.9c0,0.2,0,0.4,0.1,0.6
		c0.1,0.5,0.1,1.1-0.1,1.6c-0.3,0.9-1.1,1.6-2.1,1.5h-0.4c-0.1,0-0.2,0-0.3,0l-0.7-0.2c-0.1,0-0.3-0.1-0.4-0.1c-0.1,0-0.2,0-0.3-0.1
		c-0.2,0-0.3,0-0.4,0c-0.1,0-0.3,0-0.4,0.1c-0.1,0-0.2,0.1-0.3,0.1h-0.2c-0.2-0.1-0.4-0.2-0.5-0.4c-0.2-0.2-0.3-0.5-0.4-0.8
		c-0.1-0.2-0.1-0.5-0.1-0.7c0-0.4,0-0.7,0.1-1.1c0.1-0.8,0.1-1.5,0-2.3c0-0.2-0.1-0.5-0.1-0.7c0-0.2,0-0.5,0-1.1
		c0-0.7,0-1.2,0.1-1.6c0-0.4,0.1-0.9,0.2-1.5c0.1-0.3,0.1-0.5,0.2-0.8c0-0.2,0-0.4,0-0.7c0-0.3,0-0.6-0.1-1
		c-0.1-0.4-0.2-0.9-0.3-1.3c-0.1-0.5-0.2-0.9-0.2-1.2c0-0.4-0.1-0.7,0-1.1c0-0.4,0-0.7,0.1-1.1c0.1-0.3,0.2-0.6,0.3-0.9
		c0-0.1,0.1-0.3,0.1-0.4c0.1-0.2,0.2-0.3,0.3-0.4c0.2-0.1,0.4-0.2,0.6-0.3c0.2-0.1,0.5-0.1,0.7-0.2c0.2,0,0.4-0.1,0.6-0.1
		c0.4,0,0.9,0.1,1.3,0.2c0.3,0.1,0.6,0.1,0.8,0.1c0.2,0,0.3,0,0.5-0.1l0.5-0.1c0.5-0.1,0.8-0.2,1-0.2
		C1917.7,1046.9,1918,1046.9,1918.2,1046.9z M1917.7,1057.3c0.1,0,0.3,0,0.4-0.1c0.2-0.2,0.3-0.4,0.4-0.7c0.1-0.2,0.2-0.5,0.2-0.7
		c0-0.1,0-0.2,0-0.2c0-0.1-0.1-0.3-0.1-0.4c-0.2-0.6-0.2-1.3,0-1.9c0.1-0.4,0.2-0.8,0.3-1.2c0-0.2,0-0.5-0.1-0.7
		c-0.2-0.4-0.6-0.6-1-0.5c-0.3,0-0.5,0-0.7,0.2c-0.2,0.1-0.3,0.3-0.4,0.6c-0.1,0.2-0.1,0.3-0.1,0.5c0,0.2,0,0.4,0.1,0.6
		c0,0.3,0.1,0.5,0.1,0.8c0,0.3-0.1,0.6-0.1,0.9c-0.1,0.3-0.1,0.5-0.1,0.8c0,0.1,0.1,0.2,0.1,0.4c0,0.2,0.1,0.3,0.1,0.5
		c0,0.2,0.1,0.3,0.1,0.4c0,0.1,0.1,0.2,0.1,0.3C1917,1057.2,1917.4,1057.3,1917.7,1057.3z M1935.9,1047.9c0.2,0.1,0.4,0.1,0.6,0.2
		c0.2,0.1,0.3,0.2,0.4,0.3c0.1,0.1,0.3,0.3,0.4,0.4c0.2,0.3,0.3,0.6,0.4,0.9c0.1,0.2,0.2,0.4,0.3,0.6c0.1,0.2,0.2,0.4,0.3,0.5
		c0.2,0.3,0.4,0.6,0.5,0.9c0.1,0.4,0.1,0.8,0,1.2c0,0.4,0,0.8,0,1.3c0,0.4,0.1,0.7,0,1.1c0,0.2-0.1,0.4-0.2,0.6
		c-0.1,0.3-0.2,0.6-0.3,0.8c-0.1,0.3-0.2,0.5-0.4,0.8c-0.2,0.4-0.5,0.7-0.8,0.8c-0.1,0.1-0.2,0.1-0.3,0.2c-0.1,0.1-0.2,0.1-0.4,0.2
		c0,0-0.1,0.1-0.2,0.1c-0.1,0-0.1,0-0.2,0.1c0,0-0.1,0.1-0.1,0.1c0,0,0,0.1,0.1,0.4c0.1,0.2,0.2,0.5,0.3,0.6
		c0.1,0.2,0.2,0.4,0.4,0.6c0.1,0.2,0.4,0.4,0.7,0.8c0.2,0.2,0.5,0.5,0.7,0.8c0.1,0.3,0.2,0.5,0.3,0.8c0,0.3,0.1,0.5,0.2,0.8
		c0.1,0.2,0.2,0.5,0.4,0.9c0.2,0.3,0.3,0.6,0.4,0.9c0.1,0.1,0.1,0.3,0,0.4c-0.1,0.2-0.3,0.3-0.6,0.4c-0.2,0.1-0.4,0.1-0.7,0.1
		c-0.1,0-0.3,0-0.5,0c-0.2,0-0.5,0-0.9-0.1h-0.7c-0.1,0-0.3,0-0.4,0c-0.2,0-0.3,0-0.4,0.1c-0.1,0-0.2,0-0.3,0
		c-0.4,0-0.7-0.1-0.9-0.4c-0.2-0.3-0.3-0.6-0.4-1c0-0.1,0-0.2-0.1-0.4c0-0.1-0.1-0.3-0.1-0.4c-0.1-0.2-0.1-0.3-0.2-0.5
		c-0.1-0.1-0.2-0.4-0.5-0.9c-0.1-0.2-0.2-0.3-0.3-0.5c-0.1-0.2-0.2-0.4-0.3-0.6c-0.2-0.4-0.4-0.7-0.6-0.9c-0.2-0.2-0.3-0.3-0.3-0.3
		c0,0,0,0.1,0,0.4s0,0.7,0.1,1.1c0,1,0.1,1.7,0.1,2.2c0,0.4,0,0.7-0.1,1.1c-0.1,0.3-0.3,0.5-0.5,0.6c-0.2,0.2-0.5,0.3-0.8,0.3
		c-0.2,0-0.4,0.1-0.6,0.1c-0.3,0-0.7,0-1.1,0c-0.4,0-0.7,0-1.1,0c-0.2,0-0.4,0-0.6-0.1c-0.1,0-0.3-0.1-0.4-0.1
		c-0.1-0.1-0.2-0.2-0.2-0.3c-0.1-0.2-0.1-0.4-0.1-0.6c0-0.3,0-0.7,0.1-1.2c0-0.2,0-0.5,0.1-0.8c0-0.3,0-0.6,0.1-0.8
		c0-0.2,0-0.5,0.1-0.8c0-0.3,0-0.6,0.1-0.8c0-0.5,0.1-1,0.1-1.4s0-0.9-0.1-1.5c0-0.2,0-0.4-0.1-0.6c0-0.2,0-0.4,0-0.6s0-0.5,0-0.8
		v-3.3c0-0.2,0-0.4,0-0.5c0-0.1,0-0.2-0.1-0.3c-0.2-1-0.3-2.1-0.3-3.2c0.1-0.4,0.3-0.7,0.6-1c0.2-0.1,0.5-0.2,0.7-0.3
		c0.3-0.1,0.6-0.1,0.9-0.2c0.3,0,0.6-0.1,0.9-0.1c0.3,0,0.5,0,0.7,0c0.3,0,0.7,0,1,0.1c0.2,0,0.5,0.1,0.7,0.2
		c0.1,0.1,0.3,0.1,0.5,0.1c0.2,0,0.6,0,1.2,0c0.4,0,0.8,0,1,0s0.5,0,0.7,0.1s0.4,0,0.5,0.1
		C1935.5,1047.8,1935.7,1047.8,1935.9,1047.9z M1933.2,1055.3c0-0.1,0.1-0.2,0.1-0.3c0-0.1,0-0.2-0.1-0.4c0-0.1,0-0.2-0.1-0.4
		c0-0.1,0-0.3,0-0.4c0-0.1,0-0.2,0-0.3c0,0-0.1-0.1-0.1-0.2c-0.2-0.3-0.5-0.6-0.9-0.7c0,0,0,0-0.1,0h0c0,0-0.1,0-0.1,0.1
		c0,0.1,0,0.3-0.1,0.6c0,0.2,0,0.5-0.1,0.8c0,0.3,0,0.6,0,1s0,0.6,0,0.8s0,0.3,0.1,0.3c0.3,0,0.6-0.1,0.8-0.3
		C1932.9,1055.7,1933.1,1055.5,1933.2,1055.3z M1949.4,1054.9c0.1-0.2,0.1-0.3,0.2-0.5c0.1-0.2,0.1-0.5,0.2-0.7
		c0.1-0.3,0.1-0.5,0.2-0.7c0-0.2,0.1-0.3,0.1-0.5c0-0.1,0.1-0.3,0.1-0.4c0-0.1,0.1-0.3,0.2-0.5c0.1-0.3,0.3-0.7,0.3-1
		c0.1-0.4,0.1-0.8,0.2-1.1c0-0.3,0.1-0.6,0.1-0.9c0-0.1,0.1-0.3,0.2-0.4c0.1-0.1,0.2-0.2,0.4-0.2c0.2-0.1,0.5-0.1,0.7-0.1h0.4
		c0.3,0,0.6,0,0.7,0s0.3,0,0.6-0.1c0.4-0.1,0.7-0.1,1-0.2c0.3,0,0.5-0.1,0.8-0.1c0.5,0,0.9,0.1,1.3,0.3c0.3,0.3,0.4,0.7,0.4,1.1
		c0,0.2,0,0.4,0,0.5c0,0.2-0.1,0.5-0.1,0.9c0,0.2-0.1,0.4-0.1,0.6c0,0.1,0,0.3-0.1,0.4c0,0.1,0,0.3,0,0.4c0,0.2,0,0.3,0,0.6v1
		c0,0.3,0,0.6,0.1,0.9c0.1,1,0.1,2,0.1,3c0,1.1-0.1,2.2-0.2,3.2c0,0.3-0.1,0.5-0.1,0.8v0.9c0,0.7,0,1.3,0.1,1.7c0,0.4,0,0.7,0,1v0.5
		c0,0.1,0,0.1,0,0.2c0,0.3-0.3,0.6-0.6,0.8l-0.2,0.1c-0.1,0-0.2,0-0.2,0c-0.1,0-0.1,0-0.2,0c-0.1,0-0.2,0-0.3,0h-0.7
		c-0.3,0-0.6,0-0.8,0c-0.2,0-0.5,0-0.7,0.1c-0.2,0-0.3,0.1-0.5,0.1h-0.4c-0.2,0-0.3,0-0.4,0c-0.3-0.1-0.4-0.3-0.5-0.6
		c-0.1-0.6-0.1-1.3,0-1.9l0.2-1.4c0.1-0.5,0.1-0.9,0.2-1.3c0-0.2,0-0.3,0.1-0.5c0-0.2,0-0.3,0.1-0.4c0.1-0.3,0-0.7-0.1-1
		c-0.1-0.1-0.1-0.1-0.2-0.1c0,0-0.1,0.1-0.3,0.2c-0.2,0.2-0.3,0.3-0.4,0.5c-0.1,0.2-0.2,0.3-0.3,0.5c0,0.1-0.1,0.2-0.1,0.3
		c0,0.1,0,0.4,0,0.7c0,0.4,0,0.7,0,0.8c0,0.1-0.1,0.3-0.2,0.3c-0.2,0.1-0.4,0.2-0.6,0.2c-0.2,0-0.4,0.1-0.7,0.1
		c-0.3,0-0.5-0.1-0.7-0.2c-0.2-0.2-0.4-0.5-0.5-0.8c-0.1-0.3-0.3-0.6-0.5-0.8c-0.1-0.1-0.3-0.3-0.3-0.5c-0.1-0.2-0.2-0.4-0.2-0.6
		c-0.1-0.3-0.2-0.6-0.3-0.8c-0.1-0.2-0.2-0.3-0.3-0.3c0,0,0,0.1-0.1,0.3s0,0.6,0,1.2c0,0.8,0,1.4,0,2c0,0.5,0.1,1,0.2,1.5
		c0.1,0.5,0.1,1.1,0,1.6c-0.1,0.2-0.1,0.4-0.3,0.5c-0.1,0.1-0.2,0.3-0.4,0.3c-0.2,0.1-0.4,0.1-0.6,0.1h-0.4c-0.2,0-0.4,0-0.6,0
		c-0.1,0-0.2,0-0.3,0c-0.1,0-0.1,0-0.2,0c-0.1,0-0.2,0-0.3,0c-0.1,0-0.2,0-0.4,0.1c-0.2,0-0.4,0-0.5,0.1c-0.2,0-0.3,0-0.4,0
		c-0.2,0-0.5,0-0.7-0.1c-0.5-0.1-0.8-0.3-0.9-0.7c-0.1-0.3-0.1-0.5,0-0.8c0-0.4,0.1-1,0.1-1.8c0.1-0.7,0.1-1.3,0.1-1.7
		c0-0.5,0-0.9-0.1-1.4l-0.1-0.6c0-0.2,0-0.4,0-0.7v-0.8c0-0.3,0-0.7,0-1.1c0-0.4,0-0.7,0.1-0.9c0-0.2,0-0.5,0-0.7s0-0.4,0-0.6
		c0-0.2,0-0.5,0-0.8c0-0.7-0.1-1.4-0.1-2.1c0-0.7-0.1-1.2-0.1-1.5c0-0.4-0.1-0.7-0.1-1.1c0-0.3,0-0.6,0.1-0.9
		c0.1-0.3,0.3-0.6,0.5-0.8c0.2-0.2,0.6-0.3,0.9-0.3c0.1,0,0.3,0,0.4,0c0.2,0,0.3,0.1,0.5,0.1l0.6,0.2l1-0.1c0.2,0,0.5,0,0.8,0h0.6
		c0.2,0,0.5,0.1,0.7,0.1c0.2,0,0.4,0.1,0.5,0.2c0.1,0.1,0.2,0.1,0.3,0.3c0.1,0.1,0.1,0.2,0.1,0.4c0,0,0,0.2,0.1,0.5
		c0,0.3,0.1,0.7,0.2,1.1c0.2,1,0.4,2.1,0.6,3.2c0,0.1,0.1,0.3,0.3,0.7c0.1,0.3,0.3,0.7,0.4,1.1c0.1,0.4,0.3,0.7,0.4,1l0.2,0.4
		c0-0.1,0-0.1,0.1-0.2c0-0.1,0.1-0.2,0.2-0.4s0.1-0.3,0.2-0.5C1949.3,1055.1,1949.4,1055,1949.4,1054.9z M1963.6,1047.5
		c0.4,0,0.7,0,1.1-0.1c0.1,0,0.2,0,0.3-0.1c0.1,0,0.2,0,0.3,0c0.3,0,0.5,0,0.8,0.1c0.2,0,0.4,0.1,0.7,0.2s0.6,0.1,0.9,0.2l1.4,0.3
		c0.7,0.2,1.3,0.7,1.6,1.4c0.2,0.4,0.3,0.8,0.4,1.2c0.1,0.5,0.1,1,0,1.5c0,0.2,0,0.5,0,0.8v0.7c0,0.2,0,0.3,0,0.4
		c0,0.1,0,0.2,0.1,0.3c0,0.1,0.1,0.2,0.1,0.3c0.1,0.2,0.1,0.3,0.2,0.5c0.1,0.3,0.2,0.5,0.3,0.8c0,0.3,0.1,0.6,0,0.9
		c0,0.2,0,0.4-0.1,0.6c0,0.1,0,0.3-0.1,0.4l-0.2,1.4c-0.2,1.2-0.5,2.4-0.9,3.6c-0.4,1.2-1.2,2.2-2.2,3c-0.3,0.2-0.6,0.4-1,0.5
		c-0.3,0.1-0.7,0.2-1.1,0.2c-0.1,0-0.3,0-0.4,0c-0.1,0-0.2,0-0.3-0.1c-0.2,0-0.4-0.1-0.6-0.1l-0.8-0.2h-0.8c-0.4,0-0.8,0-1.1,0
		c-0.3,0-0.6-0.1-0.8-0.2c-0.3-0.1-0.5-0.3-0.7-0.5c-0.2-0.3-0.4-0.6-0.6-0.9c-0.1-0.2-0.2-0.3-0.3-0.5c-0.1-0.2-0.2-0.3-0.3-0.5
		c-0.2-0.3-0.4-0.7-0.6-1c-0.2-0.3-0.3-0.6-0.4-0.9c-0.1-0.4-0.1-0.9-0.1-1.4c0-0.7,0-1.4,0-2.3c0-0.8,0.1-1.5,0.1-2.1
		c0.1-0.6,0.2-1.2,0.3-1.9c0.1-0.3,0.1-0.6,0.2-0.8c0-0.2,0.1-0.4,0.1-0.6c0-0.2,0.1-0.3,0.1-0.5c0-0.2,0-0.4,0-0.6
		c0-0.3,0-0.5,0-0.7c0-0.2,0-0.3,0.1-0.5c0-0.1,0.1-0.3,0.2-0.4l0.2-0.5c0.3-0.7,0.9-1.3,1.6-1.5
		C1962,1047.7,1962.8,1047.5,1963.6,1047.5z M1963.6,1058.3c-0.2,1.1-0.1,2.2,0.3,3.3c0.1,0.2,0.2,0.3,0.3,0.4
		c0.1,0.2,0.3,0.3,0.5,0.3c0.1,0,0.2,0,0.2-0.1c0.2-0.1,0.3-0.2,0.4-0.3c0.1-0.1,0.2-0.3,0.3-0.4c0.1-0.2,0.1-0.3,0.2-0.5
		c0.1-0.2,0.1-0.4,0.1-0.6c0-0.3,0.1-0.5,0.1-0.8c0-0.3,0-0.7,0-1.1c0-0.4,0-0.7,0-0.9c0-0.3,0-0.5,0-0.7c0-0.2,0-0.4,0.1-0.6
		c0-0.2,0.1-0.4,0.1-0.7c0-0.2,0.1-0.4,0.1-0.6c0-0.2,0-0.4,0-0.6c0-0.4,0-0.7-0.2-1c-0.2-0.3-0.4-0.6-0.7-0.8
		c-0.1-0.1-0.2-0.2-0.3-0.3c-0.1-0.1-0.1-0.1-0.2-0.2c0-0.1-0.1-0.1-0.2-0.1c-0.1,0-0.2,0-0.2,0.1c-0.5,0.4-0.9,1-1,1.7
		c-0.1,0.3-0.1,0.6-0.1,0.8c0,0.4,0,0.7,0.1,1.1C1963.7,1056.5,1963.7,1057.4,1963.6,1058.3L1963.6,1058.3z M1982.9,1047.9
		c0.2,0.1,0.4,0.1,0.6,0.2c0.2,0.1,0.3,0.2,0.4,0.3c0.1,0.1,0.3,0.3,0.4,0.4c0.2,0.3,0.3,0.6,0.4,0.9c0.1,0.2,0.2,0.4,0.3,0.6
		c0.1,0.2,0.2,0.4,0.3,0.5c0.2,0.3,0.4,0.6,0.5,0.9c0.1,0.4,0.1,0.8,0,1.2c0,0.4,0,0.8,0,1.3c0,0.4,0.1,0.7,0,1.1
		c0,0.2-0.1,0.4-0.2,0.6c-0.1,0.3-0.2,0.6-0.3,0.8c-0.1,0.3-0.2,0.5-0.4,0.8c-0.2,0.4-0.5,0.7-0.8,0.8c-0.1,0.1-0.2,0.1-0.3,0.2
		c-0.1,0.1-0.2,0.1-0.4,0.2c0,0-0.1,0.1-0.2,0.1c-0.1,0-0.1,0-0.2,0.1c0,0-0.1,0.1-0.1,0.1c0,0,0,0.1,0.1,0.4
		c0.1,0.2,0.2,0.5,0.3,0.6c0.1,0.2,0.2,0.4,0.4,0.6c0.1,0.2,0.4,0.4,0.7,0.8c0.2,0.2,0.5,0.5,0.7,0.8c0.1,0.3,0.2,0.5,0.3,0.8
		c0,0.3,0.1,0.5,0.2,0.8c0.1,0.2,0.2,0.5,0.4,0.9c0.2,0.3,0.3,0.6,0.4,0.9c0.1,0.1,0.1,0.3,0,0.4c-0.1,0.2-0.3,0.3-0.6,0.4
		c-0.2,0.1-0.4,0.1-0.7,0.1c-0.1,0-0.3,0-0.5,0c-0.2,0-0.5,0-0.9-0.1h-0.7c-0.1,0-0.3,0-0.4,0c-0.2,0-0.3,0-0.4,0.1
		c-0.1,0-0.2,0-0.3,0c-0.4,0-0.7-0.1-0.9-0.4c-0.2-0.3-0.3-0.6-0.4-1c0-0.1,0-0.2-0.1-0.4c0-0.1-0.1-0.3-0.1-0.4
		c-0.1-0.2-0.1-0.3-0.2-0.5c-0.1-0.1-0.2-0.4-0.5-0.9c-0.1-0.2-0.2-0.3-0.3-0.5c-0.1-0.2-0.2-0.4-0.3-0.6c-0.2-0.4-0.4-0.7-0.6-0.9
		c-0.2-0.2-0.3-0.3-0.3-0.3c0,0,0,0.1,0,0.4c0,0.3,0,0.7,0.1,1.1c0,1,0.1,1.7,0.1,2.2c0,0.4,0,0.7-0.1,1.1c-0.1,0.3-0.3,0.5-0.5,0.6
		c-0.2,0.2-0.5,0.3-0.8,0.3c-0.2,0-0.4,0.1-0.6,0.1c-0.3,0-0.7,0-1.1,0s-0.7,0-1.1,0c-0.2,0-0.4,0-0.6-0.1c-0.1,0-0.3-0.1-0.4-0.1
		c-0.1-0.1-0.2-0.2-0.2-0.3c-0.1-0.2-0.1-0.4-0.1-0.6c0-0.3,0-0.7,0.1-1.2c0-0.2,0-0.5,0.1-0.8c0-0.3,0-0.6,0.1-0.8
		c0-0.2,0-0.5,0.1-0.8c0-0.3,0-0.6,0.1-0.8c0-0.5,0.1-1,0.1-1.4s0-0.9-0.1-1.5c0-0.2,0-0.4-0.1-0.6c0-0.2,0-0.4,0-0.6s0-0.5,0-0.8
		v-3.3c0-0.2,0-0.4,0-0.5c0-0.1,0-0.2-0.1-0.3c-0.2-1-0.3-2.1-0.3-3.2c0.1-0.4,0.3-0.7,0.6-1c0.2-0.1,0.5-0.2,0.7-0.3
		c0.3-0.1,0.6-0.1,0.9-0.2c0.3,0,0.6-0.1,0.9-0.1c0.3,0,0.5,0,0.7,0c0.3,0,0.7,0,1,0.1c0.2,0,0.5,0.1,0.7,0.2
		c0.1,0.1,0.3,0.1,0.5,0.1c0.2,0,0.6,0,1.2,0c0.4,0,0.8,0,1,0c0.3,0,0.5,0,0.7,0.1s0.4,0,0.5,0.1
		C1982.5,1047.8,1982.7,1047.8,1982.9,1047.9z M1980.2,1055.3c0-0.1,0.1-0.2,0.1-0.3c0-0.1,0-0.2-0.1-0.4c0-0.1,0-0.2-0.1-0.4
		c0-0.1,0-0.3,0-0.4c0-0.1,0-0.2,0-0.3c0,0-0.1-0.1-0.1-0.2c-0.2-0.3-0.5-0.6-0.9-0.7c0,0,0,0-0.1,0h0c0,0-0.1,0-0.1,0.1
		c0,0.1,0,0.3-0.1,0.6c0,0.2,0,0.5-0.1,0.8c0,0.3,0,0.6,0,1s0,0.6,0,0.8c0,0.2,0,0.3,0.1,0.3c0.3,0,0.6-0.1,0.8-0.3
		C1979.8,1055.7,1980.1,1055.5,1980.2,1055.3L1980.2,1055.3z"/>
</g>
</svg>
