<svg xmlns="http://www.w3.org/2000/svg" width="266" height="15" viewBox="0 0 266 15">
  <g id="Gruppe_7027" data-name="Gruppe 7027" transform="translate(-421 -365)">
    <rect id="Rechteck_2551" data-name="Rechteck 2551" width="266" height="15" transform="translate(421 365)" fill="#1a1a1a"/>
    <rect id="Rechteck_2931" data-name="Rechteck 2931" width="250" height="15" transform="translate(421 365)" fill="#2e2e2e"/>
    <path id="Pfad_4037" data-name="Pfad 4037" d="M3.4-7.462h.287a1.258,1.258,0,0,0,.2-.014q.126-.014.238-.021t.2-.007a.876.876,0,0,1,.63.182.358.358,0,0,1,.084.161.893.893,0,0,1-.014.259A.529.529,0,0,0,5-6.734q0,.084.014.28A2.3,2.3,0,0,1,5-6.034a.838.838,0,0,1-.077.252.465.465,0,0,1-.119.161.333.333,0,0,1-.2.049H4.5a.623.623,0,0,1-.119-.014q-.07-.014-.133-.021a1.08,1.08,0,0,0-.119-.007A1.205,1.205,0,0,0,4-5.607l-.175.021a1.963,1.963,0,0,1-.21.014H3.458A1.021,1.021,0,0,1,3.2-5.6a2.422,2.422,0,0,1-.3-.112,1.772,1.772,0,0,0-.315-.119,1.223,1.223,0,0,0-.329-.049.308.308,0,0,0-.119.084.186.186,0,0,0-.049.126q0,.056.007.161t.021.217q.014.112.028.2a.859.859,0,0,1,.014.112q.028.056.07.056a.981.981,0,0,0,.3.035l.791.021q.238,0,.385.007t.231.014q.084.007.133.014a.52.52,0,0,1,.091.021,1.135,1.135,0,0,1,.462.238,2.138,2.138,0,0,1,.364.49q.168.294.259.49a1.7,1.7,0,0,1,.126.364,1.241,1.241,0,0,1,.021.35q-.014.182-.056.462a1.475,1.475,0,0,0-.021.2q-.007.126-.021.238A2.308,2.308,0,0,1,4.5-.448a2.68,2.68,0,0,1-1.673.56Q2.59.112,2.485.1T2.142.056Q2.016.042,1.932.028T1.757.007Q1.666,0,1.554,0H1.26Q.9,0,.812-.007A.271.271,0,0,1,.686-.042.353.353,0,0,1,.525-.308,1.3,1.3,0,0,1,.546-.784a1.348,1.348,0,0,0,.042-.28,1,1,0,0,0-.042-.252A1.294,1.294,0,0,1,.5-1.806Q.532-2.03.63-2.072A.215.215,0,0,1,.714-2.1a.537.537,0,0,1,.21.07,1.237,1.237,0,0,0,.217.077,1.054,1.054,0,0,0,.231.021h.119a.909.909,0,0,0,.147-.014,1.205,1.205,0,0,0,.133-.007A1.08,1.08,0,0,1,1.89-1.96q.084,0,.168.007t.182.021a.712.712,0,0,0,.14.014h.14a1.939,1.939,0,0,0,.273-.021,1.063,1.063,0,0,0,.287-.084.7.7,0,0,0,.231-.161A.376.376,0,0,0,3.4-2.45.4.4,0,0,0,3.367-2.6a1.184,1.184,0,0,0-.077-.154.457.457,0,0,0-.217-.154A2.069,2.069,0,0,0,2.758-3a2.8,2.8,0,0,0-.329-.049q-.161-.014-.273-.014a.743.743,0,0,0-.1.007.646.646,0,0,1-.091.007H.91a2.821,2.821,0,0,1-.455-.021.256.256,0,0,1-.147-.091.384.384,0,0,1-.021-.049.571.571,0,0,1-.014-.1,1.855,1.855,0,0,1,0-.231Q.28-3.7.28-3.976.294-4.284.3-4.62t.021-.5A3.6,3.6,0,0,0,.35-5.537q0-.175-.014-.455-.014-.2-.014-.4v-.315A1.611,1.611,0,0,1,.371-7.1a.483.483,0,0,1,.245-.308.73.73,0,0,1,.147-.035q.063-.007.371-.021.168-.014.378-.014h.994q.28,0,.588.014ZM7.35-6.8q.14-.182.308-.364a1.983,1.983,0,0,1,.21-.21.993.993,0,0,1,.259-.084A1.465,1.465,0,0,1,8.4-7.49a1.526,1.526,0,0,1,.392.056q.112.028.161.035a.859.859,0,0,0,.119.007h.091a.623.623,0,0,0,.119-.014q.112,0,.2-.007t.154-.007a.565.565,0,0,1,.28.042A.225.225,0,0,1,10-7.294a.193.193,0,0,1,.035.1q0,.182-.826,1.036-.154.154-.266.28a1.576,1.576,0,0,0-.182.245q-.07.119-.126.238t-.112.273a1.488,1.488,0,0,1-.14.35,2.82,2.82,0,0,1-.238.308q-.21.252-.182.28h.028a.1.1,0,0,0,.042-.007A.062.062,0,0,1,8.064-4.2a1,1,0,0,1,.2-.021q.161-.007.343-.007h.252a1.227,1.227,0,0,1,.6.1,1.365,1.365,0,0,1,.385.427q.182.266.3.469t.2.357a1.985,1.985,0,0,1,.119.287,2.6,2.6,0,0,1,.07.273,1.58,1.58,0,0,1,.007.574,2.263,2.263,0,0,1-.182.581,2.3,2.3,0,0,1-.343.532,2.105,2.105,0,0,1-.476.413,1.886,1.886,0,0,1-.476.238A1.739,1.739,0,0,1,8.54.1.409.409,0,0,1,8.4.084a1.912,1.912,0,0,1-.252-.1,1.163,1.163,0,0,1-.133-.063.227.227,0,0,0-.091-.035.549.549,0,0,0-.168-.014H7.434q-.322,0-.406-.007A.719.719,0,0,1,6.86-.168a1.5,1.5,0,0,1-.532-.364,2.189,2.189,0,0,1-.483-.637A1.687,1.687,0,0,1,5.7-1.89v-.238a1.423,1.423,0,0,1,.014-.224q.014-.1.021-.315t.007-.427a4.054,4.054,0,0,1,.035-.567,2.388,2.388,0,0,1,.112-.462,2.837,2.837,0,0,1,.2-.441q.126-.224.294-.49.2-.336.3-.532t.2-.42q.126-.28.217-.441A2.9,2.9,0,0,1,7.35-6.8ZM7.7-2.52a.67.67,0,0,0-.112.35.668.668,0,0,0,.126.35.364.364,0,0,0,.308.2.491.491,0,0,0,.154-.028,1.09,1.09,0,0,0,.182-.119.708.708,0,0,0,.154-.161.794.794,0,0,0,.112-.245.466.466,0,0,0,.028-.2.95.95,0,0,0-.126-.266A.281.281,0,0,0,8.288-2.8a.893.893,0,0,0-.392.126A.819.819,0,0,0,7.7-2.52ZM17.962-6.748a.5.5,0,0,0-.042.126.969.969,0,0,1-.028.112,1.429,1.429,0,0,1-.364.63,2.731,2.731,0,0,0-.266.294,1.563,1.563,0,0,0-.126.21.959.959,0,0,1-.161.224,2.181,2.181,0,0,1-.189.182l-.07.021a.294.294,0,0,1-.07.007A.67.67,0,0,1,16.359-5a1.337,1.337,0,0,1-.259-.168q-.154-.112-.322-.231a1.43,1.43,0,0,0-.238-.147.425.425,0,0,0-.126-.014q-.224,0-.28.1a.371.371,0,0,0-.014.182.647.647,0,0,0,.182.406,1.857,1.857,0,0,0,.413.329,3.135,3.135,0,0,0,.5.245q.259.1.441.154.224.056.378.105a1.86,1.86,0,0,1,.266.105q.112.056.2.112T17.7-3.7a1.885,1.885,0,0,1,.315.4,3.4,3.4,0,0,1,.259.5,2.224,2.224,0,0,1-.084,1.372,2.811,2.811,0,0,1-.784,1.2,2.468,2.468,0,0,1-.42.343,1.83,1.83,0,0,1-.434.2,2.2,2.2,0,0,1-.469.091q-.245.021-.539.021a1.946,1.946,0,0,1-.3-.028q-.175-.028-.35-.07t-.336-.1A2.329,2.329,0,0,1,14.28.126l-.2-.133A1.607,1.607,0,0,1,13.86-.2a3.572,3.572,0,0,0-.6-.406,1.06,1.06,0,0,1-.343-.231.4.4,0,0,1-.105-.273.467.467,0,0,1,.063-.245,1.1,1.1,0,0,1,.259-.259q.07-.056.133-.112t.091-.084q.028-.028.1-.119a1.747,1.747,0,0,0,.147-.2,1.62,1.62,0,0,1,.2-.287.833.833,0,0,1,.217-.147l.091-.028A.333.333,0,0,1,14.21-2.6a.1.1,0,0,0,.042-.007.1.1,0,0,1,.042-.007.187.187,0,0,1,.133.063q.063.063.2.217a3.27,3.27,0,0,0,.5.49.72.72,0,0,0,.42.126.36.36,0,0,0,.322-.126A.559.559,0,0,0,16-2.135a.569.569,0,0,0-.014-.287.631.631,0,0,0-.049-.077.42.42,0,0,0-.091-.091,1.77,1.77,0,0,0-.154-.133l-.2-.161q-.105-.084-.189-.154a.472.472,0,0,0-.126-.084q-.028-.014-.154-.056t-.28-.1q-.266-.1-.441-.168a1.894,1.894,0,0,1-.308-.154,1.5,1.5,0,0,1-.259-.21,4.164,4.164,0,0,1-.294-.336,2.821,2.821,0,0,1-.322-.49,1.189,1.189,0,0,1-.1-.434,1.225,1.225,0,0,1,.014-.322,3.126,3.126,0,0,1,.112-.406L13.2-6.02a1.77,1.77,0,0,0,.042-.252,1.683,1.683,0,0,1,.224-.707,1.592,1.592,0,0,1,.469-.5,2.268,2.268,0,0,1,.644-.3,2.591,2.591,0,0,1,.735-.105,3.036,3.036,0,0,1,.707.07,2.642,2.642,0,0,1,.623.252A1.862,1.862,0,0,0,17-7.4a4.286,4.286,0,0,0,.434.1,2.875,2.875,0,0,1,.434.1.212.212,0,0,1,.14.154.243.243,0,0,1,.007.1Q18-6.9,17.962-6.748Zm3.584,1.036a.375.375,0,0,1-.14.028H21.14a.649.649,0,0,1-.126-.014.055.055,0,0,1-.035-.007.029.029,0,0,0-.021-.007.115.115,0,0,0-.07.042.263.263,0,0,0-.07.154,2.571,2.571,0,0,0-.014.322q0,.126-.007.252t-.021.224q-.014.084-.021.147t.007.077.168.014q.182,0,.455-.021t.427-.049a1.409,1.409,0,0,1,.35-.056.491.491,0,0,1,.154.028.258.258,0,0,1,.1.14.951.951,0,0,1-.014.266,2.282,2.282,0,0,0-.028.273,1.338,1.338,0,0,0,.042.259q.14.574-.154.756a.466.466,0,0,1-.252.07.589.589,0,0,1-.14-.014,1.368,1.368,0,0,0-.168-.021q-.1-.007-.224-.007-.224,0-.441.021a.529.529,0,0,0-.259.063.526.526,0,0,0-.049.056.093.093,0,0,0-.021.056.174.174,0,0,0-.007.091q.007.063.021.133t.028.168a1.215,1.215,0,0,1,.014.168l.014.182.07.028a.24.24,0,0,0,.1.014,3.614,3.614,0,0,0,.56-.084q.252-.056.4-.084a1.465,1.465,0,0,1,.273-.028,1.08,1.08,0,0,1,.119.007q.063.007.133.021a1,1,0,0,0,.217.035q.119.007.189.007a1.049,1.049,0,0,1,.364.049.445.445,0,0,1,.21.175.279.279,0,0,1,.07.182,1.187,1.187,0,0,1-.056.294,1.673,1.673,0,0,0-.056.672,1.073,1.073,0,0,1,.035.294.628.628,0,0,1-.049.21.626.626,0,0,1-.315.294,1.062,1.062,0,0,1-.441.1.743.743,0,0,1-.084-.007q-.056-.007-.126-.021-.112-.014-.35-.049T21.63.126Q21.56.112,21.49.1T21.35.1q-.084,0-.175.007t-.2.021a1.365,1.365,0,0,1-.266.035q-.154.007-.266.021T20.209.2a1.44,1.44,0,0,0-.189.021,1.368,1.368,0,0,1-.168.021q-.1.007-.2.007a1.412,1.412,0,0,1-.553-.1.86.86,0,0,1-.4-.406A.657.657,0,0,1,18.655-.4q-.007-.049-.021-.231,0-.154.014-.364t.056-.644q0-.28-.014-.546a2.872,2.872,0,0,0-.084-.546q-.056-.224-.084-.385t-.042-.308a1.7,1.7,0,0,1,0-.308q.014-.161.042-.371t.063-.511q.035-.315.063-.511a3.191,3.191,0,0,0-.182-1.12,1.783,1.783,0,0,1-.056-.546,1.084,1.084,0,0,1,.308-.714.615.615,0,0,1,.154-.14.868.868,0,0,1,.2-.056q.2,0,.364.014t.364.042q.2.042.315.063l.21.035a1.242,1.242,0,0,0,.189.014h.252q.308-.014.6-.035t.7-.077q.224-.028.378-.042t.28-.014a.712.712,0,0,1,.483.133.674.674,0,0,1,.161.483q.014.1.021.224a.818.818,0,0,0,.035.21,1.019,1.019,0,0,1-.042.658.651.651,0,0,1-.644.392,1.256,1.256,0,0,1-.259-.028l-.259-.056a1.574,1.574,0,0,0-.406-.056h-.133A.358.358,0,0,0,21.546-5.712Zm6.1,1.89q-.14-.056-.371-.168a.455.455,0,0,1-.273-.28,1.3,1.3,0,0,1-.042-.287,1.065,1.065,0,0,1,.014-.315A.512.512,0,0,0,27.006-5a1.469,1.469,0,0,1,.042-.2,3.5,3.5,0,0,0,.07-.5.308.308,0,0,0-.1-.224.253.253,0,0,0-.21-.112.055.055,0,0,0-.035.007.055.055,0,0,1-.035.007.715.715,0,0,0-.329.126.812.812,0,0,0-.217.238,1.307,1.307,0,0,0-.133.308,2.9,2.9,0,0,0-.077.336,2.17,2.17,0,0,0-.021.4A1.944,1.944,0,0,0,26-4.27a1.24,1.24,0,0,0,.056.182,2.332,2.332,0,0,0,.1.224A2.545,2.545,0,0,1,26.3-3.5a1.584,1.584,0,0,1,.049.28,1.054,1.054,0,0,1-.014.294q-.028.154-.1.42a1.743,1.743,0,0,0-.077.371.828.828,0,0,0,.021.245.446.446,0,0,0,.182.238.5.5,0,0,0,.294.1.252.252,0,0,0,.112-.021.5.5,0,0,0,.112-.091.356.356,0,0,0,.084-.084A.257.257,0,0,0,27-1.869q.007-.077.007-.189v-.623a1.008,1.008,0,0,1,.014-.189A.308.308,0,0,1,27.076-3a1.051,1.051,0,0,1,.1-.112.726.726,0,0,1,.3-.189,1.775,1.775,0,0,1,.483-.049q.112,0,.266-.007t.266-.021q.112-.014.2-.021t.161-.007a.994.994,0,0,1,.364.056.282.282,0,0,1,.126.112.375.375,0,0,1,.077.182,3.293,3.293,0,0,1-.007.35q-.014.392-.007.588a1.777,1.777,0,0,0,.077.434,1.6,1.6,0,0,1,.049.294.884.884,0,0,1-.035.28,2.939,2.939,0,0,1-.112.49,1.1,1.1,0,0,1-.28.42,1.061,1.061,0,0,1-.294.238.816.816,0,0,1-.364.07A1.311,1.311,0,0,1,28.238.1Q28.154.084,28,.042L27.748,0a1.8,1.8,0,0,0-.266-.014,2.935,2.935,0,0,0-.427.028,2.745,2.745,0,0,0-.413.1,2.6,2.6,0,0,1-.714.154.623.623,0,0,1-.119.014h-.168A.286.286,0,0,1,25.55.266a1.242,1.242,0,0,1-.924-.574,5.142,5.142,0,0,0-.42-.518,1.053,1.053,0,0,1-.245-.4,1.935,1.935,0,0,1-.063-.553,2.6,2.6,0,0,1,.014-.315q.014-.1.07-.4t.1-.5q.028-.189.035-.336a1.949,1.949,0,0,0-.007-.287q-.014-.14-.042-.35l-.042-.357a3.153,3.153,0,0,1-.014-.343q0-.154.007-.35t.021-.385q.014-.189.028-.343a1.643,1.643,0,0,1,.028-.21q.028-.084.07-.2a1.932,1.932,0,0,1,.14-.28q.028-.056.077-.175t.147-.371a1.04,1.04,0,0,1,.462-.518,1.073,1.073,0,0,1,.189-.077A1.4,1.4,0,0,1,25.4-7.6q.056-.014.126-.028a.312.312,0,0,0,.112-.042l.112-.056.546-.014a5.368,5.368,0,0,1,.812.056q.364.056.8.168.2.028.441.084a2.164,2.164,0,0,1,.462.161,1.086,1.086,0,0,1,.364.28.662.662,0,0,1,.147.441,1.532,1.532,0,0,1-.014.182,1.889,1.889,0,0,1-.042.224,1.81,1.81,0,0,0-.049.532,1.485,1.485,0,0,0,.147.462,1.932,1.932,0,0,1,.084.2.651.651,0,0,1,.014.161.651.651,0,0,1-.014.161q-.014.049-.042.133a1.276,1.276,0,0,1-.35.427,2.054,2.054,0,0,1-.49.273.392.392,0,0,1-.147.028h-.287q-.224,0-.294-.007A.766.766,0,0,1,27.65-3.822ZM32.1-7.616a1.637,1.637,0,0,0,.434-.042q.07-.014.126-.021a1.023,1.023,0,0,1,.126-.007,1.807,1.807,0,0,1,.336.042q.112.028.3.07t.357.084l.56.126a1.08,1.08,0,0,1,.672.56,1.876,1.876,0,0,1,.154.483,2.746,2.746,0,0,1,.014.637q-.014.154-.014.329v.287q0,.1.007.168a.612.612,0,0,0,.028.133q.021.063.049.14a1.861,1.861,0,0,0,.084.189,1.918,1.918,0,0,1,.112.322,1.407,1.407,0,0,1,.014.364q-.014.112-.021.231a.74.74,0,0,1-.021.161l-.1.588a6.648,6.648,0,0,1-.371,1.484A2.776,2.776,0,0,1,34.062-.07a2.714,2.714,0,0,1-.4.224,1.078,1.078,0,0,1-.441.084.641.641,0,0,1-.168-.014A.731.731,0,0,1,32.921.2q-.1-.028-.245-.056L32.34.056H32q-.266,0-.455-.014a1.12,1.12,0,0,1-.343-.077.8.8,0,0,1-.28-.2A1.7,1.7,0,0,1,30.674-.6q-.056-.1-.126-.217a1.527,1.527,0,0,0-.14-.2,3.127,3.127,0,0,1-.252-.42A2.146,2.146,0,0,1,30-1.82a2.854,2.854,0,0,1-.056-.56q-.014-.406,0-.938.014-.49.056-.847a6.5,6.5,0,0,1,.14-.763l.07-.329q.028-.133.049-.238a1.619,1.619,0,0,0,.028-.21q.007-.105.007-.259t.007-.273a1.078,1.078,0,0,1,.028-.189.821.821,0,0,1,.063-.168l.1-.2a1.116,1.116,0,0,1,.672-.637A3.455,3.455,0,0,1,32.1-7.616Zm.014,4.452a2.644,2.644,0,0,0,.126,1.358.854.854,0,0,0,.1.175.228.228,0,0,0,.189.1.585.585,0,0,0,.1-.028.49.49,0,0,0,.161-.126.809.809,0,0,0,.133-.182q.042-.1.077-.2a1.469,1.469,0,0,0,.056-.245,3,3,0,0,0,.028-.329q.007-.189.007-.455,0-.224.007-.385t.014-.294a2.314,2.314,0,0,1,.028-.259q.021-.126.049-.28t.042-.245A1.688,1.688,0,0,0,33.25-4.8a1.025,1.025,0,0,0-.07-.427,1.25,1.25,0,0,0-.28-.343q-.07-.056-.126-.105L32.7-5.74a.115.115,0,0,0-.07-.042.585.585,0,0,0-.1.028,1.027,1.027,0,0,0-.392.714A1.689,1.689,0,0,0,32.1-4.7a3.151,3.151,0,0,0,.021.441A4.274,4.274,0,0,1,32.116-3.164Zm7.28.6a.663.663,0,0,0,.035.119s.012,0,.021-.021a.291.291,0,0,0,.014-.112,1.605,1.605,0,0,1,.014-.2q0-.1.014-.28t.028-.35a6.915,6.915,0,0,0,.021-.693,2.735,2.735,0,0,0-.049-.525q-.042-.224-.063-.35T39.4-5.236q-.014-.14-.014-.357V-6.867a3.241,3.241,0,0,1,.014-.35.405.405,0,0,1,.042-.161.679.679,0,0,1,.084-.1.376.376,0,0,1,.2-.126,1.682,1.682,0,0,1,.357-.028q.112,0,.273-.007t.273-.021a2.39,2.39,0,0,1,.364-.028h.364a.775.775,0,0,1,.217.035.235.235,0,0,1,.161.133.257.257,0,0,1,.035.119q.007.077.007.455.014.21.014.441a3.037,3.037,0,0,0,.014.343q.014.21.021.392a3.448,3.448,0,0,1-.007.378q-.014.2-.035.42t-.063.5q-.056.35-.07.553a4.862,4.862,0,0,0,0,.525q.042.8.063,1.358t.007.938q0,.336-.021.56a2.092,2.092,0,0,1-.063.371.809.809,0,0,1-.1.238.659.659,0,0,1-.161.161A.472.472,0,0,1,41.1.322,1.574,1.574,0,0,1,40.74.266q-.2-.056-.315-.077a1.329,1.329,0,0,0-.231-.021,1.205,1.205,0,0,0-.133.007Q40,.182,39.914.2l-.161.021a.981.981,0,0,1-.1.007A.155.155,0,0,1,39.6.217.155.155,0,0,0,39.55.21a.531.531,0,0,1-.189-.056.388.388,0,0,1-.14-.147,1.819,1.819,0,0,1-.133-.294q-.07-.189-.168-.5-.056-.21-.1-.35t-.084-.245a1.445,1.445,0,0,0-.077-.189q-.042-.084-.112-.2l-.168-.294q-.028,0-.028.182a3.773,3.773,0,0,0,.007.5q.021.322.049.63a2.12,2.12,0,0,1,.014.637.426.426,0,0,1-.21.287A.416.416,0,0,1,38,.238,1.566,1.566,0,0,1,37.73.2a1.5,1.5,0,0,0-.336-.042,1,1,0,0,0-.21.021q-.1.021-.252.063a1.545,1.545,0,0,1-.49.084A.657.657,0,0,1,36.12.245a.3.3,0,0,1-.14-.287V-1.134q0-.238.007-.385T36-1.771q.007-.105.021-.245a5.693,5.693,0,0,0,.042-.644,5,5,0,0,0-.042-.616,5.524,5.524,0,0,1-.07-.581,2.773,2.773,0,0,1,.014-.483q.042-.532.049-.9t-.021-.791l-.056-.826q-.014-.112-.021-.231T35.91-7.28a.679.679,0,0,1,.007-.126.234.234,0,0,1,.063-.084l.168-.112a.124.124,0,0,1,.056-.035q.028-.007.077-.014t.133-.014q.084-.007.252-.007Q37-7.686,37.2-7.7t.49-.056a.943.943,0,0,1,.154-.014h.14a.784.784,0,0,1,.294.042l.182.154a.422.422,0,0,1,.091.119,1.128,1.128,0,0,1,.049.175q.042.2.084.469t.07.637q.028.294.049.5t.056.385q.035.175.084.343a3.222,3.222,0,0,0,.133.364q.07.2.112.336a2.079,2.079,0,0,1,.063.273q.021.133.035.287t.028.392q.014.266.035.42T39.4-2.562Zm5.292-5.18a3.815,3.815,0,0,1,.392.147q.21.091.546.245.168.084.343.154l.245.1a2.037,2.037,0,0,1,.259.112,1.117,1.117,0,0,1,.182.119.745.745,0,0,1,.14.154,1.92,1.92,0,0,1,.133.231,5.326,5.326,0,0,1,.336.763,4.988,4.988,0,0,1,.21.8,4.679,4.679,0,0,1,0,2.1,3.655,3.655,0,0,1-.357.889,4.459,4.459,0,0,1-.525.763q-.126.14-.217.252t-.2.28a1.756,1.756,0,0,1-.182.245,1.01,1.01,0,0,1-.224.175,1.311,1.311,0,0,1-.455.189,5.823,5.823,0,0,1-.777.1q-.364.042-.553.07a2.029,2.029,0,0,0-.385.1,2.057,2.057,0,0,1-.315.091,1.2,1.2,0,0,1-.2.021.587.587,0,0,1-.5-.252,1.007,1.007,0,0,1-.091-.448,3.12,3.12,0,0,1,.063-.658q.028-.182.035-.28t.007-.364q0-.35-.021-.623t-.077-.595q-.056-.308-.077-.532a3.509,3.509,0,0,1-.014-.441,3.219,3.219,0,0,1,.049-.455q.042-.238.112-.574.042-.182.056-.28a2.413,2.413,0,0,0,.014-.308,2.981,2.981,0,0,0-.014-.329q-.014-.119-.056-.385a3.917,3.917,0,0,1-.077-.581,1.139,1.139,0,0,1,.035-.357.9.9,0,0,1,.147-.28,1.3,1.3,0,0,1,.2-.238,1.316,1.316,0,0,1,.28-.126,1.437,1.437,0,0,1,.336-.07h.6q.28.028.385.035A1.233,1.233,0,0,1,44.688-7.742Zm0,2.17q-.07,0-.084.112a.7.7,0,0,0-.021.154q-.007.112-.007.273t.007.336q.007.175.021.329a5.488,5.488,0,0,1,.035.749q-.007.4-.035.679t-.056.588a1.633,1.633,0,0,0,.014.406q.07.336.238.336a.7.7,0,0,0,.126-.056,1,1,0,0,0,.245-.245,1.035,1.035,0,0,0,.175-.315.9.9,0,0,0,.021-.259,2.391,2.391,0,0,0-.077-.427,4.484,4.484,0,0,1-.084-.511,1.366,1.366,0,0,1,.056-.441q.07-.28.091-.42a1.672,1.672,0,0,0,.007-.35q-.014-.182-.035-.35a.873.873,0,0,0-.091-.3.531.531,0,0,0-.2-.21A.671.671,0,0,0,44.688-5.572Zm8.12-1.176a.5.5,0,0,0-.042.126.969.969,0,0,1-.028.112,1.429,1.429,0,0,1-.364.63,2.731,2.731,0,0,0-.266.294,1.564,1.564,0,0,0-.126.21.959.959,0,0,1-.161.224,2.181,2.181,0,0,1-.189.182l-.07.021a.294.294,0,0,1-.07.007A.67.67,0,0,1,51.205-5a1.337,1.337,0,0,1-.259-.168q-.154-.112-.322-.231a1.43,1.43,0,0,0-.238-.147.425.425,0,0,0-.126-.014q-.224,0-.28.1a.371.371,0,0,0-.014.182.647.647,0,0,0,.182.406,1.857,1.857,0,0,0,.413.329,3.135,3.135,0,0,0,.5.245q.259.1.441.154.224.056.378.105a1.86,1.86,0,0,1,.266.105q.112.056.2.112t.189.126a1.885,1.885,0,0,1,.315.4,3.4,3.4,0,0,1,.259.5,2.224,2.224,0,0,1-.084,1.372,2.811,2.811,0,0,1-.784,1.2,2.468,2.468,0,0,1-.42.343,1.83,1.83,0,0,1-.434.2,2.2,2.2,0,0,1-.469.091q-.245.021-.539.021a1.946,1.946,0,0,1-.3-.028q-.175-.028-.35-.07T49.4.238a2.329,2.329,0,0,1-.273-.112l-.2-.133A1.607,1.607,0,0,1,48.706-.2,3.571,3.571,0,0,0,48.1-.6a1.06,1.06,0,0,1-.343-.231.4.4,0,0,1-.1-.273.467.467,0,0,1,.063-.245,1.1,1.1,0,0,1,.259-.259q.07-.056.133-.112t.091-.084q.028-.028.105-.119a1.747,1.747,0,0,0,.147-.2,1.62,1.62,0,0,1,.2-.287.833.833,0,0,1,.217-.147l.091-.028a.333.333,0,0,1,.091-.014.1.1,0,0,0,.042-.007.1.1,0,0,1,.042-.007.187.187,0,0,1,.133.063q.063.063.2.217a3.27,3.27,0,0,0,.5.49.72.72,0,0,0,.42.126.36.36,0,0,0,.322-.126.559.559,0,0,0,.126-.287.569.569,0,0,0-.014-.287.631.631,0,0,0-.049-.077.42.42,0,0,0-.091-.091,1.77,1.77,0,0,0-.154-.133l-.2-.161q-.1-.084-.189-.154a.472.472,0,0,0-.126-.084q-.028-.014-.154-.056t-.28-.1q-.266-.1-.441-.168a1.894,1.894,0,0,1-.308-.154,1.5,1.5,0,0,1-.259-.21,4.164,4.164,0,0,1-.294-.336,2.821,2.821,0,0,1-.322-.49,1.189,1.189,0,0,1-.1-.434,1.225,1.225,0,0,1,.014-.322,3.126,3.126,0,0,1,.112-.406l.056-.224a1.771,1.771,0,0,0,.042-.252,1.683,1.683,0,0,1,.224-.707,1.592,1.592,0,0,1,.469-.5,2.268,2.268,0,0,1,.644-.3,2.591,2.591,0,0,1,.735-.105,3.036,3.036,0,0,1,.707.07,2.642,2.642,0,0,1,.623.252,1.862,1.862,0,0,0,.35.161,4.286,4.286,0,0,0,.434.1,2.875,2.875,0,0,1,.434.1.212.212,0,0,1,.14.154.243.243,0,0,1,.007.1Q52.85-6.9,52.808-6.748Z" transform="translate(528 376)" fill="#6e6e6e"/>
  </g>
</svg>
