<?xml version="1.0" encoding="UTF-8"?>
<svg id="Ebene_1" data-name="Ebene 1" xmlns="http://www.w3.org/2000/svg" viewBox="0 0 43 43">
  <defs>
    <style>
      .cls-1 {
        fill: #00ff7e;
      }

      .cls-2 {
        fill: #258b00;
      }
    </style>
  </defs>
  <g id="Gruppe_7006" data-name="Gruppe 7006">
    <circle id="Ellipse_16" data-name="Ellipse 16" class="cls-1" cx="21.5" cy="21.5" r="21.5"/>
    <path id="Pfad_3991-2" data-name="Pfad 3991-2" class="cls-2" d="m16.86,27.53c-.15-.17-.35-.43-.61-.78-.26-.35-.44-.61-.54-.78-.01-.03-.04-.06-.06-.08s-.05-.05-.06-.08c0-.02-.01-.05-.03-.06-.02,0-.07.1-.16.3s-.18.43-.29.69l-.24.53c-.09.17-.2.33-.34.46-.34.36-.6.66-.77.88s-.37.52-.61.88c-.21.3-.37.52-.47.66-.06.1-.15.2-.24.27l-.19.1-1.72.03c-.49,0-.94,0-1.36-.01-.42,0-.69-.01-.82-.02-.66-.07-1.03-.21-1.12-.42-.11-.15-.07-.38.1-.69.24-.4.52-.76.83-1.1.53-.59,1.02-1.21,1.47-1.86.51-.73,1.01-1.49,1.5-2.3.13-.21.27-.44.42-.69.15-.25.28-.45.39-.63.09-.18.19-.35.3-.51.12-.17.21-.3.27-.38.12-.12.22-.26.29-.42.02-.02-.02-.15-.13-.38-.16-.24-.3-.48-.43-.74-.1-.19-.21-.44-.34-.74-.17-.36-.31-.64-.42-.83-.16-.27-.33-.52-.51-.77-.11-.15-.22-.32-.35-.51-.13-.19-.25-.36-.35-.51-.11-.15-.21-.3-.32-.46l-.22-.34-.32-.4c-.13-.16-.25-.32-.37-.48-.12-.16-.22-.3-.3-.43l-.19-.29c-.05-.07-.08-.14-.1-.22-.02-.09-.06-.17-.1-.26l-.08-.24c-.03-.09-.07-.18-.11-.27-.13-.28-.14-.48-.03-.61.07-.09.27-.13.61-.13.16,0,.32,0,.48.03.11.02.22.04.34.05.12.01.24.02.37.02.54,0,1.08-.08,1.6-.22.16-.04.32-.07.48-.1.15-.02.31-.04.48-.06.15,0,.31,0,.46.02.08.01.16.04.24.08.12.04.23.12.3.22.11.19.21.4.27.61.14.4.3.8.48,1.18.15.3.35.66.61,1.09.15.23.29.47.42.7.09.17.18.34.26.51.04.11.09.23.14.37.05.14.1.26.14.37l.16.32.1-.13c.6-.75,1.05-1.61,1.31-2.53.17-.43.31-.77.43-1.02.12-.26.28-.57.5-.93.15-.27.33-.52.53-.75.15-.13.34-.19.53-.18h.26c.11,0,.21.01.32.03.17.02.32.04.45.05.13.01.27.02.42.02.39,0,.77-.04,1.15-.1.14-.04.29-.06.44-.05h.72c.08,0,.16.01.22.06.08.04.15.1.21.18.04.09.05.18.05.27-.02.18-.07.35-.16.5-.11.22-.29.55-.54.98-.26.41-.44.71-.54.93-.12.25-.23.51-.32.77-.07.28-.17.56-.29.83-.11.24-.23.47-.37.69-.15.24-.33.48-.51.7-.2.25-.46.55-.78.91-.3.36-.55.68-.77.96-.23.31-.45.63-.64.96-.11.16-.21.33-.3.5-.03.05-.04.12-.02.18.06.1.13.2.21.3l.43.59c.15.19.27.35.37.46.1.12.2.24.32.37l.38.42c.14.15.31.34.53.58.13.12.25.26.35.4.09.13.18.26.26.4.19.34.35.63.48.86.13.23.25.43.35.59.11.16.21.31.3.45s.22.31.37.5c.11.11.23.24.38.4.13.14.27.28.42.4.39.32.65.78.74,1.28,0,.13-.04.26-.14.35-.1.09-.22.15-.35.19-.14.04-.29.07-.43.08-.15.01-.28.02-.38.02s-.22,0-.34-.01c-.12-.01-.26-.03-.43-.05-.3-.04-.55-.07-.77-.08s-.42-.02-.61-.02c-.15,0-.3,0-.45.02-.15.01-.33.03-.54.05-.27.05-.55.09-.83.1-.09,0-.18-.01-.27-.04-.07-.02-.14-.06-.21-.1-.24-.23-.39-.53-.45-.86-.09-.34-.22-.68-.38-.99-.22-.37-.47-.72-.77-1.03Zm18.75-10.01c.04.21.08.41.1.59.02.27,0,.55-.03.82-.02.19-.03.37-.02.56.01.14.04.34.08.59.04.36.07.68.08.96.01.25,0,.49-.05.74-.1.58-.38,1.12-.8,1.54-.42.42-.93.73-1.5.9-.21.07-.37.12-.48.16-.12.05-.23.13-.32.22-.42.32-.88.6-1.36.82-.49.2-1.02.29-1.55.27-.14,0-.28-.02-.42-.06-.05-.02-.1-.03-.16-.03v.37c0,.25.01.53.03.85s.04.63.05.93c0,.21.02.43.05.64.03.14.04.29.05.43.01.18.02.35.02.5.02.32-.05.64-.21.93-.22.25-.55.37-.88.32h-.24c-.09,0-.19-.02-.28-.04-.11,0-.3,0-.59-.02l-.88-.03c-.3-.01-.58-.03-.83-.05-.16,0-.33-.04-.48-.1-.28-.16-.5-.42-.61-.73-.07-.13-.12-.25-.16-.35-.05-.12-.08-.24-.1-.37-.02-.14-.04-.31-.05-.53-.01-.21-.02-.49-.02-.83-.02-.34-.04-.7-.05-1.09,0-.29-.03-.58-.08-.86-.05-.51-.06-1.01-.05-1.52.01-.63.06-1.25.14-1.87.04-.51.08-.94.11-1.28s.05-.67.05-.99-.01-.66-.03-1.02c-.02-.36-.05-.8-.1-1.31-.02-.38-.04-.78-.06-1.2-.02-.42-.04-.82-.05-1.2-.01-.34,0-.67.02-1.01.01-.2.03-.4.06-.59.08-.31.23-.6.45-.83.09-.12.23-.2.38-.22.11-.02.21-.03.32-.03h1.14c.31,0,.62,0,.94.02.32.01.62.03.9.06.21.02.41.06.61.11.1.05.21.07.32.06h.8c.12,0,.24,0,.35-.03l.9-.1c.09,0,.18,0,.27-.02.07-.01.14-.02.21-.02.56,0,1.11.18,1.57.51.46.33.77.82.86,1.38.04.1.07.2.1.3.02.07.03.14.03.21.18.42.43.81.74,1.15.17.22.32.45.45.69.12.23.2.48.25.73Zm-5.63,3.42c.16-.1.31-.21.45-.34.14-.13.25-.29.32-.46.1-.16.15-.34.16-.53-.01-.24-.05-.48-.1-.72-.07-.26-.11-.44-.13-.56-.02-.22-.02-.44,0-.66,0-.24,0-.48-.03-.72-.03-.13-.09-.25-.19-.34-.07-.08-.18-.13-.29-.13-.15,0-.3.03-.45.08-.13.02-.25.07-.35.14-.04.04-.03.2.03.48.04.26.08.49.1.69.02.21.03.43.02.64-.01.25-.04.5-.08.75-.04.28-.11.62-.19,1.02-.07.27-.12.55-.16.83,0,.02.02.03.06.03.14-.01.28-.04.42-.08.14-.04.28-.08.42-.14Z"/>
  </g>
</svg>