<svg xmlns="http://www.w3.org/2000/svg" xmlns:xlink="http://www.w3.org/1999/xlink" width="289.292" height="539.501" viewBox="0 0 289.292 539.501">
  <defs>
    <clipPath id="clip-path">
      <rect id="Rechteck_2513" data-name="Rechteck 2513" width="266.124" height="226.216" fill="#ff6200"/>
    </clipPath>
    <clipPath id="clip-path-2">
      <rect id="Rechteck_2514" data-name="Rechteck 2514" width="146.05" height="98.892" fill="none"/>
    </clipPath>
  </defs>
  <g id="Gruppe_7668" data-name="Gruppe 7668" transform="translate(-1123.854 -455.25)">
    <path id="Pfad_3445" data-name="Pfad 3445" d="M41.693,99.641l10.331,9.581L10.59,164.888l11.033,5.084L0,195.8H45.53l18.9-28.663L48.6,156.612l32.889-52.177-9.76-10.683L136.709,0Z" transform="translate(1320.625 963.997) rotate(167)" fill="#ffce00"/>
    <path id="Pfad_3746" data-name="Pfad 3746" d="M41.693,99.641l10.331,9.581L10.59,164.888l11.033,5.085L0,195.8H45.53l18.9-28.663L48.6,156.612l32.889-52.177L71.727,93.752,136.71,0Z" transform="translate(1235.894 486.003) rotate(-13)" fill="#ffce00"/>
    <g id="Gruppe_6319" data-name="Gruppe 6319" transform="translate(1123.854 603.698)" style="isolation: isolate">
      <g id="Gruppe_6316" data-name="Gruppe 6316" transform="translate(0 0)">
        <g id="Gruppe_6302" data-name="Gruppe 6302" transform="translate(0 6.679)" style="isolation: isolate">
          <g id="Gruppe_6301" data-name="Gruppe 6301">
            <g id="Gruppe_6300" data-name="Gruppe 6300" clip-path="url(#clip-path)">
              <path id="Pfad_2859" data-name="Pfad 2859" d="M928.111,677.346s6.166,45.4,44.164,42.725,43.785-37.542,43.785-37.542-6.89,38.214,9.315,49.234c18.268,12.422,44.567-12.558,44.567-12.558s-23.863,30.339-13.877,53.965,51.06,28.639,51.06,28.639-32.8,5.552-46.016,28.231c-15.805,27.122-12.1,51.257-12.1,51.257s-17.7-23.415-50.826-19.275-43.134,41.54-43.134,41.54,10.159-32.475-18.827-44.654-78.251,17.49-78.251,17.49,30.244-21.561,22.636-62.768S841,758.787,841,758.787s42.147,7.932,66.871-14.256,20.24-67.185,20.24-67.185" transform="translate(-841 -677.347)" fill="#ff6200"/>
            </g>
          </g>
        </g>
        <path id="Pfad_2860" data-name="Pfad 2860" d="M953.951,643.348s6.166,45.4,44.164,42.725,43.784-37.542,43.784-37.542-6.89,38.214,9.315,49.234c18.268,12.422,44.567-12.558,44.567-12.558s-23.863,30.339-13.877,53.965,51.06,28.639,51.06,28.639-32.8,5.552-46.016,28.231c-15.805,27.122-12.1,51.257-12.1,51.257s-17.7-23.416-50.826-19.275-43.134,41.54-43.134,41.54,10.159-32.475-18.827-44.654-78.251,17.49-78.251,17.49,30.244-21.561,22.636-62.768-39.611-54.844-39.611-54.844,42.147,7.932,66.871-14.257,20.24-67.185,20.24-67.185" transform="translate(-861.765 -643.348)"/>
        <path id="Pfad_2861" data-name="Pfad 2861" d="M953.951,643.348s8.016,49.652,42.75,47.2,45.2-42.02,45.2-42.02-11.473,42.634,3.34,52.707c16.7,11.355,50.542-16.031,50.542-16.031s-31.617,32.285-22.488,53.882,59.671,28.722,59.671,28.722-39.41,2.035-53.437,27.068-4.676,52.419-4.676,52.419-23.6-26.273-53.882-22.488-40.078,44.754-40.078,44.754,9.351-40.968-17.144-52.1S883.815,842.4,883.815,842.4s36.049-28.659,29.1-66.326-46.07-51.286-46.07-51.286,48.388,8.4,70.989-11.88,16.122-69.561,16.122-69.561" transform="translate(-861.765 -643.348)" fill="#ffce00"/>
        <g id="Gruppe_6305" data-name="Gruppe 6305" transform="translate(56.619 71.524)" style="mix-blend-mode: multiply;isolation: isolate">
          <g id="Gruppe_6304" data-name="Gruppe 6304">
            <g id="Gruppe_6303" data-name="Gruppe 6303" clip-path="url(#clip-path-2)">
              <path id="Pfad_2862" data-name="Pfad 2862" d="M1248.1,1043.888c-.687-.363-1.374-.722-2.054-1.078-5.568-2.91-11.325-5.919-11.859-8.9a2.919,2.919,0,0,1,.23-1.671,8.043,8.043,0,0,1,3.6-.521c6.384.383,15.287,6.449,19.441,13.246l1.793,2.151,2.871-3.563,0,.006,13.18-15.54-.616-1.05a38.92,38.92,0,0,0-7.9-8.908,44.3,44.3,0,0,0-24.748-10.388c-.493-.046-.988-.084-1.471-.113-9.381-.563-16.739,2.073-21.87,7.835q-.37.415-.714.84-.857.692-1.651,1.472l1.412-5.557-24.614-1.56-3.43,3.43-12.24,44.759-17.771-45.327-27.008,7.51-3.43,3.43,35.793,79.56,27.61-3.125,3.43-3.43,3.2-12.6a49.066,49.066,0,0,0,3.11,5.177c4.841,7.031,11.127,12.076,18.177,14.589a31,31,0,0,0,8.55,1.758h0a31.259,31.259,0,0,0,19.58-5.592,32.552,32.552,0,0,0,6.1-5.5,32.044,32.044,0,0,0,9.468-13.966,28.6,28.6,0,0,0-2.059-23.488,35.492,35.492,0,0,0-14.116-13.9m-38.606.743c.153.386.313.77.489,1.147a21.694,21.694,0,0,0,12.521,11.147,39.217,39.217,0,0,1,14.363,9.21c3.448,3.661,4.94,7.253,4.2,10.115a9.364,9.364,0,0,1-.9,2.247,10.25,10.25,0,0,1-5.681,1.246,15.246,15.246,0,0,1-6.89-2.281c-6.542-3.907-8.822-12.6-8.844-12.683l-.62-2.46-16.108,11.709Z" transform="translate(-1129.256 -1007.489)" fill="#d1d3d4"/>
            </g>
          </g>
        </g>
        <path id="Pfad_2863" data-name="Pfad 2863" d="M1155.451,1010.9l3.43-3.43,23.577-4.079,19.239,49.072,14.2-51.934,3.43-3.43,21.184,4.99-18.23,81.816-3.43,3.43-27.61,3.125Z" transform="translate(-1093.688 -927.617)"/>
        <path id="Pfad_2864" data-name="Pfad 2864" d="M1531.449,1094.165a31,31,0,0,1-8.55-1.757c-7.05-2.514-13.336-7.559-18.177-14.589a44.648,44.648,0,0,1-5.247-9.983l-.4-1.195,17.957-13.053.619,2.46c.022.085,2.3,8.776,8.844,12.683a15.249,15.249,0,0,0,6.89,2.281,9.368,9.368,0,0,0,10.011-6.924c.739-2.862-.753-6.453-4.2-10.115a39.218,39.218,0,0,0-14.363-9.21,21.693,21.693,0,0,1-12.521-11.147,20.136,20.136,0,0,1-1.444-13.086c.925-3.747,2.629-9.26,6.73-13.864,5.131-5.762,12.49-8.4,21.87-7.835.483.029.977.067,1.471.113a44.3,44.3,0,0,1,24.748,10.389,38.916,38.916,0,0,1,7.9,8.908l.616,1.05-12.625,15.667-1.793-2.151c-4.155-6.8-13.058-12.863-19.441-13.246a6.751,6.751,0,0,0-5.717,2.017c-1.228,1.36-1.732,2.539-1.541,3.6.534,2.977,6.291,5.987,11.859,8.9.68.356,1.367.715,2.054,1.078a35.492,35.492,0,0,1,14.116,13.9,28.6,28.6,0,0,1,2.058,23.488,32.193,32.193,0,0,1-12.136,16.034,31.258,31.258,0,0,1-19.58,5.591h0" transform="translate(-1369.814 -928.948)"/>
        <path id="Pfad_2865" data-name="Pfad 2865" d="M1172.915,1007.471l27.008-7.51,19.239,49.072,14.2-51.934,24.614,1.56-21.66,85.246-27.61,3.125Z" transform="translate(-1107.721 -927.617)"/>
        <path id="Pfad_2866" data-name="Pfad 2866" d="M1185.049,1015.952l23.593-6.56,20.561,52.445,15.2-55.574,21.157,1.341L1244.7,1089.7l-25.189,2.851Z" transform="translate(-1117.472 -934.98)" fill="#ff6200"/>
        <path id="Pfad_2867" data-name="Pfad 2867" d="M1548.913,1076.7a30.988,30.988,0,0,1-8.55-1.758c-7.05-2.514-13.336-7.558-18.177-14.589a44.649,44.649,0,0,1-5.247-9.983l-.4-1.195,17.957-13.053.62,2.46c.022.085,2.3,8.776,8.843,12.683a15.249,15.249,0,0,0,6.891,2.281,9.368,9.368,0,0,0,10.011-6.923c.739-2.862-.753-6.454-4.2-10.115a39.214,39.214,0,0,0-14.363-9.21,21.692,21.692,0,0,1-12.521-11.147,20.136,20.136,0,0,1-1.444-13.087c.925-3.746,2.629-9.26,6.73-13.864,5.131-5.762,12.489-8.4,21.87-7.835.483.029.977.067,1.471.113a44.3,44.3,0,0,1,24.748,10.389,38.906,38.906,0,0,1,7.9,8.908l.616,1.049-13.18,15.54-1.237-2.024c-4.155-6.8-13.058-12.863-19.441-13.246a6.751,6.751,0,0,0-5.717,2.017c-1.228,1.36-1.732,2.539-1.541,3.6.534,2.977,6.291,5.987,11.859,8.9.68.356,1.367.715,2.054,1.078a35.492,35.492,0,0,1,14.116,13.9,28.6,28.6,0,0,1,2.058,23.489,32.193,32.193,0,0,1-12.136,16.034,31.258,31.258,0,0,1-19.58,5.591h0" transform="translate(-1383.847 -914.915)"/>
        <path id="Pfad_2868" data-name="Pfad 2868" d="M1587.008,1021.465l10.859-12.8a42.1,42.1,0,0,0-31.328-18.457c-21.682-2.022-26.58,13.542-28.246,20.289s.919,17.714,12.9,22.217,21.5,14.084,19.621,21.359-10.4,11.089-19.442,5.686c-7.26-4.336-9.627-13.737-9.627-13.737l-14.884,10.82s5.968,17.657,22.375,23.506,33.089-3.995,38.068-18.8c5.7-16.957-5.745-30.24-15.35-35.321s-19.135-9.274-12.843-16.244c6.5-7.2,21.987,1.819,27.894,11.484" transform="translate(-1392.148 -921.932)" fill="#ff6200"/>
      </g>
    </g>
  </g>
</svg>
