<svg xmlns="http://www.w3.org/2000/svg" width="43" height="43" viewBox="0 0 43 43">
  <g id="Gruppe_7666" data-name="Gruppe 7666" transform="translate(-1648.748 -50.891)">
    <circle id="Ellipse_16" data-name="Ellipse 16" cx="21.5" cy="21.5" r="21.5" transform="translate(1648.748 50.891)" fill="#00ff7e"/>
    <path id="Pfad_11933" data-name="Pfad 11933" d="M9.3-1.218q-.243-.278-.66-.85t-.59-.85a.188.188,0,0,0-.069-.087.188.188,0,0,1-.069-.087.1.1,0,0,0-.035-.069q-.035,0-.174.33t-.312.746l-.26.573a2.261,2.261,0,0,1-.364.5q-.555.59-.833.955T5.275.9q-.347.486-.5.712a1.168,1.168,0,0,1-.26.3l-.208.1-1.874.035q-.8,0-1.475-.017T.068,2.01q-1.076-.1-1.215-.451-.174-.243.1-.746a6.848,6.848,0,0,1,.9-1.2A20.411,20.411,0,0,0,1.457-2.4q.833-1.18,1.631-2.5.208-.347.451-.746t.417-.677a4.663,4.663,0,0,1,.33-.555q.191-.278.3-.417a1.62,1.62,0,0,0,.312-.451q.035-.035-.139-.417a9.011,9.011,0,0,1-.469-.8q-.156-.312-.364-.8-.278-.59-.451-.9a8.5,8.5,0,0,0-.555-.833q-.174-.243-.382-.555T2.151-12.6q-.174-.243-.347-.5l-.243-.364-.347-.434q-.208-.26-.4-.521T.485-14.9l-.208-.312a.771.771,0,0,1-.1-.243,1.357,1.357,0,0,0-.1-.278l-.087-.26a2.249,2.249,0,0,0-.121-.3q-.208-.451-.035-.66.1-.139.66-.139a2.875,2.875,0,0,1,.521.035A3.452,3.452,0,0,0,1.37-17q.191.017.4.017A7.245,7.245,0,0,0,3.5-17.221a5.173,5.173,0,0,1,.521-.1q.243-.035.521-.069a4.5,4.5,0,0,1,.5.017.86.86,0,0,1,.26.087.637.637,0,0,1,.33.243,3.125,3.125,0,0,1,.3.66A11.148,11.148,0,0,0,6.455-15.1q.243.486.66,1.18.243.382.451.764a5.965,5.965,0,0,1,.278.555q.069.174.156.4t.156.4l.174.347.1-.139A7.746,7.746,0,0,0,9.857-14.34q.278-.694.469-1.111t.538-1.007a5.059,5.059,0,0,1,.573-.816.778.778,0,0,1,.573-.191h.278a2.182,2.182,0,0,1,.347.035q.278.035.486.052t.451.017a8.026,8.026,0,0,0,1.25-.1,1.7,1.7,0,0,1,.469-.069h.781a.339.339,0,0,1,.243.069.658.658,0,0,1,.226.191.609.609,0,0,1,.052.3,1.449,1.449,0,0,1-.174.538q-.174.364-.59,1.059-.417.66-.59,1.007a7.6,7.6,0,0,0-.347.833,5.818,5.818,0,0,1-.312.9,6.627,6.627,0,0,1-.4.746,6.98,6.98,0,0,1-.555.764q-.33.4-.85.989-.486.59-.833,1.041a10.157,10.157,0,0,0-.694,1.041,4.773,4.773,0,0,0-.33.538.23.23,0,0,0-.017.191,3.427,3.427,0,0,0,.226.33l.469.642q.243.312.4.5t.347.4L12.756-5q.226.243.573.625a3.788,3.788,0,0,1,.382.434,4.723,4.723,0,0,1,.278.434q.312.555.521.937t.382.642q.174.26.33.486t.4.538q.174.174.417.434a5.072,5.072,0,0,0,.451.434,2.3,2.3,0,0,1,.8,1.389.485.485,0,0,1-.156.382,1.015,1.015,0,0,1-.382.208,2.1,2.1,0,0,1-.469.087q-.243.017-.417.017T15.5,2.027q-.191-.017-.469-.052-.486-.069-.833-.087t-.66-.017q-.243,0-.486.017t-.59.052a6.241,6.241,0,0,1-.9.1,1.086,1.086,0,0,1-.3-.035.8.8,0,0,1-.226-.1,1.684,1.684,0,0,1-.486-.937,5.223,5.223,0,0,0-.417-1.076A6.216,6.216,0,0,0,9.3-1.218ZM29.643-12.083q.069.347.1.642a4.133,4.133,0,0,1-.035.885,3.821,3.821,0,0,0-.017.607q.017.226.087.642.069.59.087,1.041a3.426,3.426,0,0,1-.052.8A3.064,3.064,0,0,1,28.949-5.8a3.8,3.8,0,0,1-1.631.972q-.347.1-.521.174a1.058,1.058,0,0,0-.347.243,7.75,7.75,0,0,1-1.475.885,4.22,4.22,0,0,1-1.684.3A1.419,1.419,0,0,1,22.84-3.3a.386.386,0,0,0-.174-.035v.4q0,.4.035.92t.052,1.007a6.121,6.121,0,0,0,.052.694,3.571,3.571,0,0,1,.052.469q.017.3.017.538A1.853,1.853,0,0,1,22.649,1.7a1.07,1.07,0,0,1-.955.347h-.26a1.544,1.544,0,0,1-.3-.035q-.174,0-.642-.017l-.955-.035q-.486-.017-.9-.052a1.375,1.375,0,0,1-.521-.1,1.494,1.494,0,0,1-.66-.8q-.1-.208-.174-.382a1.822,1.822,0,0,1-.1-.4Q17.147,0,17.129-.351t-.017-.9q-.035-.555-.052-1.18a5.358,5.358,0,0,0-.087-.937,14.254,14.254,0,0,1-.052-1.649,18.543,18.543,0,0,1,.156-2.031q.069-.833.121-1.389t.052-1.076q0-.521-.035-1.111t-.1-1.423q-.035-.625-.069-1.3t-.052-1.3a10.915,10.915,0,0,1,.017-1.093,6.243,6.243,0,0,1,.069-.642,2.086,2.086,0,0,1,.486-.9.652.652,0,0,1,.417-.243,1.766,1.766,0,0,1,.347-.035h1.232q.5,0,1.024.017t.972.069a3.575,3.575,0,0,1,.66.121.773.773,0,0,0,.347.069h.868a1.95,1.95,0,0,0,.382-.035l.972-.1a2.13,2.13,0,0,0,.3-.017,1.6,1.6,0,0,1,.226-.017,2.824,2.824,0,0,1,1.7.555,2.3,2.3,0,0,1,.937,1.493,2.145,2.145,0,0,1,.1.33,1.188,1.188,0,0,1,.035.226,4.419,4.419,0,0,0,.8,1.25,5.716,5.716,0,0,1,.486.746A3.241,3.241,0,0,1,29.643-12.083ZM23.534-8.369a3.324,3.324,0,0,0,.486-.364,1.494,1.494,0,0,0,.347-.5,1.2,1.2,0,0,0,.174-.573,4.386,4.386,0,0,0-.1-.781q-.1-.417-.139-.607a3.461,3.461,0,0,1,0-.712,5.463,5.463,0,0,0-.035-.781.7.7,0,0,0-.208-.364.432.432,0,0,0-.312-.139,1.958,1.958,0,0,0-.486.087,1.044,1.044,0,0,0-.382.156q-.069.069.035.521.069.417.1.746a4.561,4.561,0,0,1,.017.694,7.88,7.88,0,0,1-.087.816q-.069.451-.208,1.111a7.066,7.066,0,0,0-.174.9q0,.035.069.035a1.937,1.937,0,0,0,.451-.087A2.74,2.74,0,0,0,23.534-8.369Z" transform="translate(1655.919 80.152)" fill="#258b00"/>
  </g>
</svg>
