<svg xmlns="http://www.w3.org/2000/svg" width="43" height="43" viewBox="2146.607 50.891 43 43"><g data-name="bnb-bnb-logo"><path d="M2168.106 50.89c11.875 0 21.5 9.626 21.5 21.5 0 11.876-9.625 21.5-21.5 21.5s-21.5-9.624-21.5-21.5c0-11.874 9.625-21.5 21.5-21.5Z" fill="#f0b90b" fill-rule="evenodd" data-name="Pfad 2489"/><path d="m2158.454 72.43.016 5.603 4.76 2.801v3.28l-7.546-4.425v-8.897l2.77 1.639Zm0-5.602v3.265l-2.772-1.64v-3.265l2.772-1.64 2.786 1.64-2.786 1.64Zm6.764-1.64 2.772-1.64 2.786 1.64-2.786 1.64-2.772-1.64Z" fill="#fff" fill-rule="evenodd" data-name="Pfad 2490"/><path d="M2160.633 76.924v-3.28l2.773 1.64v3.265l-2.773-1.625Zm4.76 5.137 2.773 1.64 2.786-1.64v3.265l-2.786 1.64-2.772-1.64v-3.265Zm9.535-16.82 2.772-1.64 2.786 1.64v3.264l-2.786 1.64V66.88l-2.772-1.64Zm2.772 12.844.016-5.602 2.772-1.64v8.896l-7.546 4.426v-3.28l4.758-2.8Z" fill="#fff" fill-rule="evenodd" data-name="Pfad 2491"/><path d="m2175.743 76.892-2.772 1.625v-3.265l2.772-1.64v3.28Z" fill="#fff" fill-rule="evenodd" data-name="Pfad 2492"/><path d="m2175.646 67.857.016 3.28-4.774 2.802v5.616l-2.773 1.624-2.772-1.624v-5.616l-4.774-2.802v-3.28l2.784-1.64 4.745 2.815 4.774-2.815 2.786 1.64h-.012Zm-15.079-5.6 7.533-4.442 7.546 4.442-2.772 1.64-4.774-2.815-4.76 2.815-2.773-1.64Z" fill="#fff" fill-rule="evenodd" data-name="Pfad 2493"/></g></svg>