<svg xmlns="http://www.w3.org/2000/svg" width="28.851" height="29.398" viewBox="1522.875 55.891 28.851 29.398"><g data-name="podium"><g data-name="Gruppe 6336"><g data-name="Gruppe 6335"><path d="M1543.928 60.703a.963.963 0 0 0-.777-.654l-3.444-.501-1.54-3.121a.96.96 0 0 0-1.725 0l-1.541 3.121-3.445.5a.962.962 0 0 0-.533 1.641l2.494 2.43-.59 3.43a.961.961 0 0 0 1.396 1.014l3.081-1.62 3.08 1.62a.962.962 0 0 0 1.396-1.014l-.588-3.43 2.492-2.43a.963.963 0 0 0 .244-.986Z" fill="#00868b" fill-rule="evenodd" data-name="Pfad 3709"/></g></g><g data-name="Gruppe 6338"><g data-name="Gruppe 6337"><path d="M1541.148 70.543h-7.694a.962.962 0 0 0-.962.962v13.784h9.617V71.505a.962.962 0 0 0-.961-.962Z" fill="#00868b" fill-rule="evenodd" data-name="Pfad 3710"/></g></g><g data-name="Gruppe 6340"><g data-name="Gruppe 6339"><path d="M1523.837 74.39a.962.962 0 0 0-.962.962v9.177c0 .42.34.76.76.76h6.934v-10.9h-6.732Z" fill="#00868b" fill-rule="evenodd" data-name="Pfad 3711"/></g></g><g data-name="Gruppe 6342"><g data-name="Gruppe 6341"><path d="M1550.765 78.237h-6.732v7.052h6.933c.42 0 .76-.34.76-.76v-5.33a.962.962 0 0 0-.961-.962Z" fill="#00868b" fill-rule="evenodd" data-name="Pfad 3712"/></g></g></g></svg>