<svg xmlns="http://www.w3.org/2000/svg" width="25.461" height="22.733" viewBox="237.77 60 25.461 22.733"><g data-name="wallet (1)"><path d="M263.231 78.187v2.273a2.276 2.276 0 0 1-2.273 2.273h-19.551a3.641 3.641 0 0 1-3.637-3.637V63.637A3.641 3.641 0 0 1 241.407 60h16.823a1.364 1.364 0 1 1 0 2.728h-16.823a.91.91 0 0 0 0 1.819h19.55a2.276 2.276 0 0 1 2.274 2.273v2.273h-4.547a4.552 4.552 0 0 0-4.546 4.547 4.552 4.552 0 0 0 4.546 4.547h4.547Z" fill="#fff" fill-rule="evenodd" data-name="XMLID_436_"/><path d="M263.231 70.912v5.456h-4.547a2.728 2.728 0 1 1 0-5.456h4.547Z" fill="#fff" fill-rule="evenodd" data-name="XMLID_438_"/></g></svg>